<?xml version="1.0" encoding="utf-8" standalone="no"?>
<!DOCTYPE svg PUBLIC "-//W3C//DTD SVG 1.1//EN"
  "http://www.w3.org/Graphics/SVG/1.1/DTD/svg11.dtd">
<svg xmlns:xlink="http://www.w3.org/1999/xlink" width="377.404062pt" height="326.935725pt" viewBox="0 0 377.404062 326.935725" xmlns="http://www.w3.org/2000/svg" version="1.1">
 <metadata>
  <rdf:RDF xmlns:dc="http://purl.org/dc/elements/1.1/" xmlns:cc="http://creativecommons.org/ns#" xmlns:rdf="http://www.w3.org/1999/02/22-rdf-syntax-ns#">
   <cc:Work>
    <dc:type rdf:resource="http://purl.org/dc/dcmitype/StillImage"/>
    <dc:date>2026-06-08T11:02:27.613292</dc:date>
    <dc:format>image/svg+xml</dc:format>
    <dc:creator>
     <cc:Agent>
      <dc:title>Matplotlib v3.10.9, https://matplotlib.org/</dc:title>
     </cc:Agent>
    </dc:creator>
   </cc:Work>
  </rdf:RDF>
 </metadata>
 <defs>
  <style type="text/css">*{stroke-linejoin: round; stroke-linecap: butt}</style>
 </defs>
 <g id="figure_1">
  <g id="patch_1">
   <path d="M 0 326.935725 
L 377.404062 326.935725 
L 377.404062 0 
L 0 0 
z
" style="fill: #ffffff"/>
  </g>
  <g id="axes_1">
   <g id="text_1">
    <!-- 1+1+1 decomposition  =  theta graph -->
    <g style="fill: #222222" transform="translate(28.961406 27.997761) scale(0.15 -0.15)">
     <defs>
      <path id="DejaVuSans-Bold-31" d="M 750 831 
L 1813 831 
L 1813 3847 
L 722 3622 
L 722 4441 
L 1806 4666 
L 2950 4666 
L 2950 831 
L 4013 831 
L 4013 0 
L 750 0 
L 750 831 
z
" transform="scale(0.015625)"/>
      <path id="DejaVuSans-Bold-2b" d="M 3053 4013 
L 3053 2375 
L 4684 2375 
L 4684 1638 
L 3053 1638 
L 3053 0 
L 2309 0 
L 2309 1638 
L 678 1638 
L 678 2375 
L 2309 2375 
L 2309 4013 
L 3053 4013 
z
" transform="scale(0.015625)"/>
      <path id="DejaVuSans-Bold-20" transform="scale(0.015625)"/>
      <path id="DejaVuSans-Bold-64" d="M 2919 2988 
L 2919 4863 
L 4044 4863 
L 4044 0 
L 2919 0 
L 2919 506 
Q 2688 197 2409 53 
Q 2131 -91 1766 -91 
Q 1119 -91 703 423 
Q 288 938 288 1747 
Q 288 2556 703 3070 
Q 1119 3584 1766 3584 
Q 2128 3584 2408 3439 
Q 2688 3294 2919 2988 
z
M 2181 722 
Q 2541 722 2730 984 
Q 2919 1247 2919 1747 
Q 2919 2247 2730 2509 
Q 2541 2772 2181 2772 
Q 1825 2772 1636 2509 
Q 1447 2247 1447 1747 
Q 1447 1247 1636 984 
Q 1825 722 2181 722 
z
" transform="scale(0.015625)"/>
      <path id="DejaVuSans-Bold-65" d="M 4031 1759 
L 4031 1441 
L 1416 1441 
Q 1456 1047 1700 850 
Q 1944 653 2381 653 
Q 2734 653 3104 758 
Q 3475 863 3866 1075 
L 3866 213 
Q 3469 63 3072 -14 
Q 2675 -91 2278 -91 
Q 1328 -91 801 392 
Q 275 875 275 1747 
Q 275 2603 792 3093 
Q 1309 3584 2216 3584 
Q 3041 3584 3536 3087 
Q 4031 2591 4031 1759 
z
M 2881 2131 
Q 2881 2450 2695 2645 
Q 2509 2841 2209 2841 
Q 1884 2841 1681 2658 
Q 1478 2475 1428 2131 
L 2881 2131 
z
" transform="scale(0.015625)"/>
      <path id="DejaVuSans-Bold-63" d="M 3366 3391 
L 3366 2478 
Q 3138 2634 2908 2709 
Q 2678 2784 2431 2784 
Q 1963 2784 1702 2511 
Q 1441 2238 1441 1747 
Q 1441 1256 1702 982 
Q 1963 709 2431 709 
Q 2694 709 2930 787 
Q 3166 866 3366 1019 
L 3366 103 
Q 3103 6 2833 -42 
Q 2563 -91 2291 -91 
Q 1344 -91 809 395 
Q 275 881 275 1747 
Q 275 2613 809 3098 
Q 1344 3584 2291 3584 
Q 2566 3584 2833 3536 
Q 3100 3488 3366 3391 
z
" transform="scale(0.015625)"/>
      <path id="DejaVuSans-Bold-6f" d="M 2203 2784 
Q 1831 2784 1636 2517 
Q 1441 2250 1441 1747 
Q 1441 1244 1636 976 
Q 1831 709 2203 709 
Q 2569 709 2762 976 
Q 2956 1244 2956 1747 
Q 2956 2250 2762 2517 
Q 2569 2784 2203 2784 
z
M 2203 3584 
Q 3106 3584 3614 3096 
Q 4122 2609 4122 1747 
Q 4122 884 3614 396 
Q 3106 -91 2203 -91 
Q 1297 -91 786 396 
Q 275 884 275 1747 
Q 275 2609 786 3096 
Q 1297 3584 2203 3584 
z
" transform="scale(0.015625)"/>
      <path id="DejaVuSans-Bold-6d" d="M 3781 2919 
Q 3994 3244 4286 3414 
Q 4578 3584 4928 3584 
Q 5531 3584 5847 3212 
Q 6163 2841 6163 2131 
L 6163 0 
L 5038 0 
L 5038 1825 
Q 5041 1866 5042 1909 
Q 5044 1953 5044 2034 
Q 5044 2406 4934 2573 
Q 4825 2741 4581 2741 
Q 4263 2741 4089 2478 
Q 3916 2216 3909 1719 
L 3909 0 
L 2784 0 
L 2784 1825 
Q 2784 2406 2684 2573 
Q 2584 2741 2328 2741 
Q 2006 2741 1831 2477 
Q 1656 2213 1656 1722 
L 1656 0 
L 531 0 
L 531 3500 
L 1656 3500 
L 1656 2988 
Q 1863 3284 2130 3434 
Q 2397 3584 2719 3584 
Q 3081 3584 3359 3409 
Q 3638 3234 3781 2919 
z
" transform="scale(0.015625)"/>
      <path id="DejaVuSans-Bold-70" d="M 1656 506 
L 1656 -1331 
L 538 -1331 
L 538 3500 
L 1656 3500 
L 1656 2988 
Q 1888 3294 2169 3439 
Q 2450 3584 2816 3584 
Q 3463 3584 3878 3070 
Q 4294 2556 4294 1747 
Q 4294 938 3878 423 
Q 3463 -91 2816 -91 
Q 2450 -91 2169 54 
Q 1888 200 1656 506 
z
M 2400 2772 
Q 2041 2772 1848 2508 
Q 1656 2244 1656 1747 
Q 1656 1250 1848 986 
Q 2041 722 2400 722 
Q 2759 722 2948 984 
Q 3138 1247 3138 1747 
Q 3138 2247 2948 2509 
Q 2759 2772 2400 2772 
z
" transform="scale(0.015625)"/>
      <path id="DejaVuSans-Bold-73" d="M 3272 3391 
L 3272 2541 
Q 2913 2691 2578 2766 
Q 2244 2841 1947 2841 
Q 1628 2841 1473 2761 
Q 1319 2681 1319 2516 
Q 1319 2381 1436 2309 
Q 1553 2238 1856 2203 
L 2053 2175 
Q 2913 2066 3209 1816 
Q 3506 1566 3506 1031 
Q 3506 472 3093 190 
Q 2681 -91 1863 -91 
Q 1516 -91 1145 -36 
Q 775 19 384 128 
L 384 978 
Q 719 816 1070 734 
Q 1422 653 1784 653 
Q 2113 653 2278 743 
Q 2444 834 2444 1013 
Q 2444 1163 2330 1236 
Q 2216 1309 1875 1350 
L 1678 1375 
Q 931 1469 631 1722 
Q 331 1975 331 2491 
Q 331 3047 712 3315 
Q 1094 3584 1881 3584 
Q 2191 3584 2531 3537 
Q 2872 3491 3272 3391 
z
" transform="scale(0.015625)"/>
      <path id="DejaVuSans-Bold-69" d="M 538 3500 
L 1656 3500 
L 1656 0 
L 538 0 
L 538 3500 
z
M 538 4863 
L 1656 4863 
L 1656 3950 
L 538 3950 
L 538 4863 
z
" transform="scale(0.015625)"/>
      <path id="DejaVuSans-Bold-74" d="M 1759 4494 
L 1759 3500 
L 2913 3500 
L 2913 2700 
L 1759 2700 
L 1759 1216 
Q 1759 972 1856 886 
Q 1953 800 2241 800 
L 2816 800 
L 2816 0 
L 1856 0 
Q 1194 0 917 276 
Q 641 553 641 1216 
L 641 2700 
L 84 2700 
L 84 3500 
L 641 3500 
L 641 4494 
L 1759 4494 
z
" transform="scale(0.015625)"/>
      <path id="DejaVuSans-Bold-6e" d="M 4056 2131 
L 4056 0 
L 2931 0 
L 2931 347 
L 2931 1631 
Q 2931 2084 2911 2256 
Q 2891 2428 2841 2509 
Q 2775 2619 2662 2680 
Q 2550 2741 2406 2741 
Q 2056 2741 1856 2470 
Q 1656 2200 1656 1722 
L 1656 0 
L 538 0 
L 538 3500 
L 1656 3500 
L 1656 2988 
Q 1909 3294 2193 3439 
Q 2478 3584 2822 3584 
Q 3428 3584 3742 3212 
Q 4056 2841 4056 2131 
z
" transform="scale(0.015625)"/>
      <path id="DejaVuSans-Bold-3d" d="M 678 3084 
L 4684 3084 
L 4684 2350 
L 678 2350 
L 678 3084 
z
M 678 1663 
L 4684 1663 
L 4684 922 
L 678 922 
L 678 1663 
z
" transform="scale(0.015625)"/>
      <path id="DejaVuSans-Bold-68" d="M 4056 2131 
L 4056 0 
L 2931 0 
L 2931 347 
L 2931 1625 
Q 2931 2084 2911 2256 
Q 2891 2428 2841 2509 
Q 2775 2619 2662 2680 
Q 2550 2741 2406 2741 
Q 2056 2741 1856 2470 
Q 1656 2200 1656 1722 
L 1656 0 
L 538 0 
L 538 4863 
L 1656 4863 
L 1656 2988 
Q 1909 3294 2193 3439 
Q 2478 3584 2822 3584 
Q 3428 3584 3742 3212 
Q 4056 2841 4056 2131 
z
" transform="scale(0.015625)"/>
      <path id="DejaVuSans-Bold-61" d="M 2106 1575 
Q 1756 1575 1579 1456 
Q 1403 1338 1403 1106 
Q 1403 894 1545 773 
Q 1688 653 1941 653 
Q 2256 653 2472 879 
Q 2688 1106 2688 1447 
L 2688 1575 
L 2106 1575 
z
M 3816 1997 
L 3816 0 
L 2688 0 
L 2688 519 
Q 2463 200 2181 54 
Q 1900 -91 1497 -91 
Q 953 -91 614 226 
Q 275 544 275 1050 
Q 275 1666 698 1953 
Q 1122 2241 2028 2241 
L 2688 2241 
L 2688 2328 
Q 2688 2594 2478 2717 
Q 2269 2841 1825 2841 
Q 1466 2841 1156 2769 
Q 847 2697 581 2553 
L 581 3406 
Q 941 3494 1303 3539 
Q 1666 3584 2028 3584 
Q 2975 3584 3395 3211 
Q 3816 2838 3816 1997 
z
" transform="scale(0.015625)"/>
      <path id="DejaVuSans-Bold-67" d="M 2919 594 
Q 2688 288 2409 144 
Q 2131 0 1766 0 
Q 1125 0 706 504 
Q 288 1009 288 1791 
Q 288 2575 706 3076 
Q 1125 3578 1766 3578 
Q 2131 3578 2409 3434 
Q 2688 3291 2919 2981 
L 2919 3500 
L 4044 3500 
L 4044 353 
Q 4044 -491 3511 -936 
Q 2978 -1381 1966 -1381 
Q 1638 -1381 1331 -1331 
Q 1025 -1281 716 -1178 
L 716 -306 
Q 1009 -475 1290 -558 
Q 1572 -641 1856 -641 
Q 2406 -641 2662 -400 
Q 2919 -159 2919 353 
L 2919 594 
z
M 2181 2772 
Q 1834 2772 1640 2515 
Q 1447 2259 1447 1791 
Q 1447 1309 1634 1061 
Q 1822 813 2181 813 
Q 2531 813 2725 1069 
Q 2919 1325 2919 1791 
Q 2919 2259 2725 2515 
Q 2531 2772 2181 2772 
z
" transform="scale(0.015625)"/>
      <path id="DejaVuSans-Bold-72" d="M 3138 2547 
Q 2991 2616 2845 2648 
Q 2700 2681 2553 2681 
Q 2122 2681 1889 2404 
Q 1656 2128 1656 1613 
L 1656 0 
L 538 0 
L 538 3500 
L 1656 3500 
L 1656 2925 
Q 1872 3269 2151 3426 
Q 2431 3584 2822 3584 
Q 2878 3584 2943 3579 
Q 3009 3575 3134 3559 
L 3138 2547 
z
" transform="scale(0.015625)"/>
     </defs>
     <use xlink:href="#DejaVuSans-Bold-31"/>
     <use xlink:href="#DejaVuSans-Bold-2b" transform="translate(69.580078 0)"/>
     <use xlink:href="#DejaVuSans-Bold-31" transform="translate(153.369141 0)"/>
     <use xlink:href="#DejaVuSans-Bold-2b" transform="translate(222.949219 0)"/>
     <use xlink:href="#DejaVuSans-Bold-31" transform="translate(306.738281 0)"/>
     <use xlink:href="#DejaVuSans-Bold-20" transform="translate(376.318359 0)"/>
     <use xlink:href="#DejaVuSans-Bold-64" transform="translate(411.132812 0)"/>
     <use xlink:href="#DejaVuSans-Bold-65" transform="translate(482.714844 0)"/>
     <use xlink:href="#DejaVuSans-Bold-63" transform="translate(550.537109 0)"/>
     <use xlink:href="#DejaVuSans-Bold-6f" transform="translate(609.814453 0)"/>
     <use xlink:href="#DejaVuSans-Bold-6d" transform="translate(678.515625 0)"/>
     <use xlink:href="#DejaVuSans-Bold-70" transform="translate(782.714844 0)"/>
     <use xlink:href="#DejaVuSans-Bold-6f" transform="translate(854.296875 0)"/>
     <use xlink:href="#DejaVuSans-Bold-73" transform="translate(922.998047 0)"/>
     <use xlink:href="#DejaVuSans-Bold-69" transform="translate(982.519531 0)"/>
     <use xlink:href="#DejaVuSans-Bold-74" transform="translate(1016.796875 0)"/>
     <use xlink:href="#DejaVuSans-Bold-69" transform="translate(1064.599609 0)"/>
     <use xlink:href="#DejaVuSans-Bold-6f" transform="translate(1098.876953 0)"/>
     <use xlink:href="#DejaVuSans-Bold-6e" transform="translate(1167.578125 0)"/>
     <use xlink:href="#DejaVuSans-Bold-20" transform="translate(1238.769531 0)"/>
     <use xlink:href="#DejaVuSans-Bold-20" transform="translate(1273.583984 0)"/>
     <use xlink:href="#DejaVuSans-Bold-3d" transform="translate(1308.398438 0)"/>
     <use xlink:href="#DejaVuSans-Bold-20" transform="translate(1392.1875 0)"/>
     <use xlink:href="#DejaVuSans-Bold-20" transform="translate(1427.001953 0)"/>
     <use xlink:href="#DejaVuSans-Bold-74" transform="translate(1461.816406 0)"/>
     <use xlink:href="#DejaVuSans-Bold-68" transform="translate(1509.619141 0)"/>
     <use xlink:href="#DejaVuSans-Bold-65" transform="translate(1580.810547 0)"/>
     <use xlink:href="#DejaVuSans-Bold-74" transform="translate(1648.632812 0)"/>
     <use xlink:href="#DejaVuSans-Bold-61" transform="translate(1696.435547 0)"/>
     <use xlink:href="#DejaVuSans-Bold-20" transform="translate(1763.916016 0)"/>
     <use xlink:href="#DejaVuSans-Bold-67" transform="translate(1798.730469 0)"/>
     <use xlink:href="#DejaVuSans-Bold-72" transform="translate(1870.3125 0)"/>
     <use xlink:href="#DejaVuSans-Bold-61" transform="translate(1919.628906 0)"/>
     <use xlink:href="#DejaVuSans-Bold-70" transform="translate(1987.109375 0)"/>
     <use xlink:href="#DejaVuSans-Bold-68" transform="translate(2058.691406 0)"/>
    </g>
   </g>
   <g id="text_2">
    <!-- Two rigid footprint hubs, three 1-chains.  Cycle rank = 2: -->
    <g style="fill: #444444" transform="translate(47.111406 294.216037) scale(0.1 -0.1)">
     <defs>
      <path id="DejaVuSans-54" d="M -19 4666 
L 3928 4666 
L 3928 4134 
L 2272 4134 
L 2272 0 
L 1638 0 
L 1638 4134 
L -19 4134 
L -19 4666 
z
" transform="scale(0.015625)"/>
      <path id="DejaVuSans-77" d="M 269 3500 
L 844 3500 
L 1563 769 
L 2278 3500 
L 2956 3500 
L 3675 769 
L 4391 3500 
L 4966 3500 
L 4050 0 
L 3372 0 
L 2619 2869 
L 1863 0 
L 1184 0 
L 269 3500 
z
" transform="scale(0.015625)"/>
      <path id="DejaVuSans-6f" d="M 1959 3097 
Q 1497 3097 1228 2736 
Q 959 2375 959 1747 
Q 959 1119 1226 758 
Q 1494 397 1959 397 
Q 2419 397 2687 759 
Q 2956 1122 2956 1747 
Q 2956 2369 2687 2733 
Q 2419 3097 1959 3097 
z
M 1959 3584 
Q 2709 3584 3137 3096 
Q 3566 2609 3566 1747 
Q 3566 888 3137 398 
Q 2709 -91 1959 -91 
Q 1206 -91 779 398 
Q 353 888 353 1747 
Q 353 2609 779 3096 
Q 1206 3584 1959 3584 
z
" transform="scale(0.015625)"/>
      <path id="DejaVuSans-20" transform="scale(0.015625)"/>
      <path id="DejaVuSans-72" d="M 2631 2963 
Q 2534 3019 2420 3045 
Q 2306 3072 2169 3072 
Q 1681 3072 1420 2755 
Q 1159 2438 1159 1844 
L 1159 0 
L 581 0 
L 581 3500 
L 1159 3500 
L 1159 2956 
Q 1341 3275 1631 3429 
Q 1922 3584 2338 3584 
Q 2397 3584 2469 3576 
Q 2541 3569 2628 3553 
L 2631 2963 
z
" transform="scale(0.015625)"/>
      <path id="DejaVuSans-69" d="M 603 3500 
L 1178 3500 
L 1178 0 
L 603 0 
L 603 3500 
z
M 603 4863 
L 1178 4863 
L 1178 4134 
L 603 4134 
L 603 4863 
z
" transform="scale(0.015625)"/>
      <path id="DejaVuSans-67" d="M 2906 1791 
Q 2906 2416 2648 2759 
Q 2391 3103 1925 3103 
Q 1463 3103 1205 2759 
Q 947 2416 947 1791 
Q 947 1169 1205 825 
Q 1463 481 1925 481 
Q 2391 481 2648 825 
Q 2906 1169 2906 1791 
z
M 3481 434 
Q 3481 -459 3084 -895 
Q 2688 -1331 1869 -1331 
Q 1566 -1331 1297 -1286 
Q 1028 -1241 775 -1147 
L 775 -588 
Q 1028 -725 1275 -790 
Q 1522 -856 1778 -856 
Q 2344 -856 2625 -561 
Q 2906 -266 2906 331 
L 2906 616 
Q 2728 306 2450 153 
Q 2172 0 1784 0 
Q 1141 0 747 490 
Q 353 981 353 1791 
Q 353 2603 747 3093 
Q 1141 3584 1784 3584 
Q 2172 3584 2450 3431 
Q 2728 3278 2906 2969 
L 2906 3500 
L 3481 3500 
L 3481 434 
z
" transform="scale(0.015625)"/>
      <path id="DejaVuSans-64" d="M 2906 2969 
L 2906 4863 
L 3481 4863 
L 3481 0 
L 2906 0 
L 2906 525 
Q 2725 213 2448 61 
Q 2172 -91 1784 -91 
Q 1150 -91 751 415 
Q 353 922 353 1747 
Q 353 2572 751 3078 
Q 1150 3584 1784 3584 
Q 2172 3584 2448 3432 
Q 2725 3281 2906 2969 
z
M 947 1747 
Q 947 1113 1208 752 
Q 1469 391 1925 391 
Q 2381 391 2643 752 
Q 2906 1113 2906 1747 
Q 2906 2381 2643 2742 
Q 2381 3103 1925 3103 
Q 1469 3103 1208 2742 
Q 947 2381 947 1747 
z
" transform="scale(0.015625)"/>
      <path id="DejaVuSans-66" d="M 2375 4863 
L 2375 4384 
L 1825 4384 
Q 1516 4384 1395 4259 
Q 1275 4134 1275 3809 
L 1275 3500 
L 2222 3500 
L 2222 3053 
L 1275 3053 
L 1275 0 
L 697 0 
L 697 3053 
L 147 3053 
L 147 3500 
L 697 3500 
L 697 3744 
Q 697 4328 969 4595 
Q 1241 4863 1831 4863 
L 2375 4863 
z
" transform="scale(0.015625)"/>
      <path id="DejaVuSans-74" d="M 1172 4494 
L 1172 3500 
L 2356 3500 
L 2356 3053 
L 1172 3053 
L 1172 1153 
Q 1172 725 1289 603 
Q 1406 481 1766 481 
L 2356 481 
L 2356 0 
L 1766 0 
Q 1100 0 847 248 
Q 594 497 594 1153 
L 594 3053 
L 172 3053 
L 172 3500 
L 594 3500 
L 594 4494 
L 1172 4494 
z
" transform="scale(0.015625)"/>
      <path id="DejaVuSans-70" d="M 1159 525 
L 1159 -1331 
L 581 -1331 
L 581 3500 
L 1159 3500 
L 1159 2969 
Q 1341 3281 1617 3432 
Q 1894 3584 2278 3584 
Q 2916 3584 3314 3078 
Q 3713 2572 3713 1747 
Q 3713 922 3314 415 
Q 2916 -91 2278 -91 
Q 1894 -91 1617 61 
Q 1341 213 1159 525 
z
M 3116 1747 
Q 3116 2381 2855 2742 
Q 2594 3103 2138 3103 
Q 1681 3103 1420 2742 
Q 1159 2381 1159 1747 
Q 1159 1113 1420 752 
Q 1681 391 2138 391 
Q 2594 391 2855 752 
Q 3116 1113 3116 1747 
z
" transform="scale(0.015625)"/>
      <path id="DejaVuSans-6e" d="M 3513 2113 
L 3513 0 
L 2938 0 
L 2938 2094 
Q 2938 2591 2744 2837 
Q 2550 3084 2163 3084 
Q 1697 3084 1428 2787 
Q 1159 2491 1159 1978 
L 1159 0 
L 581 0 
L 581 3500 
L 1159 3500 
L 1159 2956 
Q 1366 3272 1645 3428 
Q 1925 3584 2291 3584 
Q 2894 3584 3203 3211 
Q 3513 2838 3513 2113 
z
" transform="scale(0.015625)"/>
      <path id="DejaVuSans-68" d="M 3513 2113 
L 3513 0 
L 2938 0 
L 2938 2094 
Q 2938 2591 2744 2837 
Q 2550 3084 2163 3084 
Q 1697 3084 1428 2787 
Q 1159 2491 1159 1978 
L 1159 0 
L 581 0 
L 581 4863 
L 1159 4863 
L 1159 2956 
Q 1366 3272 1645 3428 
Q 1925 3584 2291 3584 
Q 2894 3584 3203 3211 
Q 3513 2838 3513 2113 
z
" transform="scale(0.015625)"/>
      <path id="DejaVuSans-75" d="M 544 1381 
L 544 3500 
L 1119 3500 
L 1119 1403 
Q 1119 906 1312 657 
Q 1506 409 1894 409 
Q 2359 409 2629 706 
Q 2900 1003 2900 1516 
L 2900 3500 
L 3475 3500 
L 3475 0 
L 2900 0 
L 2900 538 
Q 2691 219 2414 64 
Q 2138 -91 1772 -91 
Q 1169 -91 856 284 
Q 544 659 544 1381 
z
M 1991 3584 
L 1991 3584 
z
" transform="scale(0.015625)"/>
      <path id="DejaVuSans-62" d="M 3116 1747 
Q 3116 2381 2855 2742 
Q 2594 3103 2138 3103 
Q 1681 3103 1420 2742 
Q 1159 2381 1159 1747 
Q 1159 1113 1420 752 
Q 1681 391 2138 391 
Q 2594 391 2855 752 
Q 3116 1113 3116 1747 
z
M 1159 2969 
Q 1341 3281 1617 3432 
Q 1894 3584 2278 3584 
Q 2916 3584 3314 3078 
Q 3713 2572 3713 1747 
Q 3713 922 3314 415 
Q 2916 -91 2278 -91 
Q 1894 -91 1617 61 
Q 1341 213 1159 525 
L 1159 0 
L 581 0 
L 581 4863 
L 1159 4863 
L 1159 2969 
z
" transform="scale(0.015625)"/>
      <path id="DejaVuSans-73" d="M 2834 3397 
L 2834 2853 
Q 2591 2978 2328 3040 
Q 2066 3103 1784 3103 
Q 1356 3103 1142 2972 
Q 928 2841 928 2578 
Q 928 2378 1081 2264 
Q 1234 2150 1697 2047 
L 1894 2003 
Q 2506 1872 2764 1633 
Q 3022 1394 3022 966 
Q 3022 478 2636 193 
Q 2250 -91 1575 -91 
Q 1294 -91 989 -36 
Q 684 19 347 128 
L 347 722 
Q 666 556 975 473 
Q 1284 391 1588 391 
Q 1994 391 2212 530 
Q 2431 669 2431 922 
Q 2431 1156 2273 1281 
Q 2116 1406 1581 1522 
L 1381 1569 
Q 847 1681 609 1914 
Q 372 2147 372 2553 
Q 372 3047 722 3315 
Q 1072 3584 1716 3584 
Q 2034 3584 2315 3537 
Q 2597 3491 2834 3397 
z
" transform="scale(0.015625)"/>
      <path id="DejaVuSans-2c" d="M 750 794 
L 1409 794 
L 1409 256 
L 897 -744 
L 494 -744 
L 750 256 
L 750 794 
z
" transform="scale(0.015625)"/>
      <path id="DejaVuSans-65" d="M 3597 1894 
L 3597 1613 
L 953 1613 
Q 991 1019 1311 708 
Q 1631 397 2203 397 
Q 2534 397 2845 478 
Q 3156 559 3463 722 
L 3463 178 
Q 3153 47 2828 -22 
Q 2503 -91 2169 -91 
Q 1331 -91 842 396 
Q 353 884 353 1716 
Q 353 2575 817 3079 
Q 1281 3584 2069 3584 
Q 2775 3584 3186 3129 
Q 3597 2675 3597 1894 
z
M 3022 2063 
Q 3016 2534 2758 2815 
Q 2500 3097 2075 3097 
Q 1594 3097 1305 2825 
Q 1016 2553 972 2059 
L 3022 2063 
z
" transform="scale(0.015625)"/>
      <path id="DejaVuSans-31" d="M 794 531 
L 1825 531 
L 1825 4091 
L 703 3866 
L 703 4441 
L 1819 4666 
L 2450 4666 
L 2450 531 
L 3481 531 
L 3481 0 
L 794 0 
L 794 531 
z
" transform="scale(0.015625)"/>
      <path id="DejaVuSans-2d" d="M 313 2009 
L 1997 2009 
L 1997 1497 
L 313 1497 
L 313 2009 
z
" transform="scale(0.015625)"/>
      <path id="DejaVuSans-63" d="M 3122 3366 
L 3122 2828 
Q 2878 2963 2633 3030 
Q 2388 3097 2138 3097 
Q 1578 3097 1268 2742 
Q 959 2388 959 1747 
Q 959 1106 1268 751 
Q 1578 397 2138 397 
Q 2388 397 2633 464 
Q 2878 531 3122 666 
L 3122 134 
Q 2881 22 2623 -34 
Q 2366 -91 2075 -91 
Q 1284 -91 818 406 
Q 353 903 353 1747 
Q 353 2603 823 3093 
Q 1294 3584 2113 3584 
Q 2378 3584 2631 3529 
Q 2884 3475 3122 3366 
z
" transform="scale(0.015625)"/>
      <path id="DejaVuSans-61" d="M 2194 1759 
Q 1497 1759 1228 1600 
Q 959 1441 959 1056 
Q 959 750 1161 570 
Q 1363 391 1709 391 
Q 2188 391 2477 730 
Q 2766 1069 2766 1631 
L 2766 1759 
L 2194 1759 
z
M 3341 1997 
L 3341 0 
L 2766 0 
L 2766 531 
Q 2569 213 2275 61 
Q 1981 -91 1556 -91 
Q 1019 -91 701 211 
Q 384 513 384 1019 
Q 384 1609 779 1909 
Q 1175 2209 1959 2209 
L 2766 2209 
L 2766 2266 
Q 2766 2663 2505 2880 
Q 2244 3097 1772 3097 
Q 1472 3097 1187 3025 
Q 903 2953 641 2809 
L 641 3341 
Q 956 3463 1253 3523 
Q 1550 3584 1831 3584 
Q 2591 3584 2966 3190 
Q 3341 2797 3341 1997 
z
" transform="scale(0.015625)"/>
      <path id="DejaVuSans-2e" d="M 684 794 
L 1344 794 
L 1344 0 
L 684 0 
L 684 794 
z
" transform="scale(0.015625)"/>
      <path id="DejaVuSans-43" d="M 4122 4306 
L 4122 3641 
Q 3803 3938 3442 4084 
Q 3081 4231 2675 4231 
Q 1875 4231 1450 3742 
Q 1025 3253 1025 2328 
Q 1025 1406 1450 917 
Q 1875 428 2675 428 
Q 3081 428 3442 575 
Q 3803 722 4122 1019 
L 4122 359 
Q 3791 134 3420 21 
Q 3050 -91 2638 -91 
Q 1578 -91 968 557 
Q 359 1206 359 2328 
Q 359 3453 968 4101 
Q 1578 4750 2638 4750 
Q 3056 4750 3426 4639 
Q 3797 4528 4122 4306 
z
" transform="scale(0.015625)"/>
      <path id="DejaVuSans-79" d="M 2059 -325 
Q 1816 -950 1584 -1140 
Q 1353 -1331 966 -1331 
L 506 -1331 
L 506 -850 
L 844 -850 
Q 1081 -850 1212 -737 
Q 1344 -625 1503 -206 
L 1606 56 
L 191 3500 
L 800 3500 
L 1894 763 
L 2988 3500 
L 3597 3500 
L 2059 -325 
z
" transform="scale(0.015625)"/>
      <path id="DejaVuSans-6c" d="M 603 4863 
L 1178 4863 
L 1178 0 
L 603 0 
L 603 4863 
z
" transform="scale(0.015625)"/>
      <path id="DejaVuSans-6b" d="M 581 4863 
L 1159 4863 
L 1159 1991 
L 2875 3500 
L 3609 3500 
L 1753 1863 
L 3688 0 
L 2938 0 
L 1159 1709 
L 1159 0 
L 581 0 
L 581 4863 
z
" transform="scale(0.015625)"/>
      <path id="DejaVuSans-3d" d="M 678 2906 
L 4684 2906 
L 4684 2381 
L 678 2381 
L 678 2906 
z
M 678 1631 
L 4684 1631 
L 4684 1100 
L 678 1100 
L 678 1631 
z
" transform="scale(0.015625)"/>
      <path id="DejaVuSans-32" d="M 1228 531 
L 3431 531 
L 3431 0 
L 469 0 
L 469 531 
Q 828 903 1448 1529 
Q 2069 2156 2228 2338 
Q 2531 2678 2651 2914 
Q 2772 3150 2772 3378 
Q 2772 3750 2511 3984 
Q 2250 4219 1831 4219 
Q 1534 4219 1204 4116 
Q 875 4013 500 3803 
L 500 4441 
Q 881 4594 1212 4672 
Q 1544 4750 1819 4750 
Q 2544 4750 2975 4387 
Q 3406 4025 3406 3419 
Q 3406 3131 3298 2873 
Q 3191 2616 2906 2266 
Q 2828 2175 2409 1742 
Q 1991 1309 1228 531 
z
" transform="scale(0.015625)"/>
      <path id="DejaVuSans-3a" d="M 750 794 
L 1409 794 
L 1409 0 
L 750 0 
L 750 794 
z
M 750 3309 
L 1409 3309 
L 1409 2516 
L 750 2516 
L 750 3309 
z
" transform="scale(0.015625)"/>
     </defs>
     <use xlink:href="#DejaVuSans-54"/>
     <use xlink:href="#DejaVuSans-77" transform="translate(44.583984 0)"/>
     <use xlink:href="#DejaVuSans-6f" transform="translate(126.371094 0)"/>
     <use xlink:href="#DejaVuSans-20" transform="translate(187.552734 0)"/>
     <use xlink:href="#DejaVuSans-72" transform="translate(219.339844 0)"/>
     <use xlink:href="#DejaVuSans-69" transform="translate(260.453125 0)"/>
     <use xlink:href="#DejaVuSans-67" transform="translate(288.236328 0)"/>
     <use xlink:href="#DejaVuSans-69" transform="translate(351.712891 0)"/>
     <use xlink:href="#DejaVuSans-64" transform="translate(379.496094 0)"/>
     <use xlink:href="#DejaVuSans-20" transform="translate(442.972656 0)"/>
     <use xlink:href="#DejaVuSans-66" transform="translate(474.759766 0)"/>
     <use xlink:href="#DejaVuSans-6f" transform="translate(509.964844 0)"/>
     <use xlink:href="#DejaVuSans-6f" transform="translate(571.146484 0)"/>
     <use xlink:href="#DejaVuSans-74" transform="translate(632.328125 0)"/>
     <use xlink:href="#DejaVuSans-70" transform="translate(671.537109 0)"/>
     <use xlink:href="#DejaVuSans-72" transform="translate(735.013672 0)"/>
     <use xlink:href="#DejaVuSans-69" transform="translate(776.126953 0)"/>
     <use xlink:href="#DejaVuSans-6e" transform="translate(803.910156 0)"/>
     <use xlink:href="#DejaVuSans-74" transform="translate(867.289062 0)"/>
     <use xlink:href="#DejaVuSans-20" transform="translate(906.498047 0)"/>
     <use xlink:href="#DejaVuSans-68" transform="translate(938.285156 0)"/>
     <use xlink:href="#DejaVuSans-75" transform="translate(1001.664062 0)"/>
     <use xlink:href="#DejaVuSans-62" transform="translate(1065.042969 0)"/>
     <use xlink:href="#DejaVuSans-73" transform="translate(1128.519531 0)"/>
     <use xlink:href="#DejaVuSans-2c" transform="translate(1180.619141 0)"/>
     <use xlink:href="#DejaVuSans-20" transform="translate(1212.40625 0)"/>
     <use xlink:href="#DejaVuSans-74" transform="translate(1244.193359 0)"/>
     <use xlink:href="#DejaVuSans-68" transform="translate(1283.402344 0)"/>
     <use xlink:href="#DejaVuSans-72" transform="translate(1346.78125 0)"/>
     <use xlink:href="#DejaVuSans-65" transform="translate(1385.644531 0)"/>
     <use xlink:href="#DejaVuSans-65" transform="translate(1447.167969 0)"/>
     <use xlink:href="#DejaVuSans-20" transform="translate(1508.691406 0)"/>
     <use xlink:href="#DejaVuSans-31" transform="translate(1540.478516 0)"/>
     <use xlink:href="#DejaVuSans-2d" transform="translate(1604.101562 0)"/>
     <use xlink:href="#DejaVuSans-63" transform="translate(1640.185547 0)"/>
     <use xlink:href="#DejaVuSans-68" transform="translate(1695.166016 0)"/>
     <use xlink:href="#DejaVuSans-61" transform="translate(1758.544922 0)"/>
     <use xlink:href="#DejaVuSans-69" transform="translate(1819.824219 0)"/>
     <use xlink:href="#DejaVuSans-6e" transform="translate(1847.607422 0)"/>
     <use xlink:href="#DejaVuSans-73" transform="translate(1910.986328 0)"/>
     <use xlink:href="#DejaVuSans-2e" transform="translate(1963.085938 0)"/>
     <use xlink:href="#DejaVuSans-20" transform="translate(1994.873047 0)"/>
     <use xlink:href="#DejaVuSans-20" transform="translate(2026.660156 0)"/>
     <use xlink:href="#DejaVuSans-43" transform="translate(2058.447266 0)"/>
     <use xlink:href="#DejaVuSans-79" transform="translate(2128.271484 0)"/>
     <use xlink:href="#DejaVuSans-63" transform="translate(2187.451172 0)"/>
     <use xlink:href="#DejaVuSans-6c" transform="translate(2242.431641 0)"/>
     <use xlink:href="#DejaVuSans-65" transform="translate(2270.214844 0)"/>
     <use xlink:href="#DejaVuSans-20" transform="translate(2331.738281 0)"/>
     <use xlink:href="#DejaVuSans-72" transform="translate(2363.525391 0)"/>
     <use xlink:href="#DejaVuSans-61" transform="translate(2404.638672 0)"/>
     <use xlink:href="#DejaVuSans-6e" transform="translate(2465.917969 0)"/>
     <use xlink:href="#DejaVuSans-6b" transform="translate(2529.296875 0)"/>
     <use xlink:href="#DejaVuSans-20" transform="translate(2587.207031 0)"/>
     <use xlink:href="#DejaVuSans-3d" transform="translate(2618.994141 0)"/>
     <use xlink:href="#DejaVuSans-20" transform="translate(2702.783203 0)"/>
     <use xlink:href="#DejaVuSans-32" transform="translate(2734.570312 0)"/>
     <use xlink:href="#DejaVuSans-3a" transform="translate(2798.193359 0)"/>
    </g>
    <!-- $L_{AB},\ L_{BC}$ independent; $L_{AC}=L_{AB}+L_{BC}$ (dependent). -->
    <g style="fill: #444444" transform="translate(62.902031 305.415725) scale(0.1 -0.1)">
     <defs>
      <path id="DejaVuSans-Oblique-4c" d="M 1075 4666 
L 1709 4666 
L 909 525 
L 3181 525 
L 3078 0 
L 172 0 
L 1075 4666 
z
" transform="scale(0.015625)"/>
      <path id="DejaVuSans-Oblique-41" d="M 2356 4666 
L 3072 4666 
L 3938 0 
L 3278 0 
L 3084 1197 
L 984 1197 
L 325 0 
L -341 0 
L 2356 4666 
z
M 2584 4044 
L 1275 1722 
L 2988 1722 
L 2584 4044 
z
" transform="scale(0.015625)"/>
      <path id="DejaVuSans-Oblique-42" d="M 1081 4666 
L 2694 4666 
Q 3350 4666 3675 4422 
Q 4000 4178 4000 3688 
Q 4000 3238 3720 2911 
Q 3441 2584 2988 2516 
Q 3375 2428 3569 2181 
Q 3763 1934 3763 1522 
Q 3763 819 3242 409 
Q 2722 0 1819 0 
L 172 0 
L 1081 4666 
z
M 1234 2228 
L 903 519 
L 1919 519 
Q 2491 519 2800 781 
Q 3109 1044 3109 1522 
Q 3109 1891 2904 2059 
Q 2700 2228 2247 2228 
L 1234 2228 
z
M 1606 4147 
L 1331 2741 
L 2272 2741 
Q 2775 2741 3058 2959 
Q 3341 3178 3341 3566 
Q 3341 3869 3150 4008 
Q 2959 4147 2541 4147 
L 1606 4147 
z
" transform="scale(0.015625)"/>
      <path id="DejaVuSans-Oblique-43" d="M 4447 4306 
L 4319 3641 
Q 4019 3944 3683 4091 
Q 3347 4238 2956 4238 
Q 2422 4238 2017 3981 
Q 1613 3725 1319 3200 
Q 1131 2863 1032 2486 
Q 934 2109 934 1728 
Q 934 1091 1264 756 
Q 1594 422 2222 422 
Q 2656 422 3056 561 
Q 3456 700 3834 978 
L 3688 231 
Q 3316 72 2936 -9 
Q 2556 -91 2175 -91 
Q 1278 -91 773 396 
Q 269 884 269 1753 
Q 269 2309 461 2846 
Q 653 3384 1013 3828 
Q 1394 4300 1883 4525 
Q 2372 4750 3022 4750 
Q 3422 4750 3780 4639 
Q 4138 4528 4447 4306 
z
" transform="scale(0.015625)"/>
      <path id="DejaVuSans-3b" d="M 750 3309 
L 1409 3309 
L 1409 2516 
L 750 2516 
L 750 3309 
z
M 750 794 
L 1409 794 
L 1409 256 
L 897 -744 
L 494 -744 
L 750 256 
L 750 794 
z
" transform="scale(0.015625)"/>
      <path id="DejaVuSans-2b" d="M 2944 4013 
L 2944 2272 
L 4684 2272 
L 4684 1741 
L 2944 1741 
L 2944 0 
L 2419 0 
L 2419 1741 
L 678 1741 
L 678 2272 
L 2419 2272 
L 2419 4013 
L 2944 4013 
z
" transform="scale(0.015625)"/>
      <path id="DejaVuSans-28" d="M 1984 4856 
Q 1566 4138 1362 3434 
Q 1159 2731 1159 2009 
Q 1159 1288 1364 580 
Q 1569 -128 1984 -844 
L 1484 -844 
Q 1016 -109 783 600 
Q 550 1309 550 2009 
Q 550 2706 781 3412 
Q 1013 4119 1484 4856 
L 1984 4856 
z
" transform="scale(0.015625)"/>
      <path id="DejaVuSans-29" d="M 513 4856 
L 1013 4856 
Q 1481 4119 1714 3412 
Q 1947 2706 1947 2009 
Q 1947 1309 1714 600 
Q 1481 -109 1013 -844 
L 513 -844 
Q 928 -128 1133 580 
Q 1338 1288 1338 2009 
Q 1338 2731 1133 3434 
Q 928 4138 513 4856 
z
" transform="scale(0.015625)"/>
     </defs>
     <use xlink:href="#DejaVuSans-Oblique-4c" transform="translate(0 0.015625)"/>
     <use xlink:href="#DejaVuSans-Oblique-41" transform="translate(55.712891 -16.390625) scale(0.7)"/>
     <use xlink:href="#DejaVuSans-Oblique-42" transform="translate(103.598633 -16.390625) scale(0.7)"/>
     <use xlink:href="#DejaVuSans-2c" transform="translate(154.355469 0.015625)"/>
     <use xlink:href="#DejaVuSans-Oblique-4c" transform="translate(238.095378 0.015625)"/>
     <use xlink:href="#DejaVuSans-Oblique-42" transform="translate(293.808269 -16.390625) scale(0.7)"/>
     <use xlink:href="#DejaVuSans-Oblique-43" transform="translate(341.83073 -16.390625) scale(0.7)"/>
     <use xlink:href="#DejaVuSans-20" transform="translate(393.442058 0.015625)"/>
     <use xlink:href="#DejaVuSans-69" transform="translate(425.229167 0.015625)"/>
     <use xlink:href="#DejaVuSans-6e" transform="translate(453.012371 0.015625)"/>
     <use xlink:href="#DejaVuSans-64" transform="translate(516.391277 0.015625)"/>
     <use xlink:href="#DejaVuSans-65" transform="translate(579.867839 0.015625)"/>
     <use xlink:href="#DejaVuSans-70" transform="translate(641.391277 0.015625)"/>
     <use xlink:href="#DejaVuSans-65" transform="translate(704.867839 0.015625)"/>
     <use xlink:href="#DejaVuSans-6e" transform="translate(766.391277 0.015625)"/>
     <use xlink:href="#DejaVuSans-64" transform="translate(829.770183 0.015625)"/>
     <use xlink:href="#DejaVuSans-65" transform="translate(893.246746 0.015625)"/>
     <use xlink:href="#DejaVuSans-6e" transform="translate(954.770183 0.015625)"/>
     <use xlink:href="#DejaVuSans-74" transform="translate(1018.149089 0.015625)"/>
     <use xlink:href="#DejaVuSans-3b" transform="translate(1057.358074 0.015625)"/>
     <use xlink:href="#DejaVuSans-20" transform="translate(1091.04948 0.015625)"/>
     <use xlink:href="#DejaVuSans-Oblique-4c" transform="translate(1122.836589 0.015625)"/>
     <use xlink:href="#DejaVuSans-Oblique-41" transform="translate(1178.54948 -16.390625) scale(0.7)"/>
     <use xlink:href="#DejaVuSans-Oblique-43" transform="translate(1226.435222 -16.390625) scale(0.7)"/>
     <use xlink:href="#DejaVuSans-3d" transform="translate(1297.528972 0.015625)"/>
     <use xlink:href="#DejaVuSans-Oblique-4c" transform="translate(1400.800457 0.015625)"/>
     <use xlink:href="#DejaVuSans-Oblique-41" transform="translate(1456.513347 -16.390625) scale(0.7)"/>
     <use xlink:href="#DejaVuSans-Oblique-42" transform="translate(1504.399089 -16.390625) scale(0.7)"/>
     <use xlink:href="#DejaVuSans-2b" transform="translate(1574.638347 0.015625)"/>
     <use xlink:href="#DejaVuSans-Oblique-4c" transform="translate(1677.909832 0.015625)"/>
     <use xlink:href="#DejaVuSans-Oblique-42" transform="translate(1733.622722 -16.390625) scale(0.7)"/>
     <use xlink:href="#DejaVuSans-Oblique-43" transform="translate(1781.645183 -16.390625) scale(0.7)"/>
     <use xlink:href="#DejaVuSans-20" transform="translate(1833.256511 0.015625)"/>
     <use xlink:href="#DejaVuSans-28" transform="translate(1865.043621 0.015625)"/>
     <use xlink:href="#DejaVuSans-64" transform="translate(1904.057292 0.015625)"/>
     <use xlink:href="#DejaVuSans-65" transform="translate(1967.533855 0.015625)"/>
     <use xlink:href="#DejaVuSans-70" transform="translate(2029.057292 0.015625)"/>
     <use xlink:href="#DejaVuSans-65" transform="translate(2092.533855 0.015625)"/>
     <use xlink:href="#DejaVuSans-6e" transform="translate(2154.057292 0.015625)"/>
     <use xlink:href="#DejaVuSans-64" transform="translate(2217.436199 0.015625)"/>
     <use xlink:href="#DejaVuSans-65" transform="translate(2280.912761 0.015625)"/>
     <use xlink:href="#DejaVuSans-6e" transform="translate(2342.436199 0.015625)"/>
     <use xlink:href="#DejaVuSans-74" transform="translate(2405.815105 0.015625)"/>
     <use xlink:href="#DejaVuSans-29" transform="translate(2445.024089 0.015625)"/>
     <use xlink:href="#DejaVuSans-2e" transform="translate(2484.037761 0.015625)"/>
    </g>
    <!-- Foldable  ⟺  Tw($L_{ij}$) = 0  on the pairwise loops. -->
    <g style="fill: #444444" transform="translate(69.402031 316.635725) scale(0.1 -0.1)">
     <defs>
      <path id="DejaVuSans-46" d="M 628 4666 
L 3309 4666 
L 3309 4134 
L 1259 4134 
L 1259 2759 
L 3109 2759 
L 3109 2228 
L 1259 2228 
L 1259 0 
L 628 0 
L 628 4666 
z
" transform="scale(0.015625)"/>
      <path id="DejaVuSans-27fa" d="M 1250 1678 
L 7925 1678 
L 8253 2006 
L 7925 2334 
L 1250 2334 
L 922 2006 
L 1250 1678 
z
M 7550 1303 
L 1625 1303 
L 1916 1013 
L 1541 638 
L 313 1866 
L 313 2147 
L 1541 3375 
L 1916 3000 
L 1625 2709 
L 7550 2709 
L 7259 3000 
L 7634 3375 
L 8863 2147 
L 8863 1866 
L 7634 638 
L 7259 1013 
L 7550 1303 
z
" transform="scale(0.015625)"/>
      <path id="DejaVuSans-Oblique-69" d="M 1172 4863 
L 1747 4863 
L 1606 4134 
L 1031 4134 
L 1172 4863 
z
M 909 3500 
L 1484 3500 
L 800 0 
L 225 0 
L 909 3500 
z
" transform="scale(0.015625)"/>
      <path id="DejaVuSans-Oblique-6a" d="M 928 3500 
L 1503 3500 
L 813 -63 
L 809 -78 
Q 694 -675 544 -897 
Q 403 -1106 132 -1218 
Q -138 -1331 -506 -1331 
L -722 -1331 
L -628 -844 
L -481 -844 
Q -144 -844 -1 -703 
Q 141 -563 238 -63 
L 928 3500 
z
M 1197 4863 
L 1772 4863 
L 1631 4134 
L 1056 4134 
L 1197 4863 
z
" transform="scale(0.015625)"/>
      <path id="DejaVuSans-30" d="M 2034 4250 
Q 1547 4250 1301 3770 
Q 1056 3291 1056 2328 
Q 1056 1369 1301 889 
Q 1547 409 2034 409 
Q 2525 409 2770 889 
Q 3016 1369 3016 2328 
Q 3016 3291 2770 3770 
Q 2525 4250 2034 4250 
z
M 2034 4750 
Q 2819 4750 3233 4129 
Q 3647 3509 3647 2328 
Q 3647 1150 3233 529 
Q 2819 -91 2034 -91 
Q 1250 -91 836 529 
Q 422 1150 422 2328 
Q 422 3509 836 4129 
Q 1250 4750 2034 4750 
z
" transform="scale(0.015625)"/>
     </defs>
     <use xlink:href="#DejaVuSans-46" transform="translate(0 0.015625)"/>
     <use xlink:href="#DejaVuSans-6f" transform="translate(57.519531 0.015625)"/>
     <use xlink:href="#DejaVuSans-6c" transform="translate(118.701172 0.015625)"/>
     <use xlink:href="#DejaVuSans-64" transform="translate(146.484375 0.015625)"/>
     <use xlink:href="#DejaVuSans-61" transform="translate(209.960938 0.015625)"/>
     <use xlink:href="#DejaVuSans-62" transform="translate(271.240234 0.015625)"/>
     <use xlink:href="#DejaVuSans-6c" transform="translate(334.716797 0.015625)"/>
     <use xlink:href="#DejaVuSans-65" transform="translate(362.5 0.015625)"/>
     <use xlink:href="#DejaVuSans-20" transform="translate(424.023438 0.015625)"/>
     <use xlink:href="#DejaVuSans-20" transform="translate(455.810547 0.015625)"/>
     <use xlink:href="#DejaVuSans-27fa" transform="translate(487.597656 0.015625)"/>
     <use xlink:href="#DejaVuSans-20" transform="translate(630.957031 0.015625)"/>
     <use xlink:href="#DejaVuSans-20" transform="translate(662.744141 0.015625)"/>
     <use xlink:href="#DejaVuSans-54" transform="translate(694.53125 0.015625)"/>
     <use xlink:href="#DejaVuSans-77" transform="translate(755.615234 0.015625)"/>
     <use xlink:href="#DejaVuSans-28" transform="translate(837.402344 0.015625)"/>
     <use xlink:href="#DejaVuSans-Oblique-4c" transform="translate(876.416016 0.015625)"/>
     <use xlink:href="#DejaVuSans-Oblique-69" transform="translate(932.128906 -16.390625) scale(0.7)"/>
     <use xlink:href="#DejaVuSans-Oblique-6a" transform="translate(951.577148 -16.390625) scale(0.7)"/>
     <use xlink:href="#DejaVuSans-29" transform="translate(973.759766 0.015625)"/>
     <use xlink:href="#DejaVuSans-20" transform="translate(1012.773438 0.015625)"/>
     <use xlink:href="#DejaVuSans-3d" transform="translate(1044.560547 0.015625)"/>
     <use xlink:href="#DejaVuSans-20" transform="translate(1128.349609 0.015625)"/>
     <use xlink:href="#DejaVuSans-30" transform="translate(1160.136719 0.015625)"/>
     <use xlink:href="#DejaVuSans-20" transform="translate(1223.759766 0.015625)"/>
     <use xlink:href="#DejaVuSans-20" transform="translate(1255.546875 0.015625)"/>
     <use xlink:href="#DejaVuSans-6f" transform="translate(1287.333984 0.015625)"/>
     <use xlink:href="#DejaVuSans-6e" transform="translate(1348.515625 0.015625)"/>
     <use xlink:href="#DejaVuSans-20" transform="translate(1411.894531 0.015625)"/>
     <use xlink:href="#DejaVuSans-74" transform="translate(1443.681641 0.015625)"/>
     <use xlink:href="#DejaVuSans-68" transform="translate(1482.890625 0.015625)"/>
     <use xlink:href="#DejaVuSans-65" transform="translate(1546.269531 0.015625)"/>
     <use xlink:href="#DejaVuSans-20" transform="translate(1607.792969 0.015625)"/>
     <use xlink:href="#DejaVuSans-70" transform="translate(1639.580078 0.015625)"/>
     <use xlink:href="#DejaVuSans-61" transform="translate(1703.056641 0.015625)"/>
     <use xlink:href="#DejaVuSans-69" transform="translate(1764.335938 0.015625)"/>
     <use xlink:href="#DejaVuSans-72" transform="translate(1792.119141 0.015625)"/>
     <use xlink:href="#DejaVuSans-77" transform="translate(1833.232422 0.015625)"/>
     <use xlink:href="#DejaVuSans-69" transform="translate(1915.019531 0.015625)"/>
     <use xlink:href="#DejaVuSans-73" transform="translate(1942.802734 0.015625)"/>
     <use xlink:href="#DejaVuSans-65" transform="translate(1994.902344 0.015625)"/>
     <use xlink:href="#DejaVuSans-20" transform="translate(2056.425781 0.015625)"/>
     <use xlink:href="#DejaVuSans-6c" transform="translate(2088.212891 0.015625)"/>
     <use xlink:href="#DejaVuSans-6f" transform="translate(2115.996094 0.015625)"/>
     <use xlink:href="#DejaVuSans-6f" transform="translate(2177.177734 0.015625)"/>
     <use xlink:href="#DejaVuSans-70" transform="translate(2238.359375 0.015625)"/>
     <use xlink:href="#DejaVuSans-73" transform="translate(2301.835938 0.015625)"/>
     <use xlink:href="#DejaVuSans-2e" transform="translate(2353.935547 0.015625)"/>
    </g>
   </g>
   <g id="line2d_1">
    <path d="M 69.2928 164.820185 
L 76.493357 160.071436 
L 83.693913 155.617946 
L 90.89447 151.459715 
L 98.095027 147.596743 
L 105.295583 144.02903 
L 111.296047 141.281481 
L 117.296511 138.738972 
L 123.296975 136.401505 
L 129.297439 134.269079 
L 135.297902 132.341694 
L 141.298366 130.61935 
L 147.29883 129.102047 
L 153.299294 127.789784 
L 159.299758 126.682563 
L 165.300222 125.780383 
L 171.300686 125.083243 
L 177.301149 124.591145 
L 183.301613 124.304088 
L 189.302077 124.222071 
L 195.302541 124.345096 
L 201.303005 124.673162 
L 207.303469 125.206268 
L 213.303933 125.944416 
L 219.304396 126.887604 
L 225.30486 128.035834 
L 231.305324 129.389104 
L 237.305788 130.947415 
L 243.306252 132.710768 
L 249.306716 134.679161 
L 255.30718 136.852595 
L 261.307643 139.231071 
L 267.308107 141.814587 
L 273.308571 144.603144 
L 280.509128 148.220067 
L 287.709684 152.132249 
L 294.910241 156.33969 
L 302.110798 160.84239 
L 308.111262 164.820185 
L 308.111262 164.820185 
" clip-path="url(#pdfb50fd04b)" style="fill: none; stroke: #1f77b4; stroke-width: 3.4; stroke-linecap: round"/>
   </g>
   <g id="line2d_2">
    <path d="M 69.2928 164.820185 
L 308.111262 164.820185 
L 308.111262 164.820185 
" clip-path="url(#pdfb50fd04b)" style="fill: none; stroke: #e8820c; stroke-width: 3.4; stroke-linecap: round"/>
   </g>
   <g id="line2d_3">
    <path d="M 69.2928 164.820185 
L 76.493357 169.568934 
L 83.693913 174.022424 
L 90.89447 178.180655 
L 98.095027 182.043627 
L 105.295583 185.61134 
L 111.296047 188.358889 
L 117.296511 190.901397 
L 123.296975 193.238864 
L 129.297439 195.37129 
L 135.297902 197.298675 
L 141.298366 199.021019 
L 147.29883 200.538323 
L 153.299294 201.850585 
L 159.299758 202.957806 
L 165.300222 203.859986 
L 171.300686 204.557126 
L 177.301149 205.049224 
L 183.301613 205.336281 
L 189.302077 205.418298 
L 195.302541 205.295273 
L 201.303005 204.967208 
L 207.303469 204.434101 
L 213.303933 203.695954 
L 219.304396 202.752765 
L 225.30486 201.604536 
L 231.305324 200.251265 
L 237.305788 198.692954 
L 243.306252 196.929601 
L 249.306716 194.961208 
L 255.30718 192.787774 
L 261.307643 190.409298 
L 267.308107 187.825782 
L 273.308571 185.037225 
L 280.509128 181.420302 
L 287.709684 177.50812 
L 294.910241 173.300679 
L 302.110798 168.79798 
L 308.111262 164.820185 
L 308.111262 164.820185 
" clip-path="url(#pdfb50fd04b)" style="fill: none; stroke: #2ca02c; stroke-width: 3.4; stroke-linecap: round"/>
   </g>
   <g id="patch_2">
    <path d="M 162.432 124.221046 
Q 188.702031 76.934991 213.994724 122.461839 
" clip-path="url(#pdfb50fd04b)" style="fill: none; opacity: 0.85; stroke: #222222; stroke-width: 1.8; stroke-linecap: round"/>
    <path d="M 213.74219 116.653549 
L 213.994724 122.461839 
L 209.196572 119.178892 
z
" clip-path="url(#pdfb50fd04b)" style="fill: #222222; opacity: 0.85; stroke: #222222; stroke-width: 1.8; stroke-linecap: round"/>
   </g>
   <g id="patch_3">
    <path d="M 162.432 205.419323 
Q 188.702031 158.133268 213.994724 203.660115 
" clip-path="url(#pdfb50fd04b)" style="fill: none; opacity: 0.85; stroke: #222222; stroke-width: 1.8; stroke-linecap: round"/>
    <path d="M 213.74219 197.851826 
L 213.994724 203.660115 
L 209.196572 200.377169 
z
" clip-path="url(#pdfb50fd04b)" style="fill: #222222; opacity: 0.85; stroke: #222222; stroke-width: 1.8; stroke-linecap: round"/>
   </g>
   <g id="text_3">
    <!-- A -->
    <g style="fill: #1f77b4" transform="translate(182.336921 112.949291) scale(0.18 -0.18)">
     <defs>
      <path id="DejaVuSans-Bold-41" d="M 3419 850 
L 1538 850 
L 1241 0 
L 31 0 
L 1759 4666 
L 3194 4666 
L 4922 0 
L 3713 0 
L 3419 850 
z
M 1838 1716 
L 3116 1716 
L 2478 3572 
L 1838 1716 
z
" transform="scale(0.015625)"/>
     </defs>
     <use xlink:href="#DejaVuSans-Bold-41"/>
    </g>
   </g>
   <g id="text_4">
    <!-- B -->
    <g style="fill: #e8820c" transform="translate(182.44239 153.547404) scale(0.18 -0.18)">
     <defs>
      <path id="DejaVuSans-Bold-42" d="M 2456 2859 
Q 2741 2859 2887 2984 
Q 3034 3109 3034 3353 
Q 3034 3594 2887 3720 
Q 2741 3847 2456 3847 
L 1791 3847 
L 1791 2859 
L 2456 2859 
z
M 2497 819 
Q 2859 819 3042 972 
Q 3225 1125 3225 1434 
Q 3225 1738 3044 1889 
Q 2863 2041 2497 2041 
L 1791 2041 
L 1791 819 
L 2497 819 
z
M 3616 2497 
Q 4003 2384 4215 2081 
Q 4428 1778 4428 1338 
Q 4428 663 3972 331 
Q 3516 0 2584 0 
L 588 0 
L 588 4666 
L 2394 4666 
Q 3366 4666 3802 4372 
Q 4238 4078 4238 3431 
Q 4238 3091 4078 2852 
Q 3919 2613 3616 2497 
z
" transform="scale(0.015625)"/>
     </defs>
     <use xlink:href="#DejaVuSans-Bold-42"/>
    </g>
   </g>
   <g id="text_5">
    <!-- C -->
    <g style="fill: #2ca02c" transform="translate(182.696921 226.624828) scale(0.18 -0.18)">
     <defs>
      <path id="DejaVuSans-Bold-43" d="M 4288 256 
Q 3956 84 3597 -3 
Q 3238 -91 2847 -91 
Q 1681 -91 1000 561 
Q 319 1213 319 2328 
Q 319 3447 1000 4098 
Q 1681 4750 2847 4750 
Q 3238 4750 3597 4662 
Q 3956 4575 4288 4403 
L 4288 3438 
Q 3953 3666 3628 3772 
Q 3303 3878 2944 3878 
Q 2300 3878 1931 3465 
Q 1563 3053 1563 2328 
Q 1563 1606 1931 1193 
Q 2300 781 2944 781 
Q 3303 781 3628 887 
Q 3953 994 4288 1222 
L 4288 256 
z
" transform="scale(0.015625)"/>
     </defs>
     <use xlink:href="#DejaVuSans-Bold-43"/>
    </g>
   </g>
   <g id="patch_4">
    <path d="M 69.2928 179.149292 
C 73.092924 179.149292 76.737916 177.639487 79.425009 174.952394 
C 82.112103 172.265301 83.621908 168.620308 83.621908 164.820185 
C 83.621908 161.020061 82.112103 157.375069 79.425009 154.687975 
C 76.737916 152.000882 73.092924 150.491077 69.2928 150.491077 
C 65.492676 150.491077 61.847684 152.000882 59.160591 154.687975 
C 56.473497 157.375069 54.963692 161.020061 54.963692 164.820185 
C 54.963692 168.620308 56.473497 172.265301 59.160591 174.952394 
C 61.847684 177.639487 65.492676 179.149292 69.2928 179.149292 
z
" clip-path="url(#pdfb50fd04b)" style="fill: #6f4fb0; stroke: #ffffff; stroke-linejoin: miter"/>
   </g>
   <g id="text_6">
    <!-- start footprint -->
    <g style="fill: #555555" transform="translate(37.954519 201.272268) scale(0.09 -0.09)">
     <use xlink:href="#DejaVuSans-73"/>
     <use xlink:href="#DejaVuSans-74" transform="translate(52.099609 0)"/>
     <use xlink:href="#DejaVuSans-61" transform="translate(91.308594 0)"/>
     <use xlink:href="#DejaVuSans-72" transform="translate(152.587891 0)"/>
     <use xlink:href="#DejaVuSans-74" transform="translate(193.701172 0)"/>
     <use xlink:href="#DejaVuSans-20" transform="translate(232.910156 0)"/>
     <use xlink:href="#DejaVuSans-66" transform="translate(264.697266 0)"/>
     <use xlink:href="#DejaVuSans-6f" transform="translate(299.902344 0)"/>
     <use xlink:href="#DejaVuSans-6f" transform="translate(361.083984 0)"/>
     <use xlink:href="#DejaVuSans-74" transform="translate(422.265625 0)"/>
     <use xlink:href="#DejaVuSans-70" transform="translate(461.474609 0)"/>
     <use xlink:href="#DejaVuSans-72" transform="translate(524.951172 0)"/>
     <use xlink:href="#DejaVuSans-69" transform="translate(566.064453 0)"/>
     <use xlink:href="#DejaVuSans-6e" transform="translate(593.847656 0)"/>
     <use xlink:href="#DejaVuSans-74" transform="translate(657.226562 0)"/>
    </g>
    <!-- (fused ABC base) -->
    <g style="fill: #555555" transform="translate(30.558347 211.350299) scale(0.09 -0.09)">
     <defs>
      <path id="DejaVuSans-41" d="M 2188 4044 
L 1331 1722 
L 3047 1722 
L 2188 4044 
z
M 1831 4666 
L 2547 4666 
L 4325 0 
L 3669 0 
L 3244 1197 
L 1141 1197 
L 716 0 
L 50 0 
L 1831 4666 
z
" transform="scale(0.015625)"/>
      <path id="DejaVuSans-42" d="M 1259 2228 
L 1259 519 
L 2272 519 
Q 2781 519 3026 730 
Q 3272 941 3272 1375 
Q 3272 1813 3026 2020 
Q 2781 2228 2272 2228 
L 1259 2228 
z
M 1259 4147 
L 1259 2741 
L 2194 2741 
Q 2656 2741 2882 2914 
Q 3109 3088 3109 3444 
Q 3109 3797 2882 3972 
Q 2656 4147 2194 4147 
L 1259 4147 
z
M 628 4666 
L 2241 4666 
Q 2963 4666 3353 4366 
Q 3744 4066 3744 3513 
Q 3744 3084 3544 2831 
Q 3344 2578 2956 2516 
Q 3422 2416 3680 2098 
Q 3938 1781 3938 1306 
Q 3938 681 3513 340 
Q 3088 0 2303 0 
L 628 0 
L 628 4666 
z
" transform="scale(0.015625)"/>
     </defs>
     <use xlink:href="#DejaVuSans-28"/>
     <use xlink:href="#DejaVuSans-66" transform="translate(39.013672 0)"/>
     <use xlink:href="#DejaVuSans-75" transform="translate(74.21875 0)"/>
     <use xlink:href="#DejaVuSans-73" transform="translate(137.597656 0)"/>
     <use xlink:href="#DejaVuSans-65" transform="translate(189.697266 0)"/>
     <use xlink:href="#DejaVuSans-64" transform="translate(251.220703 0)"/>
     <use xlink:href="#DejaVuSans-20" transform="translate(314.697266 0)"/>
     <use xlink:href="#DejaVuSans-41" transform="translate(346.484375 0)"/>
     <use xlink:href="#DejaVuSans-42" transform="translate(414.892578 0)"/>
     <use xlink:href="#DejaVuSans-43" transform="translate(481.746094 0)"/>
     <use xlink:href="#DejaVuSans-20" transform="translate(551.570312 0)"/>
     <use xlink:href="#DejaVuSans-62" transform="translate(583.357422 0)"/>
     <use xlink:href="#DejaVuSans-61" transform="translate(646.833984 0)"/>
     <use xlink:href="#DejaVuSans-73" transform="translate(708.113281 0)"/>
     <use xlink:href="#DejaVuSans-65" transform="translate(760.212891 0)"/>
     <use xlink:href="#DejaVuSans-29" transform="translate(821.736328 0)"/>
    </g>
   </g>
   <g id="patch_5">
    <path d="M 308.111262 179.149292 
C 311.911385 179.149292 315.556377 177.639487 318.243471 174.952394 
C 320.930564 172.265301 322.440369 168.620308 322.440369 164.820185 
C 322.440369 161.020061 320.930564 157.375069 318.243471 154.687975 
C 315.556377 152.000882 311.911385 150.491077 308.111262 150.491077 
C 304.311138 150.491077 300.666146 152.000882 297.979052 154.687975 
C 295.291959 157.375069 293.782154 161.020061 293.782154 164.820185 
C 293.782154 168.620308 295.291959 172.265301 297.979052 174.952394 
C 300.666146 177.639487 304.311138 179.149292 308.111262 179.149292 
z
" clip-path="url(#pdfb50fd04b)" style="fill: #6f4fb0; stroke: #ffffff; stroke-linejoin: miter"/>
   </g>
   <g id="text_7">
    <!-- end footprint -->
    <g style="fill: #555555" transform="translate(278.77548 201.272268) scale(0.09 -0.09)">
     <use xlink:href="#DejaVuSans-65"/>
     <use xlink:href="#DejaVuSans-6e" transform="translate(61.523438 0)"/>
     <use xlink:href="#DejaVuSans-64" transform="translate(124.902344 0)"/>
     <use xlink:href="#DejaVuSans-20" transform="translate(188.378906 0)"/>
     <use xlink:href="#DejaVuSans-66" transform="translate(220.166016 0)"/>
     <use xlink:href="#DejaVuSans-6f" transform="translate(255.371094 0)"/>
     <use xlink:href="#DejaVuSans-6f" transform="translate(316.552734 0)"/>
     <use xlink:href="#DejaVuSans-74" transform="translate(377.734375 0)"/>
     <use xlink:href="#DejaVuSans-70" transform="translate(416.943359 0)"/>
     <use xlink:href="#DejaVuSans-72" transform="translate(480.419922 0)"/>
     <use xlink:href="#DejaVuSans-69" transform="translate(521.533203 0)"/>
     <use xlink:href="#DejaVuSans-6e" transform="translate(549.316406 0)"/>
     <use xlink:href="#DejaVuSans-74" transform="translate(612.695312 0)"/>
    </g>
    <!-- (fused ABC base) -->
    <g style="fill: #555555" transform="translate(269.376808 211.350299) scale(0.09 -0.09)">
     <use xlink:href="#DejaVuSans-28"/>
     <use xlink:href="#DejaVuSans-66" transform="translate(39.013672 0)"/>
     <use xlink:href="#DejaVuSans-75" transform="translate(74.21875 0)"/>
     <use xlink:href="#DejaVuSans-73" transform="translate(137.597656 0)"/>
     <use xlink:href="#DejaVuSans-65" transform="translate(189.697266 0)"/>
     <use xlink:href="#DejaVuSans-64" transform="translate(251.220703 0)"/>
     <use xlink:href="#DejaVuSans-20" transform="translate(314.697266 0)"/>
     <use xlink:href="#DejaVuSans-41" transform="translate(346.484375 0)"/>
     <use xlink:href="#DejaVuSans-42" transform="translate(414.892578 0)"/>
     <use xlink:href="#DejaVuSans-43" transform="translate(481.746094 0)"/>
     <use xlink:href="#DejaVuSans-20" transform="translate(551.570312 0)"/>
     <use xlink:href="#DejaVuSans-62" transform="translate(583.357422 0)"/>
     <use xlink:href="#DejaVuSans-61" transform="translate(646.833984 0)"/>
     <use xlink:href="#DejaVuSans-73" transform="translate(708.113281 0)"/>
     <use xlink:href="#DejaVuSans-65" transform="translate(760.212891 0)"/>
     <use xlink:href="#DejaVuSans-29" transform="translate(821.736328 0)"/>
    </g>
   </g>
   <g id="text_8">
    <!-- S -->
    <g style="fill: #ffffff" transform="translate(64.21405 169.235185) scale(0.16 -0.16)">
     <defs>
      <path id="DejaVuSans-53" d="M 3425 4513 
L 3425 3897 
Q 3066 4069 2747 4153 
Q 2428 4238 2131 4238 
Q 1616 4238 1336 4038 
Q 1056 3838 1056 3469 
Q 1056 3159 1242 3001 
Q 1428 2844 1947 2747 
L 2328 2669 
Q 3034 2534 3370 2195 
Q 3706 1856 3706 1288 
Q 3706 609 3251 259 
Q 2797 -91 1919 -91 
Q 1588 -91 1214 -16 
Q 841 59 441 206 
L 441 856 
Q 825 641 1194 531 
Q 1563 422 1919 422 
Q 2459 422 2753 634 
Q 3047 847 3047 1241 
Q 3047 1584 2836 1778 
Q 2625 1972 2144 2069 
L 1759 2144 
Q 1053 2284 737 2584 
Q 422 2884 422 3419 
Q 422 4038 858 4394 
Q 1294 4750 2059 4750 
Q 2388 4750 2728 4690 
Q 3069 4631 3425 4513 
z
" transform="scale(0.015625)"/>
     </defs>
     <use xlink:href="#DejaVuSans-53"/>
    </g>
   </g>
   <g id="text_9">
    <!-- E -->
    <g style="fill: #ffffff" transform="translate(303.056262 169.235185) scale(0.16 -0.16)">
     <defs>
      <path id="DejaVuSans-45" d="M 628 4666 
L 3578 4666 
L 3578 4134 
L 1259 4134 
L 1259 2753 
L 3481 2753 
L 3481 2222 
L 1259 2222 
L 1259 531 
L 3634 531 
L 3634 0 
L 628 0 
L 628 4666 
z
" transform="scale(0.015625)"/>
     </defs>
     <use xlink:href="#DejaVuSans-45"/>
    </g>
   </g>
   <g id="text_10">
    <g id="patch_6">
     <path d="M 179.402031 132.187921 
L 198.002031 132.187921 
Q 200.162031 132.187921 200.162031 130.027921 
L 200.162031 118.414171 
Q 200.162031 116.254171 198.002031 116.254171 
L 179.402031 116.254171 
Q 177.242031 116.254171 177.242031 118.414171 
L 177.242031 130.027921 
Q 177.242031 132.187921 179.402031 132.187921 
z
" style="fill: #ffffff; stroke: #222222; stroke-linejoin: miter"/>
    </g>
    <!-- $L_{AB}$ -->
    <g style="fill: #222222" transform="translate(179.402031 127.532296) scale(0.12 -0.12)">
     <use xlink:href="#DejaVuSans-Oblique-4c" transform="translate(0 0.09375)"/>
     <use xlink:href="#DejaVuSans-Oblique-41" transform="translate(55.712891 -16.3125) scale(0.7)"/>
     <use xlink:href="#DejaVuSans-Oblique-42" transform="translate(103.598633 -16.3125) scale(0.7)"/>
    </g>
   </g>
   <g id="text_11">
    <g id="patch_7">
     <path d="M 179.342031 213.386198 
L 198.062031 213.386198 
Q 200.222031 213.386198 200.222031 211.226198 
L 200.222031 199.612448 
Q 200.222031 197.452448 198.062031 197.452448 
L 179.342031 197.452448 
Q 177.182031 197.452448 177.182031 199.612448 
L 177.182031 211.226198 
Q 177.182031 213.386198 179.342031 213.386198 
z
" style="fill: #ffffff; stroke: #222222; stroke-linejoin: miter"/>
    </g>
    <!-- $L_{BC}$ -->
    <g style="fill: #222222" transform="translate(179.342031 208.730573) scale(0.12 -0.12)">
     <use xlink:href="#DejaVuSans-Oblique-4c" transform="translate(0 0.09375)"/>
     <use xlink:href="#DejaVuSans-Oblique-42" transform="translate(55.712891 -16.3125) scale(0.7)"/>
     <use xlink:href="#DejaVuSans-Oblique-43" transform="translate(103.735352 -16.3125) scale(0.7)"/>
    </g>
   </g>
  </g>
 </g>
 <defs>
  <clipPath id="pdfb50fd04b">
   <rect x="7.2" y="7.2" width="363.004062" height="310.464"/>
  </clipPath>
 </defs>
</svg>
