<?xml version="1.0" encoding="utf-8" standalone="no"?>
<!DOCTYPE svg PUBLIC "-//W3C//DTD SVG 1.1//EN"
  "http://www.w3.org/Graphics/SVG/1.1/DTD/svg11.dtd">
<svg xmlns:xlink="http://www.w3.org/1999/xlink" width="338.6225pt" height="245.709812pt" viewBox="0 0 338.6225 245.709812" xmlns="http://www.w3.org/2000/svg" version="1.1">
 <metadata>
  <rdf:RDF xmlns:dc="http://purl.org/dc/elements/1.1/" xmlns:cc="http://creativecommons.org/ns#" xmlns:rdf="http://www.w3.org/1999/02/22-rdf-syntax-ns#">
   <cc:Work>
    <dc:type rdf:resource="http://purl.org/dc/dcmitype/StillImage"/>
    <dc:date>2026-06-03T14:06:02.810201</dc:date>
    <dc:format>image/svg+xml</dc:format>
    <dc:creator>
     <cc:Agent>
      <dc:title>Matplotlib v3.10.9, https://matplotlib.org/</dc:title>
     </cc:Agent>
    </dc:creator>
   </cc:Work>
  </rdf:RDF>
 </metadata>
 <defs>
  <style type="text/css">*{stroke-linejoin: round; stroke-linecap: butt}</style>
 </defs>
 <g id="figure_1">
  <g id="patch_1">
   <path d="M -0 245.709812 
L 338.6225 245.709812 
L 338.6225 0 
L -0 0 
z
" style="fill: #ffffff"/>
  </g>
  <g id="axes_1">
   <g id="patch_2">
    <path d="M 100.613859 178.972073 
L 146.41212 178.972073 
L 146.41212 133.173812 
L 100.613859 133.173812 
z
" clip-path="url(#p2f6934b57f)" style="fill: #eaf3fb; stroke: #444444; stroke-width: 1.4; stroke-linejoin: miter"/>
   </g>
   <g id="patch_3">
    <path d="M 100.613859 133.173812 
L 146.41212 133.173812 
L 146.41212 87.375552 
L 100.613859 87.375552 
z
" clip-path="url(#p2f6934b57f)" style="fill: #fdeeee; stroke: #444444; stroke-width: 1.4; stroke-linejoin: miter"/>
   </g>
   <g id="patch_4">
    <path d="M 100.613859 87.375552 
L 146.41212 87.375552 
L 146.41212 41.577291 
L 100.613859 41.577291 
z
" clip-path="url(#p2f6934b57f)" style="fill: #eaf3fb; stroke: #444444; stroke-width: 1.4; stroke-linejoin: miter"/>
   </g>
   <g id="patch_5">
    <path d="M 146.41212 178.972073 
L 192.21038 178.972073 
L 192.21038 133.173812 
L 146.41212 133.173812 
z
" clip-path="url(#p2f6934b57f)" style="fill: #fdeeee; stroke: #444444; stroke-width: 1.4; stroke-linejoin: miter"/>
   </g>
   <g id="patch_6">
    <path d="M 146.41212 87.375552 
L 192.21038 87.375552 
L 192.21038 41.577291 
L 146.41212 41.577291 
z
" clip-path="url(#p2f6934b57f)" style="fill: #fdeeee; stroke: #444444; stroke-width: 1.4; stroke-linejoin: miter"/>
   </g>
   <g id="patch_7">
    <path d="M 192.21038 178.972073 
L 238.008641 178.972073 
L 238.008641 133.173812 
L 192.21038 133.173812 
z
" clip-path="url(#p2f6934b57f)" style="fill: #eaf3fb; stroke: #444444; stroke-width: 1.4; stroke-linejoin: miter"/>
   </g>
   <g id="patch_8">
    <path d="M 192.21038 133.173812 
L 238.008641 133.173812 
L 238.008641 87.375552 
L 192.21038 87.375552 
z
" clip-path="url(#p2f6934b57f)" style="fill: #fdeeee; stroke: #444444; stroke-width: 1.4; stroke-linejoin: miter"/>
   </g>
   <g id="patch_9">
    <path d="M 192.21038 87.375552 
L 238.008641 87.375552 
L 238.008641 41.577291 
L 192.21038 41.577291 
z
" clip-path="url(#p2f6934b57f)" style="fill: #eaf3fb; stroke: #444444; stroke-width: 1.4; stroke-linejoin: miter"/>
   </g>
   <g id="text_1">
    <!-- Worked: square ring (internal hole) → Tw = +1 -->
    <g style="fill: #222222" transform="translate(7.2 17.837812) scale(0.14 -0.14)">
     <defs>
      <path id="DejaVuSans-57" d="M 213 4666 
L 850 4666 
L 1831 722 
L 2809 4666 
L 3519 4666 
L 4500 722 
L 5478 4666 
L 6119 4666 
L 4947 0 
L 4153 0 
L 3169 4050 
L 2175 0 
L 1381 0 
L 213 4666 
z
" transform="scale(0.015625)"/>
      <path id="DejaVuSans-6f" d="M 1959 3097 
Q 1497 3097 1228 2736 
Q 959 2375 959 1747 
Q 959 1119 1226 758 
Q 1494 397 1959 397 
Q 2419 397 2687 759 
Q 2956 1122 2956 1747 
Q 2956 2369 2687 2733 
Q 2419 3097 1959 3097 
z
M 1959 3584 
Q 2709 3584 3137 3096 
Q 3566 2609 3566 1747 
Q 3566 888 3137 398 
Q 2709 -91 1959 -91 
Q 1206 -91 779 398 
Q 353 888 353 1747 
Q 353 2609 779 3096 
Q 1206 3584 1959 3584 
z
" transform="scale(0.015625)"/>
      <path id="DejaVuSans-72" d="M 2631 2963 
Q 2534 3019 2420 3045 
Q 2306 3072 2169 3072 
Q 1681 3072 1420 2755 
Q 1159 2438 1159 1844 
L 1159 0 
L 581 0 
L 581 3500 
L 1159 3500 
L 1159 2956 
Q 1341 3275 1631 3429 
Q 1922 3584 2338 3584 
Q 2397 3584 2469 3576 
Q 2541 3569 2628 3553 
L 2631 2963 
z
" transform="scale(0.015625)"/>
      <path id="DejaVuSans-6b" d="M 581 4863 
L 1159 4863 
L 1159 1991 
L 2875 3500 
L 3609 3500 
L 1753 1863 
L 3688 0 
L 2938 0 
L 1159 1709 
L 1159 0 
L 581 0 
L 581 4863 
z
" transform="scale(0.015625)"/>
      <path id="DejaVuSans-65" d="M 3597 1894 
L 3597 1613 
L 953 1613 
Q 991 1019 1311 708 
Q 1631 397 2203 397 
Q 2534 397 2845 478 
Q 3156 559 3463 722 
L 3463 178 
Q 3153 47 2828 -22 
Q 2503 -91 2169 -91 
Q 1331 -91 842 396 
Q 353 884 353 1716 
Q 353 2575 817 3079 
Q 1281 3584 2069 3584 
Q 2775 3584 3186 3129 
Q 3597 2675 3597 1894 
z
M 3022 2063 
Q 3016 2534 2758 2815 
Q 2500 3097 2075 3097 
Q 1594 3097 1305 2825 
Q 1016 2553 972 2059 
L 3022 2063 
z
" transform="scale(0.015625)"/>
      <path id="DejaVuSans-64" d="M 2906 2969 
L 2906 4863 
L 3481 4863 
L 3481 0 
L 2906 0 
L 2906 525 
Q 2725 213 2448 61 
Q 2172 -91 1784 -91 
Q 1150 -91 751 415 
Q 353 922 353 1747 
Q 353 2572 751 3078 
Q 1150 3584 1784 3584 
Q 2172 3584 2448 3432 
Q 2725 3281 2906 2969 
z
M 947 1747 
Q 947 1113 1208 752 
Q 1469 391 1925 391 
Q 2381 391 2643 752 
Q 2906 1113 2906 1747 
Q 2906 2381 2643 2742 
Q 2381 3103 1925 3103 
Q 1469 3103 1208 2742 
Q 947 2381 947 1747 
z
" transform="scale(0.015625)"/>
      <path id="DejaVuSans-3a" d="M 750 794 
L 1409 794 
L 1409 0 
L 750 0 
L 750 794 
z
M 750 3309 
L 1409 3309 
L 1409 2516 
L 750 2516 
L 750 3309 
z
" transform="scale(0.015625)"/>
      <path id="DejaVuSans-20" transform="scale(0.015625)"/>
      <path id="DejaVuSans-73" d="M 2834 3397 
L 2834 2853 
Q 2591 2978 2328 3040 
Q 2066 3103 1784 3103 
Q 1356 3103 1142 2972 
Q 928 2841 928 2578 
Q 928 2378 1081 2264 
Q 1234 2150 1697 2047 
L 1894 2003 
Q 2506 1872 2764 1633 
Q 3022 1394 3022 966 
Q 3022 478 2636 193 
Q 2250 -91 1575 -91 
Q 1294 -91 989 -36 
Q 684 19 347 128 
L 347 722 
Q 666 556 975 473 
Q 1284 391 1588 391 
Q 1994 391 2212 530 
Q 2431 669 2431 922 
Q 2431 1156 2273 1281 
Q 2116 1406 1581 1522 
L 1381 1569 
Q 847 1681 609 1914 
Q 372 2147 372 2553 
Q 372 3047 722 3315 
Q 1072 3584 1716 3584 
Q 2034 3584 2315 3537 
Q 2597 3491 2834 3397 
z
" transform="scale(0.015625)"/>
      <path id="DejaVuSans-71" d="M 947 1747 
Q 947 1113 1208 752 
Q 1469 391 1925 391 
Q 2381 391 2643 752 
Q 2906 1113 2906 1747 
Q 2906 2381 2643 2742 
Q 2381 3103 1925 3103 
Q 1469 3103 1208 2742 
Q 947 2381 947 1747 
z
M 2906 525 
Q 2725 213 2448 61 
Q 2172 -91 1784 -91 
Q 1150 -91 751 415 
Q 353 922 353 1747 
Q 353 2572 751 3078 
Q 1150 3584 1784 3584 
Q 2172 3584 2448 3432 
Q 2725 3281 2906 2969 
L 2906 3500 
L 3481 3500 
L 3481 -1331 
L 2906 -1331 
L 2906 525 
z
" transform="scale(0.015625)"/>
      <path id="DejaVuSans-75" d="M 544 1381 
L 544 3500 
L 1119 3500 
L 1119 1403 
Q 1119 906 1312 657 
Q 1506 409 1894 409 
Q 2359 409 2629 706 
Q 2900 1003 2900 1516 
L 2900 3500 
L 3475 3500 
L 3475 0 
L 2900 0 
L 2900 538 
Q 2691 219 2414 64 
Q 2138 -91 1772 -91 
Q 1169 -91 856 284 
Q 544 659 544 1381 
z
M 1991 3584 
L 1991 3584 
z
" transform="scale(0.015625)"/>
      <path id="DejaVuSans-61" d="M 2194 1759 
Q 1497 1759 1228 1600 
Q 959 1441 959 1056 
Q 959 750 1161 570 
Q 1363 391 1709 391 
Q 2188 391 2477 730 
Q 2766 1069 2766 1631 
L 2766 1759 
L 2194 1759 
z
M 3341 1997 
L 3341 0 
L 2766 0 
L 2766 531 
Q 2569 213 2275 61 
Q 1981 -91 1556 -91 
Q 1019 -91 701 211 
Q 384 513 384 1019 
Q 384 1609 779 1909 
Q 1175 2209 1959 2209 
L 2766 2209 
L 2766 2266 
Q 2766 2663 2505 2880 
Q 2244 3097 1772 3097 
Q 1472 3097 1187 3025 
Q 903 2953 641 2809 
L 641 3341 
Q 956 3463 1253 3523 
Q 1550 3584 1831 3584 
Q 2591 3584 2966 3190 
Q 3341 2797 3341 1997 
z
" transform="scale(0.015625)"/>
      <path id="DejaVuSans-69" d="M 603 3500 
L 1178 3500 
L 1178 0 
L 603 0 
L 603 3500 
z
M 603 4863 
L 1178 4863 
L 1178 4134 
L 603 4134 
L 603 4863 
z
" transform="scale(0.015625)"/>
      <path id="DejaVuSans-6e" d="M 3513 2113 
L 3513 0 
L 2938 0 
L 2938 2094 
Q 2938 2591 2744 2837 
Q 2550 3084 2163 3084 
Q 1697 3084 1428 2787 
Q 1159 2491 1159 1978 
L 1159 0 
L 581 0 
L 581 3500 
L 1159 3500 
L 1159 2956 
Q 1366 3272 1645 3428 
Q 1925 3584 2291 3584 
Q 2894 3584 3203 3211 
Q 3513 2838 3513 2113 
z
" transform="scale(0.015625)"/>
      <path id="DejaVuSans-67" d="M 2906 1791 
Q 2906 2416 2648 2759 
Q 2391 3103 1925 3103 
Q 1463 3103 1205 2759 
Q 947 2416 947 1791 
Q 947 1169 1205 825 
Q 1463 481 1925 481 
Q 2391 481 2648 825 
Q 2906 1169 2906 1791 
z
M 3481 434 
Q 3481 -459 3084 -895 
Q 2688 -1331 1869 -1331 
Q 1566 -1331 1297 -1286 
Q 1028 -1241 775 -1147 
L 775 -588 
Q 1028 -725 1275 -790 
Q 1522 -856 1778 -856 
Q 2344 -856 2625 -561 
Q 2906 -266 2906 331 
L 2906 616 
Q 2728 306 2450 153 
Q 2172 0 1784 0 
Q 1141 0 747 490 
Q 353 981 353 1791 
Q 353 2603 747 3093 
Q 1141 3584 1784 3584 
Q 2172 3584 2450 3431 
Q 2728 3278 2906 2969 
L 2906 3500 
L 3481 3500 
L 3481 434 
z
" transform="scale(0.015625)"/>
      <path id="DejaVuSans-28" d="M 1984 4856 
Q 1566 4138 1362 3434 
Q 1159 2731 1159 2009 
Q 1159 1288 1364 580 
Q 1569 -128 1984 -844 
L 1484 -844 
Q 1016 -109 783 600 
Q 550 1309 550 2009 
Q 550 2706 781 3412 
Q 1013 4119 1484 4856 
L 1984 4856 
z
" transform="scale(0.015625)"/>
      <path id="DejaVuSans-74" d="M 1172 4494 
L 1172 3500 
L 2356 3500 
L 2356 3053 
L 1172 3053 
L 1172 1153 
Q 1172 725 1289 603 
Q 1406 481 1766 481 
L 2356 481 
L 2356 0 
L 1766 0 
Q 1100 0 847 248 
Q 594 497 594 1153 
L 594 3053 
L 172 3053 
L 172 3500 
L 594 3500 
L 594 4494 
L 1172 4494 
z
" transform="scale(0.015625)"/>
      <path id="DejaVuSans-6c" d="M 603 4863 
L 1178 4863 
L 1178 0 
L 603 0 
L 603 4863 
z
" transform="scale(0.015625)"/>
      <path id="DejaVuSans-68" d="M 3513 2113 
L 3513 0 
L 2938 0 
L 2938 2094 
Q 2938 2591 2744 2837 
Q 2550 3084 2163 3084 
Q 1697 3084 1428 2787 
Q 1159 2491 1159 1978 
L 1159 0 
L 581 0 
L 581 4863 
L 1159 4863 
L 1159 2956 
Q 1366 3272 1645 3428 
Q 1925 3584 2291 3584 
Q 2894 3584 3203 3211 
Q 3513 2838 3513 2113 
z
" transform="scale(0.015625)"/>
      <path id="DejaVuSans-29" d="M 513 4856 
L 1013 4856 
Q 1481 4119 1714 3412 
Q 1947 2706 1947 2009 
Q 1947 1309 1714 600 
Q 1481 -109 1013 -844 
L 513 -844 
Q 928 -128 1133 580 
Q 1338 1288 1338 2009 
Q 1338 2731 1133 3434 
Q 928 4138 513 4856 
z
" transform="scale(0.015625)"/>
      <path id="DejaVuSans-2192" d="M 5050 2147 
L 5050 1866 
L 3822 638 
L 3447 1013 
L 4175 1741 
L 366 1741 
L 366 2272 
L 4175 2272 
L 3447 3000 
L 3822 3375 
L 5050 2147 
z
" transform="scale(0.015625)"/>
      <path id="DejaVuSans-54" d="M -19 4666 
L 3928 4666 
L 3928 4134 
L 2272 4134 
L 2272 0 
L 1638 0 
L 1638 4134 
L -19 4134 
L -19 4666 
z
" transform="scale(0.015625)"/>
      <path id="DejaVuSans-77" d="M 269 3500 
L 844 3500 
L 1563 769 
L 2278 3500 
L 2956 3500 
L 3675 769 
L 4391 3500 
L 4966 3500 
L 4050 0 
L 3372 0 
L 2619 2869 
L 1863 0 
L 1184 0 
L 269 3500 
z
" transform="scale(0.015625)"/>
      <path id="DejaVuSans-3d" d="M 678 2906 
L 4684 2906 
L 4684 2381 
L 678 2381 
L 678 2906 
z
M 678 1631 
L 4684 1631 
L 4684 1100 
L 678 1100 
L 678 1631 
z
" transform="scale(0.015625)"/>
      <path id="DejaVuSans-2b" d="M 2944 4013 
L 2944 2272 
L 4684 2272 
L 4684 1741 
L 2944 1741 
L 2944 0 
L 2419 0 
L 2419 1741 
L 678 1741 
L 678 2272 
L 2419 2272 
L 2419 4013 
L 2944 4013 
z
" transform="scale(0.015625)"/>
      <path id="DejaVuSans-31" d="M 794 531 
L 1825 531 
L 1825 4091 
L 703 3866 
L 703 4441 
L 1819 4666 
L 2450 4666 
L 2450 531 
L 3481 531 
L 3481 0 
L 794 0 
L 794 531 
z
" transform="scale(0.015625)"/>
     </defs>
     <use xlink:href="#DejaVuSans-57"/>
     <use xlink:href="#DejaVuSans-6f" transform="translate(93.001953 0)"/>
     <use xlink:href="#DejaVuSans-72" transform="translate(154.183594 0)"/>
     <use xlink:href="#DejaVuSans-6b" transform="translate(195.296875 0)"/>
     <use xlink:href="#DejaVuSans-65" transform="translate(249.582031 0)"/>
     <use xlink:href="#DejaVuSans-64" transform="translate(311.105469 0)"/>
     <use xlink:href="#DejaVuSans-3a" transform="translate(374.582031 0)"/>
     <use xlink:href="#DejaVuSans-20" transform="translate(408.273438 0)"/>
     <use xlink:href="#DejaVuSans-73" transform="translate(440.060547 0)"/>
     <use xlink:href="#DejaVuSans-71" transform="translate(492.160156 0)"/>
     <use xlink:href="#DejaVuSans-75" transform="translate(555.636719 0)"/>
     <use xlink:href="#DejaVuSans-61" transform="translate(619.015625 0)"/>
     <use xlink:href="#DejaVuSans-72" transform="translate(680.294922 0)"/>
     <use xlink:href="#DejaVuSans-65" transform="translate(719.158203 0)"/>
     <use xlink:href="#DejaVuSans-20" transform="translate(780.681641 0)"/>
     <use xlink:href="#DejaVuSans-72" transform="translate(812.46875 0)"/>
     <use xlink:href="#DejaVuSans-69" transform="translate(853.582031 0)"/>
     <use xlink:href="#DejaVuSans-6e" transform="translate(881.365234 0)"/>
     <use xlink:href="#DejaVuSans-67" transform="translate(944.744141 0)"/>
     <use xlink:href="#DejaVuSans-20" transform="translate(1008.220703 0)"/>
     <use xlink:href="#DejaVuSans-28" transform="translate(1040.007812 0)"/>
     <use xlink:href="#DejaVuSans-69" transform="translate(1079.021484 0)"/>
     <use xlink:href="#DejaVuSans-6e" transform="translate(1106.804688 0)"/>
     <use xlink:href="#DejaVuSans-74" transform="translate(1170.183594 0)"/>
     <use xlink:href="#DejaVuSans-65" transform="translate(1209.392578 0)"/>
     <use xlink:href="#DejaVuSans-72" transform="translate(1270.916016 0)"/>
     <use xlink:href="#DejaVuSans-6e" transform="translate(1310.279297 0)"/>
     <use xlink:href="#DejaVuSans-61" transform="translate(1373.658203 0)"/>
     <use xlink:href="#DejaVuSans-6c" transform="translate(1434.9375 0)"/>
     <use xlink:href="#DejaVuSans-20" transform="translate(1462.720703 0)"/>
     <use xlink:href="#DejaVuSans-68" transform="translate(1494.507812 0)"/>
     <use xlink:href="#DejaVuSans-6f" transform="translate(1557.886719 0)"/>
     <use xlink:href="#DejaVuSans-6c" transform="translate(1619.068359 0)"/>
     <use xlink:href="#DejaVuSans-65" transform="translate(1646.851562 0)"/>
     <use xlink:href="#DejaVuSans-29" transform="translate(1708.375 0)"/>
     <use xlink:href="#DejaVuSans-20" transform="translate(1747.388672 0)"/>
     <use xlink:href="#DejaVuSans-2192" transform="translate(1779.175781 0)"/>
     <use xlink:href="#DejaVuSans-20" transform="translate(1862.964844 0)"/>
     <use xlink:href="#DejaVuSans-54" transform="translate(1894.751953 0)"/>
     <use xlink:href="#DejaVuSans-77" transform="translate(1939.335938 0)"/>
     <use xlink:href="#DejaVuSans-20" transform="translate(2021.123047 0)"/>
     <use xlink:href="#DejaVuSans-3d" transform="translate(2052.910156 0)"/>
     <use xlink:href="#DejaVuSans-20" transform="translate(2136.699219 0)"/>
     <use xlink:href="#DejaVuSans-2b" transform="translate(2168.486328 0)"/>
     <use xlink:href="#DejaVuSans-31" transform="translate(2252.275391 0)"/>
    </g>
   </g>
   <g id="line2d_1">
    <path d="M 123.512989 156.072943 
L 169.31125 156.072943 
L 215.109511 156.072943 
L 215.109511 110.274682 
L 215.109511 64.476421 
L 169.31125 64.476421 
L 123.512989 64.476421 
L 123.512989 110.274682 
L 123.512989 156.072943 
" clip-path="url(#p2f6934b57f)" style="fill: none; stroke-dasharray: 1.8,3.96; stroke-dashoffset: 0; stroke: #3399cc; stroke-width: 1.8"/>
   </g>
   <g id="line2d_2">
    <defs>
     <path id="m7b59c6665f" d="M 0 1.75 
C 0.464105 1.75 0.909265 1.565609 1.237437 1.237437 
C 1.565609 0.909265 1.75 0.464105 1.75 0 
C 1.75 -0.464105 1.565609 -0.909265 1.237437 -1.237437 
C 0.909265 -1.565609 0.464105 -1.75 0 -1.75 
C -0.464105 -1.75 -0.909265 -1.565609 -1.237437 -1.237437 
C -1.565609 -0.909265 -1.75 -0.464105 -1.75 0 
C -1.75 0.464105 -1.565609 0.909265 -1.237437 1.237437 
C -0.909265 1.565609 -0.464105 1.75 0 1.75 
z
" style="stroke: #3399cc"/>
    </defs>
    <g clip-path="url(#p2f6934b57f)">
     <use xlink:href="#m7b59c6665f" x="123.512989" y="156.072943" style="fill: #3399cc; stroke: #3399cc"/>
     <use xlink:href="#m7b59c6665f" x="169.31125" y="156.072943" style="fill: #3399cc; stroke: #3399cc"/>
     <use xlink:href="#m7b59c6665f" x="215.109511" y="156.072943" style="fill: #3399cc; stroke: #3399cc"/>
     <use xlink:href="#m7b59c6665f" x="215.109511" y="110.274682" style="fill: #3399cc; stroke: #3399cc"/>
     <use xlink:href="#m7b59c6665f" x="215.109511" y="64.476421" style="fill: #3399cc; stroke: #3399cc"/>
     <use xlink:href="#m7b59c6665f" x="169.31125" y="64.476421" style="fill: #3399cc; stroke: #3399cc"/>
     <use xlink:href="#m7b59c6665f" x="123.512989" y="64.476421" style="fill: #3399cc; stroke: #3399cc"/>
     <use xlink:href="#m7b59c6665f" x="123.512989" y="110.274682" style="fill: #3399cc; stroke: #3399cc"/>
     <use xlink:href="#m7b59c6665f" x="123.512989" y="156.072943" style="fill: #3399cc; stroke: #3399cc"/>
    </g>
   </g>
   <g id="text_2">
    <!-- hole -->
    <g style="fill: #bbbbbb" transform="translate(158.6175 113.034057) scale(0.1 -0.1)">
     <use xlink:href="#DejaVuSans-68"/>
     <use xlink:href="#DejaVuSans-6f" transform="translate(63.378906 0)"/>
     <use xlink:href="#DejaVuSans-6c" transform="translate(124.560547 0)"/>
     <use xlink:href="#DejaVuSans-65" transform="translate(152.34375 0)"/>
    </g>
   </g>
   <g id="text_3">
    <!-- Odd$(\mathcal{P})=0$,  Even$(\mathcal{P})=+4\pi$  →  $\sum g=4\pi$ -->
    <g style="fill: #222222" transform="translate(60.90625 208.231117) scale(0.11 -0.11)">
     <defs>
      <path id="DejaVuSans-4f" d="M 2522 4238 
Q 1834 4238 1429 3725 
Q 1025 3213 1025 2328 
Q 1025 1447 1429 934 
Q 1834 422 2522 422 
Q 3209 422 3611 934 
Q 4013 1447 4013 2328 
Q 4013 3213 3611 3725 
Q 3209 4238 2522 4238 
z
M 2522 4750 
Q 3503 4750 4090 4092 
Q 4678 3434 4678 2328 
Q 4678 1225 4090 567 
Q 3503 -91 2522 -91 
Q 1538 -91 948 565 
Q 359 1222 359 2328 
Q 359 3434 948 4092 
Q 1538 4750 2522 4750 
z
" transform="scale(0.015625)"/>
      <path id="STIXNonUnicode-Italic-e23c" d="M 1856 4237 
L 2490 4237 
Q 3014 4237 3385 4189 
Q 3757 4141 3981 4057 
Q 4205 3974 4329 3840 
Q 4454 3706 4496 3562 
Q 4538 3418 4538 3213 
Q 4538 3008 4480 2800 
Q 4422 2592 4249 2342 
Q 4077 2093 3808 1904 
Q 3539 1715 3075 1587 
Q 2611 1459 2010 1459 
L 2067 1613 
Q 2912 1696 3395 2121 
Q 3878 2547 3878 3187 
Q 3878 3622 3622 3801 
Q 3366 3981 2739 3981 
Q 2579 3981 2512 3904 
Q 2445 3827 2381 3597 
L 1574 762 
Q 1357 0 352 0 
L 403 154 
Q 595 154 700 317 
Q 806 480 928 902 
L 1498 2854 
Q 1690 3533 1690 3661 
Q 1690 3770 1626 3824 
Q 1562 3878 1395 3878 
Q 1203 3878 1017 3817 
Q 832 3757 739 3699 
Q 646 3642 508 3533 
Q 371 3424 358 3418 
L 243 3539 
Q 973 4237 1856 4237 
z
" transform="scale(0.015625)"/>
      <path id="DejaVuSans-30" d="M 2034 4250 
Q 1547 4250 1301 3770 
Q 1056 3291 1056 2328 
Q 1056 1369 1301 889 
Q 1547 409 2034 409 
Q 2525 409 2770 889 
Q 3016 1369 3016 2328 
Q 3016 3291 2770 3770 
Q 2525 4250 2034 4250 
z
M 2034 4750 
Q 2819 4750 3233 4129 
Q 3647 3509 3647 2328 
Q 3647 1150 3233 529 
Q 2819 -91 2034 -91 
Q 1250 -91 836 529 
Q 422 1150 422 2328 
Q 422 3509 836 4129 
Q 1250 4750 2034 4750 
z
" transform="scale(0.015625)"/>
      <path id="DejaVuSans-2c" d="M 750 794 
L 1409 794 
L 1409 256 
L 897 -744 
L 494 -744 
L 750 256 
L 750 794 
z
" transform="scale(0.015625)"/>
      <path id="DejaVuSans-45" d="M 628 4666 
L 3578 4666 
L 3578 4134 
L 1259 4134 
L 1259 2753 
L 3481 2753 
L 3481 2222 
L 1259 2222 
L 1259 531 
L 3634 531 
L 3634 0 
L 628 0 
L 628 4666 
z
" transform="scale(0.015625)"/>
      <path id="DejaVuSans-76" d="M 191 3500 
L 800 3500 
L 1894 563 
L 2988 3500 
L 3597 3500 
L 2284 0 
L 1503 0 
L 191 3500 
z
" transform="scale(0.015625)"/>
      <path id="DejaVuSans-34" d="M 2419 4116 
L 825 1625 
L 2419 1625 
L 2419 4116 
z
M 2253 4666 
L 3047 4666 
L 3047 1625 
L 3713 1625 
L 3713 1100 
L 3047 1100 
L 3047 0 
L 2419 0 
L 2419 1100 
L 313 1100 
L 313 1709 
L 2253 4666 
z
" transform="scale(0.015625)"/>
      <path id="DejaVuSans-Oblique-3c0" d="M 584 3500 
L 3938 3500 
L 3825 2925 
L 3384 2925 
L 2966 775 
Q 2922 550 2981 450 
Q 3038 353 3209 353 
Q 3256 353 3325 363 
Q 3397 369 3419 372 
L 3338 -44 
Q 3222 -84 3103 -103 
Q 2981 -122 2866 -122 
Q 2491 -122 2388 81 
Q 2284 288 2391 838 
L 2797 2925 
L 1506 2925 
L 938 0 
L 350 0 
L 919 2925 
L 472 2925 
L 584 3500 
z
" transform="scale(0.015625)"/>
      <path id="DejaVuSansDisplay-2211" d="M 244 6509 
L 5803 6509 
L 5803 5656 
L 1566 5656 
L 4534 2488 
L 1469 -888 
L 5919 -888 
L 5919 -1738 
L 109 -1738 
L 109 -1078 
L 3316 2463 
L 244 5728 
L 244 6509 
z
" transform="scale(0.015625)"/>
      <path id="DejaVuSans-Oblique-67" d="M 3816 3500 
L 3219 434 
Q 3047 -456 2561 -893 
Q 2075 -1331 1253 -1331 
Q 950 -1331 690 -1286 
Q 431 -1241 206 -1147 
L 313 -588 
Q 525 -725 762 -790 
Q 1000 -856 1269 -856 
Q 1816 -856 2167 -557 
Q 2519 -259 2631 300 
L 2681 563 
Q 2441 288 2122 144 
Q 1803 0 1434 0 
Q 903 0 598 351 
Q 294 703 294 1319 
Q 294 1803 478 2267 
Q 663 2731 997 3091 
Q 1219 3328 1514 3456 
Q 1809 3584 2131 3584 
Q 2484 3584 2746 3420 
Q 3009 3256 3138 2956 
L 3238 3500 
L 3816 3500 
z
M 2950 2216 
Q 2950 2641 2750 2872 
Q 2550 3103 2181 3103 
Q 1953 3103 1747 3012 
Q 1541 2922 1394 2759 
Q 1156 2491 1023 2127 
Q 891 1763 891 1375 
Q 891 944 1092 712 
Q 1294 481 1672 481 
Q 2219 481 2584 976 
Q 2950 1472 2950 2216 
z
" transform="scale(0.015625)"/>
     </defs>
     <use xlink:href="#DejaVuSans-4f" transform="translate(0 0.296875)"/>
     <use xlink:href="#DejaVuSans-64" transform="translate(78.710938 0.296875)"/>
     <use xlink:href="#DejaVuSans-64" transform="translate(142.1875 0.296875)"/>
     <use xlink:href="#DejaVuSans-28" transform="translate(205.664062 0.296875)"/>
     <use xlink:href="#STIXNonUnicode-Italic-e23c" transform="translate(244.677734 0.296875)"/>
     <use xlink:href="#DejaVuSans-29" transform="translate(311.377731 0.296875)"/>
     <use xlink:href="#DejaVuSans-3d" transform="translate(369.873825 0.296875)"/>
     <use xlink:href="#DejaVuSans-30" transform="translate(473.145309 0.296875)"/>
     <use xlink:href="#DejaVuSans-2c" transform="translate(536.768356 0.296875)"/>
     <use xlink:href="#DejaVuSans-20" transform="translate(568.555466 0.296875)"/>
     <use xlink:href="#DejaVuSans-20" transform="translate(600.342575 0.296875)"/>
     <use xlink:href="#DejaVuSans-45" transform="translate(632.129684 0.296875)"/>
     <use xlink:href="#DejaVuSans-76" transform="translate(695.313278 0.296875)"/>
     <use xlink:href="#DejaVuSans-65" transform="translate(754.492966 0.296875)"/>
     <use xlink:href="#DejaVuSans-6e" transform="translate(816.016403 0.296875)"/>
     <use xlink:href="#DejaVuSans-28" transform="translate(879.395309 0.296875)"/>
     <use xlink:href="#STIXNonUnicode-Italic-e23c" transform="translate(918.408981 0.296875)"/>
     <use xlink:href="#DejaVuSans-29" transform="translate(985.108978 0.296875)"/>
     <use xlink:href="#DejaVuSans-3d" transform="translate(1043.605072 0.296875)"/>
     <use xlink:href="#DejaVuSans-2b" transform="translate(1146.876556 0.296875)"/>
     <use xlink:href="#DejaVuSans-34" transform="translate(1230.665619 0.296875)"/>
     <use xlink:href="#DejaVuSans-Oblique-3c0" transform="translate(1294.288666 0.296875)"/>
     <use xlink:href="#DejaVuSans-20" transform="translate(1354.493744 0.296875)"/>
     <use xlink:href="#DejaVuSans-20" transform="translate(1386.280853 0.296875)"/>
     <use xlink:href="#DejaVuSans-2192" transform="translate(1418.067963 0.296875)"/>
     <use xlink:href="#DejaVuSans-20" transform="translate(1501.857025 0.296875)"/>
     <use xlink:href="#DejaVuSans-20" transform="translate(1533.644135 0.296875)"/>
     <use xlink:href="#DejaVuSansDisplay-2211" transform="translate(1565.431244 0.296875)"/>
     <use xlink:href="#DejaVuSans-Oblique-67" transform="translate(1660.694916 0.296875)"/>
     <use xlink:href="#DejaVuSans-3d" transform="translate(1743.6539 0.296875)"/>
     <use xlink:href="#DejaVuSans-34" transform="translate(1846.925385 0.296875)"/>
     <use xlink:href="#DejaVuSans-Oblique-3c0" transform="translate(1910.548431 0.296875)"/>
    </g>
   </g>
   <g id="text_4">
    <!-- $Tw=+1$   ✗  twisted (not foldable) -->
    <g style="fill: #d83232" transform="translate(61.31125 227.303588) scale(0.125 -0.125)">
     <defs>
      <path id="DejaVuSans-Oblique-54" d="M 378 4666 
L 4325 4666 
L 4225 4134 
L 2559 4134 
L 1759 0 
L 1125 0 
L 1925 4134 
L 275 4134 
L 378 4666 
z
" transform="scale(0.015625)"/>
      <path id="DejaVuSans-Oblique-77" d="M 544 3500 
L 1113 3500 
L 1259 684 
L 2566 3500 
L 3231 3500 
L 3425 684 
L 4666 3500 
L 5241 3500 
L 3641 0 
L 2969 0 
L 2797 2900 
L 1459 0 
L 781 0 
L 544 3500 
z
" transform="scale(0.015625)"/>
      <path id="DejaVuSans-2717" d="M 3975 4688 
Q 4006 4688 4056 4638 
Q 4109 4588 4166 4506 
Q 4256 4666 4309 4666 
Q 4356 4666 4438 4581 
Q 4488 4528 4488 4463 
Q 4488 4378 4419 4306 
Q 3769 3600 3156 2753 
Q 3409 2134 3856 1388 
Q 3894 1325 3894 1288 
Q 3894 1216 3800 1138 
L 3700 1069 
Q 3713 1031 3713 969 
Q 3713 875 3644 825 
Q 3563 769 3525 769 
Q 3444 769 3381 850 
Q 3006 1331 2606 1981 
Q 2069 1281 1375 113 
Q 1275 -56 1038 -56 
Q 925 -56 913 75 
Q 753 163 753 353 
Q 753 603 788 700 
Q 803 744 888 875 
Q 1525 1869 2238 2700 
Q 1856 3606 1731 4097 
Q 1703 4206 1703 4238 
Q 1703 4281 1759 4363 
Q 1819 4444 1869 4444 
Q 1916 4444 1988 4353 
Q 2016 4406 2056 4444 
Q 2113 4494 2200 4494 
Q 2300 4494 2331 4400 
Q 2500 3875 2775 3400 
Q 3219 3975 3856 4613 
Q 3931 4688 3975 4688 
z
" transform="scale(0.015625)"/>
      <path id="DejaVuSans-66" d="M 2375 4863 
L 2375 4384 
L 1825 4384 
Q 1516 4384 1395 4259 
Q 1275 4134 1275 3809 
L 1275 3500 
L 2222 3500 
L 2222 3053 
L 1275 3053 
L 1275 0 
L 697 0 
L 697 3053 
L 147 3053 
L 147 3500 
L 697 3500 
L 697 3744 
Q 697 4328 969 4595 
Q 1241 4863 1831 4863 
L 2375 4863 
z
" transform="scale(0.015625)"/>
      <path id="DejaVuSans-62" d="M 3116 1747 
Q 3116 2381 2855 2742 
Q 2594 3103 2138 3103 
Q 1681 3103 1420 2742 
Q 1159 2381 1159 1747 
Q 1159 1113 1420 752 
Q 1681 391 2138 391 
Q 2594 391 2855 752 
Q 3116 1113 3116 1747 
z
M 1159 2969 
Q 1341 3281 1617 3432 
Q 1894 3584 2278 3584 
Q 2916 3584 3314 3078 
Q 3713 2572 3713 1747 
Q 3713 922 3314 415 
Q 2916 -91 2278 -91 
Q 1894 -91 1617 61 
Q 1341 213 1159 525 
L 1159 0 
L 581 0 
L 581 4863 
L 1159 4863 
L 1159 2969 
z
" transform="scale(0.015625)"/>
     </defs>
     <use xlink:href="#DejaVuSans-Oblique-54" transform="translate(0 0.015625)"/>
     <use xlink:href="#DejaVuSans-Oblique-77" transform="translate(61.083984 0.015625)"/>
     <use xlink:href="#DejaVuSans-3d" transform="translate(162.353516 0.015625)"/>
     <use xlink:href="#DejaVuSans-2b" transform="translate(265.625 0.015625)"/>
     <use xlink:href="#DejaVuSans-31" transform="translate(349.414062 0.015625)"/>
     <use xlink:href="#DejaVuSans-20" transform="translate(413.037109 0.015625)"/>
     <use xlink:href="#DejaVuSans-20" transform="translate(444.824219 0.015625)"/>
     <use xlink:href="#DejaVuSans-20" transform="translate(476.611328 0.015625)"/>
     <use xlink:href="#DejaVuSans-2717" transform="translate(508.398438 0.015625)"/>
     <use xlink:href="#DejaVuSans-20" transform="translate(592.1875 0.015625)"/>
     <use xlink:href="#DejaVuSans-20" transform="translate(623.974609 0.015625)"/>
     <use xlink:href="#DejaVuSans-74" transform="translate(655.761719 0.015625)"/>
     <use xlink:href="#DejaVuSans-77" transform="translate(694.970703 0.015625)"/>
     <use xlink:href="#DejaVuSans-69" transform="translate(776.757812 0.015625)"/>
     <use xlink:href="#DejaVuSans-73" transform="translate(804.541016 0.015625)"/>
     <use xlink:href="#DejaVuSans-74" transform="translate(856.640625 0.015625)"/>
     <use xlink:href="#DejaVuSans-65" transform="translate(895.849609 0.015625)"/>
     <use xlink:href="#DejaVuSans-64" transform="translate(957.373047 0.015625)"/>
     <use xlink:href="#DejaVuSans-20" transform="translate(1020.849609 0.015625)"/>
     <use xlink:href="#DejaVuSans-28" transform="translate(1052.636719 0.015625)"/>
     <use xlink:href="#DejaVuSans-6e" transform="translate(1091.650391 0.015625)"/>
     <use xlink:href="#DejaVuSans-6f" transform="translate(1155.029297 0.015625)"/>
     <use xlink:href="#DejaVuSans-74" transform="translate(1216.210938 0.015625)"/>
     <use xlink:href="#DejaVuSans-20" transform="translate(1255.419922 0.015625)"/>
     <use xlink:href="#DejaVuSans-66" transform="translate(1287.207031 0.015625)"/>
     <use xlink:href="#DejaVuSans-6f" transform="translate(1322.412109 0.015625)"/>
     <use xlink:href="#DejaVuSans-6c" transform="translate(1383.59375 0.015625)"/>
     <use xlink:href="#DejaVuSans-64" transform="translate(1411.376953 0.015625)"/>
     <use xlink:href="#DejaVuSans-61" transform="translate(1474.853516 0.015625)"/>
     <use xlink:href="#DejaVuSans-62" transform="translate(1536.132812 0.015625)"/>
     <use xlink:href="#DejaVuSans-6c" transform="translate(1599.609375 0.015625)"/>
     <use xlink:href="#DejaVuSans-65" transform="translate(1627.392578 0.015625)"/>
     <use xlink:href="#DejaVuSans-29" transform="translate(1688.916016 0.015625)"/>
    </g>
   </g>
  </g>
 </g>
 <defs>
  <clipPath id="p2f6934b57f">
   <rect x="82.294554" y="27.837812" width="174.033391" height="210.672"/>
  </clipPath>
 </defs>
</svg>
