<?xml version="1.0" encoding="utf-8" standalone="no"?>
<!DOCTYPE svg PUBLIC "-//W3C//DTD SVG 1.1//EN"
  "http://www.w3.org/Graphics/SVG/1.1/DTD/svg11.dtd">
<svg xmlns:xlink="http://www.w3.org/1999/xlink" width="561.24pt" height="268.848pt" viewBox="0 0 561.24 268.848" xmlns="http://www.w3.org/2000/svg" version="1.1">
 <metadata>
  <rdf:RDF xmlns:dc="http://purl.org/dc/elements/1.1/" xmlns:cc="http://creativecommons.org/ns#" xmlns:rdf="http://www.w3.org/1999/02/22-rdf-syntax-ns#">
   <cc:Work>
    <dc:type rdf:resource="http://purl.org/dc/dcmitype/StillImage"/>
    <dc:date>2026-06-03T14:06:02.900369</dc:date>
    <dc:format>image/svg+xml</dc:format>
    <dc:creator>
     <cc:Agent>
      <dc:title>Matplotlib v3.10.9, https://matplotlib.org/</dc:title>
     </cc:Agent>
    </dc:creator>
   </cc:Work>
  </rdf:RDF>
 </metadata>
 <defs>
  <style type="text/css">*{stroke-linejoin: round; stroke-linecap: butt}</style>
 </defs>
 <g id="figure_1">
  <g id="patch_1">
   <path d="M 0 268.848 
L 561.24 268.848 
L 561.24 0 
L 0 0 
z
" style="fill: #ffffff"/>
  </g>
  <g id="axes_1">
   <g id="line2d_1">
    <path d="M 127.826471 140.515676 
L 127.746329 137.978273 
L 127.506222 135.450985 
L 127.107107 132.943886 
L 126.550576 130.46697 
L 125.838847 128.030112 
L 124.974758 125.643024 
L 123.961751 123.315224 
L 122.803867 121.055989 
L 121.50572 118.874326 
L 120.072485 116.778933 
L 118.509875 114.77816 
L 116.82412 112.879985 
L 115.02194 111.091975 
L 113.110518 109.421255 
L 111.097474 107.874487 
L 108.990832 106.457837 
L 106.798991 105.176951 
L 104.530687 104.036935 
L 102.194963 103.042334 
L 99.801129 102.197114 
L 97.358728 101.504642 
L 94.877497 100.967679 
L 92.367326 100.588367 
L 89.838221 100.368217 
L 87.300264 100.308106 
L 84.763573 100.408274 
L 82.238258 100.668322 
L 79.734388 101.087213 
L 77.261942 101.663278 
L 74.830777 102.39422 
L 72.450585 103.277125 
L 70.130853 104.308474 
L 67.880828 105.484155 
L 65.70948 106.799483 
L 63.625465 108.249213 
L 61.637089 109.827566 
L 59.75228 111.528252 
L 57.97855 113.34449 
L 56.32297 115.26904 
L 54.79214 117.29423 
L 53.392162 119.411988 
L 52.128617 121.613872 
L 51.006541 123.891104 
L 50.030408 126.234606 
L 49.204109 128.635037 
L 48.530938 131.082827 
L 48.013577 133.56822 
L 47.65409 136.081307 
L 47.45391 138.612071 
L 47.413834 141.150423 
L 47.534022 143.686245 
L 47.813995 146.209428 
L 48.252638 148.709914 
L 48.8482 151.177735 
L 49.59831 153.603055 
L 50.499975 155.976204 
L 51.549602 158.287723 
L 52.743007 160.528397 
L 54.075433 162.689295 
L 55.541568 164.761802 
L 57.135567 166.737658 
L 58.851077 168.608984 
L 60.681259 170.368323 
L 62.618817 172.00866 
L 64.656028 173.523457 
L 66.784771 174.906675 
L 68.996559 176.1528 
L 71.282577 177.256866 
L 73.633711 178.21447 
L 76.04059 179.021796 
L 78.493617 179.675625 
L 80.983016 180.173351 
L 83.498862 180.51299 
L 86.031128 180.693188 
L 88.569717 180.713227 
L 91.104511 180.573026 
L 93.625406 180.273145 
L 96.122351 179.814779 
L 98.585395 179.199756 
L 101.004718 178.430526 
L 103.370676 177.510157 
L 105.673838 176.442316 
L 107.905023 175.231262 
L 110.055336 173.881821 
L 112.116206 172.399373 
L 114.079417 170.789827 
L 115.937145 169.0596 
L 117.681982 167.215588 
L 119.306974 165.265142 
L 120.805643 163.216038 
L 122.172015 161.076443 
L 123.400644 158.854887 
L 124.48663 156.560226 
L 125.425646 154.201606 
L 126.213949 151.78843 
L 126.848395 149.330318 
L 127.326456 146.837068 
L 127.646226 144.318619 
L 127.80643 141.785011 
L 127.826471 140.515676 
L 127.826471 140.515676 
" clip-path="url(#pc6b1be33cd)" style="fill: none; stroke: #6f4fb0; stroke-width: 2.4; stroke-linecap: square"/>
   </g>
   <g id="line2d_2">
    <path d="M 145.058824 140.515676 
L 144.944335 136.890815 
L 144.601325 133.280403 
L 144.031162 129.698833 
L 143.236118 126.160382 
L 142.219362 122.679155 
L 140.984948 119.269031 
L 139.537796 115.943601 
L 137.883675 112.716123 
L 136.029179 109.599462 
L 133.981701 106.606042 
L 131.749401 103.747796 
L 129.34118 101.036118 
L 126.766637 98.481817 
L 124.036034 96.095075 
L 121.160256 93.885406 
L 118.150768 91.861619 
L 115.019566 90.031782 
L 111.779132 88.403189 
L 108.442383 86.982331 
L 105.022621 85.774872 
L 101.533477 84.785627 
L 97.988861 84.018538 
L 94.402902 83.476663 
L 90.789895 83.162162 
L 87.164243 83.076289 
L 83.540398 83.219387 
L 79.932806 83.590884 
L 76.355848 84.1893 
L 72.823783 85.01225 
L 69.35069 86.056453 
L 65.950415 87.317746 
L 62.636512 88.791101 
L 59.422191 90.470646 
L 56.320266 92.349686 
L 53.343101 94.420728 
L 50.502564 96.675519 
L 47.809979 99.10507 
L 45.276079 101.699695 
L 42.910965 104.449053 
L 40.724065 107.342182 
L 38.724097 110.367551 
L 36.919032 113.513099 
L 35.316067 116.766287 
L 33.921592 120.114147 
L 32.741164 123.543334 
L 31.779491 127.040177 
L 31.040405 130.590738 
L 30.526852 134.180863 
L 30.24088 137.796239 
L 30.183628 141.422457 
L 30.355326 145.045059 
L 30.755288 148.649607 
L 31.381919 152.22173 
L 32.232723 155.747189 
L 33.304308 159.211931 
L 34.592401 162.602144 
L 36.091869 165.904314 
L 37.796733 169.105278 
L 39.700198 172.192274 
L 41.794677 175.152999 
L 44.071819 177.975649 
L 46.522547 180.648973 
L 49.137093 183.162314 
L 51.905033 185.505653 
L 54.815334 187.669648 
L 57.856395 189.645674 
L 61.016093 191.425853 
L 64.281833 193.00309 
L 67.640596 194.371096 
L 71.078993 195.524418 
L 74.583319 196.45846 
L 78.139603 197.169497 
L 81.733669 197.654696 
L 85.351191 197.912122 
L 88.977747 197.940748 
L 92.598881 197.740462 
L 96.200159 197.31206 
L 99.767225 196.657252 
L 103.285858 195.778647 
L 106.742034 194.679747 
L 110.121974 193.364934 
L 113.412206 191.839448 
L 116.599612 190.10937 
L 119.671488 188.181597 
L 122.615588 186.063814 
L 125.420176 183.764463 
L 128.074072 181.292709 
L 130.566697 178.658407 
L 132.888114 175.872056 
L 135.02907 172.944764 
L 136.98103 169.8882 
L 138.736214 166.714549 
L 140.287623 163.436461 
L 141.629075 160.067005 
L 142.755221 156.619611 
L 143.661573 153.108022 
L 144.344517 149.546236 
L 144.801331 145.948452 
L 145.030194 142.329011 
L 145.058824 140.515676 
L 145.058824 140.515676 
" clip-path="url(#pc6b1be33cd)" style="fill: none; stroke: #6f4fb0; stroke-width: 2.4; stroke-linecap: square"/>
   </g>
   <g id="text_1">
    <!-- flat:  $Lk=0$ -->
    <g style="fill: #222222" transform="translate(53.957647 232.86075) scale(0.12 -0.12)">
     <defs>
      <path id="DejaVuSans-66" d="M 2375 4863 
L 2375 4384 
L 1825 4384 
Q 1516 4384 1395 4259 
Q 1275 4134 1275 3809 
L 1275 3500 
L 2222 3500 
L 2222 3053 
L 1275 3053 
L 1275 0 
L 697 0 
L 697 3053 
L 147 3053 
L 147 3500 
L 697 3500 
L 697 3744 
Q 697 4328 969 4595 
Q 1241 4863 1831 4863 
L 2375 4863 
z
" transform="scale(0.015625)"/>
      <path id="DejaVuSans-6c" d="M 603 4863 
L 1178 4863 
L 1178 0 
L 603 0 
L 603 4863 
z
" transform="scale(0.015625)"/>
      <path id="DejaVuSans-61" d="M 2194 1759 
Q 1497 1759 1228 1600 
Q 959 1441 959 1056 
Q 959 750 1161 570 
Q 1363 391 1709 391 
Q 2188 391 2477 730 
Q 2766 1069 2766 1631 
L 2766 1759 
L 2194 1759 
z
M 3341 1997 
L 3341 0 
L 2766 0 
L 2766 531 
Q 2569 213 2275 61 
Q 1981 -91 1556 -91 
Q 1019 -91 701 211 
Q 384 513 384 1019 
Q 384 1609 779 1909 
Q 1175 2209 1959 2209 
L 2766 2209 
L 2766 2266 
Q 2766 2663 2505 2880 
Q 2244 3097 1772 3097 
Q 1472 3097 1187 3025 
Q 903 2953 641 2809 
L 641 3341 
Q 956 3463 1253 3523 
Q 1550 3584 1831 3584 
Q 2591 3584 2966 3190 
Q 3341 2797 3341 1997 
z
" transform="scale(0.015625)"/>
      <path id="DejaVuSans-74" d="M 1172 4494 
L 1172 3500 
L 2356 3500 
L 2356 3053 
L 1172 3053 
L 1172 1153 
Q 1172 725 1289 603 
Q 1406 481 1766 481 
L 2356 481 
L 2356 0 
L 1766 0 
Q 1100 0 847 248 
Q 594 497 594 1153 
L 594 3053 
L 172 3053 
L 172 3500 
L 594 3500 
L 594 4494 
L 1172 4494 
z
" transform="scale(0.015625)"/>
      <path id="DejaVuSans-3a" d="M 750 794 
L 1409 794 
L 1409 0 
L 750 0 
L 750 794 
z
M 750 3309 
L 1409 3309 
L 1409 2516 
L 750 2516 
L 750 3309 
z
" transform="scale(0.015625)"/>
      <path id="DejaVuSans-20" transform="scale(0.015625)"/>
      <path id="DejaVuSans-Oblique-4c" d="M 1075 4666 
L 1709 4666 
L 909 525 
L 3181 525 
L 3078 0 
L 172 0 
L 1075 4666 
z
" transform="scale(0.015625)"/>
      <path id="DejaVuSans-Oblique-6b" d="M 1172 4863 
L 1747 4863 
L 1197 2028 
L 3169 3500 
L 3916 3500 
L 1716 1825 
L 3322 0 
L 2625 0 
L 1131 1709 
L 800 0 
L 225 0 
L 1172 4863 
z
" transform="scale(0.015625)"/>
      <path id="DejaVuSans-3d" d="M 678 2906 
L 4684 2906 
L 4684 2381 
L 678 2381 
L 678 2906 
z
M 678 1631 
L 4684 1631 
L 4684 1100 
L 678 1100 
L 678 1631 
z
" transform="scale(0.015625)"/>
      <path id="DejaVuSans-30" d="M 2034 4250 
Q 1547 4250 1301 3770 
Q 1056 3291 1056 2328 
Q 1056 1369 1301 889 
Q 1547 409 2034 409 
Q 2525 409 2770 889 
Q 3016 1369 3016 2328 
Q 3016 3291 2770 3770 
Q 2525 4250 2034 4250 
z
M 2034 4750 
Q 2819 4750 3233 4129 
Q 3647 3509 3647 2328 
Q 3647 1150 3233 529 
Q 2819 -91 2034 -91 
Q 1250 -91 836 529 
Q 422 1150 422 2328 
Q 422 3509 836 4129 
Q 1250 4750 2034 4750 
z
" transform="scale(0.015625)"/>
     </defs>
     <use xlink:href="#DejaVuSans-66" transform="translate(0 0.015625)"/>
     <use xlink:href="#DejaVuSans-6c" transform="translate(35.205078 0.015625)"/>
     <use xlink:href="#DejaVuSans-61" transform="translate(62.988281 0.015625)"/>
     <use xlink:href="#DejaVuSans-74" transform="translate(124.267578 0.015625)"/>
     <use xlink:href="#DejaVuSans-3a" transform="translate(163.476562 0.015625)"/>
     <use xlink:href="#DejaVuSans-20" transform="translate(197.167969 0.015625)"/>
     <use xlink:href="#DejaVuSans-20" transform="translate(228.955078 0.015625)"/>
     <use xlink:href="#DejaVuSans-Oblique-4c" transform="translate(260.742188 0.015625)"/>
     <use xlink:href="#DejaVuSans-Oblique-6b" transform="translate(316.455078 0.015625)"/>
     <use xlink:href="#DejaVuSans-3d" transform="translate(393.847656 0.015625)"/>
     <use xlink:href="#DejaVuSans-30" transform="translate(497.119141 0.015625)"/>
    </g>
   </g>
  </g>
  <g id="axes_2">
   <g id="line2d_3">
    <path d="M 318.432923 156.312 
L 318.357556 153.925792 
L 318.131757 151.549095 
L 317.756424 149.191385 
L 317.233055 146.86206 
L 316.563735 144.570406 
L 315.751133 142.325556 
L 314.798489 140.136461 
L 313.709598 138.011846 
L 312.488803 135.960181 
L 311.140969 133.989644 
L 309.67147 132.108091 
L 308.086164 130.323021 
L 306.391369 128.641552 
L 304.593841 127.070384 
L 302.700747 125.615783 
L 300.719633 124.283545 
L 298.658396 123.078983 
L 296.525252 122.006897 
L 294.328705 121.071561 
L 292.077512 120.276704 
L 289.780645 119.625494 
L 287.447261 119.120527 
L 285.086662 118.763817 
L 282.708258 118.556784 
L 280.321529 118.500255 
L 277.93599 118.594454 
L 275.56115 118.839007 
L 273.206476 119.232938 
L 270.881354 119.774678 
L 268.595054 120.462065 
L 266.356689 121.292361 
L 264.175181 122.262256 
L 262.059228 123.367882 
L 260.017263 124.604834 
L 258.057426 125.96818 
L 256.187531 127.452485 
L 254.41503 129.051833 
L 252.746991 130.759847 
L 251.190061 132.56972 
L 249.750448 134.474237 
L 248.433889 136.465806 
L 247.245634 138.536487 
L 246.190419 140.678026 
L 245.272451 142.881888 
L 244.495388 145.139285 
L 243.862328 147.44122 
L 243.375796 149.778517 
L 243.037729 152.141859 
L 242.849477 154.521823 
L 242.811789 156.908924 
L 242.924815 159.293645 
L 243.188106 161.666481 
L 243.600611 164.017972 
L 244.160686 166.338745 
L 244.866099 168.619548 
L 245.714038 170.85129 
L 246.701121 173.025073 
L 247.823416 175.132234 
L 249.076447 177.164372 
L 250.45522 179.113386 
L 251.954239 180.971507 
L 253.567527 182.731328 
L 255.288655 184.385833 
L 257.110761 185.928429 
L 259.026582 187.352964 
L 261.028481 188.653761 
L 263.108477 189.825635 
L 265.258279 190.863913 
L 267.469317 191.764457 
L 269.732778 192.523677 
L 272.039639 193.138547 
L 274.380703 193.606615 
L 276.746639 193.926016 
L 279.128016 194.095477 
L 281.515339 194.114322 
L 283.899094 193.982475 
L 286.269778 193.700463 
L 288.617939 193.26941 
L 290.934219 192.691033 
L 293.209383 191.967639 
L 295.434362 191.102111 
L 297.600287 190.0979 
L 299.698523 188.959008 
L 301.720707 187.689975 
L 303.658777 186.295861 
L 305.505008 184.782222 
L 307.25204 183.155092 
L 308.892908 181.420959 
L 310.421073 179.586733 
L 311.830442 177.659727 
L 313.115397 175.647624 
L 314.270815 173.558442 
L 315.292092 171.400512 
L 316.175155 169.182434 
L 316.916486 166.913051 
L 317.513127 164.601409 
L 317.962702 162.256723 
L 318.263418 159.888339 
L 318.414077 157.505699 
L 318.432923 156.312 
L 318.432923 156.312 
" clip-path="url(#p177fb8c27a)" style="fill: none; stroke: #6f4fb0; stroke-width: 2.4; stroke-linecap: square"/>
   </g>
   <g id="line2d_4">
    <path d="M 334.638462 156.312 
L 334.530795 152.903131 
L 334.208224 149.507851 
L 333.672035 146.139693 
L 332.924364 142.812086 
L 331.968193 139.538294 
L 330.807334 136.331366 
L 329.446412 133.204087 
L 327.890855 130.168923 
L 326.146862 127.237973 
L 324.221385 124.42292 
L 322.1221 121.734987 
L 319.857376 119.184888 
L 317.436241 116.782788 
L 314.868345 114.538263 
L 312.163925 112.460261 
L 309.333761 110.557065 
L 306.389137 108.836261 
L 303.341788 107.30471 
L 300.203865 105.968515 
L 296.987874 104.833005 
L 293.706636 103.902705 
L 290.37323 103.181324 
L 287.000946 102.671738 
L 283.603225 102.375977 
L 280.193612 102.295221 
L 276.785699 102.429792 
L 273.393071 102.779153 
L 270.029251 103.341912 
L 266.707649 104.115825 
L 263.441506 105.097807 
L 260.243841 106.283944 
L 257.127402 107.669508 
L 254.104611 109.248975 
L 251.187518 111.016049 
L 248.387752 112.963686 
L 245.716473 115.084121 
L 243.184329 117.368904 
L 240.801415 119.808925 
L 238.57723 122.394458 
L 236.520639 125.115196 
L 234.639842 127.960294 
L 232.942335 130.91841 
L 231.434885 133.977752 
L 230.123501 137.126125 
L 229.013411 140.350979 
L 228.109041 143.639458 
L 227.413994 146.978453 
L 226.931042 150.354655 
L 226.66211 153.754605 
L 226.60827 157.164749 
L 226.769736 160.571493 
L 227.145866 163.961258 
L 227.735159 167.320531 
L 228.535266 170.635921 
L 229.542999 173.894211 
L 230.754339 177.082414 
L 232.164459 180.187819 
L 233.767737 183.198049 
L 235.557781 186.101102 
L 237.527457 188.885408 
L 239.668912 191.539867 
L 241.97361 194.053897 
L 244.432365 196.417476 
L 247.035373 198.621184 
L 249.77226 200.656234 
L 252.632115 202.514516 
L 255.603538 204.188621 
L 258.674684 205.671875 
L 261.83331 206.958367 
L 265.066826 208.042967 
L 268.362341 208.921353 
L 271.706719 209.590022 
L 275.086627 210.046309 
L 278.488594 210.288396 
L 281.899056 210.315317 
L 285.30442 210.126964 
L 288.691111 209.72409 
L 292.045628 209.108299 
L 295.354599 208.282047 
L 298.604833 207.248627 
L 301.783375 206.012159 
L 304.877553 204.577571 
L 307.875033 202.950582 
L 310.763867 201.137679 
L 313.532539 199.146087 
L 316.170011 196.983746 
L 318.665771 194.659275 
L 321.009869 192.181941 
L 323.192962 189.561619 
L 325.206346 186.808754 
L 327.041995 183.93432 
L 328.692593 180.949775 
L 330.15156 177.867017 
L 331.413079 174.698334 
L 332.472122 171.456358 
L 333.324468 168.154012 
L 333.966718 164.804461 
L 334.396312 161.421056 
L 334.611538 158.017284 
L 334.638462 156.312 
L 334.638462 156.312 
" clip-path="url(#p177fb8c27a)" style="fill: none; stroke: #6f4fb0; stroke-width: 2.4; stroke-linecap: square"/>
   </g>
   <g id="line2d_5">
    <path d="M 270.896677 92.570215 
L 290.343323 112.016862 
" clip-path="url(#p177fb8c27a)" style="fill: none; stroke: #d83232; stroke-width: 3; stroke-linecap: square"/>
   </g>
   <g id="line2d_6">
    <path d="M 270.896677 112.016862 
L 290.343323 92.570215 
" clip-path="url(#p177fb8c27a)" style="fill: none; stroke: #d83232; stroke-width: 3; stroke-linecap: square"/>
   </g>
   <g id="text_2">
    <!-- add $2\pi$ twist -->
    <g style="fill: #d83232" transform="translate(249.82 76.963313) scale(0.1 -0.1)">
     <defs>
      <path id="DejaVuSans-64" d="M 2906 2969 
L 2906 4863 
L 3481 4863 
L 3481 0 
L 2906 0 
L 2906 525 
Q 2725 213 2448 61 
Q 2172 -91 1784 -91 
Q 1150 -91 751 415 
Q 353 922 353 1747 
Q 353 2572 751 3078 
Q 1150 3584 1784 3584 
Q 2172 3584 2448 3432 
Q 2725 3281 2906 2969 
z
M 947 1747 
Q 947 1113 1208 752 
Q 1469 391 1925 391 
Q 2381 391 2643 752 
Q 2906 1113 2906 1747 
Q 2906 2381 2643 2742 
Q 2381 3103 1925 3103 
Q 1469 3103 1208 2742 
Q 947 2381 947 1747 
z
" transform="scale(0.015625)"/>
      <path id="DejaVuSans-32" d="M 1228 531 
L 3431 531 
L 3431 0 
L 469 0 
L 469 531 
Q 828 903 1448 1529 
Q 2069 2156 2228 2338 
Q 2531 2678 2651 2914 
Q 2772 3150 2772 3378 
Q 2772 3750 2511 3984 
Q 2250 4219 1831 4219 
Q 1534 4219 1204 4116 
Q 875 4013 500 3803 
L 500 4441 
Q 881 4594 1212 4672 
Q 1544 4750 1819 4750 
Q 2544 4750 2975 4387 
Q 3406 4025 3406 3419 
Q 3406 3131 3298 2873 
Q 3191 2616 2906 2266 
Q 2828 2175 2409 1742 
Q 1991 1309 1228 531 
z
" transform="scale(0.015625)"/>
      <path id="DejaVuSans-Oblique-3c0" d="M 584 3500 
L 3938 3500 
L 3825 2925 
L 3384 2925 
L 2966 775 
Q 2922 550 2981 450 
Q 3038 353 3209 353 
Q 3256 353 3325 363 
Q 3397 369 3419 372 
L 3338 -44 
Q 3222 -84 3103 -103 
Q 2981 -122 2866 -122 
Q 2491 -122 2388 81 
Q 2284 288 2391 838 
L 2797 2925 
L 1506 2925 
L 938 0 
L 350 0 
L 919 2925 
L 472 2925 
L 584 3500 
z
" transform="scale(0.015625)"/>
      <path id="DejaVuSans-77" d="M 269 3500 
L 844 3500 
L 1563 769 
L 2278 3500 
L 2956 3500 
L 3675 769 
L 4391 3500 
L 4966 3500 
L 4050 0 
L 3372 0 
L 2619 2869 
L 1863 0 
L 1184 0 
L 269 3500 
z
" transform="scale(0.015625)"/>
      <path id="DejaVuSans-69" d="M 603 3500 
L 1178 3500 
L 1178 0 
L 603 0 
L 603 3500 
z
M 603 4863 
L 1178 4863 
L 1178 4134 
L 603 4134 
L 603 4863 
z
" transform="scale(0.015625)"/>
      <path id="DejaVuSans-73" d="M 2834 3397 
L 2834 2853 
Q 2591 2978 2328 3040 
Q 2066 3103 1784 3103 
Q 1356 3103 1142 2972 
Q 928 2841 928 2578 
Q 928 2378 1081 2264 
Q 1234 2150 1697 2047 
L 1894 2003 
Q 2506 1872 2764 1633 
Q 3022 1394 3022 966 
Q 3022 478 2636 193 
Q 2250 -91 1575 -91 
Q 1294 -91 989 -36 
Q 684 19 347 128 
L 347 722 
Q 666 556 975 473 
Q 1284 391 1588 391 
Q 1994 391 2212 530 
Q 2431 669 2431 922 
Q 2431 1156 2273 1281 
Q 2116 1406 1581 1522 
L 1381 1569 
Q 847 1681 609 1914 
Q 372 2147 372 2553 
Q 372 3047 722 3315 
Q 1072 3584 1716 3584 
Q 2034 3584 2315 3537 
Q 2597 3491 2834 3397 
z
" transform="scale(0.015625)"/>
     </defs>
     <use xlink:href="#DejaVuSans-61" transform="translate(0 0.015625)"/>
     <use xlink:href="#DejaVuSans-64" transform="translate(61.279297 0.015625)"/>
     <use xlink:href="#DejaVuSans-64" transform="translate(124.755859 0.015625)"/>
     <use xlink:href="#DejaVuSans-20" transform="translate(188.232422 0.015625)"/>
     <use xlink:href="#DejaVuSans-32" transform="translate(220.019531 0.015625)"/>
     <use xlink:href="#DejaVuSans-Oblique-3c0" transform="translate(283.642578 0.015625)"/>
     <use xlink:href="#DejaVuSans-20" transform="translate(343.847656 0.015625)"/>
     <use xlink:href="#DejaVuSans-74" transform="translate(375.634766 0.015625)"/>
     <use xlink:href="#DejaVuSans-77" transform="translate(414.84375 0.015625)"/>
     <use xlink:href="#DejaVuSans-69" transform="translate(496.630859 0.015625)"/>
     <use xlink:href="#DejaVuSans-73" transform="translate(524.414062 0.015625)"/>
     <use xlink:href="#DejaVuSans-74" transform="translate(576.513672 0.015625)"/>
    </g>
   </g>
   <g id="text_3">
    <!-- $Tw=1,\ Wr=0$ -->
    <g style="fill: #222222" transform="translate(236.22 243.351865) scale(0.12 -0.12)">
     <defs>
      <path id="DejaVuSans-Oblique-54" d="M 378 4666 
L 4325 4666 
L 4225 4134 
L 2559 4134 
L 1759 0 
L 1125 0 
L 1925 4134 
L 275 4134 
L 378 4666 
z
" transform="scale(0.015625)"/>
      <path id="DejaVuSans-Oblique-77" d="M 544 3500 
L 1113 3500 
L 1259 684 
L 2566 3500 
L 3231 3500 
L 3425 684 
L 4666 3500 
L 5241 3500 
L 3641 0 
L 2969 0 
L 2797 2900 
L 1459 0 
L 781 0 
L 544 3500 
z
" transform="scale(0.015625)"/>
      <path id="DejaVuSans-31" d="M 794 531 
L 1825 531 
L 1825 4091 
L 703 3866 
L 703 4441 
L 1819 4666 
L 2450 4666 
L 2450 531 
L 3481 531 
L 3481 0 
L 794 0 
L 794 531 
z
" transform="scale(0.015625)"/>
      <path id="DejaVuSans-2c" d="M 750 794 
L 1409 794 
L 1409 256 
L 897 -744 
L 494 -744 
L 750 256 
L 750 794 
z
" transform="scale(0.015625)"/>
      <path id="DejaVuSans-Oblique-57" d="M 616 4666 
L 1228 4666 
L 1453 697 
L 3213 4666 
L 3916 4666 
L 4147 697 
L 5888 4666 
L 6528 4666 
L 4453 0 
L 3659 0 
L 3444 3891 
L 1697 0 
L 903 0 
L 616 4666 
z
" transform="scale(0.015625)"/>
      <path id="DejaVuSans-Oblique-72" d="M 2853 2969 
Q 2766 3016 2653 3041 
Q 2541 3066 2413 3066 
Q 1953 3066 1609 2717 
Q 1266 2369 1153 1784 
L 800 0 
L 225 0 
L 909 3500 
L 1484 3500 
L 1375 2956 
Q 1603 3259 1920 3421 
Q 2238 3584 2597 3584 
Q 2691 3584 2781 3573 
Q 2872 3563 2963 3538 
L 2853 2969 
z
" transform="scale(0.015625)"/>
     </defs>
     <use xlink:href="#DejaVuSans-Oblique-54" transform="translate(0 0.78125)"/>
     <use xlink:href="#DejaVuSans-Oblique-77" transform="translate(61.083984 0.78125)"/>
     <use xlink:href="#DejaVuSans-3d" transform="translate(162.353516 0.78125)"/>
     <use xlink:href="#DejaVuSans-31" transform="translate(265.625 0.78125)"/>
     <use xlink:href="#DejaVuSans-2c" transform="translate(329.248047 0.78125)"/>
     <use xlink:href="#DejaVuSans-Oblique-57" transform="translate(412.987957 0.78125)"/>
     <use xlink:href="#DejaVuSans-Oblique-72" transform="translate(511.86491 0.78125)"/>
     <use xlink:href="#DejaVuSans-3d" transform="translate(572.460613 0.78125)"/>
     <use xlink:href="#DejaVuSans-30" transform="translate(675.732097 0.78125)"/>
    </g>
   </g>
  </g>
  <g id="axes_3">
   <g id="line2d_7">
    <path d="M 536.064291 138.572813 
L 535.902357 134.681749 
L 535.418536 130.824416 
L 534.618743 127.034059 
L 533.512734 123.342959 
L 532.113955 119.781968 
L 530.439342 116.38007 
L 528.509053 113.163972 
L 526.346167 110.157722 
L 523.976326 107.382379 
L 521.427344 104.855725 
L 518.728786 102.592031 
L 515.911514 100.601871 
L 513.007219 98.892005 
L 510.047942 97.46531 
L 507.065591 96.320782 
L 504.091458 95.453591 
L 501.155754 94.855199 
L 498.287155 94.513533 
L 495.512385 94.413219 
L 492.855818 94.535859 
L 490.339129 94.860361 
L 487.980988 95.363304 
L 485.796798 96.019348 
L 483.798489 96.80166 
L 481.994374 97.682375 
L 479.661349 99.125724 
L 477.774498 100.630668 
L 476.315049 102.104532 
L 475.246701 103.461249 
L 474.33841 104.957949 
L 473.612404 106.404527 
L 473.571559 106.375097 
L 473.333213 105.871793 
L 472.626753 104.446983 
L 471.845074 103.246643 
L 470.714763 101.864804 
L 469.186144 100.379563 
L 467.225743 98.878321 
L 465.670397 97.914604 
L 463.915695 97.013718 
L 461.965299 96.204163 
L 459.8266 95.513988 
L 457.510635 94.970328 
L 455.031957 94.598938 
L 452.408439 94.423758 
L 449.661034 94.466497 
L 446.813473 94.74626 
L 443.891926 95.279206 
L 440.924621 96.078255 
L 437.941425 97.152849 
L 434.973404 98.508757 
L 432.052357 100.147948 
L 429.210335 102.068517 
L 426.479165 104.264672 
L 423.889959 106.726782 
L 421.47265 109.441486 
L 419.255529 112.39186 
L 417.264821 115.55764 
L 415.524279 118.915493 
L 414.054823 122.439346 
L 412.874221 126.100746 
L 411.996812 129.869267 
L 411.433292 133.712943 
L 411.190546 137.598726 
L 411.271544 141.49296 
L 411.675295 145.36187 
L 412.396861 149.172043 
L 413.427436 152.890914 
L 414.754478 156.48723 
L 416.361901 159.9315 
L 418.230326 163.196412 
L 420.337373 166.257221 
L 422.658005 169.09209 
L 425.164913 171.682394 
L 427.828927 174.012967 
L 430.619468 176.072295 
L 433.505006 177.852657 
L 436.453542 179.350201 
L 439.43309 180.564966 
L 442.41216 181.500833 
L 445.360227 182.165428 
L 448.248191 182.569958 
L 451.048801 182.728998 
L 453.737062 182.660218 
L 456.290593 182.384071 
L 458.689947 181.92343 
L 460.918882 181.303196 
L 462.964583 180.549871 
L 464.817824 179.691105 
L 467.225743 178.267305 
L 469.186144 176.766063 
L 470.714763 175.280823 
L 471.845074 173.898983 
L 472.8205 172.350655 
L 473.65241 170.750914 
L 473.69493 170.799917 
L 475.562278 174.118658 
L 476.755938 175.523444 
L 478.354659 177.017626 
L 480.38905 178.512564 
L 481.994374 179.463251 
L 483.798489 180.343966 
L 485.796798 181.126278 
L 487.980988 181.782322 
L 490.339129 182.285266 
L 492.855818 182.609767 
L 495.512385 182.732407 
L 498.287155 182.632094 
L 501.155754 182.290428 
L 504.091458 181.692035 
L 507.065591 180.824844 
L 510.047942 179.680317 
L 513.007219 178.253622 
L 515.911514 176.543755 
L 518.728786 174.553595 
L 521.427344 172.289901 
L 523.976326 169.763247 
L 526.346167 166.987904 
L 528.509053 163.981654 
L 530.439342 160.765556 
L 532.113955 157.363659 
L 533.512734 153.802668 
L 534.618743 150.111567 
L 535.418536 146.32121 
L 535.902357 142.463877 
L 536.064291 138.572813 
L 536.064291 138.572813 
" clip-path="url(#pfcd93358ae)" style="fill: none; stroke: #6f4fb0; stroke-width: 2.6; stroke-linecap: square"/>
   </g>
   <g id="text_4">
    <!-- relax:  $Tw=0,\ Wr=1$ -->
    <g style="fill: #222222" transform="translate(408.342353 234.127835) scale(0.12 -0.12)">
     <defs>
      <path id="DejaVuSans-72" d="M 2631 2963 
Q 2534 3019 2420 3045 
Q 2306 3072 2169 3072 
Q 1681 3072 1420 2755 
Q 1159 2438 1159 1844 
L 1159 0 
L 581 0 
L 581 3500 
L 1159 3500 
L 1159 2956 
Q 1341 3275 1631 3429 
Q 1922 3584 2338 3584 
Q 2397 3584 2469 3576 
Q 2541 3569 2628 3553 
L 2631 2963 
z
" transform="scale(0.015625)"/>
      <path id="DejaVuSans-65" d="M 3597 1894 
L 3597 1613 
L 953 1613 
Q 991 1019 1311 708 
Q 1631 397 2203 397 
Q 2534 397 2845 478 
Q 3156 559 3463 722 
L 3463 178 
Q 3153 47 2828 -22 
Q 2503 -91 2169 -91 
Q 1331 -91 842 396 
Q 353 884 353 1716 
Q 353 2575 817 3079 
Q 1281 3584 2069 3584 
Q 2775 3584 3186 3129 
Q 3597 2675 3597 1894 
z
M 3022 2063 
Q 3016 2534 2758 2815 
Q 2500 3097 2075 3097 
Q 1594 3097 1305 2825 
Q 1016 2553 972 2059 
L 3022 2063 
z
" transform="scale(0.015625)"/>
      <path id="DejaVuSans-78" d="M 3513 3500 
L 2247 1797 
L 3578 0 
L 2900 0 
L 1881 1375 
L 863 0 
L 184 0 
L 1544 1831 
L 300 3500 
L 978 3500 
L 1906 2253 
L 2834 3500 
L 3513 3500 
z
" transform="scale(0.015625)"/>
     </defs>
     <use xlink:href="#DejaVuSans-72" transform="translate(0 0.015625)"/>
     <use xlink:href="#DejaVuSans-65" transform="translate(41.113281 0.015625)"/>
     <use xlink:href="#DejaVuSans-6c" transform="translate(102.636719 0.015625)"/>
     <use xlink:href="#DejaVuSans-61" transform="translate(130.419922 0.015625)"/>
     <use xlink:href="#DejaVuSans-78" transform="translate(191.699219 0.015625)"/>
     <use xlink:href="#DejaVuSans-3a" transform="translate(250.878906 0.015625)"/>
     <use xlink:href="#DejaVuSans-20" transform="translate(284.570312 0.015625)"/>
     <use xlink:href="#DejaVuSans-20" transform="translate(316.357422 0.015625)"/>
     <use xlink:href="#DejaVuSans-Oblique-54" transform="translate(348.144531 0.015625)"/>
     <use xlink:href="#DejaVuSans-Oblique-77" transform="translate(409.228516 0.015625)"/>
     <use xlink:href="#DejaVuSans-3d" transform="translate(510.498047 0.015625)"/>
     <use xlink:href="#DejaVuSans-30" transform="translate(613.769531 0.015625)"/>
     <use xlink:href="#DejaVuSans-2c" transform="translate(677.392578 0.015625)"/>
     <use xlink:href="#DejaVuSans-Oblique-57" transform="translate(761.132488 0.015625)"/>
     <use xlink:href="#DejaVuSans-Oblique-72" transform="translate(860.009441 0.015625)"/>
     <use xlink:href="#DejaVuSans-3d" transform="translate(920.605144 0.015625)"/>
     <use xlink:href="#DejaVuSans-31" transform="translate(1023.876628 0.015625)"/>
    </g>
   </g>
  </g>
  <g id="text_5">
   <!-- Călugăreanu–White–Fuller:  $Lk=Tw+Wr$  — invariant (no cutting). -->
   <g transform="translate(71.64 16.44) scale(0.12 -0.12)">
    <defs>
     <path id="DejaVuSans-43" d="M 4122 4306 
L 4122 3641 
Q 3803 3938 3442 4084 
Q 3081 4231 2675 4231 
Q 1875 4231 1450 3742 
Q 1025 3253 1025 2328 
Q 1025 1406 1450 917 
Q 1875 428 2675 428 
Q 3081 428 3442 575 
Q 3803 722 4122 1019 
L 4122 359 
Q 3791 134 3420 21 
Q 3050 -91 2638 -91 
Q 1578 -91 968 557 
Q 359 1206 359 2328 
Q 359 3453 968 4101 
Q 1578 4750 2638 4750 
Q 3056 4750 3426 4639 
Q 3797 4528 4122 4306 
z
" transform="scale(0.015625)"/>
     <path id="DejaVuSans-103" d="M 870 4897 
L 1239 4897 
Q 1273 4663 1424 4545 
Q 1576 4428 1848 4428 
Q 2117 4428 2267 4544 
Q 2417 4660 2457 4897 
L 2826 4897 
Q 2795 4450 2548 4225 
Q 2301 4000 1848 4000 
Q 1395 4000 1148 4225 
Q 901 4450 870 4897 
z
M 2194 1759 
Q 1497 1759 1228 1600 
Q 959 1441 959 1056 
Q 959 750 1161 570 
Q 1363 391 1709 391 
Q 2188 391 2477 730 
Q 2766 1069 2766 1631 
L 2766 1759 
L 2194 1759 
z
M 3341 1997 
L 3341 0 
L 2766 0 
L 2766 531 
Q 2569 213 2275 61 
Q 1981 -91 1556 -91 
Q 1019 -91 701 211 
Q 384 513 384 1019 
Q 384 1609 779 1909 
Q 1175 2209 1959 2209 
L 2766 2209 
L 2766 2266 
Q 2766 2663 2505 2880 
Q 2244 3097 1772 3097 
Q 1472 3097 1187 3025 
Q 903 2953 641 2809 
L 641 3341 
Q 956 3463 1253 3523 
Q 1550 3584 1831 3584 
Q 2591 3584 2966 3190 
Q 3341 2797 3341 1997 
z
" transform="scale(0.015625)"/>
     <path id="DejaVuSans-75" d="M 544 1381 
L 544 3500 
L 1119 3500 
L 1119 1403 
Q 1119 906 1312 657 
Q 1506 409 1894 409 
Q 2359 409 2629 706 
Q 2900 1003 2900 1516 
L 2900 3500 
L 3475 3500 
L 3475 0 
L 2900 0 
L 2900 538 
Q 2691 219 2414 64 
Q 2138 -91 1772 -91 
Q 1169 -91 856 284 
Q 544 659 544 1381 
z
M 1991 3584 
L 1991 3584 
z
" transform="scale(0.015625)"/>
     <path id="DejaVuSans-67" d="M 2906 1791 
Q 2906 2416 2648 2759 
Q 2391 3103 1925 3103 
Q 1463 3103 1205 2759 
Q 947 2416 947 1791 
Q 947 1169 1205 825 
Q 1463 481 1925 481 
Q 2391 481 2648 825 
Q 2906 1169 2906 1791 
z
M 3481 434 
Q 3481 -459 3084 -895 
Q 2688 -1331 1869 -1331 
Q 1566 -1331 1297 -1286 
Q 1028 -1241 775 -1147 
L 775 -588 
Q 1028 -725 1275 -790 
Q 1522 -856 1778 -856 
Q 2344 -856 2625 -561 
Q 2906 -266 2906 331 
L 2906 616 
Q 2728 306 2450 153 
Q 2172 0 1784 0 
Q 1141 0 747 490 
Q 353 981 353 1791 
Q 353 2603 747 3093 
Q 1141 3584 1784 3584 
Q 2172 3584 2450 3431 
Q 2728 3278 2906 2969 
L 2906 3500 
L 3481 3500 
L 3481 434 
z
" transform="scale(0.015625)"/>
     <path id="DejaVuSans-6e" d="M 3513 2113 
L 3513 0 
L 2938 0 
L 2938 2094 
Q 2938 2591 2744 2837 
Q 2550 3084 2163 3084 
Q 1697 3084 1428 2787 
Q 1159 2491 1159 1978 
L 1159 0 
L 581 0 
L 581 3500 
L 1159 3500 
L 1159 2956 
Q 1366 3272 1645 3428 
Q 1925 3584 2291 3584 
Q 2894 3584 3203 3211 
Q 3513 2838 3513 2113 
z
" transform="scale(0.015625)"/>
     <path id="DejaVuSansDisplay-2013" d="M 313 1978 
L 2888 1978 
L 2888 1528 
L 313 1528 
L 313 1978 
z
" transform="scale(0.015625)"/>
     <path id="DejaVuSans-57" d="M 213 4666 
L 850 4666 
L 1831 722 
L 2809 4666 
L 3519 4666 
L 4500 722 
L 5478 4666 
L 6119 4666 
L 4947 0 
L 4153 0 
L 3169 4050 
L 2175 0 
L 1381 0 
L 213 4666 
z
" transform="scale(0.015625)"/>
     <path id="DejaVuSans-68" d="M 3513 2113 
L 3513 0 
L 2938 0 
L 2938 2094 
Q 2938 2591 2744 2837 
Q 2550 3084 2163 3084 
Q 1697 3084 1428 2787 
Q 1159 2491 1159 1978 
L 1159 0 
L 581 0 
L 581 4863 
L 1159 4863 
L 1159 2956 
Q 1366 3272 1645 3428 
Q 1925 3584 2291 3584 
Q 2894 3584 3203 3211 
Q 3513 2838 3513 2113 
z
" transform="scale(0.015625)"/>
     <path id="DejaVuSans-46" d="M 628 4666 
L 3309 4666 
L 3309 4134 
L 1259 4134 
L 1259 2759 
L 3109 2759 
L 3109 2228 
L 1259 2228 
L 1259 0 
L 628 0 
L 628 4666 
z
" transform="scale(0.015625)"/>
     <path id="DejaVuSans-2b" d="M 2944 4013 
L 2944 2272 
L 4684 2272 
L 4684 1741 
L 2944 1741 
L 2944 0 
L 2419 0 
L 2419 1741 
L 678 1741 
L 678 2272 
L 2419 2272 
L 2419 4013 
L 2944 4013 
z
" transform="scale(0.015625)"/>
     <path id="DejaVuSansDisplay-2014" d="M 313 1978 
L 6088 1978 
L 6088 1528 
L 313 1528 
L 313 1978 
z
" transform="scale(0.015625)"/>
     <path id="DejaVuSans-76" d="M 191 3500 
L 800 3500 
L 1894 563 
L 2988 3500 
L 3597 3500 
L 2284 0 
L 1503 0 
L 191 3500 
z
" transform="scale(0.015625)"/>
     <path id="DejaVuSans-28" d="M 1984 4856 
Q 1566 4138 1362 3434 
Q 1159 2731 1159 2009 
Q 1159 1288 1364 580 
Q 1569 -128 1984 -844 
L 1484 -844 
Q 1016 -109 783 600 
Q 550 1309 550 2009 
Q 550 2706 781 3412 
Q 1013 4119 1484 4856 
L 1984 4856 
z
" transform="scale(0.015625)"/>
     <path id="DejaVuSans-6f" d="M 1959 3097 
Q 1497 3097 1228 2736 
Q 959 2375 959 1747 
Q 959 1119 1226 758 
Q 1494 397 1959 397 
Q 2419 397 2687 759 
Q 2956 1122 2956 1747 
Q 2956 2369 2687 2733 
Q 2419 3097 1959 3097 
z
M 1959 3584 
Q 2709 3584 3137 3096 
Q 3566 2609 3566 1747 
Q 3566 888 3137 398 
Q 2709 -91 1959 -91 
Q 1206 -91 779 398 
Q 353 888 353 1747 
Q 353 2609 779 3096 
Q 1206 3584 1959 3584 
z
" transform="scale(0.015625)"/>
     <path id="DejaVuSans-63" d="M 3122 3366 
L 3122 2828 
Q 2878 2963 2633 3030 
Q 2388 3097 2138 3097 
Q 1578 3097 1268 2742 
Q 959 2388 959 1747 
Q 959 1106 1268 751 
Q 1578 397 2138 397 
Q 2388 397 2633 464 
Q 2878 531 3122 666 
L 3122 134 
Q 2881 22 2623 -34 
Q 2366 -91 2075 -91 
Q 1284 -91 818 406 
Q 353 903 353 1747 
Q 353 2603 823 3093 
Q 1294 3584 2113 3584 
Q 2378 3584 2631 3529 
Q 2884 3475 3122 3366 
z
" transform="scale(0.015625)"/>
     <path id="DejaVuSans-29" d="M 513 4856 
L 1013 4856 
Q 1481 4119 1714 3412 
Q 1947 2706 1947 2009 
Q 1947 1309 1714 600 
Q 1481 -109 1013 -844 
L 513 -844 
Q 928 -128 1133 580 
Q 1338 1288 1338 2009 
Q 1338 2731 1133 3434 
Q 928 4138 513 4856 
z
" transform="scale(0.015625)"/>
     <path id="DejaVuSans-2e" d="M 684 794 
L 1344 794 
L 1344 0 
L 684 0 
L 684 794 
z
" transform="scale(0.015625)"/>
    </defs>
    <use xlink:href="#DejaVuSans-43" transform="translate(0 0.484375)"/>
    <use xlink:href="#DejaVuSans-103" transform="translate(69.824219 0.484375)"/>
    <use xlink:href="#DejaVuSans-6c" transform="translate(131.103516 0.484375)"/>
    <use xlink:href="#DejaVuSans-75" transform="translate(158.886719 0.484375)"/>
    <use xlink:href="#DejaVuSans-67" transform="translate(222.265625 0.484375)"/>
    <use xlink:href="#DejaVuSans-103" transform="translate(285.742188 0.484375)"/>
    <use xlink:href="#DejaVuSans-72" transform="translate(347.021484 0.484375)"/>
    <use xlink:href="#DejaVuSans-65" transform="translate(388.134766 0.484375)"/>
    <use xlink:href="#DejaVuSans-61" transform="translate(449.658203 0.484375)"/>
    <use xlink:href="#DejaVuSans-6e" transform="translate(510.9375 0.484375)"/>
    <use xlink:href="#DejaVuSans-75" transform="translate(574.316406 0.484375)"/>
    <use xlink:href="#DejaVuSansDisplay-2013" transform="translate(637.695312 0.484375)"/>
    <use xlink:href="#DejaVuSans-57" transform="translate(687.695312 0.484375)"/>
    <use xlink:href="#DejaVuSans-68" transform="translate(786.572266 0.484375)"/>
    <use xlink:href="#DejaVuSans-69" transform="translate(849.951172 0.484375)"/>
    <use xlink:href="#DejaVuSans-74" transform="translate(877.734375 0.484375)"/>
    <use xlink:href="#DejaVuSans-65" transform="translate(916.943359 0.484375)"/>
    <use xlink:href="#DejaVuSansDisplay-2013" transform="translate(978.466797 0.484375)"/>
    <use xlink:href="#DejaVuSans-46" transform="translate(1028.466797 0.484375)"/>
    <use xlink:href="#DejaVuSans-75" transform="translate(1085.986328 0.484375)"/>
    <use xlink:href="#DejaVuSans-6c" transform="translate(1149.365234 0.484375)"/>
    <use xlink:href="#DejaVuSans-6c" transform="translate(1177.148438 0.484375)"/>
    <use xlink:href="#DejaVuSans-65" transform="translate(1204.931641 0.484375)"/>
    <use xlink:href="#DejaVuSans-72" transform="translate(1266.455078 0.484375)"/>
    <use xlink:href="#DejaVuSans-3a" transform="translate(1307.568359 0.484375)"/>
    <use xlink:href="#DejaVuSans-20" transform="translate(1341.259766 0.484375)"/>
    <use xlink:href="#DejaVuSans-20" transform="translate(1373.046875 0.484375)"/>
    <use xlink:href="#DejaVuSans-Oblique-4c" transform="translate(1404.833984 0.484375)"/>
    <use xlink:href="#DejaVuSans-Oblique-6b" transform="translate(1460.546875 0.484375)"/>
    <use xlink:href="#DejaVuSans-3d" transform="translate(1537.939453 0.484375)"/>
    <use xlink:href="#DejaVuSans-Oblique-54" transform="translate(1641.210938 0.484375)"/>
    <use xlink:href="#DejaVuSans-Oblique-77" transform="translate(1702.294922 0.484375)"/>
    <use xlink:href="#DejaVuSans-2b" transform="translate(1803.564453 0.484375)"/>
    <use xlink:href="#DejaVuSans-Oblique-57" transform="translate(1906.835938 0.484375)"/>
    <use xlink:href="#DejaVuSans-Oblique-72" transform="translate(2005.712891 0.484375)"/>
    <use xlink:href="#DejaVuSans-20" transform="translate(2046.826172 0.484375)"/>
    <use xlink:href="#DejaVuSans-20" transform="translate(2078.613281 0.484375)"/>
    <use xlink:href="#DejaVuSansDisplay-2014" transform="translate(2110.400391 0.484375)"/>
    <use xlink:href="#DejaVuSans-20" transform="translate(2210.400391 0.484375)"/>
    <use xlink:href="#DejaVuSans-69" transform="translate(2242.1875 0.484375)"/>
    <use xlink:href="#DejaVuSans-6e" transform="translate(2269.970703 0.484375)"/>
    <use xlink:href="#DejaVuSans-76" transform="translate(2333.349609 0.484375)"/>
    <use xlink:href="#DejaVuSans-61" transform="translate(2392.529297 0.484375)"/>
    <use xlink:href="#DejaVuSans-72" transform="translate(2453.808594 0.484375)"/>
    <use xlink:href="#DejaVuSans-69" transform="translate(2494.921875 0.484375)"/>
    <use xlink:href="#DejaVuSans-61" transform="translate(2522.705078 0.484375)"/>
    <use xlink:href="#DejaVuSans-6e" transform="translate(2583.984375 0.484375)"/>
    <use xlink:href="#DejaVuSans-74" transform="translate(2647.363281 0.484375)"/>
    <use xlink:href="#DejaVuSans-20" transform="translate(2686.572266 0.484375)"/>
    <use xlink:href="#DejaVuSans-28" transform="translate(2718.359375 0.484375)"/>
    <use xlink:href="#DejaVuSans-6e" transform="translate(2757.373047 0.484375)"/>
    <use xlink:href="#DejaVuSans-6f" transform="translate(2820.751953 0.484375)"/>
    <use xlink:href="#DejaVuSans-20" transform="translate(2881.933594 0.484375)"/>
    <use xlink:href="#DejaVuSans-63" transform="translate(2913.720703 0.484375)"/>
    <use xlink:href="#DejaVuSans-75" transform="translate(2968.701172 0.484375)"/>
    <use xlink:href="#DejaVuSans-74" transform="translate(3032.080078 0.484375)"/>
    <use xlink:href="#DejaVuSans-74" transform="translate(3071.289062 0.484375)"/>
    <use xlink:href="#DejaVuSans-69" transform="translate(3110.498047 0.484375)"/>
    <use xlink:href="#DejaVuSans-6e" transform="translate(3138.28125 0.484375)"/>
    <use xlink:href="#DejaVuSans-67" transform="translate(3201.660156 0.484375)"/>
    <use xlink:href="#DejaVuSans-29" transform="translate(3265.136719 0.484375)"/>
    <use xlink:href="#DejaVuSans-2e" transform="translate(3304.150391 0.484375)"/>
   </g>
   <!-- Flat stacks need Wr = 0  →  must keep Tw = 0 -->
   <g transform="translate(133.81125 29.90175) scale(0.12 -0.12)">
    <defs>
     <path id="DejaVuSans-6b" d="M 581 4863 
L 1159 4863 
L 1159 1991 
L 2875 3500 
L 3609 3500 
L 1753 1863 
L 3688 0 
L 2938 0 
L 1159 1709 
L 1159 0 
L 581 0 
L 581 4863 
z
" transform="scale(0.015625)"/>
     <path id="DejaVuSans-2192" d="M 5050 2147 
L 5050 1866 
L 3822 638 
L 3447 1013 
L 4175 1741 
L 366 1741 
L 366 2272 
L 4175 2272 
L 3447 3000 
L 3822 3375 
L 5050 2147 
z
" transform="scale(0.015625)"/>
     <path id="DejaVuSans-6d" d="M 3328 2828 
Q 3544 3216 3844 3400 
Q 4144 3584 4550 3584 
Q 5097 3584 5394 3201 
Q 5691 2819 5691 2113 
L 5691 0 
L 5113 0 
L 5113 2094 
Q 5113 2597 4934 2840 
Q 4756 3084 4391 3084 
Q 3944 3084 3684 2787 
Q 3425 2491 3425 1978 
L 3425 0 
L 2847 0 
L 2847 2094 
Q 2847 2600 2669 2842 
Q 2491 3084 2119 3084 
Q 1678 3084 1418 2786 
Q 1159 2488 1159 1978 
L 1159 0 
L 581 0 
L 581 3500 
L 1159 3500 
L 1159 2956 
Q 1356 3278 1631 3431 
Q 1906 3584 2284 3584 
Q 2666 3584 2933 3390 
Q 3200 3197 3328 2828 
z
" transform="scale(0.015625)"/>
     <path id="DejaVuSans-70" d="M 1159 525 
L 1159 -1331 
L 581 -1331 
L 581 3500 
L 1159 3500 
L 1159 2969 
Q 1341 3281 1617 3432 
Q 1894 3584 2278 3584 
Q 2916 3584 3314 3078 
Q 3713 2572 3713 1747 
Q 3713 922 3314 415 
Q 2916 -91 2278 -91 
Q 1894 -91 1617 61 
Q 1341 213 1159 525 
z
M 3116 1747 
Q 3116 2381 2855 2742 
Q 2594 3103 2138 3103 
Q 1681 3103 1420 2742 
Q 1159 2381 1159 1747 
Q 1159 1113 1420 752 
Q 1681 391 2138 391 
Q 2594 391 2855 752 
Q 3116 1113 3116 1747 
z
" transform="scale(0.015625)"/>
     <path id="DejaVuSans-54" d="M -19 4666 
L 3928 4666 
L 3928 4134 
L 2272 4134 
L 2272 0 
L 1638 0 
L 1638 4134 
L -19 4134 
L -19 4666 
z
" transform="scale(0.015625)"/>
    </defs>
    <use xlink:href="#DejaVuSans-46"/>
    <use xlink:href="#DejaVuSans-6c" transform="translate(57.519531 0)"/>
    <use xlink:href="#DejaVuSans-61" transform="translate(85.302734 0)"/>
    <use xlink:href="#DejaVuSans-74" transform="translate(146.582031 0)"/>
    <use xlink:href="#DejaVuSans-20" transform="translate(185.791016 0)"/>
    <use xlink:href="#DejaVuSans-73" transform="translate(217.578125 0)"/>
    <use xlink:href="#DejaVuSans-74" transform="translate(269.677734 0)"/>
    <use xlink:href="#DejaVuSans-61" transform="translate(308.886719 0)"/>
    <use xlink:href="#DejaVuSans-63" transform="translate(370.166016 0)"/>
    <use xlink:href="#DejaVuSans-6b" transform="translate(425.146484 0)"/>
    <use xlink:href="#DejaVuSans-73" transform="translate(483.056641 0)"/>
    <use xlink:href="#DejaVuSans-20" transform="translate(535.15625 0)"/>
    <use xlink:href="#DejaVuSans-6e" transform="translate(566.943359 0)"/>
    <use xlink:href="#DejaVuSans-65" transform="translate(630.322266 0)"/>
    <use xlink:href="#DejaVuSans-65" transform="translate(691.845703 0)"/>
    <use xlink:href="#DejaVuSans-64" transform="translate(753.369141 0)"/>
    <use xlink:href="#DejaVuSans-20" transform="translate(816.845703 0)"/>
    <use xlink:href="#DejaVuSans-57" transform="translate(848.632812 0)"/>
    <use xlink:href="#DejaVuSans-72" transform="translate(943.009766 0)"/>
    <use xlink:href="#DejaVuSans-20" transform="translate(984.123047 0)"/>
    <use xlink:href="#DejaVuSans-3d" transform="translate(1015.910156 0)"/>
    <use xlink:href="#DejaVuSans-20" transform="translate(1099.699219 0)"/>
    <use xlink:href="#DejaVuSans-30" transform="translate(1131.486328 0)"/>
    <use xlink:href="#DejaVuSans-20" transform="translate(1195.109375 0)"/>
    <use xlink:href="#DejaVuSans-20" transform="translate(1226.896484 0)"/>
    <use xlink:href="#DejaVuSans-2192" transform="translate(1258.683594 0)"/>
    <use xlink:href="#DejaVuSans-20" transform="translate(1342.472656 0)"/>
    <use xlink:href="#DejaVuSans-20" transform="translate(1374.259766 0)"/>
    <use xlink:href="#DejaVuSans-6d" transform="translate(1406.046875 0)"/>
    <use xlink:href="#DejaVuSans-75" transform="translate(1503.458984 0)"/>
    <use xlink:href="#DejaVuSans-73" transform="translate(1566.837891 0)"/>
    <use xlink:href="#DejaVuSans-74" transform="translate(1618.9375 0)"/>
    <use xlink:href="#DejaVuSans-20" transform="translate(1658.146484 0)"/>
    <use xlink:href="#DejaVuSans-6b" transform="translate(1689.933594 0)"/>
    <use xlink:href="#DejaVuSans-65" transform="translate(1744.21875 0)"/>
    <use xlink:href="#DejaVuSans-65" transform="translate(1805.742188 0)"/>
    <use xlink:href="#DejaVuSans-70" transform="translate(1867.265625 0)"/>
    <use xlink:href="#DejaVuSans-20" transform="translate(1930.742188 0)"/>
    <use xlink:href="#DejaVuSans-54" transform="translate(1962.529297 0)"/>
    <use xlink:href="#DejaVuSans-77" transform="translate(2007.113281 0)"/>
    <use xlink:href="#DejaVuSans-20" transform="translate(2088.900391 0)"/>
    <use xlink:href="#DejaVuSans-3d" transform="translate(2120.6875 0)"/>
    <use xlink:href="#DejaVuSans-20" transform="translate(2204.476562 0)"/>
    <use xlink:href="#DejaVuSans-30" transform="translate(2236.263672 0)"/>
   </g>
  </g>
 </g>
 <defs>
  <clipPath id="pc6b1be33cd">
   <rect x="7.2" y="60.098029" width="160.835294" height="192.427941"/>
  </clipPath>
  <clipPath id="p177fb8c27a">
   <rect x="204.994154" y="50.976" width="151.251692" height="210.672"/>
  </clipPath>
  <clipPath id="pfcd93358ae">
   <rect x="393.204706" y="62.885616" width="160.835294" height="186.852768"/>
  </clipPath>
 </defs>
</svg>
