<?xml version="1.0" encoding="utf-8" standalone="no"?>
<!DOCTYPE svg PUBLIC "-//W3C//DTD SVG 1.1//EN"
  "http://www.w3.org/Graphics/SVG/1.1/DTD/svg11.dtd">
<svg xmlns:xlink="http://www.w3.org/1999/xlink" width="277.74pt" height="245.709812pt" viewBox="0 0 277.74 245.709812" xmlns="http://www.w3.org/2000/svg" version="1.1">
 <metadata>
  <rdf:RDF xmlns:dc="http://purl.org/dc/elements/1.1/" xmlns:cc="http://creativecommons.org/ns#" xmlns:rdf="http://www.w3.org/1999/02/22-rdf-syntax-ns#">
   <cc:Work>
    <dc:type rdf:resource="http://purl.org/dc/dcmitype/StillImage"/>
    <dc:date>2026-06-03T14:06:01.726998</dc:date>
    <dc:format>image/svg+xml</dc:format>
    <dc:creator>
     <cc:Agent>
      <dc:title>Matplotlib v3.10.9, https://matplotlib.org/</dc:title>
     </cc:Agent>
    </dc:creator>
   </cc:Work>
  </rdf:RDF>
 </metadata>
 <defs>
  <style type="text/css">*{stroke-linejoin: round; stroke-linecap: butt}</style>
 </defs>
 <g id="figure_1">
  <g id="patch_1">
   <path d="M 0 245.709812 
L 277.74 245.709812 
L 277.74 0 
L 0 0 
z
" style="fill: #ffffff"/>
  </g>
  <g id="axes_1">
   <g id="patch_2">
    <path d="M 40.1175 185.841812 
L 105.9525 185.841812 
L 105.9525 120.006812 
L 40.1175 120.006812 
z
" clip-path="url(#p3b5d81382e)" style="fill: #f7f7f7; stroke: #444444; stroke-width: 1.3; stroke-linejoin: miter"/>
   </g>
   <g id="patch_3">
    <path d="M 105.9525 185.841812 
L 171.7875 185.841812 
L 171.7875 120.006812 
L 105.9525 120.006812 
z
" clip-path="url(#p3b5d81382e)" style="fill: #f7f7f7; stroke: #444444; stroke-width: 1.3; stroke-linejoin: miter"/>
   </g>
   <g id="patch_4">
    <path d="M 171.7875 185.841812 
L 237.6225 185.841812 
L 237.6225 120.006812 
L 171.7875 120.006812 
z
" clip-path="url(#p3b5d81382e)" style="fill: #f7f7f7; stroke: #444444; stroke-width: 1.3; stroke-linejoin: miter"/>
   </g>
   <g id="patch_5">
    <path d="M 40.1175 120.006812 
L 105.9525 120.006812 
L 105.9525 54.171812 
L 40.1175 54.171812 
z
" clip-path="url(#p3b5d81382e)" style="fill: #f7f7f7; stroke: #444444; stroke-width: 1.3; stroke-linejoin: miter"/>
   </g>
   <g id="patch_6">
    <path d="M 105.9525 120.006812 
L 171.7875 120.006812 
L 171.7875 54.171812 
L 105.9525 54.171812 
z
" clip-path="url(#p3b5d81382e)" style="fill: #f7f7f7; stroke: #444444; stroke-width: 1.3; stroke-linejoin: miter"/>
   </g>
   <g id="patch_7">
    <path d="M 171.7875 120.006812 
L 237.6225 120.006812 
L 237.6225 54.171812 
L 171.7875 54.171812 
z
" clip-path="url(#p3b5d81382e)" style="fill: #f7f7f7; stroke: #444444; stroke-width: 1.3; stroke-linejoin: miter"/>
   </g>
   <g id="text_1">
    <!-- Tessellation → grid graph -->
    <g style="fill: #222222" transform="translate(51.548281 17.837812) scale(0.14 -0.14)">
     <defs>
      <path id="DejaVuSans-54" d="M -19 4666 
L 3928 4666 
L 3928 4134 
L 2272 4134 
L 2272 0 
L 1638 0 
L 1638 4134 
L -19 4134 
L -19 4666 
z
" transform="scale(0.015625)"/>
      <path id="DejaVuSans-65" d="M 3597 1894 
L 3597 1613 
L 953 1613 
Q 991 1019 1311 708 
Q 1631 397 2203 397 
Q 2534 397 2845 478 
Q 3156 559 3463 722 
L 3463 178 
Q 3153 47 2828 -22 
Q 2503 -91 2169 -91 
Q 1331 -91 842 396 
Q 353 884 353 1716 
Q 353 2575 817 3079 
Q 1281 3584 2069 3584 
Q 2775 3584 3186 3129 
Q 3597 2675 3597 1894 
z
M 3022 2063 
Q 3016 2534 2758 2815 
Q 2500 3097 2075 3097 
Q 1594 3097 1305 2825 
Q 1016 2553 972 2059 
L 3022 2063 
z
" transform="scale(0.015625)"/>
      <path id="DejaVuSans-73" d="M 2834 3397 
L 2834 2853 
Q 2591 2978 2328 3040 
Q 2066 3103 1784 3103 
Q 1356 3103 1142 2972 
Q 928 2841 928 2578 
Q 928 2378 1081 2264 
Q 1234 2150 1697 2047 
L 1894 2003 
Q 2506 1872 2764 1633 
Q 3022 1394 3022 966 
Q 3022 478 2636 193 
Q 2250 -91 1575 -91 
Q 1294 -91 989 -36 
Q 684 19 347 128 
L 347 722 
Q 666 556 975 473 
Q 1284 391 1588 391 
Q 1994 391 2212 530 
Q 2431 669 2431 922 
Q 2431 1156 2273 1281 
Q 2116 1406 1581 1522 
L 1381 1569 
Q 847 1681 609 1914 
Q 372 2147 372 2553 
Q 372 3047 722 3315 
Q 1072 3584 1716 3584 
Q 2034 3584 2315 3537 
Q 2597 3491 2834 3397 
z
" transform="scale(0.015625)"/>
      <path id="DejaVuSans-6c" d="M 603 4863 
L 1178 4863 
L 1178 0 
L 603 0 
L 603 4863 
z
" transform="scale(0.015625)"/>
      <path id="DejaVuSans-61" d="M 2194 1759 
Q 1497 1759 1228 1600 
Q 959 1441 959 1056 
Q 959 750 1161 570 
Q 1363 391 1709 391 
Q 2188 391 2477 730 
Q 2766 1069 2766 1631 
L 2766 1759 
L 2194 1759 
z
M 3341 1997 
L 3341 0 
L 2766 0 
L 2766 531 
Q 2569 213 2275 61 
Q 1981 -91 1556 -91 
Q 1019 -91 701 211 
Q 384 513 384 1019 
Q 384 1609 779 1909 
Q 1175 2209 1959 2209 
L 2766 2209 
L 2766 2266 
Q 2766 2663 2505 2880 
Q 2244 3097 1772 3097 
Q 1472 3097 1187 3025 
Q 903 2953 641 2809 
L 641 3341 
Q 956 3463 1253 3523 
Q 1550 3584 1831 3584 
Q 2591 3584 2966 3190 
Q 3341 2797 3341 1997 
z
" transform="scale(0.015625)"/>
      <path id="DejaVuSans-74" d="M 1172 4494 
L 1172 3500 
L 2356 3500 
L 2356 3053 
L 1172 3053 
L 1172 1153 
Q 1172 725 1289 603 
Q 1406 481 1766 481 
L 2356 481 
L 2356 0 
L 1766 0 
Q 1100 0 847 248 
Q 594 497 594 1153 
L 594 3053 
L 172 3053 
L 172 3500 
L 594 3500 
L 594 4494 
L 1172 4494 
z
" transform="scale(0.015625)"/>
      <path id="DejaVuSans-69" d="M 603 3500 
L 1178 3500 
L 1178 0 
L 603 0 
L 603 3500 
z
M 603 4863 
L 1178 4863 
L 1178 4134 
L 603 4134 
L 603 4863 
z
" transform="scale(0.015625)"/>
      <path id="DejaVuSans-6f" d="M 1959 3097 
Q 1497 3097 1228 2736 
Q 959 2375 959 1747 
Q 959 1119 1226 758 
Q 1494 397 1959 397 
Q 2419 397 2687 759 
Q 2956 1122 2956 1747 
Q 2956 2369 2687 2733 
Q 2419 3097 1959 3097 
z
M 1959 3584 
Q 2709 3584 3137 3096 
Q 3566 2609 3566 1747 
Q 3566 888 3137 398 
Q 2709 -91 1959 -91 
Q 1206 -91 779 398 
Q 353 888 353 1747 
Q 353 2609 779 3096 
Q 1206 3584 1959 3584 
z
" transform="scale(0.015625)"/>
      <path id="DejaVuSans-6e" d="M 3513 2113 
L 3513 0 
L 2938 0 
L 2938 2094 
Q 2938 2591 2744 2837 
Q 2550 3084 2163 3084 
Q 1697 3084 1428 2787 
Q 1159 2491 1159 1978 
L 1159 0 
L 581 0 
L 581 3500 
L 1159 3500 
L 1159 2956 
Q 1366 3272 1645 3428 
Q 1925 3584 2291 3584 
Q 2894 3584 3203 3211 
Q 3513 2838 3513 2113 
z
" transform="scale(0.015625)"/>
      <path id="DejaVuSans-20" transform="scale(0.015625)"/>
      <path id="DejaVuSans-2192" d="M 5050 2147 
L 5050 1866 
L 3822 638 
L 3447 1013 
L 4175 1741 
L 366 1741 
L 366 2272 
L 4175 2272 
L 3447 3000 
L 3822 3375 
L 5050 2147 
z
" transform="scale(0.015625)"/>
      <path id="DejaVuSans-67" d="M 2906 1791 
Q 2906 2416 2648 2759 
Q 2391 3103 1925 3103 
Q 1463 3103 1205 2759 
Q 947 2416 947 1791 
Q 947 1169 1205 825 
Q 1463 481 1925 481 
Q 2391 481 2648 825 
Q 2906 1169 2906 1791 
z
M 3481 434 
Q 3481 -459 3084 -895 
Q 2688 -1331 1869 -1331 
Q 1566 -1331 1297 -1286 
Q 1028 -1241 775 -1147 
L 775 -588 
Q 1028 -725 1275 -790 
Q 1522 -856 1778 -856 
Q 2344 -856 2625 -561 
Q 2906 -266 2906 331 
L 2906 616 
Q 2728 306 2450 153 
Q 2172 0 1784 0 
Q 1141 0 747 490 
Q 353 981 353 1791 
Q 353 2603 747 3093 
Q 1141 3584 1784 3584 
Q 2172 3584 2450 3431 
Q 2728 3278 2906 2969 
L 2906 3500 
L 3481 3500 
L 3481 434 
z
" transform="scale(0.015625)"/>
      <path id="DejaVuSans-72" d="M 2631 2963 
Q 2534 3019 2420 3045 
Q 2306 3072 2169 3072 
Q 1681 3072 1420 2755 
Q 1159 2438 1159 1844 
L 1159 0 
L 581 0 
L 581 3500 
L 1159 3500 
L 1159 2956 
Q 1341 3275 1631 3429 
Q 1922 3584 2338 3584 
Q 2397 3584 2469 3576 
Q 2541 3569 2628 3553 
L 2631 2963 
z
" transform="scale(0.015625)"/>
      <path id="DejaVuSans-64" d="M 2906 2969 
L 2906 4863 
L 3481 4863 
L 3481 0 
L 2906 0 
L 2906 525 
Q 2725 213 2448 61 
Q 2172 -91 1784 -91 
Q 1150 -91 751 415 
Q 353 922 353 1747 
Q 353 2572 751 3078 
Q 1150 3584 1784 3584 
Q 2172 3584 2448 3432 
Q 2725 3281 2906 2969 
z
M 947 1747 
Q 947 1113 1208 752 
Q 1469 391 1925 391 
Q 2381 391 2643 752 
Q 2906 1113 2906 1747 
Q 2906 2381 2643 2742 
Q 2381 3103 1925 3103 
Q 1469 3103 1208 2742 
Q 947 2381 947 1747 
z
" transform="scale(0.015625)"/>
      <path id="DejaVuSans-70" d="M 1159 525 
L 1159 -1331 
L 581 -1331 
L 581 3500 
L 1159 3500 
L 1159 2969 
Q 1341 3281 1617 3432 
Q 1894 3584 2278 3584 
Q 2916 3584 3314 3078 
Q 3713 2572 3713 1747 
Q 3713 922 3314 415 
Q 2916 -91 2278 -91 
Q 1894 -91 1617 61 
Q 1341 213 1159 525 
z
M 3116 1747 
Q 3116 2381 2855 2742 
Q 2594 3103 2138 3103 
Q 1681 3103 1420 2742 
Q 1159 2381 1159 1747 
Q 1159 1113 1420 752 
Q 1681 391 2138 391 
Q 2594 391 2855 752 
Q 3116 1113 3116 1747 
z
" transform="scale(0.015625)"/>
      <path id="DejaVuSans-68" d="M 3513 2113 
L 3513 0 
L 2938 0 
L 2938 2094 
Q 2938 2591 2744 2837 
Q 2550 3084 2163 3084 
Q 1697 3084 1428 2787 
Q 1159 2491 1159 1978 
L 1159 0 
L 581 0 
L 581 4863 
L 1159 4863 
L 1159 2956 
Q 1366 3272 1645 3428 
Q 1925 3584 2291 3584 
Q 2894 3584 3203 3211 
Q 3513 2838 3513 2113 
z
" transform="scale(0.015625)"/>
     </defs>
     <use xlink:href="#DejaVuSans-54"/>
     <use xlink:href="#DejaVuSans-65" transform="translate(44.083984 0)"/>
     <use xlink:href="#DejaVuSans-73" transform="translate(105.607422 0)"/>
     <use xlink:href="#DejaVuSans-73" transform="translate(157.707031 0)"/>
     <use xlink:href="#DejaVuSans-65" transform="translate(209.806641 0)"/>
     <use xlink:href="#DejaVuSans-6c" transform="translate(271.330078 0)"/>
     <use xlink:href="#DejaVuSans-6c" transform="translate(299.113281 0)"/>
     <use xlink:href="#DejaVuSans-61" transform="translate(326.896484 0)"/>
     <use xlink:href="#DejaVuSans-74" transform="translate(388.175781 0)"/>
     <use xlink:href="#DejaVuSans-69" transform="translate(427.384766 0)"/>
     <use xlink:href="#DejaVuSans-6f" transform="translate(455.167969 0)"/>
     <use xlink:href="#DejaVuSans-6e" transform="translate(516.349609 0)"/>
     <use xlink:href="#DejaVuSans-20" transform="translate(579.728516 0)"/>
     <use xlink:href="#DejaVuSans-2192" transform="translate(611.515625 0)"/>
     <use xlink:href="#DejaVuSans-20" transform="translate(695.304688 0)"/>
     <use xlink:href="#DejaVuSans-67" transform="translate(727.091797 0)"/>
     <use xlink:href="#DejaVuSans-72" transform="translate(790.568359 0)"/>
     <use xlink:href="#DejaVuSans-69" transform="translate(831.681641 0)"/>
     <use xlink:href="#DejaVuSans-64" transform="translate(859.464844 0)"/>
     <use xlink:href="#DejaVuSans-20" transform="translate(922.941406 0)"/>
     <use xlink:href="#DejaVuSans-67" transform="translate(954.728516 0)"/>
     <use xlink:href="#DejaVuSans-72" transform="translate(1018.205078 0)"/>
     <use xlink:href="#DejaVuSans-61" transform="translate(1059.318359 0)"/>
     <use xlink:href="#DejaVuSans-70" transform="translate(1120.597656 0)"/>
     <use xlink:href="#DejaVuSans-68" transform="translate(1184.074219 0)"/>
    </g>
   </g>
   <g id="line2d_1">
    <path d="M 73.035 152.924312 
L 138.87 152.924312 
" clip-path="url(#p3b5d81382e)" style="fill: none; stroke: #333333; stroke-width: 1.6; stroke-linecap: square"/>
   </g>
   <g id="line2d_2">
    <path d="M 73.035 152.924312 
L 73.035 87.089312 
" clip-path="url(#p3b5d81382e)" style="fill: none; stroke: #333333; stroke-width: 1.6; stroke-linecap: square"/>
   </g>
   <g id="line2d_3">
    <path d="M 138.87 152.924312 
L 204.705 152.924312 
" clip-path="url(#p3b5d81382e)" style="fill: none; stroke: #333333; stroke-width: 1.6; stroke-linecap: square"/>
   </g>
   <g id="line2d_4">
    <path d="M 138.87 152.924312 
L 138.87 87.089312 
" clip-path="url(#p3b5d81382e)" style="fill: none; stroke: #333333; stroke-width: 1.6; stroke-linecap: square"/>
   </g>
   <g id="line2d_5">
    <path d="M 204.705 152.924312 
L 204.705 87.089312 
" clip-path="url(#p3b5d81382e)" style="fill: none; stroke: #333333; stroke-width: 1.6; stroke-linecap: square"/>
   </g>
   <g id="line2d_6">
    <path d="M 73.035 87.089312 
L 138.87 87.089312 
" clip-path="url(#p3b5d81382e)" style="fill: none; stroke: #333333; stroke-width: 1.6; stroke-linecap: square"/>
   </g>
   <g id="line2d_7">
    <path d="M 138.87 87.089312 
L 204.705 87.089312 
" clip-path="url(#p3b5d81382e)" style="fill: none; stroke: #333333; stroke-width: 1.6; stroke-linecap: square"/>
   </g>
   <g id="patch_8">
    <path d="M 73.035 160.166162 
C 74.955561 160.166162 76.797719 159.403115 78.155761 158.045074 
C 79.513803 156.687032 80.27685 154.844874 80.27685 152.924312 
C 80.27685 151.003751 79.513803 149.161593 78.155761 147.803551 
C 76.797719 146.44551 74.955561 145.682462 73.035 145.682462 
C 71.114439 145.682462 69.272281 146.44551 67.914239 147.803551 
C 66.556197 149.161593 65.79315 151.003751 65.79315 152.924312 
C 65.79315 154.844874 66.556197 156.687032 67.914239 158.045074 
C 69.272281 159.403115 71.114439 160.166162 73.035 160.166162 
z
" clip-path="url(#p3b5d81382e)" style="fill: #333333; stroke: #ffffff; stroke-linejoin: miter"/>
   </g>
   <g id="patch_9">
    <path d="M 138.87 160.166162 
C 140.790561 160.166162 142.632719 159.403115 143.990761 158.045074 
C 145.348803 156.687032 146.11185 154.844874 146.11185 152.924312 
C 146.11185 151.003751 145.348803 149.161593 143.990761 147.803551 
C 142.632719 146.44551 140.790561 145.682462 138.87 145.682462 
C 136.949439 145.682462 135.107281 146.44551 133.749239 147.803551 
C 132.391197 149.161593 131.62815 151.003751 131.62815 152.924312 
C 131.62815 154.844874 132.391197 156.687032 133.749239 158.045074 
C 135.107281 159.403115 136.949439 160.166162 138.87 160.166162 
z
" clip-path="url(#p3b5d81382e)" style="fill: #333333; stroke: #ffffff; stroke-linejoin: miter"/>
   </g>
   <g id="patch_10">
    <path d="M 204.705 160.166162 
C 206.625561 160.166162 208.467719 159.403115 209.825761 158.045074 
C 211.183803 156.687032 211.94685 154.844874 211.94685 152.924312 
C 211.94685 151.003751 211.183803 149.161593 209.825761 147.803551 
C 208.467719 146.44551 206.625561 145.682462 204.705 145.682462 
C 202.784439 145.682462 200.942281 146.44551 199.584239 147.803551 
C 198.226197 149.161593 197.46315 151.003751 197.46315 152.924312 
C 197.46315 154.844874 198.226197 156.687032 199.584239 158.045074 
C 200.942281 159.403115 202.784439 160.166162 204.705 160.166162 
z
" clip-path="url(#p3b5d81382e)" style="fill: #333333; stroke: #ffffff; stroke-linejoin: miter"/>
   </g>
   <g id="patch_11">
    <path d="M 73.035 94.331162 
C 74.955561 94.331162 76.797719 93.568115 78.155761 92.210074 
C 79.513803 90.852032 80.27685 89.009874 80.27685 87.089312 
C 80.27685 85.168751 79.513803 83.326593 78.155761 81.968551 
C 76.797719 80.61051 74.955561 79.847462 73.035 79.847462 
C 71.114439 79.847462 69.272281 80.61051 67.914239 81.968551 
C 66.556197 83.326593 65.79315 85.168751 65.79315 87.089312 
C 65.79315 89.009874 66.556197 90.852032 67.914239 92.210074 
C 69.272281 93.568115 71.114439 94.331162 73.035 94.331162 
z
" clip-path="url(#p3b5d81382e)" style="fill: #333333; stroke: #ffffff; stroke-linejoin: miter"/>
   </g>
   <g id="patch_12">
    <path d="M 138.87 94.331162 
C 140.790561 94.331162 142.632719 93.568115 143.990761 92.210074 
C 145.348803 90.852032 146.11185 89.009874 146.11185 87.089312 
C 146.11185 85.168751 145.348803 83.326593 143.990761 81.968551 
C 142.632719 80.61051 140.790561 79.847462 138.87 79.847462 
C 136.949439 79.847462 135.107281 80.61051 133.749239 81.968551 
C 132.391197 83.326593 131.62815 85.168751 131.62815 87.089312 
C 131.62815 89.009874 132.391197 90.852032 133.749239 92.210074 
C 135.107281 93.568115 136.949439 94.331162 138.87 94.331162 
z
" clip-path="url(#p3b5d81382e)" style="fill: #333333; stroke: #ffffff; stroke-linejoin: miter"/>
   </g>
   <g id="patch_13">
    <path d="M 204.705 94.331162 
C 206.625561 94.331162 208.467719 93.568115 209.825761 92.210074 
C 211.183803 90.852032 211.94685 89.009874 211.94685 87.089312 
C 211.94685 85.168751 211.183803 83.326593 209.825761 81.968551 
C 208.467719 80.61051 206.625561 79.847462 204.705 79.847462 
C 202.784439 79.847462 200.942281 80.61051 199.584239 81.968551 
C 198.226197 83.326593 197.46315 85.168751 197.46315 87.089312 
C 197.46315 89.009874 198.226197 90.852032 199.584239 92.210074 
C 200.942281 93.568115 202.784439 94.331162 204.705 94.331162 
z
" clip-path="url(#p3b5d81382e)" style="fill: #333333; stroke: #ffffff; stroke-linejoin: miter"/>
   </g>
   <g id="text_2">
    <!-- panel = node   ·   shared side = edge -->
    <g style="fill: #222222" transform="translate(26.577187 216.803762) scale(0.12 -0.12)">
     <defs>
      <path id="DejaVuSans-3d" d="M 678 2906 
L 4684 2906 
L 4684 2381 
L 678 2381 
L 678 2906 
z
M 678 1631 
L 4684 1631 
L 4684 1100 
L 678 1100 
L 678 1631 
z
" transform="scale(0.015625)"/>
      <path id="DejaVuSans-b7" d="M 684 2619 
L 1344 2619 
L 1344 1825 
L 684 1825 
L 684 2619 
z
" transform="scale(0.015625)"/>
     </defs>
     <use xlink:href="#DejaVuSans-70"/>
     <use xlink:href="#DejaVuSans-61" transform="translate(63.476562 0)"/>
     <use xlink:href="#DejaVuSans-6e" transform="translate(124.755859 0)"/>
     <use xlink:href="#DejaVuSans-65" transform="translate(188.134766 0)"/>
     <use xlink:href="#DejaVuSans-6c" transform="translate(249.658203 0)"/>
     <use xlink:href="#DejaVuSans-20" transform="translate(277.441406 0)"/>
     <use xlink:href="#DejaVuSans-3d" transform="translate(309.228516 0)"/>
     <use xlink:href="#DejaVuSans-20" transform="translate(393.017578 0)"/>
     <use xlink:href="#DejaVuSans-6e" transform="translate(424.804688 0)"/>
     <use xlink:href="#DejaVuSans-6f" transform="translate(488.183594 0)"/>
     <use xlink:href="#DejaVuSans-64" transform="translate(549.365234 0)"/>
     <use xlink:href="#DejaVuSans-65" transform="translate(612.841797 0)"/>
     <use xlink:href="#DejaVuSans-20" transform="translate(674.365234 0)"/>
     <use xlink:href="#DejaVuSans-20" transform="translate(706.152344 0)"/>
     <use xlink:href="#DejaVuSans-20" transform="translate(737.939453 0)"/>
     <use xlink:href="#DejaVuSans-b7" transform="translate(769.726562 0)"/>
     <use xlink:href="#DejaVuSans-20" transform="translate(801.513672 0)"/>
     <use xlink:href="#DejaVuSans-20" transform="translate(833.300781 0)"/>
     <use xlink:href="#DejaVuSans-20" transform="translate(865.087891 0)"/>
     <use xlink:href="#DejaVuSans-73" transform="translate(896.875 0)"/>
     <use xlink:href="#DejaVuSans-68" transform="translate(948.974609 0)"/>
     <use xlink:href="#DejaVuSans-61" transform="translate(1012.353516 0)"/>
     <use xlink:href="#DejaVuSans-72" transform="translate(1073.632812 0)"/>
     <use xlink:href="#DejaVuSans-65" transform="translate(1112.496094 0)"/>
     <use xlink:href="#DejaVuSans-64" transform="translate(1174.019531 0)"/>
     <use xlink:href="#DejaVuSans-20" transform="translate(1237.496094 0)"/>
     <use xlink:href="#DejaVuSans-73" transform="translate(1269.283203 0)"/>
     <use xlink:href="#DejaVuSans-69" transform="translate(1321.382812 0)"/>
     <use xlink:href="#DejaVuSans-64" transform="translate(1349.166016 0)"/>
     <use xlink:href="#DejaVuSans-65" transform="translate(1412.642578 0)"/>
     <use xlink:href="#DejaVuSans-20" transform="translate(1474.166016 0)"/>
     <use xlink:href="#DejaVuSans-3d" transform="translate(1505.953125 0)"/>
     <use xlink:href="#DejaVuSans-20" transform="translate(1589.742188 0)"/>
     <use xlink:href="#DejaVuSans-65" transform="translate(1621.529297 0)"/>
     <use xlink:href="#DejaVuSans-64" transform="translate(1683.052734 0)"/>
     <use xlink:href="#DejaVuSans-67" transform="translate(1746.529297 0)"/>
     <use xlink:href="#DejaVuSans-65" transform="translate(1810.005859 0)"/>
    </g>
   </g>
   <g id="text_3">
    <!-- $P_i$ -->
    <g style="fill: #333333" transform="translate(68.47 136.209125) scale(0.11 -0.11)">
     <defs>
      <path id="DejaVuSans-Oblique-50" d="M 1081 4666 
L 2541 4666 
Q 3178 4666 3512 4369 
Q 3847 4072 3847 3500 
Q 3847 2731 3353 2303 
Q 2859 1875 1966 1875 
L 1172 1875 
L 806 0 
L 172 0 
L 1081 4666 
z
M 1613 4147 
L 1275 2394 
L 2069 2394 
Q 2606 2394 2893 2669 
Q 3181 2944 3181 3456 
Q 3181 3784 2986 3965 
Q 2791 4147 2438 4147 
L 1613 4147 
z
" transform="scale(0.015625)"/>
      <path id="DejaVuSans-Oblique-69" d="M 1172 4863 
L 1747 4863 
L 1606 4134 
L 1031 4134 
L 1172 4863 
z
M 909 3500 
L 1484 3500 
L 800 0 
L 225 0 
L 909 3500 
z
" transform="scale(0.015625)"/>
     </defs>
     <use xlink:href="#DejaVuSans-Oblique-50" transform="translate(0 0.09375)"/>
     <use xlink:href="#DejaVuSans-Oblique-69" transform="translate(60.302734 -16.3125) scale(0.7)"/>
    </g>
   </g>
   <g id="text_4">
    <!-- edge -->
    <g style="fill: #333333" transform="translate(93.450937 135.933187) scale(0.1 -0.1)">
     <use xlink:href="#DejaVuSans-65"/>
     <use xlink:href="#DejaVuSans-64" transform="translate(61.523438 0)"/>
     <use xlink:href="#DejaVuSans-67" transform="translate(125 0)"/>
     <use xlink:href="#DejaVuSans-65" transform="translate(188.476562 0)"/>
    </g>
   </g>
  </g>
 </g>
 <defs>
  <clipPath id="p3b5d81382e">
   <rect x="7.2" y="27.837812" width="263.34" height="210.672"/>
  </clipPath>
 </defs>
</svg>
