<?xml version="1.0" encoding="utf-8" standalone="no"?>
<!DOCTYPE svg PUBLIC "-//W3C//DTD SVG 1.1//EN"
  "http://www.w3.org/Graphics/SVG/1.1/DTD/svg11.dtd">
<svg xmlns:xlink="http://www.w3.org/1999/xlink" width="476.626364pt" height="257.904pt" viewBox="0 0 476.626364 257.904" xmlns="http://www.w3.org/2000/svg" version="1.1">
 <metadata>
  <rdf:RDF xmlns:dc="http://purl.org/dc/elements/1.1/" xmlns:cc="http://creativecommons.org/ns#" xmlns:rdf="http://www.w3.org/1999/02/22-rdf-syntax-ns#">
   <cc:Work>
    <dc:type rdf:resource="http://purl.org/dc/dcmitype/StillImage"/>
    <dc:date>2026-06-03T14:06:01.985358</dc:date>
    <dc:format>image/svg+xml</dc:format>
    <dc:creator>
     <cc:Agent>
      <dc:title>Matplotlib v3.10.9, https://matplotlib.org/</dc:title>
     </cc:Agent>
    </dc:creator>
   </cc:Work>
  </rdf:RDF>
 </metadata>
 <defs>
  <style type="text/css">*{stroke-linejoin: round; stroke-linecap: butt}</style>
 </defs>
 <g id="figure_1">
  <g id="patch_1">
   <path d="M 0 257.904 
L 476.626364 257.904 
L 476.626364 0 
L 0 0 
z
" style="fill: #ffffff"/>
  </g>
  <g id="axes_1">
   <g id="patch_2">
    <path d="M 37.495455 208.988455 
L 98.086364 208.988455 
L 98.086364 148.397545 
L 37.495455 148.397545 
z
" clip-path="url(#pd5afc12eb6)" style="fill: #ffffff; stroke: #444444; stroke-width: 1.5; stroke-linejoin: miter"/>
   </g>
   <g id="patch_3">
    <path d="M 98.086364 208.988455 
L 158.677273 208.988455 
L 158.677273 148.397545 
L 98.086364 148.397545 
z
" clip-path="url(#pd5afc12eb6)" style="fill: #ffffff; stroke: #444444; stroke-width: 1.5; stroke-linejoin: miter"/>
   </g>
   <g id="patch_4">
    <path d="M 158.677273 208.988455 
L 219.268182 208.988455 
L 219.268182 148.397545 
L 158.677273 148.397545 
z
" clip-path="url(#pd5afc12eb6)" style="fill: #ffffff; stroke: #444444; stroke-width: 1.5; stroke-linejoin: miter"/>
   </g>
   <g id="text_1">
    <!-- $P_i$ -->
    <g style="fill: #222222" transform="translate(63.225909 181.728313) scale(0.11 -0.11)">
     <defs>
      <path id="DejaVuSans-Oblique-50" d="M 1081 4666 
L 2541 4666 
Q 3178 4666 3512 4369 
Q 3847 4072 3847 3500 
Q 3847 2731 3353 2303 
Q 2859 1875 1966 1875 
L 1172 1875 
L 806 0 
L 172 0 
L 1081 4666 
z
M 1613 4147 
L 1275 2394 
L 2069 2394 
Q 2606 2394 2893 2669 
Q 3181 2944 3181 3456 
Q 3181 3784 2986 3965 
Q 2791 4147 2438 4147 
L 1613 4147 
z
" transform="scale(0.015625)"/>
      <path id="DejaVuSans-Oblique-69" d="M 1172 4863 
L 1747 4863 
L 1606 4134 
L 1031 4134 
L 1172 4863 
z
M 909 3500 
L 1484 3500 
L 800 0 
L 225 0 
L 909 3500 
z
" transform="scale(0.015625)"/>
     </defs>
     <use xlink:href="#DejaVuSans-Oblique-50" transform="translate(0 0.09375)"/>
     <use xlink:href="#DejaVuSans-Oblique-69" transform="translate(60.302734 -16.3125) scale(0.7)"/>
    </g>
   </g>
   <g id="text_2">
    <!-- $P_{i+1}$ -->
    <g style="fill: #222222" transform="translate(116.666818 181.728313) scale(0.11 -0.11)">
     <defs>
      <path id="DejaVuSans-2b" d="M 2944 4013 
L 2944 2272 
L 4684 2272 
L 4684 1741 
L 2944 1741 
L 2944 0 
L 2419 0 
L 2419 1741 
L 678 1741 
L 678 2272 
L 2419 2272 
L 2419 4013 
L 2944 4013 
z
" transform="scale(0.015625)"/>
      <path id="DejaVuSans-31" d="M 794 531 
L 1825 531 
L 1825 4091 
L 703 3866 
L 703 4441 
L 1819 4666 
L 2450 4666 
L 2450 531 
L 3481 531 
L 3481 0 
L 794 0 
L 794 531 
z
" transform="scale(0.015625)"/>
     </defs>
     <use xlink:href="#DejaVuSans-Oblique-50" transform="translate(0 0.09375)"/>
     <use xlink:href="#DejaVuSans-Oblique-69" transform="translate(60.302734 -16.3125) scale(0.7)"/>
     <use xlink:href="#DejaVuSans-2b" transform="translate(93.388672 -16.3125) scale(0.7)"/>
     <use xlink:href="#DejaVuSans-31" transform="translate(165.678711 -16.3125) scale(0.7)"/>
    </g>
   </g>
   <g id="text_3">
    <!-- $P_{i+2}$ -->
    <g style="fill: #222222" transform="translate(177.257727 181.728313) scale(0.11 -0.11)">
     <defs>
      <path id="DejaVuSans-32" d="M 1228 531 
L 3431 531 
L 3431 0 
L 469 0 
L 469 531 
Q 828 903 1448 1529 
Q 2069 2156 2228 2338 
Q 2531 2678 2651 2914 
Q 2772 3150 2772 3378 
Q 2772 3750 2511 3984 
Q 2250 4219 1831 4219 
Q 1534 4219 1204 4116 
Q 875 4013 500 3803 
L 500 4441 
Q 881 4594 1212 4672 
Q 1544 4750 1819 4750 
Q 2544 4750 2975 4387 
Q 3406 4025 3406 3419 
Q 3406 3131 3298 2873 
Q 3191 2616 2906 2266 
Q 2828 2175 2409 1742 
Q 1991 1309 1228 531 
z
" transform="scale(0.015625)"/>
     </defs>
     <use xlink:href="#DejaVuSans-Oblique-50" transform="translate(0 0.09375)"/>
     <use xlink:href="#DejaVuSans-Oblique-69" transform="translate(60.302734 -16.3125) scale(0.7)"/>
     <use xlink:href="#DejaVuSans-2b" transform="translate(93.388672 -16.3125) scale(0.7)"/>
     <use xlink:href="#DejaVuSans-32" transform="translate(165.678711 -16.3125) scale(0.7)"/>
    </g>
   </g>
   <g id="line2d_1">
    <path d="M 98.086364 208.988455 
L 98.086364 148.397545 
" clip-path="url(#pd5afc12eb6)" style="fill: none; stroke: #dd2222; stroke-width: 3.2; stroke-linecap: round"/>
   </g>
   <g id="line2d_2">
    <path d="M 158.677273 208.988455 
L 158.677273 148.397545 
" clip-path="url(#pd5afc12eb6)" style="fill: none; stroke: #dd2222; stroke-width: 3.2; stroke-linecap: round"/>
   </g>
   <g id="patch_5">
    <path d="M 67.790909 127.190727 
Q 128.381818 127.190727 186.513052 127.190727 
" clip-path="url(#pd5afc12eb6)" style="fill: none; stroke: #3399cc; stroke-width: 2.2; stroke-linecap: round"/>
    <path d="M 180.513052 124.190727 
L 186.513052 127.190727 
L 180.513052 130.190727 
z
" clip-path="url(#pd5afc12eb6)" style="fill: #3399cc; stroke: #3399cc; stroke-width: 2.2; stroke-linecap: round"/>
   </g>
   <g id="text_4">
    <!-- (a) straight-through -->
    <g style="fill: #222222" transform="translate(60.275256 69.864193) scale(0.12 -0.12)">
     <defs>
      <path id="DejaVuSans-Bold-28" d="M 2413 -844 
L 1484 -844 
Q 1006 -72 778 623 
Q 550 1319 550 2003 
Q 550 2688 779 3389 
Q 1009 4091 1484 4856 
L 2413 4856 
Q 2013 4116 1813 3408 
Q 1613 2700 1613 2009 
Q 1613 1319 1811 609 
Q 2009 -100 2413 -844 
z
" transform="scale(0.015625)"/>
      <path id="DejaVuSans-Bold-61" d="M 2106 1575 
Q 1756 1575 1579 1456 
Q 1403 1338 1403 1106 
Q 1403 894 1545 773 
Q 1688 653 1941 653 
Q 2256 653 2472 879 
Q 2688 1106 2688 1447 
L 2688 1575 
L 2106 1575 
z
M 3816 1997 
L 3816 0 
L 2688 0 
L 2688 519 
Q 2463 200 2181 54 
Q 1900 -91 1497 -91 
Q 953 -91 614 226 
Q 275 544 275 1050 
Q 275 1666 698 1953 
Q 1122 2241 2028 2241 
L 2688 2241 
L 2688 2328 
Q 2688 2594 2478 2717 
Q 2269 2841 1825 2841 
Q 1466 2841 1156 2769 
Q 847 2697 581 2553 
L 581 3406 
Q 941 3494 1303 3539 
Q 1666 3584 2028 3584 
Q 2975 3584 3395 3211 
Q 3816 2838 3816 1997 
z
" transform="scale(0.015625)"/>
      <path id="DejaVuSans-Bold-29" d="M 513 -844 
Q 913 -100 1113 609 
Q 1313 1319 1313 2009 
Q 1313 2700 1113 3408 
Q 913 4116 513 4856 
L 1441 4856 
Q 1916 4091 2145 3389 
Q 2375 2688 2375 2003 
Q 2375 1319 2147 623 
Q 1919 -72 1441 -844 
L 513 -844 
z
" transform="scale(0.015625)"/>
      <path id="DejaVuSans-Bold-20" transform="scale(0.015625)"/>
      <path id="DejaVuSans-Bold-73" d="M 3272 3391 
L 3272 2541 
Q 2913 2691 2578 2766 
Q 2244 2841 1947 2841 
Q 1628 2841 1473 2761 
Q 1319 2681 1319 2516 
Q 1319 2381 1436 2309 
Q 1553 2238 1856 2203 
L 2053 2175 
Q 2913 2066 3209 1816 
Q 3506 1566 3506 1031 
Q 3506 472 3093 190 
Q 2681 -91 1863 -91 
Q 1516 -91 1145 -36 
Q 775 19 384 128 
L 384 978 
Q 719 816 1070 734 
Q 1422 653 1784 653 
Q 2113 653 2278 743 
Q 2444 834 2444 1013 
Q 2444 1163 2330 1236 
Q 2216 1309 1875 1350 
L 1678 1375 
Q 931 1469 631 1722 
Q 331 1975 331 2491 
Q 331 3047 712 3315 
Q 1094 3584 1881 3584 
Q 2191 3584 2531 3537 
Q 2872 3491 3272 3391 
z
" transform="scale(0.015625)"/>
      <path id="DejaVuSans-Bold-74" d="M 1759 4494 
L 1759 3500 
L 2913 3500 
L 2913 2700 
L 1759 2700 
L 1759 1216 
Q 1759 972 1856 886 
Q 1953 800 2241 800 
L 2816 800 
L 2816 0 
L 1856 0 
Q 1194 0 917 276 
Q 641 553 641 1216 
L 641 2700 
L 84 2700 
L 84 3500 
L 641 3500 
L 641 4494 
L 1759 4494 
z
" transform="scale(0.015625)"/>
      <path id="DejaVuSans-Bold-72" d="M 3138 2547 
Q 2991 2616 2845 2648 
Q 2700 2681 2553 2681 
Q 2122 2681 1889 2404 
Q 1656 2128 1656 1613 
L 1656 0 
L 538 0 
L 538 3500 
L 1656 3500 
L 1656 2925 
Q 1872 3269 2151 3426 
Q 2431 3584 2822 3584 
Q 2878 3584 2943 3579 
Q 3009 3575 3134 3559 
L 3138 2547 
z
" transform="scale(0.015625)"/>
      <path id="DejaVuSans-Bold-69" d="M 538 3500 
L 1656 3500 
L 1656 0 
L 538 0 
L 538 3500 
z
M 538 4863 
L 1656 4863 
L 1656 3950 
L 538 3950 
L 538 4863 
z
" transform="scale(0.015625)"/>
      <path id="DejaVuSans-Bold-67" d="M 2919 594 
Q 2688 288 2409 144 
Q 2131 0 1766 0 
Q 1125 0 706 504 
Q 288 1009 288 1791 
Q 288 2575 706 3076 
Q 1125 3578 1766 3578 
Q 2131 3578 2409 3434 
Q 2688 3291 2919 2981 
L 2919 3500 
L 4044 3500 
L 4044 353 
Q 4044 -491 3511 -936 
Q 2978 -1381 1966 -1381 
Q 1638 -1381 1331 -1331 
Q 1025 -1281 716 -1178 
L 716 -306 
Q 1009 -475 1290 -558 
Q 1572 -641 1856 -641 
Q 2406 -641 2662 -400 
Q 2919 -159 2919 353 
L 2919 594 
z
M 2181 2772 
Q 1834 2772 1640 2515 
Q 1447 2259 1447 1791 
Q 1447 1309 1634 1061 
Q 1822 813 2181 813 
Q 2531 813 2725 1069 
Q 2919 1325 2919 1791 
Q 2919 2259 2725 2515 
Q 2531 2772 2181 2772 
z
" transform="scale(0.015625)"/>
      <path id="DejaVuSans-Bold-68" d="M 4056 2131 
L 4056 0 
L 2931 0 
L 2931 347 
L 2931 1625 
Q 2931 2084 2911 2256 
Q 2891 2428 2841 2509 
Q 2775 2619 2662 2680 
Q 2550 2741 2406 2741 
Q 2056 2741 1856 2470 
Q 1656 2200 1656 1722 
L 1656 0 
L 538 0 
L 538 4863 
L 1656 4863 
L 1656 2988 
Q 1909 3294 2193 3439 
Q 2478 3584 2822 3584 
Q 3428 3584 3742 3212 
Q 4056 2841 4056 2131 
z
" transform="scale(0.015625)"/>
      <path id="DejaVuSans-Bold-2d" d="M 347 2297 
L 2309 2297 
L 2309 1388 
L 347 1388 
L 347 2297 
z
" transform="scale(0.015625)"/>
      <path id="DejaVuSans-Bold-6f" d="M 2203 2784 
Q 1831 2784 1636 2517 
Q 1441 2250 1441 1747 
Q 1441 1244 1636 976 
Q 1831 709 2203 709 
Q 2569 709 2762 976 
Q 2956 1244 2956 1747 
Q 2956 2250 2762 2517 
Q 2569 2784 2203 2784 
z
M 2203 3584 
Q 3106 3584 3614 3096 
Q 4122 2609 4122 1747 
Q 4122 884 3614 396 
Q 3106 -91 2203 -91 
Q 1297 -91 786 396 
Q 275 884 275 1747 
Q 275 2609 786 3096 
Q 1297 3584 2203 3584 
z
" transform="scale(0.015625)"/>
      <path id="DejaVuSans-Bold-75" d="M 500 1363 
L 500 3500 
L 1625 3500 
L 1625 3150 
Q 1625 2866 1622 2436 
Q 1619 2006 1619 1863 
Q 1619 1441 1641 1255 
Q 1663 1069 1716 984 
Q 1784 875 1895 815 
Q 2006 756 2150 756 
Q 2500 756 2700 1025 
Q 2900 1294 2900 1772 
L 2900 3500 
L 4019 3500 
L 4019 0 
L 2900 0 
L 2900 506 
Q 2647 200 2364 54 
Q 2081 -91 1741 -91 
Q 1134 -91 817 281 
Q 500 653 500 1363 
z
" transform="scale(0.015625)"/>
     </defs>
     <use xlink:href="#DejaVuSans-Bold-28"/>
     <use xlink:href="#DejaVuSans-Bold-61" transform="translate(45.703125 0)"/>
     <use xlink:href="#DejaVuSans-Bold-29" transform="translate(113.183594 0)"/>
     <use xlink:href="#DejaVuSans-Bold-20" transform="translate(158.886719 0)"/>
     <use xlink:href="#DejaVuSans-Bold-73" transform="translate(193.701172 0)"/>
     <use xlink:href="#DejaVuSans-Bold-74" transform="translate(253.222656 0)"/>
     <use xlink:href="#DejaVuSans-Bold-72" transform="translate(301.025391 0)"/>
     <use xlink:href="#DejaVuSans-Bold-61" transform="translate(350.341797 0)"/>
     <use xlink:href="#DejaVuSans-Bold-69" transform="translate(417.822266 0)"/>
     <use xlink:href="#DejaVuSans-Bold-67" transform="translate(452.099609 0)"/>
     <use xlink:href="#DejaVuSans-Bold-68" transform="translate(523.681641 0)"/>
     <use xlink:href="#DejaVuSans-Bold-74" transform="translate(594.873047 0)"/>
     <use xlink:href="#DejaVuSans-Bold-2d" transform="translate(642.675781 0)"/>
     <use xlink:href="#DejaVuSans-Bold-74" transform="translate(684.179688 0)"/>
     <use xlink:href="#DejaVuSans-Bold-68" transform="translate(731.982422 0)"/>
     <use xlink:href="#DejaVuSans-Bold-72" transform="translate(803.173828 0)"/>
     <use xlink:href="#DejaVuSans-Bold-6f" transform="translate(852.490234 0)"/>
     <use xlink:href="#DejaVuSans-Bold-75" transform="translate(921.191406 0)"/>
     <use xlink:href="#DejaVuSans-Bold-67" transform="translate(992.382812 0)"/>
     <use xlink:href="#DejaVuSans-Bold-68" transform="translate(1063.964844 0)"/>
    </g>
   </g>
   <g id="text_5">
    <!-- creases $\parallel$ → translation, $\gamma=0$ -->
    <g style="fill: #222222" transform="translate(45.881818 103.004818) scale(0.11 -0.11)">
     <defs>
      <path id="DejaVuSans-63" d="M 3122 3366 
L 3122 2828 
Q 2878 2963 2633 3030 
Q 2388 3097 2138 3097 
Q 1578 3097 1268 2742 
Q 959 2388 959 1747 
Q 959 1106 1268 751 
Q 1578 397 2138 397 
Q 2388 397 2633 464 
Q 2878 531 3122 666 
L 3122 134 
Q 2881 22 2623 -34 
Q 2366 -91 2075 -91 
Q 1284 -91 818 406 
Q 353 903 353 1747 
Q 353 2603 823 3093 
Q 1294 3584 2113 3584 
Q 2378 3584 2631 3529 
Q 2884 3475 3122 3366 
z
" transform="scale(0.015625)"/>
      <path id="DejaVuSans-72" d="M 2631 2963 
Q 2534 3019 2420 3045 
Q 2306 3072 2169 3072 
Q 1681 3072 1420 2755 
Q 1159 2438 1159 1844 
L 1159 0 
L 581 0 
L 581 3500 
L 1159 3500 
L 1159 2956 
Q 1341 3275 1631 3429 
Q 1922 3584 2338 3584 
Q 2397 3584 2469 3576 
Q 2541 3569 2628 3553 
L 2631 2963 
z
" transform="scale(0.015625)"/>
      <path id="DejaVuSans-65" d="M 3597 1894 
L 3597 1613 
L 953 1613 
Q 991 1019 1311 708 
Q 1631 397 2203 397 
Q 2534 397 2845 478 
Q 3156 559 3463 722 
L 3463 178 
Q 3153 47 2828 -22 
Q 2503 -91 2169 -91 
Q 1331 -91 842 396 
Q 353 884 353 1716 
Q 353 2575 817 3079 
Q 1281 3584 2069 3584 
Q 2775 3584 3186 3129 
Q 3597 2675 3597 1894 
z
M 3022 2063 
Q 3016 2534 2758 2815 
Q 2500 3097 2075 3097 
Q 1594 3097 1305 2825 
Q 1016 2553 972 2059 
L 3022 2063 
z
" transform="scale(0.015625)"/>
      <path id="DejaVuSans-61" d="M 2194 1759 
Q 1497 1759 1228 1600 
Q 959 1441 959 1056 
Q 959 750 1161 570 
Q 1363 391 1709 391 
Q 2188 391 2477 730 
Q 2766 1069 2766 1631 
L 2766 1759 
L 2194 1759 
z
M 3341 1997 
L 3341 0 
L 2766 0 
L 2766 531 
Q 2569 213 2275 61 
Q 1981 -91 1556 -91 
Q 1019 -91 701 211 
Q 384 513 384 1019 
Q 384 1609 779 1909 
Q 1175 2209 1959 2209 
L 2766 2209 
L 2766 2266 
Q 2766 2663 2505 2880 
Q 2244 3097 1772 3097 
Q 1472 3097 1187 3025 
Q 903 2953 641 2809 
L 641 3341 
Q 956 3463 1253 3523 
Q 1550 3584 1831 3584 
Q 2591 3584 2966 3190 
Q 3341 2797 3341 1997 
z
" transform="scale(0.015625)"/>
      <path id="DejaVuSans-73" d="M 2834 3397 
L 2834 2853 
Q 2591 2978 2328 3040 
Q 2066 3103 1784 3103 
Q 1356 3103 1142 2972 
Q 928 2841 928 2578 
Q 928 2378 1081 2264 
Q 1234 2150 1697 2047 
L 1894 2003 
Q 2506 1872 2764 1633 
Q 3022 1394 3022 966 
Q 3022 478 2636 193 
Q 2250 -91 1575 -91 
Q 1294 -91 989 -36 
Q 684 19 347 128 
L 347 722 
Q 666 556 975 473 
Q 1284 391 1588 391 
Q 1994 391 2212 530 
Q 2431 669 2431 922 
Q 2431 1156 2273 1281 
Q 2116 1406 1581 1522 
L 1381 1569 
Q 847 1681 609 1914 
Q 372 2147 372 2553 
Q 372 3047 722 3315 
Q 1072 3584 1716 3584 
Q 2034 3584 2315 3537 
Q 2597 3491 2834 3397 
z
" transform="scale(0.015625)"/>
      <path id="DejaVuSans-20" transform="scale(0.015625)"/>
      <path id="DejaVuSans-2225" d="M 850 4934 
L 1350 4934 
L 1350 -1369 
L 850 -1369 
L 850 4934 
z
M 1850 4934 
L 2350 4934 
L 2350 -1369 
L 1850 -1369 
L 1850 4934 
z
" transform="scale(0.015625)"/>
      <path id="DejaVuSans-2192" d="M 5050 2147 
L 5050 1866 
L 3822 638 
L 3447 1013 
L 4175 1741 
L 366 1741 
L 366 2272 
L 4175 2272 
L 3447 3000 
L 3822 3375 
L 5050 2147 
z
" transform="scale(0.015625)"/>
      <path id="DejaVuSans-74" d="M 1172 4494 
L 1172 3500 
L 2356 3500 
L 2356 3053 
L 1172 3053 
L 1172 1153 
Q 1172 725 1289 603 
Q 1406 481 1766 481 
L 2356 481 
L 2356 0 
L 1766 0 
Q 1100 0 847 248 
Q 594 497 594 1153 
L 594 3053 
L 172 3053 
L 172 3500 
L 594 3500 
L 594 4494 
L 1172 4494 
z
" transform="scale(0.015625)"/>
      <path id="DejaVuSans-6e" d="M 3513 2113 
L 3513 0 
L 2938 0 
L 2938 2094 
Q 2938 2591 2744 2837 
Q 2550 3084 2163 3084 
Q 1697 3084 1428 2787 
Q 1159 2491 1159 1978 
L 1159 0 
L 581 0 
L 581 3500 
L 1159 3500 
L 1159 2956 
Q 1366 3272 1645 3428 
Q 1925 3584 2291 3584 
Q 2894 3584 3203 3211 
Q 3513 2838 3513 2113 
z
" transform="scale(0.015625)"/>
      <path id="DejaVuSans-6c" d="M 603 4863 
L 1178 4863 
L 1178 0 
L 603 0 
L 603 4863 
z
" transform="scale(0.015625)"/>
      <path id="DejaVuSans-69" d="M 603 3500 
L 1178 3500 
L 1178 0 
L 603 0 
L 603 3500 
z
M 603 4863 
L 1178 4863 
L 1178 4134 
L 603 4134 
L 603 4863 
z
" transform="scale(0.015625)"/>
      <path id="DejaVuSans-6f" d="M 1959 3097 
Q 1497 3097 1228 2736 
Q 959 2375 959 1747 
Q 959 1119 1226 758 
Q 1494 397 1959 397 
Q 2419 397 2687 759 
Q 2956 1122 2956 1747 
Q 2956 2369 2687 2733 
Q 2419 3097 1959 3097 
z
M 1959 3584 
Q 2709 3584 3137 3096 
Q 3566 2609 3566 1747 
Q 3566 888 3137 398 
Q 2709 -91 1959 -91 
Q 1206 -91 779 398 
Q 353 888 353 1747 
Q 353 2609 779 3096 
Q 1206 3584 1959 3584 
z
" transform="scale(0.015625)"/>
      <path id="DejaVuSans-2c" d="M 750 794 
L 1409 794 
L 1409 256 
L 897 -744 
L 494 -744 
L 750 256 
L 750 794 
z
" transform="scale(0.015625)"/>
      <path id="DejaVuSans-Oblique-3b3" d="M 1491 2950 
L 1838 788 
L 3456 3500 
L 4066 3500 
L 1972 0 
L 1713 -1331 
L 1138 -1331 
L 1397 0 
L 988 2613 
Q 925 3006 628 3006 
L 475 3006 
L 569 3500 
L 788 3500 
Q 1403 3500 1491 2950 
z
" transform="scale(0.015625)"/>
      <path id="DejaVuSans-3d" d="M 678 2906 
L 4684 2906 
L 4684 2381 
L 678 2381 
L 678 2906 
z
M 678 1631 
L 4684 1631 
L 4684 1100 
L 678 1100 
L 678 1631 
z
" transform="scale(0.015625)"/>
      <path id="DejaVuSans-30" d="M 2034 4250 
Q 1547 4250 1301 3770 
Q 1056 3291 1056 2328 
Q 1056 1369 1301 889 
Q 1547 409 2034 409 
Q 2525 409 2770 889 
Q 3016 1369 3016 2328 
Q 3016 3291 2770 3770 
Q 2525 4250 2034 4250 
z
M 2034 4750 
Q 2819 4750 3233 4129 
Q 3647 3509 3647 2328 
Q 3647 1150 3233 529 
Q 2819 -91 2034 -91 
Q 1250 -91 836 529 
Q 422 1150 422 2328 
Q 422 3509 836 4129 
Q 1250 4750 2034 4750 
z
" transform="scale(0.015625)"/>
     </defs>
     <use xlink:href="#DejaVuSans-63" transform="translate(0 0.90625)"/>
     <use xlink:href="#DejaVuSans-72" transform="translate(54.980469 0.90625)"/>
     <use xlink:href="#DejaVuSans-65" transform="translate(96.09375 0.90625)"/>
     <use xlink:href="#DejaVuSans-61" transform="translate(157.617188 0.90625)"/>
     <use xlink:href="#DejaVuSans-73" transform="translate(218.896484 0.90625)"/>
     <use xlink:href="#DejaVuSans-65" transform="translate(270.996094 0.90625)"/>
     <use xlink:href="#DejaVuSans-73" transform="translate(332.519531 0.90625)"/>
     <use xlink:href="#DejaVuSans-20" transform="translate(384.619141 0.90625)"/>
     <use xlink:href="#DejaVuSans-2225" transform="translate(435.888672 0.90625)"/>
     <use xlink:href="#DejaVuSans-20" transform="translate(505.371094 0.90625)"/>
     <use xlink:href="#DejaVuSans-2192" transform="translate(537.158203 0.90625)"/>
     <use xlink:href="#DejaVuSans-20" transform="translate(620.947266 0.90625)"/>
     <use xlink:href="#DejaVuSans-74" transform="translate(652.734375 0.90625)"/>
     <use xlink:href="#DejaVuSans-72" transform="translate(691.943359 0.90625)"/>
     <use xlink:href="#DejaVuSans-61" transform="translate(733.056641 0.90625)"/>
     <use xlink:href="#DejaVuSans-6e" transform="translate(794.335938 0.90625)"/>
     <use xlink:href="#DejaVuSans-73" transform="translate(857.714844 0.90625)"/>
     <use xlink:href="#DejaVuSans-6c" transform="translate(909.814453 0.90625)"/>
     <use xlink:href="#DejaVuSans-61" transform="translate(937.597656 0.90625)"/>
     <use xlink:href="#DejaVuSans-74" transform="translate(998.876953 0.90625)"/>
     <use xlink:href="#DejaVuSans-69" transform="translate(1038.085938 0.90625)"/>
     <use xlink:href="#DejaVuSans-6f" transform="translate(1065.869141 0.90625)"/>
     <use xlink:href="#DejaVuSans-6e" transform="translate(1127.050781 0.90625)"/>
     <use xlink:href="#DejaVuSans-2c" transform="translate(1190.429688 0.90625)"/>
     <use xlink:href="#DejaVuSans-20" transform="translate(1222.216797 0.90625)"/>
     <use xlink:href="#DejaVuSans-Oblique-3b3" transform="translate(1254.003906 0.90625)"/>
     <use xlink:href="#DejaVuSans-3d" transform="translate(1332.666016 0.90625)"/>
     <use xlink:href="#DejaVuSans-30" transform="translate(1435.9375 0.90625)"/>
    </g>
   </g>
  </g>
  <g id="axes_2">
   <g id="patch_6">
    <path d="M 329.790243 187.248578 
L 380.554581 187.248578 
L 380.554581 136.484241 
L 329.790243 136.484241 
z
" clip-path="url(#p764db40216)" style="fill: #ffffff; stroke: #444444; stroke-width: 1.5; stroke-linejoin: miter"/>
   </g>
   <g id="patch_7">
    <path d="M 380.554581 187.248578 
L 431.318918 187.248578 
L 431.318918 136.484241 
L 380.554581 136.484241 
z
" clip-path="url(#p764db40216)" style="fill: #ffffff; stroke: #444444; stroke-width: 1.5; stroke-linejoin: miter"/>
   </g>
   <g id="patch_8">
    <path d="M 380.554581 136.484241 
L 431.318918 136.484241 
L 431.318918 85.719904 
L 380.554581 85.719904 
z
" clip-path="url(#p764db40216)" style="fill: #f0f4ea; stroke: #9aa0a6; stroke-width: 1.5; stroke-linejoin: miter"/>
   </g>
   <g id="text_6">
    <!-- $P_i$ -->
    <g style="fill: #222222" transform="translate(350.607412 164.901722) scale(0.11 -0.11)">
     <use xlink:href="#DejaVuSans-Oblique-50" transform="translate(0 0.09375)"/>
     <use xlink:href="#DejaVuSans-Oblique-69" transform="translate(60.302734 -16.3125) scale(0.7)"/>
    </g>
   </g>
   <g id="text_7">
    <!-- $P_{i+1}$ -->
    <g style="fill: #222222" transform="translate(395.286749 164.625785) scale(0.1 -0.1)">
     <use xlink:href="#DejaVuSans-Oblique-50" transform="translate(0 0.09375)"/>
     <use xlink:href="#DejaVuSans-Oblique-69" transform="translate(60.302734 -16.3125) scale(0.7)"/>
     <use xlink:href="#DejaVuSans-2b" transform="translate(93.388672 -16.3125) scale(0.7)"/>
     <use xlink:href="#DejaVuSans-31" transform="translate(165.678711 -16.3125) scale(0.7)"/>
    </g>
   </g>
   <g id="text_8">
    <!-- $P_{i+2}$ -->
    <g style="fill: #222222" transform="translate(395.286749 113.861447) scale(0.1 -0.1)">
     <use xlink:href="#DejaVuSans-Oblique-50" transform="translate(0 0.09375)"/>
     <use xlink:href="#DejaVuSans-Oblique-69" transform="translate(60.302734 -16.3125) scale(0.7)"/>
     <use xlink:href="#DejaVuSans-2b" transform="translate(93.388672 -16.3125) scale(0.7)"/>
     <use xlink:href="#DejaVuSans-32" transform="translate(165.678711 -16.3125) scale(0.7)"/>
    </g>
   </g>
   <g id="line2d_3">
    <path d="M 380.554581 187.248578 
L 380.554581 136.484241 
" clip-path="url(#p764db40216)" style="fill: none; stroke: #dd2222; stroke-width: 3.2; stroke-linecap: round"/>
   </g>
   <g id="line2d_4">
    <path d="M 380.554581 136.484241 
L 431.318918 136.484241 
" clip-path="url(#p764db40216)" style="fill: none; stroke: #dd2222; stroke-width: 3.2; stroke-linecap: round"/>
   </g>
   <g id="patch_9">
    <path d="M 357.710629 155.774689 
Q 396.423512 154.525886 401.497901 118.835072 
" clip-path="url(#p764db40216)" style="fill: none; stroke: #ff7a18; stroke-width: 2.4; stroke-linecap: round"/>
    <path d="M 397.428893 124.720917 
L 401.497901 118.835072 
L 403.765172 125.621786 
z
" clip-path="url(#p764db40216)" style="fill: #ff7a18; stroke: #ff7a18; stroke-width: 2.4; stroke-linecap: round"/>
   </g>
   <g id="patch_10">
    <path d="M 380.554581 139.530101 
C 381.362352 139.530101 382.137148 139.20917 382.708329 138.637989 
C 383.27951 138.066809 383.600441 137.292013 383.600441 136.484241 
C 383.600441 135.676469 383.27951 134.901673 382.708329 134.330493 
C 382.137148 133.759312 381.362352 133.438381 380.554581 133.438381 
C 379.746809 133.438381 378.972013 133.759312 378.400832 134.330493 
C 377.829651 134.901673 377.50872 135.676469 377.50872 136.484241 
C 377.50872 137.292013 377.829651 138.066809 378.400832 138.637989 
C 378.972013 139.20917 379.746809 139.530101 380.554581 139.530101 
z
" clip-path="url(#p764db40216)" style="fill: #ff7a18; stroke: #ffffff; stroke-linejoin: miter"/>
   </g>
   <g id="text_9">
    <!-- $2\alpha=180^\circ$ about (1,1) -->
    <g style="fill: #ff7a18" transform="translate(327.252026 91.155464) scale(0.105 -0.105)">
     <defs>
      <path id="DejaVuSans-Oblique-3b1" d="M 2619 1628 
L 2622 2350 
Q 2625 3088 2069 3091 
Q 1653 3094 1394 2747 
Q 1069 2319 959 1747 
Q 825 1059 994 731 
Q 1169 397 1547 397 
Q 1966 397 2319 1063 
L 2619 1628 
z
M 2166 3578 
Q 3141 3594 3128 2584 
Q 3128 2584 3616 3500 
L 4128 3500 
L 3119 1603 
L 3109 919 
Q 3109 766 3194 638 
Q 3291 488 3391 488 
L 3669 488 
L 3575 0 
L 3228 0 
Q 2934 0 2722 263 
Q 2622 394 2619 669 
Q 2416 334 2066 50 
Q 1900 -81 1453 -78 
Q 722 -72 456 397 
Q 184 884 353 1747 
Q 534 2675 1009 3097 
Q 1544 3569 2166 3578 
z
" transform="scale(0.015625)"/>
      <path id="DejaVuSans-38" d="M 2034 2216 
Q 1584 2216 1326 1975 
Q 1069 1734 1069 1313 
Q 1069 891 1326 650 
Q 1584 409 2034 409 
Q 2484 409 2743 651 
Q 3003 894 3003 1313 
Q 3003 1734 2745 1975 
Q 2488 2216 2034 2216 
z
M 1403 2484 
Q 997 2584 770 2862 
Q 544 3141 544 3541 
Q 544 4100 942 4425 
Q 1341 4750 2034 4750 
Q 2731 4750 3128 4425 
Q 3525 4100 3525 3541 
Q 3525 3141 3298 2862 
Q 3072 2584 2669 2484 
Q 3125 2378 3379 2068 
Q 3634 1759 3634 1313 
Q 3634 634 3220 271 
Q 2806 -91 2034 -91 
Q 1263 -91 848 271 
Q 434 634 434 1313 
Q 434 1759 690 2068 
Q 947 2378 1403 2484 
z
M 1172 3481 
Q 1172 3119 1398 2916 
Q 1625 2713 2034 2713 
Q 2441 2713 2670 2916 
Q 2900 3119 2900 3481 
Q 2900 3844 2670 4047 
Q 2441 4250 2034 4250 
Q 1625 4250 1398 4047 
Q 1172 3844 1172 3481 
z
" transform="scale(0.015625)"/>
      <path id="DejaVuSans-2218" d="M 2000 2619 
Q 1750 2619 1578 2445 
Q 1406 2272 1406 2022 
Q 1406 1775 1578 1605 
Q 1750 1435 2000 1435 
Q 2250 1435 2422 1605 
Q 2594 1775 2594 2022 
Q 2594 2269 2420 2444 
Q 2247 2619 2000 2619 
z
M 2000 3022 
Q 2200 3022 2384 2945 
Q 2569 2869 2703 2725 
Q 2847 2585 2919 2406 
Q 2991 2228 2991 2022 
Q 2991 1610 2702 1324 
Q 2413 1038 1994 1038 
Q 1572 1038 1290 1319 
Q 1009 1600 1009 2022 
Q 1009 2441 1296 2731 
Q 1584 3022 2000 3022 
z
" transform="scale(0.015625)"/>
      <path id="DejaVuSans-62" d="M 3116 1747 
Q 3116 2381 2855 2742 
Q 2594 3103 2138 3103 
Q 1681 3103 1420 2742 
Q 1159 2381 1159 1747 
Q 1159 1113 1420 752 
Q 1681 391 2138 391 
Q 2594 391 2855 752 
Q 3116 1113 3116 1747 
z
M 1159 2969 
Q 1341 3281 1617 3432 
Q 1894 3584 2278 3584 
Q 2916 3584 3314 3078 
Q 3713 2572 3713 1747 
Q 3713 922 3314 415 
Q 2916 -91 2278 -91 
Q 1894 -91 1617 61 
Q 1341 213 1159 525 
L 1159 0 
L 581 0 
L 581 4863 
L 1159 4863 
L 1159 2969 
z
" transform="scale(0.015625)"/>
      <path id="DejaVuSans-75" d="M 544 1381 
L 544 3500 
L 1119 3500 
L 1119 1403 
Q 1119 906 1312 657 
Q 1506 409 1894 409 
Q 2359 409 2629 706 
Q 2900 1003 2900 1516 
L 2900 3500 
L 3475 3500 
L 3475 0 
L 2900 0 
L 2900 538 
Q 2691 219 2414 64 
Q 2138 -91 1772 -91 
Q 1169 -91 856 284 
Q 544 659 544 1381 
z
M 1991 3584 
L 1991 3584 
z
" transform="scale(0.015625)"/>
      <path id="DejaVuSans-28" d="M 1984 4856 
Q 1566 4138 1362 3434 
Q 1159 2731 1159 2009 
Q 1159 1288 1364 580 
Q 1569 -128 1984 -844 
L 1484 -844 
Q 1016 -109 783 600 
Q 550 1309 550 2009 
Q 550 2706 781 3412 
Q 1013 4119 1484 4856 
L 1984 4856 
z
" transform="scale(0.015625)"/>
      <path id="DejaVuSans-29" d="M 513 4856 
L 1013 4856 
Q 1481 4119 1714 3412 
Q 1947 2706 1947 2009 
Q 1947 1309 1714 600 
Q 1481 -109 1013 -844 
L 513 -844 
Q 928 -128 1133 580 
Q 1338 1288 1338 2009 
Q 1338 2731 1133 3434 
Q 928 4138 513 4856 
z
" transform="scale(0.015625)"/>
     </defs>
     <use xlink:href="#DejaVuSans-32" transform="translate(0 0.015625)"/>
     <use xlink:href="#DejaVuSans-Oblique-3b1" transform="translate(63.623047 0.015625)"/>
     <use xlink:href="#DejaVuSans-3d" transform="translate(149.023438 0.015625)"/>
     <use xlink:href="#DejaVuSans-31" transform="translate(252.294922 0.015625)"/>
     <use xlink:href="#DejaVuSans-38" transform="translate(315.917969 0.015625)"/>
     <use xlink:href="#DejaVuSans-30" transform="translate(379.541016 0.015625)"/>
     <use xlink:href="#DejaVuSans-2218" transform="translate(457.758789 38.296875) scale(0.7)"/>
     <use xlink:href="#DejaVuSans-20" transform="translate(517.949219 0.015625)"/>
     <use xlink:href="#DejaVuSans-61" transform="translate(549.736328 0.015625)"/>
     <use xlink:href="#DejaVuSans-62" transform="translate(611.015625 0.015625)"/>
     <use xlink:href="#DejaVuSans-6f" transform="translate(674.492188 0.015625)"/>
     <use xlink:href="#DejaVuSans-75" transform="translate(735.673828 0.015625)"/>
     <use xlink:href="#DejaVuSans-74" transform="translate(799.052734 0.015625)"/>
     <use xlink:href="#DejaVuSans-20" transform="translate(838.261719 0.015625)"/>
     <use xlink:href="#DejaVuSans-28" transform="translate(870.048828 0.015625)"/>
     <use xlink:href="#DejaVuSans-31" transform="translate(909.0625 0.015625)"/>
     <use xlink:href="#DejaVuSans-2c" transform="translate(972.685547 0.015625)"/>
     <use xlink:href="#DejaVuSans-31" transform="translate(1004.472656 0.015625)"/>
     <use xlink:href="#DejaVuSans-29" transform="translate(1068.095703 0.015625)"/>
    </g>
   </g>
   <g id="text_10">
    <!-- (b) L-turn -->
    <g style="fill: #222222" transform="translate(345.466364 61.110768) scale(0.12 -0.12)">
     <defs>
      <path id="DejaVuSans-Bold-62" d="M 2400 722 
Q 2759 722 2948 984 
Q 3138 1247 3138 1747 
Q 3138 2247 2948 2509 
Q 2759 2772 2400 2772 
Q 2041 2772 1848 2508 
Q 1656 2244 1656 1747 
Q 1656 1250 1848 986 
Q 2041 722 2400 722 
z
M 1656 2988 
Q 1888 3294 2169 3439 
Q 2450 3584 2816 3584 
Q 3463 3584 3878 3070 
Q 4294 2556 4294 1747 
Q 4294 938 3878 423 
Q 3463 -91 2816 -91 
Q 2450 -91 2169 54 
Q 1888 200 1656 506 
L 1656 0 
L 538 0 
L 538 4863 
L 1656 4863 
L 1656 2988 
z
" transform="scale(0.015625)"/>
      <path id="DejaVuSans-Bold-4c" d="M 588 4666 
L 1791 4666 
L 1791 909 
L 3903 909 
L 3903 0 
L 588 0 
L 588 4666 
z
" transform="scale(0.015625)"/>
      <path id="DejaVuSans-Bold-6e" d="M 4056 2131 
L 4056 0 
L 2931 0 
L 2931 347 
L 2931 1631 
Q 2931 2084 2911 2256 
Q 2891 2428 2841 2509 
Q 2775 2619 2662 2680 
Q 2550 2741 2406 2741 
Q 2056 2741 1856 2470 
Q 1656 2200 1656 1722 
L 1656 0 
L 538 0 
L 538 3500 
L 1656 3500 
L 1656 2988 
Q 1909 3294 2193 3439 
Q 2478 3584 2822 3584 
Q 3428 3584 3742 3212 
Q 4056 2841 4056 2131 
z
" transform="scale(0.015625)"/>
     </defs>
     <use xlink:href="#DejaVuSans-Bold-28"/>
     <use xlink:href="#DejaVuSans-Bold-62" transform="translate(45.703125 0)"/>
     <use xlink:href="#DejaVuSans-Bold-29" transform="translate(117.285156 0)"/>
     <use xlink:href="#DejaVuSans-Bold-20" transform="translate(162.988281 0)"/>
     <use xlink:href="#DejaVuSans-Bold-4c" transform="translate(197.802734 0)"/>
     <use xlink:href="#DejaVuSans-Bold-2d" transform="translate(261.523438 0)"/>
     <use xlink:href="#DejaVuSans-Bold-74" transform="translate(303.027344 0)"/>
     <use xlink:href="#DejaVuSans-Bold-75" transform="translate(350.830078 0)"/>
     <use xlink:href="#DejaVuSans-Bold-72" transform="translate(422.021484 0)"/>
     <use xlink:href="#DejaVuSans-Bold-6e" transform="translate(471.337891 0)"/>
    </g>
   </g>
   <g id="text_11">
    <!-- creases $\perp$ → rotation, $\gamma=\pm180^\circ$ -->
    <g style="fill: #222222" transform="translate(286.606364 238.499699) scale(0.11 -0.11)">
     <defs>
      <path id="STIXGeneral-Regular-27c2" d="M 4102 0 
L 333 0 
L 333 422 
L 2010 422 
L 2010 4237 
L 2432 4237 
L 2432 422 
L 4102 422 
L 4102 0 
z
" transform="scale(0.015625)"/>
      <path id="DejaVuSans-b1" d="M 2944 4013 
L 2944 2803 
L 4684 2803 
L 4684 2272 
L 2944 2272 
L 2944 1063 
L 2419 1063 
L 2419 2272 
L 678 2272 
L 678 2803 
L 2419 2803 
L 2419 4013 
L 2944 4013 
z
M 678 531 
L 4684 531 
L 4684 0 
L 678 0 
L 678 531 
z
" transform="scale(0.015625)"/>
     </defs>
     <use xlink:href="#DejaVuSans-63" transform="translate(0 0.015625)"/>
     <use xlink:href="#DejaVuSans-72" transform="translate(54.980469 0.015625)"/>
     <use xlink:href="#DejaVuSans-65" transform="translate(96.09375 0.015625)"/>
     <use xlink:href="#DejaVuSans-61" transform="translate(157.617188 0.015625)"/>
     <use xlink:href="#DejaVuSans-73" transform="translate(218.896484 0.015625)"/>
     <use xlink:href="#DejaVuSans-65" transform="translate(270.996094 0.015625)"/>
     <use xlink:href="#DejaVuSans-73" transform="translate(332.519531 0.015625)"/>
     <use xlink:href="#DejaVuSans-20" transform="translate(384.619141 0.015625)"/>
     <use xlink:href="#STIXGeneral-Regular-27c2" transform="translate(435.888672 0.015625)"/>
     <use xlink:href="#DejaVuSans-20" transform="translate(524.671082 0.015625)"/>
     <use xlink:href="#DejaVuSans-2192" transform="translate(556.458191 0.015625)"/>
     <use xlink:href="#DejaVuSans-20" transform="translate(640.247253 0.015625)"/>
     <use xlink:href="#DejaVuSans-72" transform="translate(672.034363 0.015625)"/>
     <use xlink:href="#DejaVuSans-6f" transform="translate(713.147644 0.015625)"/>
     <use xlink:href="#DejaVuSans-74" transform="translate(774.329285 0.015625)"/>
     <use xlink:href="#DejaVuSans-61" transform="translate(813.538269 0.015625)"/>
     <use xlink:href="#DejaVuSans-74" transform="translate(874.817566 0.015625)"/>
     <use xlink:href="#DejaVuSans-69" transform="translate(914.02655 0.015625)"/>
     <use xlink:href="#DejaVuSans-6f" transform="translate(941.809753 0.015625)"/>
     <use xlink:href="#DejaVuSans-6e" transform="translate(1002.991394 0.015625)"/>
     <use xlink:href="#DejaVuSans-2c" transform="translate(1066.3703 0.015625)"/>
     <use xlink:href="#DejaVuSans-20" transform="translate(1098.15741 0.015625)"/>
     <use xlink:href="#DejaVuSans-Oblique-3b3" transform="translate(1129.944519 0.015625)"/>
     <use xlink:href="#DejaVuSans-3d" transform="translate(1208.606628 0.015625)"/>
     <use xlink:href="#DejaVuSans-b1" transform="translate(1311.878113 0.015625)"/>
     <use xlink:href="#DejaVuSans-31" transform="translate(1395.667175 0.015625)"/>
     <use xlink:href="#DejaVuSans-38" transform="translate(1459.290222 0.015625)"/>
     <use xlink:href="#DejaVuSans-30" transform="translate(1522.913269 0.015625)"/>
     <use xlink:href="#DejaVuSans-2218" transform="translate(1601.131042 38.296875) scale(0.7)"/>
    </g>
   </g>
  </g>
  <g id="text_12">
   <!-- Two reflections = rotation by 2α  (α = angle between creases) -->
   <g transform="translate(37.329219 17.077969) scale(0.13 -0.13)">
    <defs>
     <path id="DejaVuSans-54" d="M -19 4666 
L 3928 4666 
L 3928 4134 
L 2272 4134 
L 2272 0 
L 1638 0 
L 1638 4134 
L -19 4134 
L -19 4666 
z
" transform="scale(0.015625)"/>
     <path id="DejaVuSans-77" d="M 269 3500 
L 844 3500 
L 1563 769 
L 2278 3500 
L 2956 3500 
L 3675 769 
L 4391 3500 
L 4966 3500 
L 4050 0 
L 3372 0 
L 2619 2869 
L 1863 0 
L 1184 0 
L 269 3500 
z
" transform="scale(0.015625)"/>
     <path id="DejaVuSans-66" d="M 2375 4863 
L 2375 4384 
L 1825 4384 
Q 1516 4384 1395 4259 
Q 1275 4134 1275 3809 
L 1275 3500 
L 2222 3500 
L 2222 3053 
L 1275 3053 
L 1275 0 
L 697 0 
L 697 3053 
L 147 3053 
L 147 3500 
L 697 3500 
L 697 3744 
Q 697 4328 969 4595 
Q 1241 4863 1831 4863 
L 2375 4863 
z
" transform="scale(0.015625)"/>
     <path id="DejaVuSans-79" d="M 2059 -325 
Q 1816 -950 1584 -1140 
Q 1353 -1331 966 -1331 
L 506 -1331 
L 506 -850 
L 844 -850 
Q 1081 -850 1212 -737 
Q 1344 -625 1503 -206 
L 1606 56 
L 191 3500 
L 800 3500 
L 1894 763 
L 2988 3500 
L 3597 3500 
L 2059 -325 
z
" transform="scale(0.015625)"/>
     <path id="DejaVuSans-3b1" d="M 2644 1628 
L 2506 2350 
Q 2366 3091 1809 3091 
Q 1391 3091 1200 2747 
Q 959 2316 959 1747 
Q 959 1059 1194 731 
Q 1431 397 1809 397 
Q 2228 397 2453 1063 
L 2644 1628 
z
M 2966 2584 
L 3275 3500 
L 3788 3500 
L 3147 1603 
L 3272 919 
Q 3300 766 3409 638 
Q 3538 488 3638 488 
L 3913 488 
L 3913 0 
L 3569 0 
Q 3275 0 3013 263 
Q 2884 394 2831 669 
Q 2688 322 2394 50 
Q 2256 -78 1809 -78 
Q 1075 -78 719 397 
Q 353 888 353 1747 
Q 353 2666 750 3097 
Q 1191 3578 1809 3578 
Q 2781 3578 2966 2584 
z
" transform="scale(0.015625)"/>
     <path id="DejaVuSans-67" d="M 2906 1791 
Q 2906 2416 2648 2759 
Q 2391 3103 1925 3103 
Q 1463 3103 1205 2759 
Q 947 2416 947 1791 
Q 947 1169 1205 825 
Q 1463 481 1925 481 
Q 2391 481 2648 825 
Q 2906 1169 2906 1791 
z
M 3481 434 
Q 3481 -459 3084 -895 
Q 2688 -1331 1869 -1331 
Q 1566 -1331 1297 -1286 
Q 1028 -1241 775 -1147 
L 775 -588 
Q 1028 -725 1275 -790 
Q 1522 -856 1778 -856 
Q 2344 -856 2625 -561 
Q 2906 -266 2906 331 
L 2906 616 
Q 2728 306 2450 153 
Q 2172 0 1784 0 
Q 1141 0 747 490 
Q 353 981 353 1791 
Q 353 2603 747 3093 
Q 1141 3584 1784 3584 
Q 2172 3584 2450 3431 
Q 2728 3278 2906 2969 
L 2906 3500 
L 3481 3500 
L 3481 434 
z
" transform="scale(0.015625)"/>
    </defs>
    <use xlink:href="#DejaVuSans-54"/>
    <use xlink:href="#DejaVuSans-77" transform="translate(44.583984 0)"/>
    <use xlink:href="#DejaVuSans-6f" transform="translate(126.371094 0)"/>
    <use xlink:href="#DejaVuSans-20" transform="translate(187.552734 0)"/>
    <use xlink:href="#DejaVuSans-72" transform="translate(219.339844 0)"/>
    <use xlink:href="#DejaVuSans-65" transform="translate(258.203125 0)"/>
    <use xlink:href="#DejaVuSans-66" transform="translate(319.726562 0)"/>
    <use xlink:href="#DejaVuSans-6c" transform="translate(354.931641 0)"/>
    <use xlink:href="#DejaVuSans-65" transform="translate(382.714844 0)"/>
    <use xlink:href="#DejaVuSans-63" transform="translate(444.238281 0)"/>
    <use xlink:href="#DejaVuSans-74" transform="translate(499.21875 0)"/>
    <use xlink:href="#DejaVuSans-69" transform="translate(538.427734 0)"/>
    <use xlink:href="#DejaVuSans-6f" transform="translate(566.210938 0)"/>
    <use xlink:href="#DejaVuSans-6e" transform="translate(627.392578 0)"/>
    <use xlink:href="#DejaVuSans-73" transform="translate(690.771484 0)"/>
    <use xlink:href="#DejaVuSans-20" transform="translate(742.871094 0)"/>
    <use xlink:href="#DejaVuSans-3d" transform="translate(774.658203 0)"/>
    <use xlink:href="#DejaVuSans-20" transform="translate(858.447266 0)"/>
    <use xlink:href="#DejaVuSans-72" transform="translate(890.234375 0)"/>
    <use xlink:href="#DejaVuSans-6f" transform="translate(929.097656 0)"/>
    <use xlink:href="#DejaVuSans-74" transform="translate(990.279297 0)"/>
    <use xlink:href="#DejaVuSans-61" transform="translate(1029.488281 0)"/>
    <use xlink:href="#DejaVuSans-74" transform="translate(1090.767578 0)"/>
    <use xlink:href="#DejaVuSans-69" transform="translate(1129.976562 0)"/>
    <use xlink:href="#DejaVuSans-6f" transform="translate(1157.759766 0)"/>
    <use xlink:href="#DejaVuSans-6e" transform="translate(1218.941406 0)"/>
    <use xlink:href="#DejaVuSans-20" transform="translate(1282.320312 0)"/>
    <use xlink:href="#DejaVuSans-62" transform="translate(1314.107422 0)"/>
    <use xlink:href="#DejaVuSans-79" transform="translate(1377.583984 0)"/>
    <use xlink:href="#DejaVuSans-20" transform="translate(1436.763672 0)"/>
    <use xlink:href="#DejaVuSans-32" transform="translate(1468.550781 0)"/>
    <use xlink:href="#DejaVuSans-3b1" transform="translate(1532.173828 0)"/>
    <use xlink:href="#DejaVuSans-20" transform="translate(1598.091797 0)"/>
    <use xlink:href="#DejaVuSans-20" transform="translate(1629.878906 0)"/>
    <use xlink:href="#DejaVuSans-28" transform="translate(1661.666016 0)"/>
    <use xlink:href="#DejaVuSans-3b1" transform="translate(1700.679688 0)"/>
    <use xlink:href="#DejaVuSans-20" transform="translate(1766.597656 0)"/>
    <use xlink:href="#DejaVuSans-3d" transform="translate(1798.384766 0)"/>
    <use xlink:href="#DejaVuSans-20" transform="translate(1882.173828 0)"/>
    <use xlink:href="#DejaVuSans-61" transform="translate(1913.960938 0)"/>
    <use xlink:href="#DejaVuSans-6e" transform="translate(1975.240234 0)"/>
    <use xlink:href="#DejaVuSans-67" transform="translate(2038.619141 0)"/>
    <use xlink:href="#DejaVuSans-6c" transform="translate(2102.095703 0)"/>
    <use xlink:href="#DejaVuSans-65" transform="translate(2129.878906 0)"/>
    <use xlink:href="#DejaVuSans-20" transform="translate(2191.402344 0)"/>
    <use xlink:href="#DejaVuSans-62" transform="translate(2223.189453 0)"/>
    <use xlink:href="#DejaVuSans-65" transform="translate(2286.666016 0)"/>
    <use xlink:href="#DejaVuSans-74" transform="translate(2348.189453 0)"/>
    <use xlink:href="#DejaVuSans-77" transform="translate(2387.398438 0)"/>
    <use xlink:href="#DejaVuSans-65" transform="translate(2469.185547 0)"/>
    <use xlink:href="#DejaVuSans-65" transform="translate(2530.708984 0)"/>
    <use xlink:href="#DejaVuSans-6e" transform="translate(2592.232422 0)"/>
    <use xlink:href="#DejaVuSans-20" transform="translate(2655.611328 0)"/>
    <use xlink:href="#DejaVuSans-63" transform="translate(2687.398438 0)"/>
    <use xlink:href="#DejaVuSans-72" transform="translate(2742.378906 0)"/>
    <use xlink:href="#DejaVuSans-65" transform="translate(2781.242188 0)"/>
    <use xlink:href="#DejaVuSans-61" transform="translate(2842.765625 0)"/>
    <use xlink:href="#DejaVuSans-73" transform="translate(2904.044922 0)"/>
    <use xlink:href="#DejaVuSans-65" transform="translate(2956.144531 0)"/>
    <use xlink:href="#DejaVuSans-73" transform="translate(3017.667969 0)"/>
    <use xlink:href="#DejaVuSans-29" transform="translate(3069.767578 0)"/>
   </g>
  </g>
 </g>
 <defs>
  <clipPath id="pd5afc12eb6">
   <rect x="7.2" y="45.393" width="218.127273" height="199.95"/>
  </clipPath>
  <clipPath id="p764db40216">
   <rect x="294.255207" y="40.032" width="167.522313" height="210.672"/>
  </clipPath>
 </defs>
</svg>
