<?xml version="1.0" encoding="utf-8" standalone="no"?>
<!DOCTYPE svg PUBLIC "-//W3C//DTD SVG 1.1//EN"
  "http://www.w3.org/Graphics/SVG/1.1/DTD/svg11.dtd">
<svg xmlns:xlink="http://www.w3.org/1999/xlink" width="350.82pt" height="291.044pt" viewBox="0 0 350.82 291.044" xmlns="http://www.w3.org/2000/svg" version="1.1">
 <metadata>
  <rdf:RDF xmlns:dc="http://purl.org/dc/elements/1.1/" xmlns:cc="http://creativecommons.org/ns#" xmlns:rdf="http://www.w3.org/1999/02/22-rdf-syntax-ns#">
   <cc:Work>
    <dc:type rdf:resource="http://purl.org/dc/dcmitype/StillImage"/>
    <dc:date>2026-06-03T14:06:02.258791</dc:date>
    <dc:format>image/svg+xml</dc:format>
    <dc:creator>
     <cc:Agent>
      <dc:title>Matplotlib v3.10.9, https://matplotlib.org/</dc:title>
     </cc:Agent>
    </dc:creator>
   </cc:Work>
  </rdf:RDF>
 </metadata>
 <defs>
  <style type="text/css">*{stroke-linejoin: round; stroke-linecap: butt}</style>
 </defs>
 <g id="figure_1">
  <g id="patch_1">
   <path d="M 0 291.044 
L 350.82 291.044 
L 350.82 0 
L 0 0 
z
" style="fill: #ffffff"/>
  </g>
  <g id="axes_1">
   <g id="patch_2">
    <path d="M 72.577742 246.824387 
L 113.710645 246.824387 
L 113.710645 205.691484 
L 72.577742 205.691484 
z
" clip-path="url(#pbc8da5395d)" style="fill: #eaf3fb; stroke: #444444; stroke-width: 1.4; stroke-linejoin: miter"/>
   </g>
   <g id="patch_3">
    <path d="M 113.710645 246.824387 
L 154.843548 246.824387 
L 154.843548 205.691484 
L 113.710645 205.691484 
z
" clip-path="url(#pbc8da5395d)" style="fill: #fdeeee; stroke: #444444; stroke-width: 1.4; stroke-linejoin: miter"/>
   </g>
   <g id="patch_4">
    <path d="M 154.843548 246.824387 
L 195.976452 246.824387 
L 195.976452 205.691484 
L 154.843548 205.691484 
z
" clip-path="url(#pbc8da5395d)" style="fill: #eaf3fb; stroke: #444444; stroke-width: 1.4; stroke-linejoin: miter"/>
   </g>
   <g id="patch_5">
    <path d="M 195.976452 246.824387 
L 237.109355 246.824387 
L 237.109355 205.691484 
L 195.976452 205.691484 
z
" clip-path="url(#pbc8da5395d)" style="fill: #fdeeee; stroke: #444444; stroke-width: 1.4; stroke-linejoin: miter"/>
   </g>
   <g id="patch_6">
    <path d="M 237.109355 246.824387 
L 278.242258 246.824387 
L 278.242258 205.691484 
L 237.109355 205.691484 
z
" clip-path="url(#pbc8da5395d)" style="fill: #eaf3fb; stroke: #444444; stroke-width: 1.4; stroke-linejoin: miter"/>
   </g>
   <g id="patch_7">
    <path d="M 72.577742 205.691484 
L 113.710645 205.691484 
L 113.710645 164.558581 
L 72.577742 164.558581 
z
" clip-path="url(#pbc8da5395d)" style="fill: #fdeeee; stroke: #444444; stroke-width: 1.4; stroke-linejoin: miter"/>
   </g>
   <g id="patch_8">
    <path d="M 113.710645 205.691484 
L 154.843548 205.691484 
L 154.843548 164.558581 
L 113.710645 164.558581 
z
" clip-path="url(#pbc8da5395d)" style="fill: #eaf3fb; stroke: #444444; stroke-width: 1.4; stroke-linejoin: miter"/>
   </g>
   <g id="patch_9">
    <path d="M 154.843548 205.691484 
L 195.976452 205.691484 
L 195.976452 164.558581 
L 154.843548 164.558581 
z
" clip-path="url(#pbc8da5395d)" style="fill: #fdeeee; stroke: #444444; stroke-width: 1.4; stroke-linejoin: miter"/>
   </g>
   <g id="patch_10">
    <path d="M 195.976452 205.691484 
L 237.109355 205.691484 
L 237.109355 164.558581 
L 195.976452 164.558581 
z
" clip-path="url(#pbc8da5395d)" style="fill: #eaf3fb; stroke: #444444; stroke-width: 1.4; stroke-linejoin: miter"/>
   </g>
   <g id="patch_11">
    <path d="M 237.109355 205.691484 
L 278.242258 205.691484 
L 278.242258 164.558581 
L 237.109355 164.558581 
z
" clip-path="url(#pbc8da5395d)" style="fill: #fdeeee; stroke: #444444; stroke-width: 1.4; stroke-linejoin: miter"/>
   </g>
   <g id="patch_12">
    <path d="M 72.577742 164.558581 
L 113.710645 164.558581 
L 113.710645 123.425677 
L 72.577742 123.425677 
z
" clip-path="url(#pbc8da5395d)" style="fill: #eaf3fb; stroke: #444444; stroke-width: 1.4; stroke-linejoin: miter"/>
   </g>
   <g id="patch_13">
    <path d="M 113.710645 164.558581 
L 154.843548 164.558581 
L 154.843548 123.425677 
L 113.710645 123.425677 
z
" clip-path="url(#pbc8da5395d)" style="fill: #fdeeee; stroke: #444444; stroke-width: 1.4; stroke-linejoin: miter"/>
   </g>
   <g id="patch_14">
    <path d="M 154.843548 164.558581 
L 195.976452 164.558581 
L 195.976452 123.425677 
L 154.843548 123.425677 
z
" clip-path="url(#pbc8da5395d)" style="fill: #eaf3fb; stroke: #444444; stroke-width: 1.4; stroke-linejoin: miter"/>
   </g>
   <g id="patch_15">
    <path d="M 195.976452 164.558581 
L 237.109355 164.558581 
L 237.109355 123.425677 
L 195.976452 123.425677 
z
" clip-path="url(#pbc8da5395d)" style="fill: #fdeeee; stroke: #444444; stroke-width: 1.4; stroke-linejoin: miter"/>
   </g>
   <g id="patch_16">
    <path d="M 237.109355 164.558581 
L 278.242258 164.558581 
L 278.242258 123.425677 
L 237.109355 123.425677 
z
" clip-path="url(#pbc8da5395d)" style="fill: #eaf3fb; stroke: #444444; stroke-width: 1.4; stroke-linejoin: miter"/>
   </g>
   <g id="patch_17">
    <path d="M 72.577742 123.425677 
L 113.710645 123.425677 
L 113.710645 82.292774 
L 72.577742 82.292774 
z
" clip-path="url(#pbc8da5395d)" style="fill: #fdeeee; stroke: #444444; stroke-width: 1.4; stroke-linejoin: miter"/>
   </g>
   <g id="patch_18">
    <path d="M 113.710645 123.425677 
L 154.843548 123.425677 
L 154.843548 82.292774 
L 113.710645 82.292774 
z
" clip-path="url(#pbc8da5395d)" style="fill: #eaf3fb; stroke: #444444; stroke-width: 1.4; stroke-linejoin: miter"/>
   </g>
   <g id="patch_19">
    <path d="M 154.843548 123.425677 
L 195.976452 123.425677 
L 195.976452 82.292774 
L 154.843548 82.292774 
z
" clip-path="url(#pbc8da5395d)" style="fill: #fdeeee; stroke: #444444; stroke-width: 1.4; stroke-linejoin: miter"/>
   </g>
   <g id="patch_20">
    <path d="M 195.976452 123.425677 
L 237.109355 123.425677 
L 237.109355 82.292774 
L 195.976452 82.292774 
z
" clip-path="url(#pbc8da5395d)" style="fill: #eaf3fb; stroke: #444444; stroke-width: 1.4; stroke-linejoin: miter"/>
   </g>
   <g id="patch_21">
    <path d="M 237.109355 123.425677 
L 278.242258 123.425677 
L 278.242258 82.292774 
L 237.109355 82.292774 
z
" clip-path="url(#pbc8da5395d)" style="fill: #fdeeee; stroke: #444444; stroke-width: 1.4; stroke-linejoin: miter"/>
   </g>
   <g id="text_1">
    <!-- $\sigma=(-1)^{x+y}$ : the mountain/valley checkerboard -->
    <g style="fill: #222222" transform="translate(7.2 18.82) scale(0.14 -0.14)">
     <defs>
      <path id="DejaVuSans-Oblique-3c3" d="M 2219 3044 
Q 1744 3044 1422 2700 
Q 1081 2341 969 1747 
Q 844 1119 1044 756 
Q 1241 397 1706 397 
Q 2166 397 2503 759 
Q 2844 1122 2966 1747 
Q 3075 2319 2881 2700 
Q 2700 3044 2219 3044 
z
M 2309 3503 
L 4219 3500 
L 4106 2925 
L 3463 2925 
Q 3706 2438 3575 1747 
Q 3406 888 2884 400 
Q 2359 -91 1609 -91 
Q 856 -91 525 400 
Q 194 888 363 1747 
Q 528 2609 1050 3097 
Q 1484 3503 2309 3503 
z
" transform="scale(0.015625)"/>
      <path id="DejaVuSans-3d" d="M 678 2906 
L 4684 2906 
L 4684 2381 
L 678 2381 
L 678 2906 
z
M 678 1631 
L 4684 1631 
L 4684 1100 
L 678 1100 
L 678 1631 
z
" transform="scale(0.015625)"/>
      <path id="DejaVuSans-28" d="M 1984 4856 
Q 1566 4138 1362 3434 
Q 1159 2731 1159 2009 
Q 1159 1288 1364 580 
Q 1569 -128 1984 -844 
L 1484 -844 
Q 1016 -109 783 600 
Q 550 1309 550 2009 
Q 550 2706 781 3412 
Q 1013 4119 1484 4856 
L 1984 4856 
z
" transform="scale(0.015625)"/>
      <path id="DejaVuSans-2212" d="M 678 2272 
L 4684 2272 
L 4684 1741 
L 678 1741 
L 678 2272 
z
" transform="scale(0.015625)"/>
      <path id="DejaVuSans-31" d="M 794 531 
L 1825 531 
L 1825 4091 
L 703 3866 
L 703 4441 
L 1819 4666 
L 2450 4666 
L 2450 531 
L 3481 531 
L 3481 0 
L 794 0 
L 794 531 
z
" transform="scale(0.015625)"/>
      <path id="DejaVuSans-29" d="M 513 4856 
L 1013 4856 
Q 1481 4119 1714 3412 
Q 1947 2706 1947 2009 
Q 1947 1309 1714 600 
Q 1481 -109 1013 -844 
L 513 -844 
Q 928 -128 1133 580 
Q 1338 1288 1338 2009 
Q 1338 2731 1133 3434 
Q 928 4138 513 4856 
z
" transform="scale(0.015625)"/>
      <path id="DejaVuSans-Oblique-78" d="M 3841 3500 
L 2234 1784 
L 3219 0 
L 2559 0 
L 1819 1388 
L 531 0 
L -166 0 
L 1556 1844 
L 641 3500 
L 1300 3500 
L 1972 2234 
L 3144 3500 
L 3841 3500 
z
" transform="scale(0.015625)"/>
      <path id="DejaVuSans-2b" d="M 2944 4013 
L 2944 2272 
L 4684 2272 
L 4684 1741 
L 2944 1741 
L 2944 0 
L 2419 0 
L 2419 1741 
L 678 1741 
L 678 2272 
L 2419 2272 
L 2419 4013 
L 2944 4013 
z
" transform="scale(0.015625)"/>
      <path id="DejaVuSans-Oblique-79" d="M 1588 -325 
Q 1188 -997 936 -1164 
Q 684 -1331 294 -1331 
L -159 -1331 
L -63 -850 
L 269 -850 
Q 509 -850 678 -719 
Q 847 -588 1056 -206 
L 1234 128 
L 459 3500 
L 1069 3500 
L 1650 819 
L 3256 3500 
L 3859 3500 
L 1588 -325 
z
" transform="scale(0.015625)"/>
      <path id="DejaVuSans-20" transform="scale(0.015625)"/>
      <path id="DejaVuSans-3a" d="M 750 794 
L 1409 794 
L 1409 0 
L 750 0 
L 750 794 
z
M 750 3309 
L 1409 3309 
L 1409 2516 
L 750 2516 
L 750 3309 
z
" transform="scale(0.015625)"/>
      <path id="DejaVuSans-74" d="M 1172 4494 
L 1172 3500 
L 2356 3500 
L 2356 3053 
L 1172 3053 
L 1172 1153 
Q 1172 725 1289 603 
Q 1406 481 1766 481 
L 2356 481 
L 2356 0 
L 1766 0 
Q 1100 0 847 248 
Q 594 497 594 1153 
L 594 3053 
L 172 3053 
L 172 3500 
L 594 3500 
L 594 4494 
L 1172 4494 
z
" transform="scale(0.015625)"/>
      <path id="DejaVuSans-68" d="M 3513 2113 
L 3513 0 
L 2938 0 
L 2938 2094 
Q 2938 2591 2744 2837 
Q 2550 3084 2163 3084 
Q 1697 3084 1428 2787 
Q 1159 2491 1159 1978 
L 1159 0 
L 581 0 
L 581 4863 
L 1159 4863 
L 1159 2956 
Q 1366 3272 1645 3428 
Q 1925 3584 2291 3584 
Q 2894 3584 3203 3211 
Q 3513 2838 3513 2113 
z
" transform="scale(0.015625)"/>
      <path id="DejaVuSans-65" d="M 3597 1894 
L 3597 1613 
L 953 1613 
Q 991 1019 1311 708 
Q 1631 397 2203 397 
Q 2534 397 2845 478 
Q 3156 559 3463 722 
L 3463 178 
Q 3153 47 2828 -22 
Q 2503 -91 2169 -91 
Q 1331 -91 842 396 
Q 353 884 353 1716 
Q 353 2575 817 3079 
Q 1281 3584 2069 3584 
Q 2775 3584 3186 3129 
Q 3597 2675 3597 1894 
z
M 3022 2063 
Q 3016 2534 2758 2815 
Q 2500 3097 2075 3097 
Q 1594 3097 1305 2825 
Q 1016 2553 972 2059 
L 3022 2063 
z
" transform="scale(0.015625)"/>
      <path id="DejaVuSans-6d" d="M 3328 2828 
Q 3544 3216 3844 3400 
Q 4144 3584 4550 3584 
Q 5097 3584 5394 3201 
Q 5691 2819 5691 2113 
L 5691 0 
L 5113 0 
L 5113 2094 
Q 5113 2597 4934 2840 
Q 4756 3084 4391 3084 
Q 3944 3084 3684 2787 
Q 3425 2491 3425 1978 
L 3425 0 
L 2847 0 
L 2847 2094 
Q 2847 2600 2669 2842 
Q 2491 3084 2119 3084 
Q 1678 3084 1418 2786 
Q 1159 2488 1159 1978 
L 1159 0 
L 581 0 
L 581 3500 
L 1159 3500 
L 1159 2956 
Q 1356 3278 1631 3431 
Q 1906 3584 2284 3584 
Q 2666 3584 2933 3390 
Q 3200 3197 3328 2828 
z
" transform="scale(0.015625)"/>
      <path id="DejaVuSans-6f" d="M 1959 3097 
Q 1497 3097 1228 2736 
Q 959 2375 959 1747 
Q 959 1119 1226 758 
Q 1494 397 1959 397 
Q 2419 397 2687 759 
Q 2956 1122 2956 1747 
Q 2956 2369 2687 2733 
Q 2419 3097 1959 3097 
z
M 1959 3584 
Q 2709 3584 3137 3096 
Q 3566 2609 3566 1747 
Q 3566 888 3137 398 
Q 2709 -91 1959 -91 
Q 1206 -91 779 398 
Q 353 888 353 1747 
Q 353 2609 779 3096 
Q 1206 3584 1959 3584 
z
" transform="scale(0.015625)"/>
      <path id="DejaVuSans-75" d="M 544 1381 
L 544 3500 
L 1119 3500 
L 1119 1403 
Q 1119 906 1312 657 
Q 1506 409 1894 409 
Q 2359 409 2629 706 
Q 2900 1003 2900 1516 
L 2900 3500 
L 3475 3500 
L 3475 0 
L 2900 0 
L 2900 538 
Q 2691 219 2414 64 
Q 2138 -91 1772 -91 
Q 1169 -91 856 284 
Q 544 659 544 1381 
z
M 1991 3584 
L 1991 3584 
z
" transform="scale(0.015625)"/>
      <path id="DejaVuSans-6e" d="M 3513 2113 
L 3513 0 
L 2938 0 
L 2938 2094 
Q 2938 2591 2744 2837 
Q 2550 3084 2163 3084 
Q 1697 3084 1428 2787 
Q 1159 2491 1159 1978 
L 1159 0 
L 581 0 
L 581 3500 
L 1159 3500 
L 1159 2956 
Q 1366 3272 1645 3428 
Q 1925 3584 2291 3584 
Q 2894 3584 3203 3211 
Q 3513 2838 3513 2113 
z
" transform="scale(0.015625)"/>
      <path id="DejaVuSans-61" d="M 2194 1759 
Q 1497 1759 1228 1600 
Q 959 1441 959 1056 
Q 959 750 1161 570 
Q 1363 391 1709 391 
Q 2188 391 2477 730 
Q 2766 1069 2766 1631 
L 2766 1759 
L 2194 1759 
z
M 3341 1997 
L 3341 0 
L 2766 0 
L 2766 531 
Q 2569 213 2275 61 
Q 1981 -91 1556 -91 
Q 1019 -91 701 211 
Q 384 513 384 1019 
Q 384 1609 779 1909 
Q 1175 2209 1959 2209 
L 2766 2209 
L 2766 2266 
Q 2766 2663 2505 2880 
Q 2244 3097 1772 3097 
Q 1472 3097 1187 3025 
Q 903 2953 641 2809 
L 641 3341 
Q 956 3463 1253 3523 
Q 1550 3584 1831 3584 
Q 2591 3584 2966 3190 
Q 3341 2797 3341 1997 
z
" transform="scale(0.015625)"/>
      <path id="DejaVuSans-69" d="M 603 3500 
L 1178 3500 
L 1178 0 
L 603 0 
L 603 3500 
z
M 603 4863 
L 1178 4863 
L 1178 4134 
L 603 4134 
L 603 4863 
z
" transform="scale(0.015625)"/>
      <path id="DejaVuSans-2f" d="M 1625 4666 
L 2156 4666 
L 531 -594 
L 0 -594 
L 1625 4666 
z
" transform="scale(0.015625)"/>
      <path id="DejaVuSans-76" d="M 191 3500 
L 800 3500 
L 1894 563 
L 2988 3500 
L 3597 3500 
L 2284 0 
L 1503 0 
L 191 3500 
z
" transform="scale(0.015625)"/>
      <path id="DejaVuSans-6c" d="M 603 4863 
L 1178 4863 
L 1178 0 
L 603 0 
L 603 4863 
z
" transform="scale(0.015625)"/>
      <path id="DejaVuSans-79" d="M 2059 -325 
Q 1816 -950 1584 -1140 
Q 1353 -1331 966 -1331 
L 506 -1331 
L 506 -850 
L 844 -850 
Q 1081 -850 1212 -737 
Q 1344 -625 1503 -206 
L 1606 56 
L 191 3500 
L 800 3500 
L 1894 763 
L 2988 3500 
L 3597 3500 
L 2059 -325 
z
" transform="scale(0.015625)"/>
      <path id="DejaVuSans-63" d="M 3122 3366 
L 3122 2828 
Q 2878 2963 2633 3030 
Q 2388 3097 2138 3097 
Q 1578 3097 1268 2742 
Q 959 2388 959 1747 
Q 959 1106 1268 751 
Q 1578 397 2138 397 
Q 2388 397 2633 464 
Q 2878 531 3122 666 
L 3122 134 
Q 2881 22 2623 -34 
Q 2366 -91 2075 -91 
Q 1284 -91 818 406 
Q 353 903 353 1747 
Q 353 2603 823 3093 
Q 1294 3584 2113 3584 
Q 2378 3584 2631 3529 
Q 2884 3475 3122 3366 
z
" transform="scale(0.015625)"/>
      <path id="DejaVuSans-6b" d="M 581 4863 
L 1159 4863 
L 1159 1991 
L 2875 3500 
L 3609 3500 
L 1753 1863 
L 3688 0 
L 2938 0 
L 1159 1709 
L 1159 0 
L 581 0 
L 581 4863 
z
" transform="scale(0.015625)"/>
      <path id="DejaVuSans-72" d="M 2631 2963 
Q 2534 3019 2420 3045 
Q 2306 3072 2169 3072 
Q 1681 3072 1420 2755 
Q 1159 2438 1159 1844 
L 1159 0 
L 581 0 
L 581 3500 
L 1159 3500 
L 1159 2956 
Q 1341 3275 1631 3429 
Q 1922 3584 2338 3584 
Q 2397 3584 2469 3576 
Q 2541 3569 2628 3553 
L 2631 2963 
z
" transform="scale(0.015625)"/>
      <path id="DejaVuSans-62" d="M 3116 1747 
Q 3116 2381 2855 2742 
Q 2594 3103 2138 3103 
Q 1681 3103 1420 2742 
Q 1159 2381 1159 1747 
Q 1159 1113 1420 752 
Q 1681 391 2138 391 
Q 2594 391 2855 752 
Q 3116 1113 3116 1747 
z
M 1159 2969 
Q 1341 3281 1617 3432 
Q 1894 3584 2278 3584 
Q 2916 3584 3314 3078 
Q 3713 2572 3713 1747 
Q 3713 922 3314 415 
Q 2916 -91 2278 -91 
Q 1894 -91 1617 61 
Q 1341 213 1159 525 
L 1159 0 
L 581 0 
L 581 4863 
L 1159 4863 
L 1159 2969 
z
" transform="scale(0.015625)"/>
      <path id="DejaVuSans-64" d="M 2906 2969 
L 2906 4863 
L 3481 4863 
L 3481 0 
L 2906 0 
L 2906 525 
Q 2725 213 2448 61 
Q 2172 -91 1784 -91 
Q 1150 -91 751 415 
Q 353 922 353 1747 
Q 353 2572 751 3078 
Q 1150 3584 1784 3584 
Q 2172 3584 2448 3432 
Q 2725 3281 2906 2969 
z
M 947 1747 
Q 947 1113 1208 752 
Q 1469 391 1925 391 
Q 2381 391 2643 752 
Q 2906 1113 2906 1747 
Q 2906 2381 2643 2742 
Q 2381 3103 1925 3103 
Q 1469 3103 1208 2742 
Q 947 2381 947 1747 
z
" transform="scale(0.015625)"/>
     </defs>
     <use xlink:href="#DejaVuSans-Oblique-3c3" transform="translate(0 0.826562)"/>
     <use xlink:href="#DejaVuSans-3d" transform="translate(82.861328 0.826562)"/>
     <use xlink:href="#DejaVuSans-28" transform="translate(186.132812 0.826562)"/>
     <use xlink:href="#DejaVuSans-2212" transform="translate(225.146484 0.826562)"/>
     <use xlink:href="#DejaVuSans-31" transform="translate(308.935547 0.826562)"/>
     <use xlink:href="#DejaVuSans-29" transform="translate(372.558594 0.826562)"/>
     <use xlink:href="#DejaVuSans-Oblique-78" transform="translate(412.529297 39.107812) scale(0.7)"/>
     <use xlink:href="#DejaVuSans-2b" transform="translate(467.592773 39.107812) scale(0.7)"/>
     <use xlink:href="#DejaVuSans-Oblique-79" transform="translate(539.882812 39.107812) scale(0.7)"/>
     <use xlink:href="#DejaVuSans-20" transform="translate(584.042969 0.826562)"/>
     <use xlink:href="#DejaVuSans-3a" transform="translate(615.830078 0.826562)"/>
     <use xlink:href="#DejaVuSans-20" transform="translate(649.521484 0.826562)"/>
     <use xlink:href="#DejaVuSans-74" transform="translate(681.308594 0.826562)"/>
     <use xlink:href="#DejaVuSans-68" transform="translate(720.517578 0.826562)"/>
     <use xlink:href="#DejaVuSans-65" transform="translate(783.896484 0.826562)"/>
     <use xlink:href="#DejaVuSans-20" transform="translate(845.419922 0.826562)"/>
     <use xlink:href="#DejaVuSans-6d" transform="translate(877.207031 0.826562)"/>
     <use xlink:href="#DejaVuSans-6f" transform="translate(974.619141 0.826562)"/>
     <use xlink:href="#DejaVuSans-75" transform="translate(1035.800781 0.826562)"/>
     <use xlink:href="#DejaVuSans-6e" transform="translate(1099.179688 0.826562)"/>
     <use xlink:href="#DejaVuSans-74" transform="translate(1162.558594 0.826562)"/>
     <use xlink:href="#DejaVuSans-61" transform="translate(1201.767578 0.826562)"/>
     <use xlink:href="#DejaVuSans-69" transform="translate(1263.046875 0.826562)"/>
     <use xlink:href="#DejaVuSans-6e" transform="translate(1290.830078 0.826562)"/>
     <use xlink:href="#DejaVuSans-2f" transform="translate(1354.208984 0.826562)"/>
     <use xlink:href="#DejaVuSans-76" transform="translate(1387.900391 0.826562)"/>
     <use xlink:href="#DejaVuSans-61" transform="translate(1447.080078 0.826562)"/>
     <use xlink:href="#DejaVuSans-6c" transform="translate(1508.359375 0.826562)"/>
     <use xlink:href="#DejaVuSans-6c" transform="translate(1536.142578 0.826562)"/>
     <use xlink:href="#DejaVuSans-65" transform="translate(1563.925781 0.826562)"/>
     <use xlink:href="#DejaVuSans-79" transform="translate(1625.449219 0.826562)"/>
     <use xlink:href="#DejaVuSans-20" transform="translate(1684.628906 0.826562)"/>
     <use xlink:href="#DejaVuSans-63" transform="translate(1716.416016 0.826562)"/>
     <use xlink:href="#DejaVuSans-68" transform="translate(1771.396484 0.826562)"/>
     <use xlink:href="#DejaVuSans-65" transform="translate(1834.775391 0.826562)"/>
     <use xlink:href="#DejaVuSans-63" transform="translate(1896.298828 0.826562)"/>
     <use xlink:href="#DejaVuSans-6b" transform="translate(1951.279297 0.826562)"/>
     <use xlink:href="#DejaVuSans-65" transform="translate(2009.189453 0.826562)"/>
     <use xlink:href="#DejaVuSans-72" transform="translate(2070.712891 0.826562)"/>
     <use xlink:href="#DejaVuSans-62" transform="translate(2111.826172 0.826562)"/>
     <use xlink:href="#DejaVuSans-6f" transform="translate(2175.302734 0.826562)"/>
     <use xlink:href="#DejaVuSans-61" transform="translate(2236.484375 0.826562)"/>
     <use xlink:href="#DejaVuSans-72" transform="translate(2297.763672 0.826562)"/>
     <use xlink:href="#DejaVuSans-64" transform="translate(2338.876953 0.826562)"/>
    </g>
   </g>
   <g id="text_2">
    <!-- + -->
    <g style="fill: #3399cc" transform="translate(87.697397 229.845123) scale(0.13 -0.13)">
     <defs>
      <path id="DejaVuSans-Bold-2b" d="M 3053 4013 
L 3053 2375 
L 4684 2375 
L 4684 1638 
L 3053 1638 
L 3053 0 
L 2309 0 
L 2309 1638 
L 678 1638 
L 678 2375 
L 2309 2375 
L 2309 4013 
L 3053 4013 
z
" transform="scale(0.015625)"/>
     </defs>
     <use xlink:href="#DejaVuSans-Bold-2b"/>
    </g>
   </g>
   <g id="text_3">
    <!-- − -->
    <g style="fill: #d83232" transform="translate(128.8303 229.845123) scale(0.13 -0.13)">
     <defs>
      <path id="DejaVuSans-Bold-2212" d="M 678 2375 
L 4684 2375 
L 4684 1638 
L 678 1638 
L 678 2375 
z
" transform="scale(0.015625)"/>
     </defs>
     <use xlink:href="#DejaVuSans-Bold-2212"/>
    </g>
   </g>
   <g id="text_4">
    <!-- + -->
    <g style="fill: #3399cc" transform="translate(169.963203 229.845123) scale(0.13 -0.13)">
     <use xlink:href="#DejaVuSans-Bold-2b"/>
    </g>
   </g>
   <g id="text_5">
    <!-- − -->
    <g style="fill: #d83232" transform="translate(211.096106 229.845123) scale(0.13 -0.13)">
     <use xlink:href="#DejaVuSans-Bold-2212"/>
    </g>
   </g>
   <g id="text_6">
    <!-- + -->
    <g style="fill: #3399cc" transform="translate(252.22901 229.845123) scale(0.13 -0.13)">
     <use xlink:href="#DejaVuSans-Bold-2b"/>
    </g>
   </g>
   <g id="text_7">
    <!-- − -->
    <g style="fill: #d83232" transform="translate(87.697397 188.71222) scale(0.13 -0.13)">
     <use xlink:href="#DejaVuSans-Bold-2212"/>
    </g>
   </g>
   <g id="text_8">
    <!-- + -->
    <g style="fill: #3399cc" transform="translate(128.8303 188.71222) scale(0.13 -0.13)">
     <use xlink:href="#DejaVuSans-Bold-2b"/>
    </g>
   </g>
   <g id="text_9">
    <!-- − -->
    <g style="fill: #d83232" transform="translate(169.963203 188.71222) scale(0.13 -0.13)">
     <use xlink:href="#DejaVuSans-Bold-2212"/>
    </g>
   </g>
   <g id="text_10">
    <!-- + -->
    <g style="fill: #3399cc" transform="translate(211.096106 188.71222) scale(0.13 -0.13)">
     <use xlink:href="#DejaVuSans-Bold-2b"/>
    </g>
   </g>
   <g id="text_11">
    <!-- − -->
    <g style="fill: #d83232" transform="translate(252.22901 188.71222) scale(0.13 -0.13)">
     <use xlink:href="#DejaVuSans-Bold-2212"/>
    </g>
   </g>
   <g id="text_12">
    <!-- + -->
    <g style="fill: #3399cc" transform="translate(87.697397 147.579317) scale(0.13 -0.13)">
     <use xlink:href="#DejaVuSans-Bold-2b"/>
    </g>
   </g>
   <g id="text_13">
    <!-- − -->
    <g style="fill: #d83232" transform="translate(128.8303 147.579317) scale(0.13 -0.13)">
     <use xlink:href="#DejaVuSans-Bold-2212"/>
    </g>
   </g>
   <g id="text_14">
    <!-- + -->
    <g style="fill: #3399cc" transform="translate(169.963203 147.579317) scale(0.13 -0.13)">
     <use xlink:href="#DejaVuSans-Bold-2b"/>
    </g>
   </g>
   <g id="text_15">
    <!-- − -->
    <g style="fill: #d83232" transform="translate(211.096106 147.579317) scale(0.13 -0.13)">
     <use xlink:href="#DejaVuSans-Bold-2212"/>
    </g>
   </g>
   <g id="text_16">
    <!-- + -->
    <g style="fill: #3399cc" transform="translate(252.22901 147.579317) scale(0.13 -0.13)">
     <use xlink:href="#DejaVuSans-Bold-2b"/>
    </g>
   </g>
   <g id="text_17">
    <!-- − -->
    <g style="fill: #d83232" transform="translate(87.697397 106.446413) scale(0.13 -0.13)">
     <use xlink:href="#DejaVuSans-Bold-2212"/>
    </g>
   </g>
   <g id="text_18">
    <!-- + -->
    <g style="fill: #3399cc" transform="translate(128.8303 106.446413) scale(0.13 -0.13)">
     <use xlink:href="#DejaVuSans-Bold-2b"/>
    </g>
   </g>
   <g id="text_19">
    <!-- − -->
    <g style="fill: #d83232" transform="translate(169.963203 106.446413) scale(0.13 -0.13)">
     <use xlink:href="#DejaVuSans-Bold-2212"/>
    </g>
   </g>
   <g id="text_20">
    <!-- + -->
    <g style="fill: #3399cc" transform="translate(211.096106 106.446413) scale(0.13 -0.13)">
     <use xlink:href="#DejaVuSans-Bold-2b"/>
    </g>
   </g>
   <g id="text_21">
    <!-- − -->
    <g style="fill: #d83232" transform="translate(252.22901 106.446413) scale(0.13 -0.13)">
     <use xlink:href="#DejaVuSans-Bold-2212"/>
    </g>
   </g>
   <g id="patch_22">
    <path d="M 134.277097 226.257935 
Q 154.843548 226.257935 172.950325 226.257935 
" clip-path="url(#pbc8da5395d)" style="fill: none; stroke: #ff7a18; stroke-width: 2.2; stroke-linecap: round"/>
    <path d="M 167.750325 223.657935 
L 172.950325 226.257935 
L 167.750325 228.857935 
z
" clip-path="url(#pbc8da5395d)" style="fill: #ff7a18; stroke: #ff7a18; stroke-width: 2.2; stroke-linecap: round"/>
   </g>
   <g id="text_22">
    <!-- every unit step flips (x+y) mod 2 -->
    <g style="fill: #ff7a18" transform="translate(84.355781 272.482796) scale(0.11 -0.11)">
     <defs>
      <path id="DejaVuSans-73" d="M 2834 3397 
L 2834 2853 
Q 2591 2978 2328 3040 
Q 2066 3103 1784 3103 
Q 1356 3103 1142 2972 
Q 928 2841 928 2578 
Q 928 2378 1081 2264 
Q 1234 2150 1697 2047 
L 1894 2003 
Q 2506 1872 2764 1633 
Q 3022 1394 3022 966 
Q 3022 478 2636 193 
Q 2250 -91 1575 -91 
Q 1294 -91 989 -36 
Q 684 19 347 128 
L 347 722 
Q 666 556 975 473 
Q 1284 391 1588 391 
Q 1994 391 2212 530 
Q 2431 669 2431 922 
Q 2431 1156 2273 1281 
Q 2116 1406 1581 1522 
L 1381 1569 
Q 847 1681 609 1914 
Q 372 2147 372 2553 
Q 372 3047 722 3315 
Q 1072 3584 1716 3584 
Q 2034 3584 2315 3537 
Q 2597 3491 2834 3397 
z
" transform="scale(0.015625)"/>
      <path id="DejaVuSans-70" d="M 1159 525 
L 1159 -1331 
L 581 -1331 
L 581 3500 
L 1159 3500 
L 1159 2969 
Q 1341 3281 1617 3432 
Q 1894 3584 2278 3584 
Q 2916 3584 3314 3078 
Q 3713 2572 3713 1747 
Q 3713 922 3314 415 
Q 2916 -91 2278 -91 
Q 1894 -91 1617 61 
Q 1341 213 1159 525 
z
M 3116 1747 
Q 3116 2381 2855 2742 
Q 2594 3103 2138 3103 
Q 1681 3103 1420 2742 
Q 1159 2381 1159 1747 
Q 1159 1113 1420 752 
Q 1681 391 2138 391 
Q 2594 391 2855 752 
Q 3116 1113 3116 1747 
z
" transform="scale(0.015625)"/>
      <path id="DejaVuSans-66" d="M 2375 4863 
L 2375 4384 
L 1825 4384 
Q 1516 4384 1395 4259 
Q 1275 4134 1275 3809 
L 1275 3500 
L 2222 3500 
L 2222 3053 
L 1275 3053 
L 1275 0 
L 697 0 
L 697 3053 
L 147 3053 
L 147 3500 
L 697 3500 
L 697 3744 
Q 697 4328 969 4595 
Q 1241 4863 1831 4863 
L 2375 4863 
z
" transform="scale(0.015625)"/>
      <path id="DejaVuSans-78" d="M 3513 3500 
L 2247 1797 
L 3578 0 
L 2900 0 
L 1881 1375 
L 863 0 
L 184 0 
L 1544 1831 
L 300 3500 
L 978 3500 
L 1906 2253 
L 2834 3500 
L 3513 3500 
z
" transform="scale(0.015625)"/>
      <path id="DejaVuSans-32" d="M 1228 531 
L 3431 531 
L 3431 0 
L 469 0 
L 469 531 
Q 828 903 1448 1529 
Q 2069 2156 2228 2338 
Q 2531 2678 2651 2914 
Q 2772 3150 2772 3378 
Q 2772 3750 2511 3984 
Q 2250 4219 1831 4219 
Q 1534 4219 1204 4116 
Q 875 4013 500 3803 
L 500 4441 
Q 881 4594 1212 4672 
Q 1544 4750 1819 4750 
Q 2544 4750 2975 4387 
Q 3406 4025 3406 3419 
Q 3406 3131 3298 2873 
Q 3191 2616 2906 2266 
Q 2828 2175 2409 1742 
Q 1991 1309 1228 531 
z
" transform="scale(0.015625)"/>
     </defs>
     <use xlink:href="#DejaVuSans-65"/>
     <use xlink:href="#DejaVuSans-76" transform="translate(61.523438 0)"/>
     <use xlink:href="#DejaVuSans-65" transform="translate(120.703125 0)"/>
     <use xlink:href="#DejaVuSans-72" transform="translate(182.226562 0)"/>
     <use xlink:href="#DejaVuSans-79" transform="translate(223.339844 0)"/>
     <use xlink:href="#DejaVuSans-20" transform="translate(282.519531 0)"/>
     <use xlink:href="#DejaVuSans-75" transform="translate(314.306641 0)"/>
     <use xlink:href="#DejaVuSans-6e" transform="translate(377.685547 0)"/>
     <use xlink:href="#DejaVuSans-69" transform="translate(441.064453 0)"/>
     <use xlink:href="#DejaVuSans-74" transform="translate(468.847656 0)"/>
     <use xlink:href="#DejaVuSans-20" transform="translate(508.056641 0)"/>
     <use xlink:href="#DejaVuSans-73" transform="translate(539.84375 0)"/>
     <use xlink:href="#DejaVuSans-74" transform="translate(591.943359 0)"/>
     <use xlink:href="#DejaVuSans-65" transform="translate(631.152344 0)"/>
     <use xlink:href="#DejaVuSans-70" transform="translate(692.675781 0)"/>
     <use xlink:href="#DejaVuSans-20" transform="translate(756.152344 0)"/>
     <use xlink:href="#DejaVuSans-66" transform="translate(787.939453 0)"/>
     <use xlink:href="#DejaVuSans-6c" transform="translate(823.144531 0)"/>
     <use xlink:href="#DejaVuSans-69" transform="translate(850.927734 0)"/>
     <use xlink:href="#DejaVuSans-70" transform="translate(878.710938 0)"/>
     <use xlink:href="#DejaVuSans-73" transform="translate(942.1875 0)"/>
     <use xlink:href="#DejaVuSans-20" transform="translate(994.287109 0)"/>
     <use xlink:href="#DejaVuSans-28" transform="translate(1026.074219 0)"/>
     <use xlink:href="#DejaVuSans-78" transform="translate(1065.087891 0)"/>
     <use xlink:href="#DejaVuSans-2b" transform="translate(1124.267578 0)"/>
     <use xlink:href="#DejaVuSans-79" transform="translate(1208.056641 0)"/>
     <use xlink:href="#DejaVuSans-29" transform="translate(1267.236328 0)"/>
     <use xlink:href="#DejaVuSans-20" transform="translate(1306.25 0)"/>
     <use xlink:href="#DejaVuSans-6d" transform="translate(1338.037109 0)"/>
     <use xlink:href="#DejaVuSans-6f" transform="translate(1435.449219 0)"/>
     <use xlink:href="#DejaVuSans-64" transform="translate(1496.630859 0)"/>
     <use xlink:href="#DejaVuSans-20" transform="translate(1560.107422 0)"/>
     <use xlink:href="#DejaVuSans-32" transform="translate(1591.894531 0)"/>
    </g>
   </g>
   <g id="patch_23">
    <path d="M 72.577742 58.43569 
L 86.562929 58.43569 
L 86.562929 48.563794 
L 72.577742 48.563794 
z
" clip-path="url(#pbc8da5395d)" style="fill: #3399cc"/>
   </g>
   <g id="text_23">
    <!-- even  → valley  σ=+1 -->
    <g style="fill: #222222" transform="translate(91.498877 56.535054) scale(0.11 -0.11)">
     <defs>
      <path id="DejaVuSans-2192" d="M 5050 2147 
L 5050 1866 
L 3822 638 
L 3447 1013 
L 4175 1741 
L 366 1741 
L 366 2272 
L 4175 2272 
L 3447 3000 
L 3822 3375 
L 5050 2147 
z
" transform="scale(0.015625)"/>
      <path id="DejaVuSans-3c3" d="M 1959 3044 
Q 1484 3044 1228 2700 
Q 959 2341 959 1747 
Q 959 1119 1226 758 
Q 1494 397 1959 397 
Q 2419 397 2687 759 
Q 2956 1122 2956 1747 
Q 2956 2319 2688 2700 
Q 2441 3044 1959 3044 
z
M 1959 3500 
L 3869 3500 
L 3869 2925 
L 3225 2925 
Q 3566 2438 3566 1747 
Q 3566 888 3138 400 
Q 2709 -91 1959 -91 
Q 1206 -91 781 400 
Q 353 888 353 1747 
Q 353 2613 781 3097 
Q 1134 3500 1959 3500 
z
" transform="scale(0.015625)"/>
     </defs>
     <use xlink:href="#DejaVuSans-65"/>
     <use xlink:href="#DejaVuSans-76" transform="translate(61.523438 0)"/>
     <use xlink:href="#DejaVuSans-65" transform="translate(120.703125 0)"/>
     <use xlink:href="#DejaVuSans-6e" transform="translate(182.226562 0)"/>
     <use xlink:href="#DejaVuSans-20" transform="translate(245.605469 0)"/>
     <use xlink:href="#DejaVuSans-20" transform="translate(277.392578 0)"/>
     <use xlink:href="#DejaVuSans-2192" transform="translate(309.179688 0)"/>
     <use xlink:href="#DejaVuSans-20" transform="translate(392.96875 0)"/>
     <use xlink:href="#DejaVuSans-76" transform="translate(424.755859 0)"/>
     <use xlink:href="#DejaVuSans-61" transform="translate(483.935547 0)"/>
     <use xlink:href="#DejaVuSans-6c" transform="translate(545.214844 0)"/>
     <use xlink:href="#DejaVuSans-6c" transform="translate(572.998047 0)"/>
     <use xlink:href="#DejaVuSans-65" transform="translate(600.78125 0)"/>
     <use xlink:href="#DejaVuSans-79" transform="translate(662.304688 0)"/>
     <use xlink:href="#DejaVuSans-20" transform="translate(721.484375 0)"/>
     <use xlink:href="#DejaVuSans-20" transform="translate(753.271484 0)"/>
     <use xlink:href="#DejaVuSans-3c3" transform="translate(785.058594 0)"/>
     <use xlink:href="#DejaVuSans-3d" transform="translate(848.4375 0)"/>
     <use xlink:href="#DejaVuSans-2b" transform="translate(932.226562 0)"/>
     <use xlink:href="#DejaVuSans-31" transform="translate(1016.015625 0)"/>
    </g>
   </g>
   <g id="patch_24">
    <path d="M 72.577742 79.002142 
L 86.562929 79.002142 
L 86.562929 69.130245 
L 72.577742 69.130245 
z
" clip-path="url(#pbc8da5395d)" style="fill: #d83232"/>
   </g>
   <g id="text_24">
    <!-- odd   → mountain σ=−1 -->
    <g style="fill: #222222" transform="translate(91.498877 77.101506) scale(0.11 -0.11)">
     <use xlink:href="#DejaVuSans-6f"/>
     <use xlink:href="#DejaVuSans-64" transform="translate(61.181641 0)"/>
     <use xlink:href="#DejaVuSans-64" transform="translate(124.658203 0)"/>
     <use xlink:href="#DejaVuSans-20" transform="translate(188.134766 0)"/>
     <use xlink:href="#DejaVuSans-20" transform="translate(219.921875 0)"/>
     <use xlink:href="#DejaVuSans-20" transform="translate(251.708984 0)"/>
     <use xlink:href="#DejaVuSans-2192" transform="translate(283.496094 0)"/>
     <use xlink:href="#DejaVuSans-20" transform="translate(367.285156 0)"/>
     <use xlink:href="#DejaVuSans-6d" transform="translate(399.072266 0)"/>
     <use xlink:href="#DejaVuSans-6f" transform="translate(496.484375 0)"/>
     <use xlink:href="#DejaVuSans-75" transform="translate(557.666016 0)"/>
     <use xlink:href="#DejaVuSans-6e" transform="translate(621.044922 0)"/>
     <use xlink:href="#DejaVuSans-74" transform="translate(684.423828 0)"/>
     <use xlink:href="#DejaVuSans-61" transform="translate(723.632812 0)"/>
     <use xlink:href="#DejaVuSans-69" transform="translate(784.912109 0)"/>
     <use xlink:href="#DejaVuSans-6e" transform="translate(812.695312 0)"/>
     <use xlink:href="#DejaVuSans-20" transform="translate(876.074219 0)"/>
     <use xlink:href="#DejaVuSans-3c3" transform="translate(907.861328 0)"/>
     <use xlink:href="#DejaVuSans-3d" transform="translate(971.240234 0)"/>
     <use xlink:href="#DejaVuSans-2212" transform="translate(1055.029297 0)"/>
     <use xlink:href="#DejaVuSans-31" transform="translate(1138.818359 0)"/>
    </g>
   </g>
  </g>
 </g>
 <defs>
  <clipPath id="pbc8da5395d">
   <rect x="60.237871" y="28.82" width="230.344258" height="255.024"/>
  </clipPath>
 </defs>
</svg>
