<?xml version="1.0" encoding="utf-8" standalone="no"?>
<!DOCTYPE svg PUBLIC "-//W3C//DTD SVG 1.1//EN"
  "http://www.w3.org/Graphics/SVG/1.1/DTD/svg11.dtd">
<svg xmlns:xlink="http://www.w3.org/1999/xlink" width="394.066875pt" height="223.533812pt" viewBox="0 0 394.066875 223.533812" xmlns="http://www.w3.org/2000/svg" version="1.1">
 <metadata>
  <rdf:RDF xmlns:dc="http://purl.org/dc/elements/1.1/" xmlns:cc="http://creativecommons.org/ns#" xmlns:rdf="http://www.w3.org/1999/02/22-rdf-syntax-ns#">
   <cc:Work>
    <dc:type rdf:resource="http://purl.org/dc/dcmitype/StillImage"/>
    <dc:date>2026-06-03T14:06:02.487494</dc:date>
    <dc:format>image/svg+xml</dc:format>
    <dc:creator>
     <cc:Agent>
      <dc:title>Matplotlib v3.10.9, https://matplotlib.org/</dc:title>
     </cc:Agent>
    </dc:creator>
   </cc:Work>
  </rdf:RDF>
 </metadata>
 <defs>
  <style type="text/css">*{stroke-linejoin: round; stroke-linecap: butt}</style>
 </defs>
 <g id="figure_1">
  <g id="patch_1">
   <path d="M 0 223.533812 
L 394.066875 223.533812 
L 394.066875 -0 
L 0 -0 
z
" style="fill: #ffffff"/>
  </g>
  <g id="axes_1">
   <g id="patch_2">
    <path d="M 62.393438 95.157812 
L 107.273438 95.157812 
L 107.273438 50.277812 
L 62.393438 50.277812 
z
" clip-path="url(#p8b463c90a9)" style="fill: #eaf3fb; stroke: #444444; stroke-width: 1.4; stroke-linejoin: miter"/>
   </g>
   <g id="patch_3">
    <path d="M 107.273438 95.157812 
L 152.153438 95.157812 
L 152.153438 50.277812 
L 107.273438 50.277812 
z
" clip-path="url(#p8b463c90a9)" style="fill: #fdeeee; stroke: #444444; stroke-width: 1.4; stroke-linejoin: miter"/>
   </g>
   <g id="patch_4">
    <path d="M 152.153438 95.157812 
L 197.033438 95.157812 
L 197.033438 50.277812 
L 152.153438 50.277812 
z
" clip-path="url(#p8b463c90a9)" style="fill: #eaf3fb; stroke: #444444; stroke-width: 1.4; stroke-linejoin: miter"/>
   </g>
   <g id="patch_5">
    <path d="M 197.033438 95.157812 
L 241.913438 95.157812 
L 241.913438 50.277812 
L 197.033438 50.277812 
z
" clip-path="url(#p8b463c90a9)" style="fill: #fdeeee; stroke: #444444; stroke-width: 1.4; stroke-linejoin: miter"/>
   </g>
   <g id="patch_6">
    <path d="M 241.913438 95.157812 
L 286.793438 95.157812 
L 286.793438 50.277812 
L 241.913438 50.277812 
z
" clip-path="url(#p8b463c90a9)" style="fill: #eaf3fb; stroke: #444444; stroke-width: 1.4; stroke-linejoin: miter"/>
   </g>
   <g id="patch_7">
    <path d="M 286.793438 95.157812 
L 331.673438 95.157812 
L 331.673438 50.277812 
L 286.793438 50.277812 
z
" clip-path="url(#p8b463c90a9)" style="fill: #fdeeee; stroke: #444444; stroke-width: 1.4; stroke-linejoin: miter"/>
   </g>
   <g id="patch_8">
    <path d="M 62.393438 157.989812 
L 89.321438 157.989812 
L 89.321438 131.061812 
L 62.393438 131.061812 
z
" clip-path="url(#p8b463c90a9)" style="fill: #eaf3fb; stroke: #444444; stroke-width: 1.2; stroke-linejoin: miter"/>
   </g>
   <g id="patch_9">
    <path d="M 107.273438 139.140212 
L 134.201438 139.140212 
L 134.201438 112.212212 
L 107.273438 112.212212 
z
" clip-path="url(#p8b463c90a9)" style="fill: #fdeeee; stroke: #444444; stroke-width: 1.2; stroke-linejoin: miter"/>
   </g>
   <g id="patch_10">
    <path d="M 152.153437 157.989812 
L 179.081437 157.989812 
L 179.081437 131.061812 
L 152.153437 131.061812 
z
" clip-path="url(#p8b463c90a9)" style="fill: #eaf3fb; stroke: #444444; stroke-width: 1.2; stroke-linejoin: miter"/>
   </g>
   <g id="patch_11">
    <path d="M 197.033438 139.140212 
L 223.961438 139.140212 
L 223.961438 112.212212 
L 197.033438 112.212212 
z
" clip-path="url(#p8b463c90a9)" style="fill: #fdeeee; stroke: #444444; stroke-width: 1.2; stroke-linejoin: miter"/>
   </g>
   <g id="patch_12">
    <path d="M 241.913438 157.989812 
L 268.841438 157.989812 
L 268.841438 131.061812 
L 241.913438 131.061812 
z
" clip-path="url(#p8b463c90a9)" style="fill: #eaf3fb; stroke: #444444; stroke-width: 1.2; stroke-linejoin: miter"/>
   </g>
   <g id="patch_13">
    <path d="M 286.793438 139.140212 
L 313.721438 139.140212 
L 313.721438 112.212212 
L 286.793438 112.212212 
z
" clip-path="url(#p8b463c90a9)" style="fill: #fdeeee; stroke: #444444; stroke-width: 1.2; stroke-linejoin: miter"/>
   </g>
   <g id="text_1">
    <!-- up -->
    <g style="fill: #3399cc" transform="translate(79.124766 75.20125) scale(0.09 -0.09)">
     <defs>
      <path id="DejaVuSans-75" d="M 544 1381 
L 544 3500 
L 1119 3500 
L 1119 1403 
Q 1119 906 1312 657 
Q 1506 409 1894 409 
Q 2359 409 2629 706 
Q 2900 1003 2900 1516 
L 2900 3500 
L 3475 3500 
L 3475 0 
L 2900 0 
L 2900 538 
Q 2691 219 2414 64 
Q 2138 -91 1772 -91 
Q 1169 -91 856 284 
Q 544 659 544 1381 
z
M 1991 3584 
L 1991 3584 
z
" transform="scale(0.015625)"/>
      <path id="DejaVuSans-70" d="M 1159 525 
L 1159 -1331 
L 581 -1331 
L 581 3500 
L 1159 3500 
L 1159 2969 
Q 1341 3281 1617 3432 
Q 1894 3584 2278 3584 
Q 2916 3584 3314 3078 
Q 3713 2572 3713 1747 
Q 3713 922 3314 415 
Q 2916 -91 2278 -91 
Q 1894 -91 1617 61 
Q 1341 213 1159 525 
z
M 3116 1747 
Q 3116 2381 2855 2742 
Q 2594 3103 2138 3103 
Q 1681 3103 1420 2742 
Q 1159 2381 1159 1747 
Q 1159 1113 1420 752 
Q 1681 391 2138 391 
Q 2594 391 2855 752 
Q 3116 1113 3116 1747 
z
" transform="scale(0.015625)"/>
     </defs>
     <use xlink:href="#DejaVuSans-75"/>
     <use xlink:href="#DejaVuSans-70" transform="translate(63.378906 0)"/>
    </g>
   </g>
   <g id="text_2">
    <!-- dn -->
    <g style="fill: #d83232" transform="translate(124.004766 75.20125) scale(0.09 -0.09)">
     <defs>
      <path id="DejaVuSans-64" d="M 2906 2969 
L 2906 4863 
L 3481 4863 
L 3481 0 
L 2906 0 
L 2906 525 
Q 2725 213 2448 61 
Q 2172 -91 1784 -91 
Q 1150 -91 751 415 
Q 353 922 353 1747 
Q 353 2572 751 3078 
Q 1150 3584 1784 3584 
Q 2172 3584 2448 3432 
Q 2725 3281 2906 2969 
z
M 947 1747 
Q 947 1113 1208 752 
Q 1469 391 1925 391 
Q 2381 391 2643 752 
Q 2906 1113 2906 1747 
Q 2906 2381 2643 2742 
Q 2381 3103 1925 3103 
Q 1469 3103 1208 2742 
Q 947 2381 947 1747 
z
" transform="scale(0.015625)"/>
      <path id="DejaVuSans-6e" d="M 3513 2113 
L 3513 0 
L 2938 0 
L 2938 2094 
Q 2938 2591 2744 2837 
Q 2550 3084 2163 3084 
Q 1697 3084 1428 2787 
Q 1159 2491 1159 1978 
L 1159 0 
L 581 0 
L 581 3500 
L 1159 3500 
L 1159 2956 
Q 1366 3272 1645 3428 
Q 1925 3584 2291 3584 
Q 2894 3584 3203 3211 
Q 3513 2838 3513 2113 
z
" transform="scale(0.015625)"/>
     </defs>
     <use xlink:href="#DejaVuSans-64"/>
     <use xlink:href="#DejaVuSans-6e" transform="translate(63.476562 0)"/>
    </g>
   </g>
   <g id="text_3">
    <!-- up -->
    <g style="fill: #3399cc" transform="translate(168.884766 75.20125) scale(0.09 -0.09)">
     <use xlink:href="#DejaVuSans-75"/>
     <use xlink:href="#DejaVuSans-70" transform="translate(63.378906 0)"/>
    </g>
   </g>
   <g id="text_4">
    <!-- dn -->
    <g style="fill: #d83232" transform="translate(213.764766 75.20125) scale(0.09 -0.09)">
     <use xlink:href="#DejaVuSans-64"/>
     <use xlink:href="#DejaVuSans-6e" transform="translate(63.476562 0)"/>
    </g>
   </g>
   <g id="text_5">
    <!-- up -->
    <g style="fill: #3399cc" transform="translate(258.644766 75.20125) scale(0.09 -0.09)">
     <use xlink:href="#DejaVuSans-75"/>
     <use xlink:href="#DejaVuSans-70" transform="translate(63.378906 0)"/>
    </g>
   </g>
   <g id="text_6">
    <!-- dn -->
    <g style="fill: #d83232" transform="translate(303.524766 75.20125) scale(0.09 -0.09)">
     <use xlink:href="#DejaVuSans-64"/>
     <use xlink:href="#DejaVuSans-6e" transform="translate(63.476562 0)"/>
    </g>
   </g>
   <g id="text_7">
    <!-- Odd # reflections = flip = which of the two stacks -->
    <g style="fill: #222222" transform="translate(26.227219 17.837812) scale(0.14 -0.14)">
     <defs>
      <path id="DejaVuSans-4f" d="M 2522 4238 
Q 1834 4238 1429 3725 
Q 1025 3213 1025 2328 
Q 1025 1447 1429 934 
Q 1834 422 2522 422 
Q 3209 422 3611 934 
Q 4013 1447 4013 2328 
Q 4013 3213 3611 3725 
Q 3209 4238 2522 4238 
z
M 2522 4750 
Q 3503 4750 4090 4092 
Q 4678 3434 4678 2328 
Q 4678 1225 4090 567 
Q 3503 -91 2522 -91 
Q 1538 -91 948 565 
Q 359 1222 359 2328 
Q 359 3434 948 4092 
Q 1538 4750 2522 4750 
z
" transform="scale(0.015625)"/>
      <path id="DejaVuSans-20" transform="scale(0.015625)"/>
      <path id="DejaVuSans-23" d="M 3272 2816 
L 2363 2816 
L 2100 1772 
L 3016 1772 
L 3272 2816 
z
M 2803 4594 
L 2478 3297 
L 3391 3297 
L 3719 4594 
L 4219 4594 
L 3897 3297 
L 4872 3297 
L 4872 2816 
L 3775 2816 
L 3519 1772 
L 4513 1772 
L 4513 1294 
L 3397 1294 
L 3072 0 
L 2572 0 
L 2894 1294 
L 1978 1294 
L 1656 0 
L 1153 0 
L 1478 1294 
L 494 1294 
L 494 1772 
L 1594 1772 
L 1856 2816 
L 850 2816 
L 850 3297 
L 1978 3297 
L 2297 4594 
L 2803 4594 
z
" transform="scale(0.015625)"/>
      <path id="DejaVuSans-72" d="M 2631 2963 
Q 2534 3019 2420 3045 
Q 2306 3072 2169 3072 
Q 1681 3072 1420 2755 
Q 1159 2438 1159 1844 
L 1159 0 
L 581 0 
L 581 3500 
L 1159 3500 
L 1159 2956 
Q 1341 3275 1631 3429 
Q 1922 3584 2338 3584 
Q 2397 3584 2469 3576 
Q 2541 3569 2628 3553 
L 2631 2963 
z
" transform="scale(0.015625)"/>
      <path id="DejaVuSans-65" d="M 3597 1894 
L 3597 1613 
L 953 1613 
Q 991 1019 1311 708 
Q 1631 397 2203 397 
Q 2534 397 2845 478 
Q 3156 559 3463 722 
L 3463 178 
Q 3153 47 2828 -22 
Q 2503 -91 2169 -91 
Q 1331 -91 842 396 
Q 353 884 353 1716 
Q 353 2575 817 3079 
Q 1281 3584 2069 3584 
Q 2775 3584 3186 3129 
Q 3597 2675 3597 1894 
z
M 3022 2063 
Q 3016 2534 2758 2815 
Q 2500 3097 2075 3097 
Q 1594 3097 1305 2825 
Q 1016 2553 972 2059 
L 3022 2063 
z
" transform="scale(0.015625)"/>
      <path id="DejaVuSans-66" d="M 2375 4863 
L 2375 4384 
L 1825 4384 
Q 1516 4384 1395 4259 
Q 1275 4134 1275 3809 
L 1275 3500 
L 2222 3500 
L 2222 3053 
L 1275 3053 
L 1275 0 
L 697 0 
L 697 3053 
L 147 3053 
L 147 3500 
L 697 3500 
L 697 3744 
Q 697 4328 969 4595 
Q 1241 4863 1831 4863 
L 2375 4863 
z
" transform="scale(0.015625)"/>
      <path id="DejaVuSans-6c" d="M 603 4863 
L 1178 4863 
L 1178 0 
L 603 0 
L 603 4863 
z
" transform="scale(0.015625)"/>
      <path id="DejaVuSans-63" d="M 3122 3366 
L 3122 2828 
Q 2878 2963 2633 3030 
Q 2388 3097 2138 3097 
Q 1578 3097 1268 2742 
Q 959 2388 959 1747 
Q 959 1106 1268 751 
Q 1578 397 2138 397 
Q 2388 397 2633 464 
Q 2878 531 3122 666 
L 3122 134 
Q 2881 22 2623 -34 
Q 2366 -91 2075 -91 
Q 1284 -91 818 406 
Q 353 903 353 1747 
Q 353 2603 823 3093 
Q 1294 3584 2113 3584 
Q 2378 3584 2631 3529 
Q 2884 3475 3122 3366 
z
" transform="scale(0.015625)"/>
      <path id="DejaVuSans-74" d="M 1172 4494 
L 1172 3500 
L 2356 3500 
L 2356 3053 
L 1172 3053 
L 1172 1153 
Q 1172 725 1289 603 
Q 1406 481 1766 481 
L 2356 481 
L 2356 0 
L 1766 0 
Q 1100 0 847 248 
Q 594 497 594 1153 
L 594 3053 
L 172 3053 
L 172 3500 
L 594 3500 
L 594 4494 
L 1172 4494 
z
" transform="scale(0.015625)"/>
      <path id="DejaVuSans-69" d="M 603 3500 
L 1178 3500 
L 1178 0 
L 603 0 
L 603 3500 
z
M 603 4863 
L 1178 4863 
L 1178 4134 
L 603 4134 
L 603 4863 
z
" transform="scale(0.015625)"/>
      <path id="DejaVuSans-6f" d="M 1959 3097 
Q 1497 3097 1228 2736 
Q 959 2375 959 1747 
Q 959 1119 1226 758 
Q 1494 397 1959 397 
Q 2419 397 2687 759 
Q 2956 1122 2956 1747 
Q 2956 2369 2687 2733 
Q 2419 3097 1959 3097 
z
M 1959 3584 
Q 2709 3584 3137 3096 
Q 3566 2609 3566 1747 
Q 3566 888 3137 398 
Q 2709 -91 1959 -91 
Q 1206 -91 779 398 
Q 353 888 353 1747 
Q 353 2609 779 3096 
Q 1206 3584 1959 3584 
z
" transform="scale(0.015625)"/>
      <path id="DejaVuSans-73" d="M 2834 3397 
L 2834 2853 
Q 2591 2978 2328 3040 
Q 2066 3103 1784 3103 
Q 1356 3103 1142 2972 
Q 928 2841 928 2578 
Q 928 2378 1081 2264 
Q 1234 2150 1697 2047 
L 1894 2003 
Q 2506 1872 2764 1633 
Q 3022 1394 3022 966 
Q 3022 478 2636 193 
Q 2250 -91 1575 -91 
Q 1294 -91 989 -36 
Q 684 19 347 128 
L 347 722 
Q 666 556 975 473 
Q 1284 391 1588 391 
Q 1994 391 2212 530 
Q 2431 669 2431 922 
Q 2431 1156 2273 1281 
Q 2116 1406 1581 1522 
L 1381 1569 
Q 847 1681 609 1914 
Q 372 2147 372 2553 
Q 372 3047 722 3315 
Q 1072 3584 1716 3584 
Q 2034 3584 2315 3537 
Q 2597 3491 2834 3397 
z
" transform="scale(0.015625)"/>
      <path id="DejaVuSans-3d" d="M 678 2906 
L 4684 2906 
L 4684 2381 
L 678 2381 
L 678 2906 
z
M 678 1631 
L 4684 1631 
L 4684 1100 
L 678 1100 
L 678 1631 
z
" transform="scale(0.015625)"/>
      <path id="DejaVuSans-77" d="M 269 3500 
L 844 3500 
L 1563 769 
L 2278 3500 
L 2956 3500 
L 3675 769 
L 4391 3500 
L 4966 3500 
L 4050 0 
L 3372 0 
L 2619 2869 
L 1863 0 
L 1184 0 
L 269 3500 
z
" transform="scale(0.015625)"/>
      <path id="DejaVuSans-68" d="M 3513 2113 
L 3513 0 
L 2938 0 
L 2938 2094 
Q 2938 2591 2744 2837 
Q 2550 3084 2163 3084 
Q 1697 3084 1428 2787 
Q 1159 2491 1159 1978 
L 1159 0 
L 581 0 
L 581 4863 
L 1159 4863 
L 1159 2956 
Q 1366 3272 1645 3428 
Q 1925 3584 2291 3584 
Q 2894 3584 3203 3211 
Q 3513 2838 3513 2113 
z
" transform="scale(0.015625)"/>
      <path id="DejaVuSans-61" d="M 2194 1759 
Q 1497 1759 1228 1600 
Q 959 1441 959 1056 
Q 959 750 1161 570 
Q 1363 391 1709 391 
Q 2188 391 2477 730 
Q 2766 1069 2766 1631 
L 2766 1759 
L 2194 1759 
z
M 3341 1997 
L 3341 0 
L 2766 0 
L 2766 531 
Q 2569 213 2275 61 
Q 1981 -91 1556 -91 
Q 1019 -91 701 211 
Q 384 513 384 1019 
Q 384 1609 779 1909 
Q 1175 2209 1959 2209 
L 2766 2209 
L 2766 2266 
Q 2766 2663 2505 2880 
Q 2244 3097 1772 3097 
Q 1472 3097 1187 3025 
Q 903 2953 641 2809 
L 641 3341 
Q 956 3463 1253 3523 
Q 1550 3584 1831 3584 
Q 2591 3584 2966 3190 
Q 3341 2797 3341 1997 
z
" transform="scale(0.015625)"/>
      <path id="DejaVuSans-6b" d="M 581 4863 
L 1159 4863 
L 1159 1991 
L 2875 3500 
L 3609 3500 
L 1753 1863 
L 3688 0 
L 2938 0 
L 1159 1709 
L 1159 0 
L 581 0 
L 581 4863 
z
" transform="scale(0.015625)"/>
     </defs>
     <use xlink:href="#DejaVuSans-4f"/>
     <use xlink:href="#DejaVuSans-64" transform="translate(78.710938 0)"/>
     <use xlink:href="#DejaVuSans-64" transform="translate(142.1875 0)"/>
     <use xlink:href="#DejaVuSans-20" transform="translate(205.664062 0)"/>
     <use xlink:href="#DejaVuSans-23" transform="translate(237.451172 0)"/>
     <use xlink:href="#DejaVuSans-20" transform="translate(321.240234 0)"/>
     <use xlink:href="#DejaVuSans-72" transform="translate(353.027344 0)"/>
     <use xlink:href="#DejaVuSans-65" transform="translate(391.890625 0)"/>
     <use xlink:href="#DejaVuSans-66" transform="translate(453.414062 0)"/>
     <use xlink:href="#DejaVuSans-6c" transform="translate(488.619141 0)"/>
     <use xlink:href="#DejaVuSans-65" transform="translate(516.402344 0)"/>
     <use xlink:href="#DejaVuSans-63" transform="translate(577.925781 0)"/>
     <use xlink:href="#DejaVuSans-74" transform="translate(632.90625 0)"/>
     <use xlink:href="#DejaVuSans-69" transform="translate(672.115234 0)"/>
     <use xlink:href="#DejaVuSans-6f" transform="translate(699.898438 0)"/>
     <use xlink:href="#DejaVuSans-6e" transform="translate(761.080078 0)"/>
     <use xlink:href="#DejaVuSans-73" transform="translate(824.458984 0)"/>
     <use xlink:href="#DejaVuSans-20" transform="translate(876.558594 0)"/>
     <use xlink:href="#DejaVuSans-3d" transform="translate(908.345703 0)"/>
     <use xlink:href="#DejaVuSans-20" transform="translate(992.134766 0)"/>
     <use xlink:href="#DejaVuSans-66" transform="translate(1023.921875 0)"/>
     <use xlink:href="#DejaVuSans-6c" transform="translate(1059.126953 0)"/>
     <use xlink:href="#DejaVuSans-69" transform="translate(1086.910156 0)"/>
     <use xlink:href="#DejaVuSans-70" transform="translate(1114.693359 0)"/>
     <use xlink:href="#DejaVuSans-20" transform="translate(1178.169922 0)"/>
     <use xlink:href="#DejaVuSans-3d" transform="translate(1209.957031 0)"/>
     <use xlink:href="#DejaVuSans-20" transform="translate(1293.746094 0)"/>
     <use xlink:href="#DejaVuSans-77" transform="translate(1325.533203 0)"/>
     <use xlink:href="#DejaVuSans-68" transform="translate(1407.320312 0)"/>
     <use xlink:href="#DejaVuSans-69" transform="translate(1470.699219 0)"/>
     <use xlink:href="#DejaVuSans-63" transform="translate(1498.482422 0)"/>
     <use xlink:href="#DejaVuSans-68" transform="translate(1553.462891 0)"/>
     <use xlink:href="#DejaVuSans-20" transform="translate(1616.841797 0)"/>
     <use xlink:href="#DejaVuSans-6f" transform="translate(1648.628906 0)"/>
     <use xlink:href="#DejaVuSans-66" transform="translate(1709.810547 0)"/>
     <use xlink:href="#DejaVuSans-20" transform="translate(1745.015625 0)"/>
     <use xlink:href="#DejaVuSans-74" transform="translate(1776.802734 0)"/>
     <use xlink:href="#DejaVuSans-68" transform="translate(1816.011719 0)"/>
     <use xlink:href="#DejaVuSans-65" transform="translate(1879.390625 0)"/>
     <use xlink:href="#DejaVuSans-20" transform="translate(1940.914062 0)"/>
     <use xlink:href="#DejaVuSans-74" transform="translate(1972.701172 0)"/>
     <use xlink:href="#DejaVuSans-77" transform="translate(2011.910156 0)"/>
     <use xlink:href="#DejaVuSans-6f" transform="translate(2093.697266 0)"/>
     <use xlink:href="#DejaVuSans-20" transform="translate(2154.878906 0)"/>
     <use xlink:href="#DejaVuSans-73" transform="translate(2186.666016 0)"/>
     <use xlink:href="#DejaVuSans-74" transform="translate(2238.765625 0)"/>
     <use xlink:href="#DejaVuSans-61" transform="translate(2277.974609 0)"/>
     <use xlink:href="#DejaVuSans-63" transform="translate(2339.253906 0)"/>
     <use xlink:href="#DejaVuSans-6b" transform="translate(2394.234375 0)"/>
     <use xlink:href="#DejaVuSans-73" transform="translate(2452.144531 0)"/>
    </g>
   </g>
   <g id="text_8">
    <!-- k=0 -->
    <g style="fill: #222222" transform="translate(75.593672 68.46925) scale(0.09 -0.09)">
     <defs>
      <path id="DejaVuSans-30" d="M 2034 4250 
Q 1547 4250 1301 3770 
Q 1056 3291 1056 2328 
Q 1056 1369 1301 889 
Q 1547 409 2034 409 
Q 2525 409 2770 889 
Q 3016 1369 3016 2328 
Q 3016 3291 2770 3770 
Q 2525 4250 2034 4250 
z
M 2034 4750 
Q 2819 4750 3233 4129 
Q 3647 3509 3647 2328 
Q 3647 1150 3233 529 
Q 2819 -91 2034 -91 
Q 1250 -91 836 529 
Q 422 1150 422 2328 
Q 422 3509 836 4129 
Q 1250 4750 2034 4750 
z
" transform="scale(0.015625)"/>
     </defs>
     <use xlink:href="#DejaVuSans-6b"/>
     <use xlink:href="#DejaVuSans-3d" transform="translate(57.910156 0)"/>
     <use xlink:href="#DejaVuSans-30" transform="translate(141.699219 0)"/>
    </g>
   </g>
   <g id="text_9">
    <!-- k=1 -->
    <g style="fill: #222222" transform="translate(120.473672 68.46925) scale(0.09 -0.09)">
     <defs>
      <path id="DejaVuSans-31" d="M 794 531 
L 1825 531 
L 1825 4091 
L 703 3866 
L 703 4441 
L 1819 4666 
L 2450 4666 
L 2450 531 
L 3481 531 
L 3481 0 
L 794 0 
L 794 531 
z
" transform="scale(0.015625)"/>
     </defs>
     <use xlink:href="#DejaVuSans-6b"/>
     <use xlink:href="#DejaVuSans-3d" transform="translate(57.910156 0)"/>
     <use xlink:href="#DejaVuSans-31" transform="translate(141.699219 0)"/>
    </g>
   </g>
   <g id="text_10">
    <!-- k=2 -->
    <g style="fill: #222222" transform="translate(165.353672 68.46925) scale(0.09 -0.09)">
     <defs>
      <path id="DejaVuSans-32" d="M 1228 531 
L 3431 531 
L 3431 0 
L 469 0 
L 469 531 
Q 828 903 1448 1529 
Q 2069 2156 2228 2338 
Q 2531 2678 2651 2914 
Q 2772 3150 2772 3378 
Q 2772 3750 2511 3984 
Q 2250 4219 1831 4219 
Q 1534 4219 1204 4116 
Q 875 4013 500 3803 
L 500 4441 
Q 881 4594 1212 4672 
Q 1544 4750 1819 4750 
Q 2544 4750 2975 4387 
Q 3406 4025 3406 3419 
Q 3406 3131 3298 2873 
Q 3191 2616 2906 2266 
Q 2828 2175 2409 1742 
Q 1991 1309 1228 531 
z
" transform="scale(0.015625)"/>
     </defs>
     <use xlink:href="#DejaVuSans-6b"/>
     <use xlink:href="#DejaVuSans-3d" transform="translate(57.910156 0)"/>
     <use xlink:href="#DejaVuSans-32" transform="translate(141.699219 0)"/>
    </g>
   </g>
   <g id="text_11">
    <!-- k=3 -->
    <g style="fill: #222222" transform="translate(210.233672 68.46925) scale(0.09 -0.09)">
     <defs>
      <path id="DejaVuSans-33" d="M 2597 2516 
Q 3050 2419 3304 2112 
Q 3559 1806 3559 1356 
Q 3559 666 3084 287 
Q 2609 -91 1734 -91 
Q 1441 -91 1130 -33 
Q 819 25 488 141 
L 488 750 
Q 750 597 1062 519 
Q 1375 441 1716 441 
Q 2309 441 2620 675 
Q 2931 909 2931 1356 
Q 2931 1769 2642 2001 
Q 2353 2234 1838 2234 
L 1294 2234 
L 1294 2753 
L 1863 2753 
Q 2328 2753 2575 2939 
Q 2822 3125 2822 3475 
Q 2822 3834 2567 4026 
Q 2313 4219 1838 4219 
Q 1578 4219 1281 4162 
Q 984 4106 628 3988 
L 628 4550 
Q 988 4650 1302 4700 
Q 1616 4750 1894 4750 
Q 2613 4750 3031 4423 
Q 3450 4097 3450 3541 
Q 3450 3153 3228 2886 
Q 3006 2619 2597 2516 
z
" transform="scale(0.015625)"/>
     </defs>
     <use xlink:href="#DejaVuSans-6b"/>
     <use xlink:href="#DejaVuSans-3d" transform="translate(57.910156 0)"/>
     <use xlink:href="#DejaVuSans-33" transform="translate(141.699219 0)"/>
    </g>
   </g>
   <g id="text_12">
    <!-- k=4 -->
    <g style="fill: #222222" transform="translate(255.113672 68.46925) scale(0.09 -0.09)">
     <defs>
      <path id="DejaVuSans-34" d="M 2419 4116 
L 825 1625 
L 2419 1625 
L 2419 4116 
z
M 2253 4666 
L 3047 4666 
L 3047 1625 
L 3713 1625 
L 3713 1100 
L 3047 1100 
L 3047 0 
L 2419 0 
L 2419 1100 
L 313 1100 
L 313 1709 
L 2253 4666 
z
" transform="scale(0.015625)"/>
     </defs>
     <use xlink:href="#DejaVuSans-6b"/>
     <use xlink:href="#DejaVuSans-3d" transform="translate(57.910156 0)"/>
     <use xlink:href="#DejaVuSans-34" transform="translate(141.699219 0)"/>
    </g>
   </g>
   <g id="text_13">
    <!-- k=5 -->
    <g style="fill: #222222" transform="translate(299.993672 68.46925) scale(0.09 -0.09)">
     <defs>
      <path id="DejaVuSans-35" d="M 691 4666 
L 3169 4666 
L 3169 4134 
L 1269 4134 
L 1269 2991 
Q 1406 3038 1543 3061 
Q 1681 3084 1819 3084 
Q 2600 3084 3056 2656 
Q 3513 2228 3513 1497 
Q 3513 744 3044 326 
Q 2575 -91 1722 -91 
Q 1428 -91 1123 -41 
Q 819 9 494 109 
L 494 744 
Q 775 591 1075 516 
Q 1375 441 1709 441 
Q 2250 441 2565 725 
Q 2881 1009 2881 1497 
Q 2881 1984 2565 2268 
Q 2250 2553 1709 2553 
Q 1456 2553 1204 2497 
Q 953 2441 691 2322 
L 691 4666 
z
" transform="scale(0.015625)"/>
     </defs>
     <use xlink:href="#DejaVuSans-6b"/>
     <use xlink:href="#DejaVuSans-3d" transform="translate(57.910156 0)"/>
     <use xlink:href="#DejaVuSans-35" transform="translate(141.699219 0)"/>
    </g>
   </g>
   <g id="text_14">
    <!-- strip: reflection count $k$ at each panel -->
    <g style="fill: #222222" transform="translate(93.578438 46.570812) scale(0.11 -0.11)">
     <defs>
      <path id="DejaVuSans-3a" d="M 750 794 
L 1409 794 
L 1409 0 
L 750 0 
L 750 794 
z
M 750 3309 
L 1409 3309 
L 1409 2516 
L 750 2516 
L 750 3309 
z
" transform="scale(0.015625)"/>
      <path id="DejaVuSans-Oblique-6b" d="M 1172 4863 
L 1747 4863 
L 1197 2028 
L 3169 3500 
L 3916 3500 
L 1716 1825 
L 3322 0 
L 2625 0 
L 1131 1709 
L 800 0 
L 225 0 
L 1172 4863 
z
" transform="scale(0.015625)"/>
     </defs>
     <use xlink:href="#DejaVuSans-73" transform="translate(0 0.015625)"/>
     <use xlink:href="#DejaVuSans-74" transform="translate(52.099609 0.015625)"/>
     <use xlink:href="#DejaVuSans-72" transform="translate(91.308594 0.015625)"/>
     <use xlink:href="#DejaVuSans-69" transform="translate(132.421875 0.015625)"/>
     <use xlink:href="#DejaVuSans-70" transform="translate(160.205078 0.015625)"/>
     <use xlink:href="#DejaVuSans-3a" transform="translate(223.681641 0.015625)"/>
     <use xlink:href="#DejaVuSans-20" transform="translate(257.373047 0.015625)"/>
     <use xlink:href="#DejaVuSans-72" transform="translate(289.160156 0.015625)"/>
     <use xlink:href="#DejaVuSans-65" transform="translate(330.273438 0.015625)"/>
     <use xlink:href="#DejaVuSans-66" transform="translate(391.796875 0.015625)"/>
     <use xlink:href="#DejaVuSans-6c" transform="translate(427.001953 0.015625)"/>
     <use xlink:href="#DejaVuSans-65" transform="translate(454.785156 0.015625)"/>
     <use xlink:href="#DejaVuSans-63" transform="translate(516.308594 0.015625)"/>
     <use xlink:href="#DejaVuSans-74" transform="translate(571.289062 0.015625)"/>
     <use xlink:href="#DejaVuSans-69" transform="translate(610.498047 0.015625)"/>
     <use xlink:href="#DejaVuSans-6f" transform="translate(638.28125 0.015625)"/>
     <use xlink:href="#DejaVuSans-6e" transform="translate(699.462891 0.015625)"/>
     <use xlink:href="#DejaVuSans-20" transform="translate(762.841797 0.015625)"/>
     <use xlink:href="#DejaVuSans-63" transform="translate(794.628906 0.015625)"/>
     <use xlink:href="#DejaVuSans-6f" transform="translate(849.609375 0.015625)"/>
     <use xlink:href="#DejaVuSans-75" transform="translate(910.791016 0.015625)"/>
     <use xlink:href="#DejaVuSans-6e" transform="translate(974.169922 0.015625)"/>
     <use xlink:href="#DejaVuSans-74" transform="translate(1037.548828 0.015625)"/>
     <use xlink:href="#DejaVuSans-20" transform="translate(1076.757812 0.015625)"/>
     <use xlink:href="#DejaVuSans-Oblique-6b" transform="translate(1108.544922 0.015625)"/>
     <use xlink:href="#DejaVuSans-20" transform="translate(1166.455078 0.015625)"/>
     <use xlink:href="#DejaVuSans-61" transform="translate(1198.242188 0.015625)"/>
     <use xlink:href="#DejaVuSans-74" transform="translate(1259.521484 0.015625)"/>
     <use xlink:href="#DejaVuSans-20" transform="translate(1298.730469 0.015625)"/>
     <use xlink:href="#DejaVuSans-65" transform="translate(1330.517578 0.015625)"/>
     <use xlink:href="#DejaVuSans-61" transform="translate(1392.041016 0.015625)"/>
     <use xlink:href="#DejaVuSans-63" transform="translate(1453.320312 0.015625)"/>
     <use xlink:href="#DejaVuSans-68" transform="translate(1508.300781 0.015625)"/>
     <use xlink:href="#DejaVuSans-20" transform="translate(1571.679688 0.015625)"/>
     <use xlink:href="#DejaVuSans-70" transform="translate(1603.466797 0.015625)"/>
     <use xlink:href="#DejaVuSans-61" transform="translate(1666.943359 0.015625)"/>
     <use xlink:href="#DejaVuSans-6e" transform="translate(1728.222656 0.015625)"/>
     <use xlink:href="#DejaVuSans-65" transform="translate(1791.601562 0.015625)"/>
     <use xlink:href="#DejaVuSans-6c" transform="translate(1853.125 0.015625)"/>
    </g>
   </g>
   <g id="text_15">
    <!-- folded: even k → top stack (face-up) · odd k → bottom stack (face-down) -->
    <g style="fill: #222222" transform="translate(7.2 183.327156) scale(0.105 -0.105)">
     <defs>
      <path id="DejaVuSans-76" d="M 191 3500 
L 800 3500 
L 1894 563 
L 2988 3500 
L 3597 3500 
L 2284 0 
L 1503 0 
L 191 3500 
z
" transform="scale(0.015625)"/>
      <path id="DejaVuSans-2192" d="M 5050 2147 
L 5050 1866 
L 3822 638 
L 3447 1013 
L 4175 1741 
L 366 1741 
L 366 2272 
L 4175 2272 
L 3447 3000 
L 3822 3375 
L 5050 2147 
z
" transform="scale(0.015625)"/>
      <path id="DejaVuSans-28" d="M 1984 4856 
Q 1566 4138 1362 3434 
Q 1159 2731 1159 2009 
Q 1159 1288 1364 580 
Q 1569 -128 1984 -844 
L 1484 -844 
Q 1016 -109 783 600 
Q 550 1309 550 2009 
Q 550 2706 781 3412 
Q 1013 4119 1484 4856 
L 1984 4856 
z
" transform="scale(0.015625)"/>
      <path id="DejaVuSans-2d" d="M 313 2009 
L 1997 2009 
L 1997 1497 
L 313 1497 
L 313 2009 
z
" transform="scale(0.015625)"/>
      <path id="DejaVuSans-29" d="M 513 4856 
L 1013 4856 
Q 1481 4119 1714 3412 
Q 1947 2706 1947 2009 
Q 1947 1309 1714 600 
Q 1481 -109 1013 -844 
L 513 -844 
Q 928 -128 1133 580 
Q 1338 1288 1338 2009 
Q 1338 2731 1133 3434 
Q 928 4138 513 4856 
z
" transform="scale(0.015625)"/>
      <path id="DejaVuSans-b7" d="M 684 2619 
L 1344 2619 
L 1344 1825 
L 684 1825 
L 684 2619 
z
" transform="scale(0.015625)"/>
      <path id="DejaVuSans-62" d="M 3116 1747 
Q 3116 2381 2855 2742 
Q 2594 3103 2138 3103 
Q 1681 3103 1420 2742 
Q 1159 2381 1159 1747 
Q 1159 1113 1420 752 
Q 1681 391 2138 391 
Q 2594 391 2855 752 
Q 3116 1113 3116 1747 
z
M 1159 2969 
Q 1341 3281 1617 3432 
Q 1894 3584 2278 3584 
Q 2916 3584 3314 3078 
Q 3713 2572 3713 1747 
Q 3713 922 3314 415 
Q 2916 -91 2278 -91 
Q 1894 -91 1617 61 
Q 1341 213 1159 525 
L 1159 0 
L 581 0 
L 581 4863 
L 1159 4863 
L 1159 2969 
z
" transform="scale(0.015625)"/>
      <path id="DejaVuSans-6d" d="M 3328 2828 
Q 3544 3216 3844 3400 
Q 4144 3584 4550 3584 
Q 5097 3584 5394 3201 
Q 5691 2819 5691 2113 
L 5691 0 
L 5113 0 
L 5113 2094 
Q 5113 2597 4934 2840 
Q 4756 3084 4391 3084 
Q 3944 3084 3684 2787 
Q 3425 2491 3425 1978 
L 3425 0 
L 2847 0 
L 2847 2094 
Q 2847 2600 2669 2842 
Q 2491 3084 2119 3084 
Q 1678 3084 1418 2786 
Q 1159 2488 1159 1978 
L 1159 0 
L 581 0 
L 581 3500 
L 1159 3500 
L 1159 2956 
Q 1356 3278 1631 3431 
Q 1906 3584 2284 3584 
Q 2666 3584 2933 3390 
Q 3200 3197 3328 2828 
z
" transform="scale(0.015625)"/>
     </defs>
     <use xlink:href="#DejaVuSans-66"/>
     <use xlink:href="#DejaVuSans-6f" transform="translate(35.205078 0)"/>
     <use xlink:href="#DejaVuSans-6c" transform="translate(96.386719 0)"/>
     <use xlink:href="#DejaVuSans-64" transform="translate(124.169922 0)"/>
     <use xlink:href="#DejaVuSans-65" transform="translate(187.646484 0)"/>
     <use xlink:href="#DejaVuSans-64" transform="translate(249.169922 0)"/>
     <use xlink:href="#DejaVuSans-3a" transform="translate(312.646484 0)"/>
     <use xlink:href="#DejaVuSans-20" transform="translate(346.337891 0)"/>
     <use xlink:href="#DejaVuSans-65" transform="translate(378.125 0)"/>
     <use xlink:href="#DejaVuSans-76" transform="translate(439.648438 0)"/>
     <use xlink:href="#DejaVuSans-65" transform="translate(498.828125 0)"/>
     <use xlink:href="#DejaVuSans-6e" transform="translate(560.351562 0)"/>
     <use xlink:href="#DejaVuSans-20" transform="translate(623.730469 0)"/>
     <use xlink:href="#DejaVuSans-6b" transform="translate(655.517578 0)"/>
     <use xlink:href="#DejaVuSans-20" transform="translate(713.427734 0)"/>
     <use xlink:href="#DejaVuSans-2192" transform="translate(745.214844 0)"/>
     <use xlink:href="#DejaVuSans-20" transform="translate(829.003906 0)"/>
     <use xlink:href="#DejaVuSans-74" transform="translate(860.791016 0)"/>
     <use xlink:href="#DejaVuSans-6f" transform="translate(900 0)"/>
     <use xlink:href="#DejaVuSans-70" transform="translate(961.181641 0)"/>
     <use xlink:href="#DejaVuSans-20" transform="translate(1024.658203 0)"/>
     <use xlink:href="#DejaVuSans-73" transform="translate(1056.445312 0)"/>
     <use xlink:href="#DejaVuSans-74" transform="translate(1108.544922 0)"/>
     <use xlink:href="#DejaVuSans-61" transform="translate(1147.753906 0)"/>
     <use xlink:href="#DejaVuSans-63" transform="translate(1209.033203 0)"/>
     <use xlink:href="#DejaVuSans-6b" transform="translate(1264.013672 0)"/>
     <use xlink:href="#DejaVuSans-20" transform="translate(1321.923828 0)"/>
     <use xlink:href="#DejaVuSans-28" transform="translate(1353.710938 0)"/>
     <use xlink:href="#DejaVuSans-66" transform="translate(1392.724609 0)"/>
     <use xlink:href="#DejaVuSans-61" transform="translate(1427.929688 0)"/>
     <use xlink:href="#DejaVuSans-63" transform="translate(1489.208984 0)"/>
     <use xlink:href="#DejaVuSans-65" transform="translate(1544.189453 0)"/>
     <use xlink:href="#DejaVuSans-2d" transform="translate(1605.712891 0)"/>
     <use xlink:href="#DejaVuSans-75" transform="translate(1641.796875 0)"/>
     <use xlink:href="#DejaVuSans-70" transform="translate(1705.175781 0)"/>
     <use xlink:href="#DejaVuSans-29" transform="translate(1768.652344 0)"/>
     <use xlink:href="#DejaVuSans-20" transform="translate(1807.666016 0)"/>
     <use xlink:href="#DejaVuSans-b7" transform="translate(1839.453125 0)"/>
     <use xlink:href="#DejaVuSans-20" transform="translate(1871.240234 0)"/>
     <use xlink:href="#DejaVuSans-6f" transform="translate(1903.027344 0)"/>
     <use xlink:href="#DejaVuSans-64" transform="translate(1964.208984 0)"/>
     <use xlink:href="#DejaVuSans-64" transform="translate(2027.685547 0)"/>
     <use xlink:href="#DejaVuSans-20" transform="translate(2091.162109 0)"/>
     <use xlink:href="#DejaVuSans-6b" transform="translate(2122.949219 0)"/>
     <use xlink:href="#DejaVuSans-20" transform="translate(2180.859375 0)"/>
     <use xlink:href="#DejaVuSans-2192" transform="translate(2212.646484 0)"/>
     <use xlink:href="#DejaVuSans-20" transform="translate(2296.435547 0)"/>
     <use xlink:href="#DejaVuSans-62" transform="translate(2328.222656 0)"/>
     <use xlink:href="#DejaVuSans-6f" transform="translate(2391.699219 0)"/>
     <use xlink:href="#DejaVuSans-74" transform="translate(2452.880859 0)"/>
     <use xlink:href="#DejaVuSans-74" transform="translate(2492.089844 0)"/>
     <use xlink:href="#DejaVuSans-6f" transform="translate(2531.298828 0)"/>
     <use xlink:href="#DejaVuSans-6d" transform="translate(2592.480469 0)"/>
     <use xlink:href="#DejaVuSans-20" transform="translate(2689.892578 0)"/>
     <use xlink:href="#DejaVuSans-73" transform="translate(2721.679688 0)"/>
     <use xlink:href="#DejaVuSans-74" transform="translate(2773.779297 0)"/>
     <use xlink:href="#DejaVuSans-61" transform="translate(2812.988281 0)"/>
     <use xlink:href="#DejaVuSans-63" transform="translate(2874.267578 0)"/>
     <use xlink:href="#DejaVuSans-6b" transform="translate(2929.248047 0)"/>
     <use xlink:href="#DejaVuSans-20" transform="translate(2987.158203 0)"/>
     <use xlink:href="#DejaVuSans-28" transform="translate(3018.945312 0)"/>
     <use xlink:href="#DejaVuSans-66" transform="translate(3057.958984 0)"/>
     <use xlink:href="#DejaVuSans-61" transform="translate(3093.164062 0)"/>
     <use xlink:href="#DejaVuSans-63" transform="translate(3154.443359 0)"/>
     <use xlink:href="#DejaVuSans-65" transform="translate(3209.423828 0)"/>
     <use xlink:href="#DejaVuSans-2d" transform="translate(3270.947266 0)"/>
     <use xlink:href="#DejaVuSans-64" transform="translate(3307.03125 0)"/>
     <use xlink:href="#DejaVuSans-6f" transform="translate(3370.507812 0)"/>
     <use xlink:href="#DejaVuSans-77" transform="translate(3431.689453 0)"/>
     <use xlink:href="#DejaVuSans-6e" transform="translate(3513.476562 0)"/>
     <use xlink:href="#DejaVuSans-29" transform="translate(3576.855469 0)"/>
    </g>
   </g>
   <g id="text_16">
    <!-- $\det=(-1)^k$  →  the two stacks ARE the even/odd classes -->
    <g style="fill: #222222" transform="translate(41.218438 204.168156) scale(0.11 -0.11)">
     <defs>
      <path id="DejaVuSans-2212" d="M 678 2272 
L 4684 2272 
L 4684 1741 
L 678 1741 
L 678 2272 
z
" transform="scale(0.015625)"/>
      <path id="DejaVuSans-41" d="M 2188 4044 
L 1331 1722 
L 3047 1722 
L 2188 4044 
z
M 1831 4666 
L 2547 4666 
L 4325 0 
L 3669 0 
L 3244 1197 
L 1141 1197 
L 716 0 
L 50 0 
L 1831 4666 
z
" transform="scale(0.015625)"/>
      <path id="DejaVuSans-52" d="M 2841 2188 
Q 3044 2119 3236 1894 
Q 3428 1669 3622 1275 
L 4263 0 
L 3584 0 
L 2988 1197 
Q 2756 1666 2539 1819 
Q 2322 1972 1947 1972 
L 1259 1972 
L 1259 0 
L 628 0 
L 628 4666 
L 2053 4666 
Q 2853 4666 3247 4331 
Q 3641 3997 3641 3322 
Q 3641 2881 3436 2590 
Q 3231 2300 2841 2188 
z
M 1259 4147 
L 1259 2491 
L 2053 2491 
Q 2509 2491 2742 2702 
Q 2975 2913 2975 3322 
Q 2975 3731 2742 3939 
Q 2509 4147 2053 4147 
L 1259 4147 
z
" transform="scale(0.015625)"/>
      <path id="DejaVuSans-45" d="M 628 4666 
L 3578 4666 
L 3578 4134 
L 1259 4134 
L 1259 2753 
L 3481 2753 
L 3481 2222 
L 1259 2222 
L 1259 531 
L 3634 531 
L 3634 0 
L 628 0 
L 628 4666 
z
" transform="scale(0.015625)"/>
      <path id="DejaVuSans-2f" d="M 1625 4666 
L 2156 4666 
L 531 -594 
L 0 -594 
L 1625 4666 
z
" transform="scale(0.015625)"/>
     </defs>
     <use xlink:href="#DejaVuSans-64" transform="translate(0 0.529687)"/>
     <use xlink:href="#DejaVuSans-65" transform="translate(63.476562 0.529687)"/>
     <use xlink:href="#DejaVuSans-74" transform="translate(125 0.529687)"/>
     <use xlink:href="#DejaVuSans-3d" transform="translate(199.927083 0.529687)"/>
     <use xlink:href="#DejaVuSans-28" transform="translate(303.198567 0.529687)"/>
     <use xlink:href="#DejaVuSans-2212" transform="translate(342.212239 0.529687)"/>
     <use xlink:href="#DejaVuSans-31" transform="translate(426.001301 0.529687)"/>
     <use xlink:href="#DejaVuSans-29" transform="translate(489.624348 0.529687)"/>
     <use xlink:href="#DejaVuSans-Oblique-6b" transform="translate(529.595051 38.810937) scale(0.7)"/>
     <use xlink:href="#DejaVuSans-20" transform="translate(572.866536 0.529687)"/>
     <use xlink:href="#DejaVuSans-20" transform="translate(604.653645 0.529687)"/>
     <use xlink:href="#DejaVuSans-2192" transform="translate(636.440754 0.529687)"/>
     <use xlink:href="#DejaVuSans-20" transform="translate(720.229817 0.529687)"/>
     <use xlink:href="#DejaVuSans-20" transform="translate(752.016926 0.529687)"/>
     <use xlink:href="#DejaVuSans-74" transform="translate(783.804036 0.529687)"/>
     <use xlink:href="#DejaVuSans-68" transform="translate(823.01302 0.529687)"/>
     <use xlink:href="#DejaVuSans-65" transform="translate(886.391926 0.529687)"/>
     <use xlink:href="#DejaVuSans-20" transform="translate(947.915364 0.529687)"/>
     <use xlink:href="#DejaVuSans-74" transform="translate(979.702473 0.529687)"/>
     <use xlink:href="#DejaVuSans-77" transform="translate(1018.911458 0.529687)"/>
     <use xlink:href="#DejaVuSans-6f" transform="translate(1100.698567 0.529687)"/>
     <use xlink:href="#DejaVuSans-20" transform="translate(1161.880208 0.529687)"/>
     <use xlink:href="#DejaVuSans-73" transform="translate(1193.667317 0.529687)"/>
     <use xlink:href="#DejaVuSans-74" transform="translate(1245.766926 0.529687)"/>
     <use xlink:href="#DejaVuSans-61" transform="translate(1284.975911 0.529687)"/>
     <use xlink:href="#DejaVuSans-63" transform="translate(1346.255208 0.529687)"/>
     <use xlink:href="#DejaVuSans-6b" transform="translate(1401.235676 0.529687)"/>
     <use xlink:href="#DejaVuSans-73" transform="translate(1459.145833 0.529687)"/>
     <use xlink:href="#DejaVuSans-20" transform="translate(1511.245442 0.529687)"/>
     <use xlink:href="#DejaVuSans-41" transform="translate(1543.032551 0.529687)"/>
     <use xlink:href="#DejaVuSans-52" transform="translate(1611.440754 0.529687)"/>
     <use xlink:href="#DejaVuSans-45" transform="translate(1680.923176 0.529687)"/>
     <use xlink:href="#DejaVuSans-20" transform="translate(1744.10677 0.529687)"/>
     <use xlink:href="#DejaVuSans-74" transform="translate(1775.893879 0.529687)"/>
     <use xlink:href="#DejaVuSans-68" transform="translate(1815.102864 0.529687)"/>
     <use xlink:href="#DejaVuSans-65" transform="translate(1878.48177 0.529687)"/>
     <use xlink:href="#DejaVuSans-20" transform="translate(1940.005208 0.529687)"/>
     <use xlink:href="#DejaVuSans-65" transform="translate(1971.792317 0.529687)"/>
     <use xlink:href="#DejaVuSans-76" transform="translate(2033.315754 0.529687)"/>
     <use xlink:href="#DejaVuSans-65" transform="translate(2092.495442 0.529687)"/>
     <use xlink:href="#DejaVuSans-6e" transform="translate(2154.018879 0.529687)"/>
     <use xlink:href="#DejaVuSans-2f" transform="translate(2217.397786 0.529687)"/>
     <use xlink:href="#DejaVuSans-6f" transform="translate(2251.089192 0.529687)"/>
     <use xlink:href="#DejaVuSans-64" transform="translate(2312.270833 0.529687)"/>
     <use xlink:href="#DejaVuSans-64" transform="translate(2375.747395 0.529687)"/>
     <use xlink:href="#DejaVuSans-20" transform="translate(2439.223958 0.529687)"/>
     <use xlink:href="#DejaVuSans-63" transform="translate(2471.011067 0.529687)"/>
     <use xlink:href="#DejaVuSans-6c" transform="translate(2525.991536 0.529687)"/>
     <use xlink:href="#DejaVuSans-61" transform="translate(2553.774739 0.529687)"/>
     <use xlink:href="#DejaVuSans-73" transform="translate(2615.054036 0.529687)"/>
     <use xlink:href="#DejaVuSans-73" transform="translate(2667.153645 0.529687)"/>
     <use xlink:href="#DejaVuSans-65" transform="translate(2719.253254 0.529687)"/>
     <use xlink:href="#DejaVuSans-73" transform="translate(2780.776692 0.529687)"/>
    </g>
   </g>
  </g>
 </g>
 <defs>
  <clipPath id="p8b463c90a9">
   <rect x="44.441438" y="27.837812" width="314.16" height="188.496"/>
  </clipPath>
 </defs>
</svg>
