<?xml version="1.0" encoding="utf-8" standalone="no"?>
<!DOCTYPE svg PUBLIC "-//W3C//DTD SVG 1.1//EN"
  "http://www.w3.org/Graphics/SVG/1.1/DTD/svg11.dtd">
<svg xmlns:xlink="http://www.w3.org/1999/xlink" width="583.56pt" height="216.828pt" viewBox="0 0 583.56 216.828" xmlns="http://www.w3.org/2000/svg" version="1.1">
 <metadata>
  <rdf:RDF xmlns:dc="http://purl.org/dc/elements/1.1/" xmlns:cc="http://creativecommons.org/ns#" xmlns:rdf="http://www.w3.org/1999/02/22-rdf-syntax-ns#">
   <cc:Work>
    <dc:type rdf:resource="http://purl.org/dc/dcmitype/StillImage"/>
    <dc:date>2026-06-03T14:06:03.088108</dc:date>
    <dc:format>image/svg+xml</dc:format>
    <dc:creator>
     <cc:Agent>
      <dc:title>Matplotlib v3.10.9, https://matplotlib.org/</dc:title>
     </cc:Agent>
    </dc:creator>
   </cc:Work>
  </rdf:RDF>
 </metadata>
 <defs>
  <style type="text/css">*{stroke-linejoin: round; stroke-linecap: butt}</style>
 </defs>
 <g id="figure_1">
  <g id="patch_1">
   <path d="M 0 216.828 
L 583.56 216.828 
L 583.56 0 
L 0 0 
z
" style="fill: #ffffff"/>
  </g>
  <g id="axes_1">
   <g id="line2d_1">
    <path d="M 148.44375 125.928 
L 148.363558 122.891109 
L 148.123204 119.862682 
L 147.723359 116.85116 
L 147.165137 113.864937 
L 146.450094 110.912335 
L 145.580223 108.001586 
L 144.557949 105.1408 
L 143.38612 102.337952 
L 142.068003 99.600853 
L 140.607271 96.937134 
L 139.007997 94.354216 
L 137.274637 91.859301 
L 135.412022 89.459341 
L 133.425344 87.161026 
L 131.320141 84.970762 
L 129.102279 82.894652 
L 126.777941 80.938485 
L 124.353605 79.107711 
L 121.836027 77.407433 
L 119.232225 75.842392 
L 116.549457 74.416947 
L 113.795198 73.135074 
L 110.977126 72.000343 
L 108.103096 71.015919 
L 105.181118 70.184545 
L 102.219336 69.508537 
L 99.226005 68.989781 
L 96.209467 68.629721 
L 93.178132 68.429363 
L 90.140446 68.389263 
L 87.104878 68.509534 
L 84.079887 68.789841 
L 81.073906 69.229402 
L 78.095311 69.826992 
L 75.152405 70.580946 
L 72.253391 71.489162 
L 69.406348 72.549108 
L 66.619212 73.757831 
L 63.899751 75.111962 
L 61.255544 76.607726 
L 58.693961 78.240955 
L 56.222143 80.007096 
L 53.846978 81.901227 
L 51.575087 83.918068 
L 49.412801 86.051999 
L 47.366147 88.297071 
L 45.44083 90.647027 
L 43.642216 93.095318 
L 41.975318 95.635119 
L 40.444781 98.259352 
L 39.054873 100.960703 
L 37.809466 103.731641 
L 36.712032 106.564445 
L 35.765629 109.451219 
L 34.972896 112.383916 
L 34.336042 115.354364 
L 33.856841 118.354282 
L 33.53663 121.375309 
L 33.376302 124.409025 
L 33.376302 127.446975 
L 33.53663 130.480691 
L 33.856841 133.501718 
L 34.336042 136.501636 
L 34.972896 139.472084 
L 35.765629 142.404781 
L 36.712032 145.291555 
L 37.809466 148.124359 
L 39.054873 150.895297 
L 40.444781 153.596648 
L 41.975318 156.220881 
L 43.642216 158.760682 
L 45.44083 161.208973 
L 47.366147 163.558929 
L 49.412801 165.804001 
L 51.575087 167.937932 
L 53.846978 169.954773 
L 56.222143 171.848904 
L 58.693961 173.615045 
L 61.255544 175.248274 
L 63.899751 176.744038 
L 66.619212 178.098169 
L 69.406348 179.306892 
L 72.253391 180.366838 
L 75.152405 181.275054 
L 78.095311 182.029008 
L 81.073906 182.626598 
L 84.079887 183.066159 
L 87.104878 183.346466 
L 90.140446 183.466737 
L 93.178132 183.426637 
L 96.209467 183.226279 
L 99.226005 182.866219 
L 102.219336 182.347463 
L 105.181118 181.671455 
L 108.103096 180.840081 
L 110.977126 179.855657 
L 113.795198 178.720926 
L 116.549457 177.439053 
L 119.232225 176.013608 
L 121.836027 174.448567 
L 124.353605 172.748289 
L 126.777941 170.917515 
L 129.102279 168.961348 
L 131.320141 166.885238 
L 133.425344 164.694974 
L 135.412022 162.396659 
L 137.274637 159.996699 
L 139.007997 157.501784 
L 140.607271 154.918866 
L 142.068003 152.255147 
L 143.38612 149.518048 
L 144.557949 146.7152 
L 145.580223 143.854414 
L 146.450094 140.943665 
L 147.165137 137.991063 
L 147.723359 135.00484 
L 148.123204 131.993318 
L 148.363558 128.964891 
L 148.44375 125.928 
" clip-path="url(#pb05f0e4b32)" style="fill: none; stroke: #3399cc; stroke-width: 2.8; stroke-linecap: square"/>
   </g>
   <g id="text_1">
    <!-- 2-stack: simple loop -->
    <g transform="translate(35.562266 23.910406) scale(0.11 -0.11)">
     <defs>
      <path id="DejaVuSans-32" d="M 1228 531 
L 3431 531 
L 3431 0 
L 469 0 
L 469 531 
Q 828 903 1448 1529 
Q 2069 2156 2228 2338 
Q 2531 2678 2651 2914 
Q 2772 3150 2772 3378 
Q 2772 3750 2511 3984 
Q 2250 4219 1831 4219 
Q 1534 4219 1204 4116 
Q 875 4013 500 3803 
L 500 4441 
Q 881 4594 1212 4672 
Q 1544 4750 1819 4750 
Q 2544 4750 2975 4387 
Q 3406 4025 3406 3419 
Q 3406 3131 3298 2873 
Q 3191 2616 2906 2266 
Q 2828 2175 2409 1742 
Q 1991 1309 1228 531 
z
" transform="scale(0.015625)"/>
      <path id="DejaVuSans-2d" d="M 313 2009 
L 1997 2009 
L 1997 1497 
L 313 1497 
L 313 2009 
z
" transform="scale(0.015625)"/>
      <path id="DejaVuSans-73" d="M 2834 3397 
L 2834 2853 
Q 2591 2978 2328 3040 
Q 2066 3103 1784 3103 
Q 1356 3103 1142 2972 
Q 928 2841 928 2578 
Q 928 2378 1081 2264 
Q 1234 2150 1697 2047 
L 1894 2003 
Q 2506 1872 2764 1633 
Q 3022 1394 3022 966 
Q 3022 478 2636 193 
Q 2250 -91 1575 -91 
Q 1294 -91 989 -36 
Q 684 19 347 128 
L 347 722 
Q 666 556 975 473 
Q 1284 391 1588 391 
Q 1994 391 2212 530 
Q 2431 669 2431 922 
Q 2431 1156 2273 1281 
Q 2116 1406 1581 1522 
L 1381 1569 
Q 847 1681 609 1914 
Q 372 2147 372 2553 
Q 372 3047 722 3315 
Q 1072 3584 1716 3584 
Q 2034 3584 2315 3537 
Q 2597 3491 2834 3397 
z
" transform="scale(0.015625)"/>
      <path id="DejaVuSans-74" d="M 1172 4494 
L 1172 3500 
L 2356 3500 
L 2356 3053 
L 1172 3053 
L 1172 1153 
Q 1172 725 1289 603 
Q 1406 481 1766 481 
L 2356 481 
L 2356 0 
L 1766 0 
Q 1100 0 847 248 
Q 594 497 594 1153 
L 594 3053 
L 172 3053 
L 172 3500 
L 594 3500 
L 594 4494 
L 1172 4494 
z
" transform="scale(0.015625)"/>
      <path id="DejaVuSans-61" d="M 2194 1759 
Q 1497 1759 1228 1600 
Q 959 1441 959 1056 
Q 959 750 1161 570 
Q 1363 391 1709 391 
Q 2188 391 2477 730 
Q 2766 1069 2766 1631 
L 2766 1759 
L 2194 1759 
z
M 3341 1997 
L 3341 0 
L 2766 0 
L 2766 531 
Q 2569 213 2275 61 
Q 1981 -91 1556 -91 
Q 1019 -91 701 211 
Q 384 513 384 1019 
Q 384 1609 779 1909 
Q 1175 2209 1959 2209 
L 2766 2209 
L 2766 2266 
Q 2766 2663 2505 2880 
Q 2244 3097 1772 3097 
Q 1472 3097 1187 3025 
Q 903 2953 641 2809 
L 641 3341 
Q 956 3463 1253 3523 
Q 1550 3584 1831 3584 
Q 2591 3584 2966 3190 
Q 3341 2797 3341 1997 
z
" transform="scale(0.015625)"/>
      <path id="DejaVuSans-63" d="M 3122 3366 
L 3122 2828 
Q 2878 2963 2633 3030 
Q 2388 3097 2138 3097 
Q 1578 3097 1268 2742 
Q 959 2388 959 1747 
Q 959 1106 1268 751 
Q 1578 397 2138 397 
Q 2388 397 2633 464 
Q 2878 531 3122 666 
L 3122 134 
Q 2881 22 2623 -34 
Q 2366 -91 2075 -91 
Q 1284 -91 818 406 
Q 353 903 353 1747 
Q 353 2603 823 3093 
Q 1294 3584 2113 3584 
Q 2378 3584 2631 3529 
Q 2884 3475 3122 3366 
z
" transform="scale(0.015625)"/>
      <path id="DejaVuSans-6b" d="M 581 4863 
L 1159 4863 
L 1159 1991 
L 2875 3500 
L 3609 3500 
L 1753 1863 
L 3688 0 
L 2938 0 
L 1159 1709 
L 1159 0 
L 581 0 
L 581 4863 
z
" transform="scale(0.015625)"/>
      <path id="DejaVuSans-3a" d="M 750 794 
L 1409 794 
L 1409 0 
L 750 0 
L 750 794 
z
M 750 3309 
L 1409 3309 
L 1409 2516 
L 750 2516 
L 750 3309 
z
" transform="scale(0.015625)"/>
      <path id="DejaVuSans-20" transform="scale(0.015625)"/>
      <path id="DejaVuSans-69" d="M 603 3500 
L 1178 3500 
L 1178 0 
L 603 0 
L 603 3500 
z
M 603 4863 
L 1178 4863 
L 1178 4134 
L 603 4134 
L 603 4863 
z
" transform="scale(0.015625)"/>
      <path id="DejaVuSans-6d" d="M 3328 2828 
Q 3544 3216 3844 3400 
Q 4144 3584 4550 3584 
Q 5097 3584 5394 3201 
Q 5691 2819 5691 2113 
L 5691 0 
L 5113 0 
L 5113 2094 
Q 5113 2597 4934 2840 
Q 4756 3084 4391 3084 
Q 3944 3084 3684 2787 
Q 3425 2491 3425 1978 
L 3425 0 
L 2847 0 
L 2847 2094 
Q 2847 2600 2669 2842 
Q 2491 3084 2119 3084 
Q 1678 3084 1418 2786 
Q 1159 2488 1159 1978 
L 1159 0 
L 581 0 
L 581 3500 
L 1159 3500 
L 1159 2956 
Q 1356 3278 1631 3431 
Q 1906 3584 2284 3584 
Q 2666 3584 2933 3390 
Q 3200 3197 3328 2828 
z
" transform="scale(0.015625)"/>
      <path id="DejaVuSans-70" d="M 1159 525 
L 1159 -1331 
L 581 -1331 
L 581 3500 
L 1159 3500 
L 1159 2969 
Q 1341 3281 1617 3432 
Q 1894 3584 2278 3584 
Q 2916 3584 3314 3078 
Q 3713 2572 3713 1747 
Q 3713 922 3314 415 
Q 2916 -91 2278 -91 
Q 1894 -91 1617 61 
Q 1341 213 1159 525 
z
M 3116 1747 
Q 3116 2381 2855 2742 
Q 2594 3103 2138 3103 
Q 1681 3103 1420 2742 
Q 1159 2381 1159 1747 
Q 1159 1113 1420 752 
Q 1681 391 2138 391 
Q 2594 391 2855 752 
Q 3116 1113 3116 1747 
z
" transform="scale(0.015625)"/>
      <path id="DejaVuSans-6c" d="M 603 4863 
L 1178 4863 
L 1178 0 
L 603 0 
L 603 4863 
z
" transform="scale(0.015625)"/>
      <path id="DejaVuSans-65" d="M 3597 1894 
L 3597 1613 
L 953 1613 
Q 991 1019 1311 708 
Q 1631 397 2203 397 
Q 2534 397 2845 478 
Q 3156 559 3463 722 
L 3463 178 
Q 3153 47 2828 -22 
Q 2503 -91 2169 -91 
Q 1331 -91 842 396 
Q 353 884 353 1716 
Q 353 2575 817 3079 
Q 1281 3584 2069 3584 
Q 2775 3584 3186 3129 
Q 3597 2675 3597 1894 
z
M 3022 2063 
Q 3016 2534 2758 2815 
Q 2500 3097 2075 3097 
Q 1594 3097 1305 2825 
Q 1016 2553 972 2059 
L 3022 2063 
z
" transform="scale(0.015625)"/>
      <path id="DejaVuSans-6f" d="M 1959 3097 
Q 1497 3097 1228 2736 
Q 959 2375 959 1747 
Q 959 1119 1226 758 
Q 1494 397 1959 397 
Q 2419 397 2687 759 
Q 2956 1122 2956 1747 
Q 2956 2369 2687 2733 
Q 2419 3097 1959 3097 
z
M 1959 3584 
Q 2709 3584 3137 3096 
Q 3566 2609 3566 1747 
Q 3566 888 3137 398 
Q 2709 -91 1959 -91 
Q 1206 -91 779 398 
Q 353 888 353 1747 
Q 353 2609 779 3096 
Q 1206 3584 1959 3584 
z
" transform="scale(0.015625)"/>
     </defs>
     <use xlink:href="#DejaVuSans-32"/>
     <use xlink:href="#DejaVuSans-2d" transform="translate(63.623047 0)"/>
     <use xlink:href="#DejaVuSans-73" transform="translate(99.707031 0)"/>
     <use xlink:href="#DejaVuSans-74" transform="translate(151.806641 0)"/>
     <use xlink:href="#DejaVuSans-61" transform="translate(191.015625 0)"/>
     <use xlink:href="#DejaVuSans-63" transform="translate(252.294922 0)"/>
     <use xlink:href="#DejaVuSans-6b" transform="translate(307.275391 0)"/>
     <use xlink:href="#DejaVuSans-3a" transform="translate(365.185547 0)"/>
     <use xlink:href="#DejaVuSans-20" transform="translate(398.876953 0)"/>
     <use xlink:href="#DejaVuSans-73" transform="translate(430.664062 0)"/>
     <use xlink:href="#DejaVuSans-69" transform="translate(482.763672 0)"/>
     <use xlink:href="#DejaVuSans-6d" transform="translate(510.546875 0)"/>
     <use xlink:href="#DejaVuSans-70" transform="translate(607.958984 0)"/>
     <use xlink:href="#DejaVuSans-6c" transform="translate(671.435547 0)"/>
     <use xlink:href="#DejaVuSans-65" transform="translate(699.21875 0)"/>
     <use xlink:href="#DejaVuSans-20" transform="translate(760.742188 0)"/>
     <use xlink:href="#DejaVuSans-6c" transform="translate(792.529297 0)"/>
     <use xlink:href="#DejaVuSans-6f" transform="translate(820.3125 0)"/>
     <use xlink:href="#DejaVuSans-6f" transform="translate(881.494141 0)"/>
     <use xlink:href="#DejaVuSans-70" transform="translate(942.675781 0)"/>
    </g>
    <!-- (rank 1) -->
    <g transform="translate(69.058984 36.228) scale(0.11 -0.11)">
     <defs>
      <path id="DejaVuSans-28" d="M 1984 4856 
Q 1566 4138 1362 3434 
Q 1159 2731 1159 2009 
Q 1159 1288 1364 580 
Q 1569 -128 1984 -844 
L 1484 -844 
Q 1016 -109 783 600 
Q 550 1309 550 2009 
Q 550 2706 781 3412 
Q 1013 4119 1484 4856 
L 1984 4856 
z
" transform="scale(0.015625)"/>
      <path id="DejaVuSans-72" d="M 2631 2963 
Q 2534 3019 2420 3045 
Q 2306 3072 2169 3072 
Q 1681 3072 1420 2755 
Q 1159 2438 1159 1844 
L 1159 0 
L 581 0 
L 581 3500 
L 1159 3500 
L 1159 2956 
Q 1341 3275 1631 3429 
Q 1922 3584 2338 3584 
Q 2397 3584 2469 3576 
Q 2541 3569 2628 3553 
L 2631 2963 
z
" transform="scale(0.015625)"/>
      <path id="DejaVuSans-6e" d="M 3513 2113 
L 3513 0 
L 2938 0 
L 2938 2094 
Q 2938 2591 2744 2837 
Q 2550 3084 2163 3084 
Q 1697 3084 1428 2787 
Q 1159 2491 1159 1978 
L 1159 0 
L 581 0 
L 581 3500 
L 1159 3500 
L 1159 2956 
Q 1366 3272 1645 3428 
Q 1925 3584 2291 3584 
Q 2894 3584 3203 3211 
Q 3513 2838 3513 2113 
z
" transform="scale(0.015625)"/>
      <path id="DejaVuSans-31" d="M 794 531 
L 1825 531 
L 1825 4091 
L 703 3866 
L 703 4441 
L 1819 4666 
L 2450 4666 
L 2450 531 
L 3481 531 
L 3481 0 
L 794 0 
L 794 531 
z
" transform="scale(0.015625)"/>
      <path id="DejaVuSans-29" d="M 513 4856 
L 1013 4856 
Q 1481 4119 1714 3412 
Q 1947 2706 1947 2009 
Q 1947 1309 1714 600 
Q 1481 -109 1013 -844 
L 513 -844 
Q 928 -128 1133 580 
Q 1338 1288 1338 2009 
Q 1338 2731 1133 3434 
Q 928 4138 513 4856 
z
" transform="scale(0.015625)"/>
     </defs>
     <use xlink:href="#DejaVuSans-28"/>
     <use xlink:href="#DejaVuSans-72" transform="translate(39.013672 0)"/>
     <use xlink:href="#DejaVuSans-61" transform="translate(80.126953 0)"/>
     <use xlink:href="#DejaVuSans-6e" transform="translate(141.40625 0)"/>
     <use xlink:href="#DejaVuSans-6b" transform="translate(204.785156 0)"/>
     <use xlink:href="#DejaVuSans-20" transform="translate(262.695312 0)"/>
     <use xlink:href="#DejaVuSans-31" transform="translate(294.482422 0)"/>
     <use xlink:href="#DejaVuSans-29" transform="translate(358.105469 0)"/>
    </g>
   </g>
   <g id="patch_2">
    <path d="M 148.44375 131.15925 
C 149.831094 131.15925 151.161802 130.608052 152.142802 129.627052 
C 153.123802 128.646052 153.675 127.315344 153.675 125.928 
C 153.675 124.540656 153.123802 123.209948 152.142802 122.228948 
C 151.161802 121.247948 149.831094 120.69675 148.44375 120.69675 
C 147.056406 120.69675 145.725698 121.247948 144.744698 122.228948 
C 143.763698 123.209948 143.2125 124.540656 143.2125 125.928 
C 143.2125 127.315344 143.763698 128.646052 144.744698 129.627052 
C 145.725698 130.608052 147.056406 131.15925 148.44375 131.15925 
z
" clip-path="url(#pb05f0e4b32)" style="fill: #333333; stroke: #ffffff; stroke-linejoin: miter"/>
   </g>
   <g id="patch_3">
    <path d="M 131.589576 90.469674 
C 132.97692 90.469674 134.307628 89.918477 135.288628 88.937477 
C 136.269628 87.956476 136.820826 86.625768 136.820826 85.238424 
C 136.820826 83.85108 136.269628 82.520372 135.288628 81.539372 
C 134.307628 80.558372 132.97692 80.007174 131.589576 80.007174 
C 130.202232 80.007174 128.871524 80.558372 127.890523 81.539372 
C 126.909523 82.520372 126.358326 83.85108 126.358326 85.238424 
C 126.358326 86.625768 126.909523 87.956476 127.890523 88.937477 
C 128.871524 89.918477 130.202232 90.469674 131.589576 90.469674 
z
" clip-path="url(#pb05f0e4b32)" style="fill: #333333; stroke: #ffffff; stroke-linejoin: miter"/>
   </g>
   <g id="patch_4">
    <path d="M 90.9 73.6155 
C 92.287344 73.6155 93.618052 73.064302 94.599052 72.083302 
C 95.580052 71.102302 96.13125 69.771594 96.13125 68.38425 
C 96.13125 66.996906 95.580052 65.666198 94.599052 64.685198 
C 93.618052 63.704198 92.287344 63.153 90.9 63.153 
C 89.512656 63.153 88.181948 63.704198 87.200948 64.685198 
C 86.219948 65.666198 85.66875 66.996906 85.66875 68.38425 
C 85.66875 69.771594 86.219948 71.102302 87.200948 72.083302 
C 88.181948 73.064302 89.512656 73.6155 90.9 73.6155 
z
" clip-path="url(#pb05f0e4b32)" style="fill: #333333; stroke: #ffffff; stroke-linejoin: miter"/>
   </g>
   <g id="patch_5">
    <path d="M 50.210424 90.469674 
C 51.597768 90.469674 52.928476 89.918477 53.909477 88.937477 
C 54.890477 87.956476 55.441674 86.625768 55.441674 85.238424 
C 55.441674 83.85108 54.890477 82.520372 53.909477 81.539372 
C 52.928476 80.558372 51.597768 80.007174 50.210424 80.007174 
C 48.82308 80.007174 47.492372 80.558372 46.511372 81.539372 
C 45.530372 82.520372 44.979174 83.85108 44.979174 85.238424 
C 44.979174 86.625768 45.530372 87.956476 46.511372 88.937477 
C 47.492372 89.918477 48.82308 90.469674 50.210424 90.469674 
z
" clip-path="url(#pb05f0e4b32)" style="fill: #333333; stroke: #ffffff; stroke-linejoin: miter"/>
   </g>
   <g id="patch_6">
    <path d="M 33.35625 131.15925 
C 34.743594 131.15925 36.074302 130.608052 37.055302 129.627052 
C 38.036302 128.646052 38.5875 127.315344 38.5875 125.928 
C 38.5875 124.540656 38.036302 123.209948 37.055302 122.228948 
C 36.074302 121.247948 34.743594 120.69675 33.35625 120.69675 
C 31.968906 120.69675 30.638198 121.247948 29.657198 122.228948 
C 28.676198 123.209948 28.125 124.540656 28.125 125.928 
C 28.125 127.315344 28.676198 128.646052 29.657198 129.627052 
C 30.638198 130.608052 31.968906 131.15925 33.35625 131.15925 
z
" clip-path="url(#pb05f0e4b32)" style="fill: #333333; stroke: #ffffff; stroke-linejoin: miter"/>
   </g>
   <g id="patch_7">
    <path d="M 50.210424 171.848826 
C 51.597768 171.848826 52.928476 171.297628 53.909477 170.316628 
C 54.890477 169.335628 55.441674 168.00492 55.441674 166.617576 
C 55.441674 165.230232 54.890477 163.899524 53.909477 162.918523 
C 52.928476 161.937523 51.597768 161.386326 50.210424 161.386326 
C 48.82308 161.386326 47.492372 161.937523 46.511372 162.918523 
C 45.530372 163.899524 44.979174 165.230232 44.979174 166.617576 
C 44.979174 168.00492 45.530372 169.335628 46.511372 170.316628 
C 47.492372 171.297628 48.82308 171.848826 50.210424 171.848826 
z
" clip-path="url(#pb05f0e4b32)" style="fill: #333333; stroke: #ffffff; stroke-linejoin: miter"/>
   </g>
   <g id="patch_8">
    <path d="M 90.9 188.703 
C 92.287344 188.703 93.618052 188.151802 94.599052 187.170802 
C 95.580052 186.189802 96.13125 184.859094 96.13125 183.47175 
C 96.13125 182.084406 95.580052 180.753698 94.599052 179.772698 
C 93.618052 178.791698 92.287344 178.2405 90.9 178.2405 
C 89.512656 178.2405 88.181948 178.791698 87.200948 179.772698 
C 86.219948 180.753698 85.66875 182.084406 85.66875 183.47175 
C 85.66875 184.859094 86.219948 186.189802 87.200948 187.170802 
C 88.181948 188.151802 89.512656 188.703 90.9 188.703 
z
" clip-path="url(#pb05f0e4b32)" style="fill: #333333; stroke: #ffffff; stroke-linejoin: miter"/>
   </g>
   <g id="patch_9">
    <path d="M 131.589576 171.848826 
C 132.97692 171.848826 134.307628 171.297628 135.288628 170.316628 
C 136.269628 169.335628 136.820826 168.00492 136.820826 166.617576 
C 136.820826 165.230232 136.269628 163.899524 135.288628 162.918523 
C 134.307628 161.937523 132.97692 161.386326 131.589576 161.386326 
C 130.202232 161.386326 128.871524 161.937523 127.890523 162.918523 
C 126.909523 163.899524 126.358326 165.230232 126.358326 166.617576 
C 126.358326 168.00492 126.909523 169.335628 127.890523 170.316628 
C 128.871524 171.297628 130.202232 171.848826 131.589576 171.848826 
z
" clip-path="url(#pb05f0e4b32)" style="fill: #333333; stroke: #ffffff; stroke-linejoin: miter"/>
   </g>
  </g>
  <g id="axes_2">
   <g id="text_2">
    <!-- 1+1+1: theta graph -->
    <g transform="translate(236.062422 42.810406) scale(0.11 -0.11)">
     <defs>
      <path id="DejaVuSans-2b" d="M 2944 4013 
L 2944 2272 
L 4684 2272 
L 4684 1741 
L 2944 1741 
L 2944 0 
L 2419 0 
L 2419 1741 
L 678 1741 
L 678 2272 
L 2419 2272 
L 2419 4013 
L 2944 4013 
z
" transform="scale(0.015625)"/>
      <path id="DejaVuSans-68" d="M 3513 2113 
L 3513 0 
L 2938 0 
L 2938 2094 
Q 2938 2591 2744 2837 
Q 2550 3084 2163 3084 
Q 1697 3084 1428 2787 
Q 1159 2491 1159 1978 
L 1159 0 
L 581 0 
L 581 4863 
L 1159 4863 
L 1159 2956 
Q 1366 3272 1645 3428 
Q 1925 3584 2291 3584 
Q 2894 3584 3203 3211 
Q 3513 2838 3513 2113 
z
" transform="scale(0.015625)"/>
      <path id="DejaVuSans-67" d="M 2906 1791 
Q 2906 2416 2648 2759 
Q 2391 3103 1925 3103 
Q 1463 3103 1205 2759 
Q 947 2416 947 1791 
Q 947 1169 1205 825 
Q 1463 481 1925 481 
Q 2391 481 2648 825 
Q 2906 1169 2906 1791 
z
M 3481 434 
Q 3481 -459 3084 -895 
Q 2688 -1331 1869 -1331 
Q 1566 -1331 1297 -1286 
Q 1028 -1241 775 -1147 
L 775 -588 
Q 1028 -725 1275 -790 
Q 1522 -856 1778 -856 
Q 2344 -856 2625 -561 
Q 2906 -266 2906 331 
L 2906 616 
Q 2728 306 2450 153 
Q 2172 0 1784 0 
Q 1141 0 747 490 
Q 353 981 353 1791 
Q 353 2603 747 3093 
Q 1141 3584 1784 3584 
Q 2172 3584 2450 3431 
Q 2728 3278 2906 2969 
L 2906 3500 
L 3481 3500 
L 3481 434 
z
" transform="scale(0.015625)"/>
     </defs>
     <use xlink:href="#DejaVuSans-31"/>
     <use xlink:href="#DejaVuSans-2b" transform="translate(63.623047 0)"/>
     <use xlink:href="#DejaVuSans-31" transform="translate(147.412109 0)"/>
     <use xlink:href="#DejaVuSans-2b" transform="translate(211.035156 0)"/>
     <use xlink:href="#DejaVuSans-31" transform="translate(294.824219 0)"/>
     <use xlink:href="#DejaVuSans-3a" transform="translate(358.447266 0)"/>
     <use xlink:href="#DejaVuSans-20" transform="translate(392.138672 0)"/>
     <use xlink:href="#DejaVuSans-74" transform="translate(423.925781 0)"/>
     <use xlink:href="#DejaVuSans-68" transform="translate(463.134766 0)"/>
     <use xlink:href="#DejaVuSans-65" transform="translate(526.513672 0)"/>
     <use xlink:href="#DejaVuSans-74" transform="translate(588.037109 0)"/>
     <use xlink:href="#DejaVuSans-61" transform="translate(627.246094 0)"/>
     <use xlink:href="#DejaVuSans-20" transform="translate(688.525391 0)"/>
     <use xlink:href="#DejaVuSans-67" transform="translate(720.3125 0)"/>
     <use xlink:href="#DejaVuSans-72" transform="translate(783.789062 0)"/>
     <use xlink:href="#DejaVuSans-61" transform="translate(824.902344 0)"/>
     <use xlink:href="#DejaVuSans-70" transform="translate(886.181641 0)"/>
     <use xlink:href="#DejaVuSans-68" transform="translate(949.658203 0)"/>
    </g>
    <!-- 3 chains, 2 hubs (rank 2) -->
    <g transform="translate(223.113359 55.128) scale(0.11 -0.11)">
     <defs>
      <path id="DejaVuSans-33" d="M 2597 2516 
Q 3050 2419 3304 2112 
Q 3559 1806 3559 1356 
Q 3559 666 3084 287 
Q 2609 -91 1734 -91 
Q 1441 -91 1130 -33 
Q 819 25 488 141 
L 488 750 
Q 750 597 1062 519 
Q 1375 441 1716 441 
Q 2309 441 2620 675 
Q 2931 909 2931 1356 
Q 2931 1769 2642 2001 
Q 2353 2234 1838 2234 
L 1294 2234 
L 1294 2753 
L 1863 2753 
Q 2328 2753 2575 2939 
Q 2822 3125 2822 3475 
Q 2822 3834 2567 4026 
Q 2313 4219 1838 4219 
Q 1578 4219 1281 4162 
Q 984 4106 628 3988 
L 628 4550 
Q 988 4650 1302 4700 
Q 1616 4750 1894 4750 
Q 2613 4750 3031 4423 
Q 3450 4097 3450 3541 
Q 3450 3153 3228 2886 
Q 3006 2619 2597 2516 
z
" transform="scale(0.015625)"/>
      <path id="DejaVuSans-2c" d="M 750 794 
L 1409 794 
L 1409 256 
L 897 -744 
L 494 -744 
L 750 256 
L 750 794 
z
" transform="scale(0.015625)"/>
      <path id="DejaVuSans-75" d="M 544 1381 
L 544 3500 
L 1119 3500 
L 1119 1403 
Q 1119 906 1312 657 
Q 1506 409 1894 409 
Q 2359 409 2629 706 
Q 2900 1003 2900 1516 
L 2900 3500 
L 3475 3500 
L 3475 0 
L 2900 0 
L 2900 538 
Q 2691 219 2414 64 
Q 2138 -91 1772 -91 
Q 1169 -91 856 284 
Q 544 659 544 1381 
z
M 1991 3584 
L 1991 3584 
z
" transform="scale(0.015625)"/>
      <path id="DejaVuSans-62" d="M 3116 1747 
Q 3116 2381 2855 2742 
Q 2594 3103 2138 3103 
Q 1681 3103 1420 2742 
Q 1159 2381 1159 1747 
Q 1159 1113 1420 752 
Q 1681 391 2138 391 
Q 2594 391 2855 752 
Q 3116 1113 3116 1747 
z
M 1159 2969 
Q 1341 3281 1617 3432 
Q 1894 3584 2278 3584 
Q 2916 3584 3314 3078 
Q 3713 2572 3713 1747 
Q 3713 922 3314 415 
Q 2916 -91 2278 -91 
Q 1894 -91 1617 61 
Q 1341 213 1159 525 
L 1159 0 
L 581 0 
L 581 4863 
L 1159 4863 
L 1159 2969 
z
" transform="scale(0.015625)"/>
     </defs>
     <use xlink:href="#DejaVuSans-33"/>
     <use xlink:href="#DejaVuSans-20" transform="translate(63.623047 0)"/>
     <use xlink:href="#DejaVuSans-63" transform="translate(95.410156 0)"/>
     <use xlink:href="#DejaVuSans-68" transform="translate(150.390625 0)"/>
     <use xlink:href="#DejaVuSans-61" transform="translate(213.769531 0)"/>
     <use xlink:href="#DejaVuSans-69" transform="translate(275.048828 0)"/>
     <use xlink:href="#DejaVuSans-6e" transform="translate(302.832031 0)"/>
     <use xlink:href="#DejaVuSans-73" transform="translate(366.210938 0)"/>
     <use xlink:href="#DejaVuSans-2c" transform="translate(418.310547 0)"/>
     <use xlink:href="#DejaVuSans-20" transform="translate(450.097656 0)"/>
     <use xlink:href="#DejaVuSans-32" transform="translate(481.884766 0)"/>
     <use xlink:href="#DejaVuSans-20" transform="translate(545.507812 0)"/>
     <use xlink:href="#DejaVuSans-68" transform="translate(577.294922 0)"/>
     <use xlink:href="#DejaVuSans-75" transform="translate(640.673828 0)"/>
     <use xlink:href="#DejaVuSans-62" transform="translate(704.052734 0)"/>
     <use xlink:href="#DejaVuSans-73" transform="translate(767.529297 0)"/>
     <use xlink:href="#DejaVuSans-20" transform="translate(819.628906 0)"/>
     <use xlink:href="#DejaVuSans-28" transform="translate(851.416016 0)"/>
     <use xlink:href="#DejaVuSans-72" transform="translate(890.429688 0)"/>
     <use xlink:href="#DejaVuSans-61" transform="translate(931.542969 0)"/>
     <use xlink:href="#DejaVuSans-6e" transform="translate(992.822266 0)"/>
     <use xlink:href="#DejaVuSans-6b" transform="translate(1056.201172 0)"/>
     <use xlink:href="#DejaVuSans-20" transform="translate(1114.111328 0)"/>
     <use xlink:href="#DejaVuSans-32" transform="translate(1145.898438 0)"/>
     <use xlink:href="#DejaVuSans-29" transform="translate(1209.521484 0)"/>
    </g>
   </g>
   <g id="line2d_2">
    <path d="M 237.78 125.928 
L 239.147089 124.780684 
L 240.514177 123.662786 
L 241.881266 122.574307 
L 243.248354 121.515246 
L 244.615443 120.485603 
L 245.982532 119.485379 
L 247.34962 118.514573 
L 248.716709 117.573185 
L 250.083797 116.661216 
L 251.450886 115.778665 
L 252.817975 114.925532 
L 254.185063 114.101818 
L 255.552152 113.307523 
L 256.919241 112.542645 
L 258.286329 111.807186 
L 259.653418 111.101145 
L 261.020506 110.424523 
L 262.387595 109.777319 
L 263.754684 109.159533 
L 265.121772 108.571166 
L 266.488861 108.012217 
L 267.855949 107.482687 
L 269.223038 106.982575 
L 270.590127 106.511881 
L 271.957215 106.070605 
L 273.324304 105.658748 
L 274.691392 105.27631 
L 276.058481 104.923289 
L 277.42557 104.599687 
L 278.792658 104.305504 
L 280.159747 104.040738 
L 281.526835 103.805391 
L 282.893924 103.599463 
L 284.261013 103.422953 
L 285.628101 103.275861 
L 286.99519 103.158187 
L 288.362278 103.069932 
L 289.729367 103.011096 
L 291.096456 102.981677 
L 292.463544 102.981677 
L 293.830633 103.011096 
L 295.197722 103.069932 
L 296.56481 103.158187 
L 297.931899 103.275861 
L 299.298987 103.422953 
L 300.666076 103.599463 
L 302.033165 103.805391 
L 303.400253 104.040738 
L 304.767342 104.305504 
L 306.13443 104.599687 
L 307.501519 104.923289 
L 308.868608 105.27631 
L 310.235696 105.658748 
L 311.602785 106.070605 
L 312.969873 106.511881 
L 314.336962 106.982575 
L 315.704051 107.482687 
L 317.071139 108.012217 
L 318.438228 108.571166 
L 319.805316 109.159533 
L 321.172405 109.777319 
L 322.539494 110.424523 
L 323.906582 111.101145 
L 325.273671 111.807186 
L 326.640759 112.542645 
L 328.007848 113.307523 
L 329.374937 114.101818 
L 330.742025 114.925532 
L 332.109114 115.778665 
L 333.476203 116.661216 
L 334.843291 117.573185 
L 336.21038 118.514573 
L 337.577468 119.485379 
L 338.944557 120.485603 
L 340.311646 121.515246 
L 341.678734 122.574307 
L 343.045823 123.662786 
L 344.412911 124.780684 
L 345.78 125.928 
" clip-path="url(#p110ac79f1c)" style="fill: none; stroke: #1f77b4; stroke-width: 3; stroke-linecap: round"/>
   </g>
   <g id="line2d_3">
    <path d="M 237.78 125.928 
L 239.147089 125.928 
L 240.514177 125.928 
L 241.881266 125.928 
L 243.248354 125.928 
L 244.615443 125.928 
L 245.982532 125.928 
L 247.34962 125.928 
L 248.716709 125.928 
L 250.083797 125.928 
L 251.450886 125.928 
L 252.817975 125.928 
L 254.185063 125.928 
L 255.552152 125.928 
L 256.919241 125.928 
L 258.286329 125.928 
L 259.653418 125.928 
L 261.020506 125.928 
L 262.387595 125.928 
L 263.754684 125.928 
L 265.121772 125.928 
L 266.488861 125.928 
L 267.855949 125.928 
L 269.223038 125.928 
L 270.590127 125.928 
L 271.957215 125.928 
L 273.324304 125.928 
L 274.691392 125.928 
L 276.058481 125.928 
L 277.42557 125.928 
L 278.792658 125.928 
L 280.159747 125.928 
L 281.526835 125.928 
L 282.893924 125.928 
L 284.261013 125.928 
L 285.628101 125.928 
L 286.99519 125.928 
L 288.362278 125.928 
L 289.729367 125.928 
L 291.096456 125.928 
L 292.463544 125.928 
L 293.830633 125.928 
L 295.197722 125.928 
L 296.56481 125.928 
L 297.931899 125.928 
L 299.298987 125.928 
L 300.666076 125.928 
L 302.033165 125.928 
L 303.400253 125.928 
L 304.767342 125.928 
L 306.13443 125.928 
L 307.501519 125.928 
L 308.868608 125.928 
L 310.235696 125.928 
L 311.602785 125.928 
L 312.969873 125.928 
L 314.336962 125.928 
L 315.704051 125.928 
L 317.071139 125.928 
L 318.438228 125.928 
L 319.805316 125.928 
L 321.172405 125.928 
L 322.539494 125.928 
L 323.906582 125.928 
L 325.273671 125.928 
L 326.640759 125.928 
L 328.007848 125.928 
L 329.374937 125.928 
L 330.742025 125.928 
L 332.109114 125.928 
L 333.476203 125.928 
L 334.843291 125.928 
L 336.21038 125.928 
L 337.577468 125.928 
L 338.944557 125.928 
L 340.311646 125.928 
L 341.678734 125.928 
L 343.045823 125.928 
L 344.412911 125.928 
L 345.78 125.928 
" clip-path="url(#p110ac79f1c)" style="fill: none; stroke: #e8820c; stroke-width: 3; stroke-linecap: round"/>
   </g>
   <g id="line2d_4">
    <path d="M 237.78 125.928 
L 239.147089 127.075316 
L 240.514177 128.193214 
L 241.881266 129.281693 
L 243.248354 130.340754 
L 244.615443 131.370397 
L 245.982532 132.370621 
L 247.34962 133.341427 
L 248.716709 134.282815 
L 250.083797 135.194784 
L 251.450886 136.077335 
L 252.817975 136.930468 
L 254.185063 137.754182 
L 255.552152 138.548477 
L 256.919241 139.313355 
L 258.286329 140.048814 
L 259.653418 140.754855 
L 261.020506 141.431477 
L 262.387595 142.078681 
L 263.754684 142.696467 
L 265.121772 143.284834 
L 266.488861 143.843783 
L 267.855949 144.373313 
L 269.223038 144.873425 
L 270.590127 145.344119 
L 271.957215 145.785395 
L 273.324304 146.197252 
L 274.691392 146.57969 
L 276.058481 146.932711 
L 277.42557 147.256313 
L 278.792658 147.550496 
L 280.159747 147.815262 
L 281.526835 148.050609 
L 282.893924 148.256537 
L 284.261013 148.433047 
L 285.628101 148.580139 
L 286.99519 148.697813 
L 288.362278 148.786068 
L 289.729367 148.844904 
L 291.096456 148.874323 
L 292.463544 148.874323 
L 293.830633 148.844904 
L 295.197722 148.786068 
L 296.56481 148.697813 
L 297.931899 148.580139 
L 299.298987 148.433047 
L 300.666076 148.256537 
L 302.033165 148.050609 
L 303.400253 147.815262 
L 304.767342 147.550496 
L 306.13443 147.256313 
L 307.501519 146.932711 
L 308.868608 146.57969 
L 310.235696 146.197252 
L 311.602785 145.785395 
L 312.969873 145.344119 
L 314.336962 144.873425 
L 315.704051 144.373313 
L 317.071139 143.843783 
L 318.438228 143.284834 
L 319.805316 142.696467 
L 321.172405 142.078681 
L 322.539494 141.431477 
L 323.906582 140.754855 
L 325.273671 140.048814 
L 326.640759 139.313355 
L 328.007848 138.548477 
L 329.374937 137.754182 
L 330.742025 136.930468 
L 332.109114 136.077335 
L 333.476203 135.194784 
L 334.843291 134.282815 
L 336.21038 133.341427 
L 337.577468 132.370621 
L 338.944557 131.370397 
L 340.311646 130.340754 
L 341.678734 129.281693 
L 343.045823 128.193214 
L 344.412911 127.075316 
L 345.78 125.928 
" clip-path="url(#p110ac79f1c)" style="fill: none; stroke: #2ca02c; stroke-width: 3; stroke-linecap: round"/>
   </g>
   <g id="patch_10">
    <path d="M 227.79 162.108 
L 247.77 162.108 
Q 251.01 162.108 251.01 158.868 
L 251.01 92.988 
Q 251.01 89.748 247.77 89.748 
L 227.79 89.748 
Q 224.55 89.748 224.55 92.988 
L 224.55 158.868 
Q 224.55 162.108 227.79 162.108 
z
" clip-path="url(#p110ac79f1c)" style="fill: #efeaf8; stroke: #6f4fb0; stroke-width: 2.2; stroke-linejoin: miter"/>
   </g>
   <g id="patch_11">
    <path d="M 335.79 162.108 
L 355.77 162.108 
Q 359.01 162.108 359.01 158.868 
L 359.01 92.988 
Q 359.01 89.748 355.77 89.748 
L 335.79 89.748 
Q 332.55 89.748 332.55 92.988 
L 332.55 158.868 
Q 332.55 162.108 335.79 162.108 
z
" clip-path="url(#p110ac79f1c)" style="fill: #efeaf8; stroke: #6f4fb0; stroke-width: 2.2; stroke-linejoin: miter"/>
   </g>
   <g id="text_3">
    <!-- S -->
    <g style="fill: #6f4fb0" transform="translate(232.378828 130.067062) scale(0.15 -0.15)">
     <defs>
      <path id="DejaVuSans-Bold-53" d="M 3834 4519 
L 3834 3531 
Q 3450 3703 3084 3790 
Q 2719 3878 2394 3878 
Q 1963 3878 1756 3759 
Q 1550 3641 1550 3391 
Q 1550 3203 1689 3098 
Q 1828 2994 2194 2919 
L 2706 2816 
Q 3484 2659 3812 2340 
Q 4141 2022 4141 1434 
Q 4141 663 3683 286 
Q 3225 -91 2284 -91 
Q 1841 -91 1394 -6 
Q 947 78 500 244 
L 500 1259 
Q 947 1022 1364 901 
Q 1781 781 2169 781 
Q 2563 781 2772 912 
Q 2981 1044 2981 1288 
Q 2981 1506 2839 1625 
Q 2697 1744 2272 1838 
L 1806 1941 
Q 1106 2091 782 2419 
Q 459 2747 459 3303 
Q 459 4000 909 4375 
Q 1359 4750 2203 4750 
Q 2588 4750 2994 4692 
Q 3400 4634 3834 4519 
z
" transform="scale(0.015625)"/>
     </defs>
     <use xlink:href="#DejaVuSans-Bold-53"/>
    </g>
   </g>
   <g id="text_4">
    <!-- E -->
    <g style="fill: #6f4fb0" transform="translate(340.656563 130.067062) scale(0.15 -0.15)">
     <defs>
      <path id="DejaVuSans-Bold-45" d="M 588 4666 
L 3834 4666 
L 3834 3756 
L 1791 3756 
L 1791 2888 
L 3713 2888 
L 3713 1978 
L 1791 1978 
L 1791 909 
L 3903 909 
L 3903 0 
L 588 0 
L 588 4666 
z
" transform="scale(0.015625)"/>
     </defs>
     <use xlink:href="#DejaVuSans-Bold-45"/>
    </g>
   </g>
   <g id="text_5">
    <!-- A -->
    <g style="fill: #1f77b4" transform="translate(286.749609 76.055187) scale(0.13 -0.13)">
     <defs>
      <path id="DejaVuSans-Bold-41" d="M 3419 850 
L 1538 850 
L 1241 0 
L 31 0 
L 1759 4666 
L 3194 4666 
L 4922 0 
L 3713 0 
L 3419 850 
z
M 1838 1716 
L 3116 1716 
L 2478 3572 
L 1838 1716 
z
" transform="scale(0.015625)"/>
     </defs>
     <use xlink:href="#DejaVuSans-Bold-41"/>
    </g>
   </g>
   <g id="text_6">
    <!-- B -->
    <g style="fill: #e8820c" transform="translate(286.825781 121.955187) scale(0.13 -0.13)">
     <defs>
      <path id="DejaVuSans-Bold-42" d="M 2456 2859 
Q 2741 2859 2887 2984 
Q 3034 3109 3034 3353 
Q 3034 3594 2887 3720 
Q 2741 3847 2456 3847 
L 1791 3847 
L 1791 2859 
L 2456 2859 
z
M 2497 819 
Q 2859 819 3042 972 
Q 3225 1125 3225 1434 
Q 3225 1738 3044 1889 
Q 2863 2041 2497 2041 
L 1791 2041 
L 1791 819 
L 2497 819 
z
M 3616 2497 
Q 4003 2384 4215 2081 
Q 4428 1778 4428 1338 
Q 4428 663 3972 331 
Q 3516 0 2584 0 
L 588 0 
L 588 4666 
L 2394 4666 
Q 3366 4666 3802 4372 
Q 4238 4078 4238 3431 
Q 4238 3091 4078 2852 
Q 3919 2613 3616 2497 
z
" transform="scale(0.015625)"/>
     </defs>
     <use xlink:href="#DejaVuSans-Bold-42"/>
    </g>
   </g>
   <g id="text_7">
    <!-- C -->
    <g style="fill: #2ca02c" transform="translate(287.009609 184.595187) scale(0.13 -0.13)">
     <defs>
      <path id="DejaVuSans-Bold-43" d="M 4288 256 
Q 3956 84 3597 -3 
Q 3238 -91 2847 -91 
Q 1681 -91 1000 561 
Q 319 1213 319 2328 
Q 319 3447 1000 4098 
Q 1681 4750 2847 4750 
Q 3238 4750 3597 4662 
Q 3956 4575 4288 4403 
L 4288 3438 
Q 3953 3666 3628 3772 
Q 3303 3878 2944 3878 
Q 2300 3878 1931 3465 
Q 1563 3053 1563 2328 
Q 1563 1606 1931 1193 
Q 2300 781 2944 781 
Q 3303 781 3628 887 
Q 3953 994 4288 1222 
L 4288 256 
z
" transform="scale(0.015625)"/>
     </defs>
     <use xlink:href="#DejaVuSans-Bold-43"/>
    </g>
   </g>
  </g>
  <g id="axes_3">
   <g id="text_8">
    <!-- 2-chain -->
    <g style="fill: #1f77b4" transform="translate(472.2825 74.628) scale(0.11 -0.11)">
     <use xlink:href="#DejaVuSans-32"/>
     <use xlink:href="#DejaVuSans-2d" transform="translate(63.623047 0)"/>
     <use xlink:href="#DejaVuSans-63" transform="translate(99.707031 0)"/>
     <use xlink:href="#DejaVuSans-68" transform="translate(154.6875 0)"/>
     <use xlink:href="#DejaVuSans-61" transform="translate(218.066406 0)"/>
     <use xlink:href="#DejaVuSans-69" transform="translate(279.345703 0)"/>
     <use xlink:href="#DejaVuSans-6e" transform="translate(307.128906 0)"/>
    </g>
   </g>
   <g id="text_9">
    <!-- 2+1: theta, -->
    <g transform="translate(461.151016 40.110406) scale(0.11 -0.11)">
     <use xlink:href="#DejaVuSans-32"/>
     <use xlink:href="#DejaVuSans-2b" transform="translate(63.623047 0)"/>
     <use xlink:href="#DejaVuSans-31" transform="translate(147.412109 0)"/>
     <use xlink:href="#DejaVuSans-3a" transform="translate(211.035156 0)"/>
     <use xlink:href="#DejaVuSans-20" transform="translate(244.726562 0)"/>
     <use xlink:href="#DejaVuSans-74" transform="translate(276.513672 0)"/>
     <use xlink:href="#DejaVuSans-68" transform="translate(315.722656 0)"/>
     <use xlink:href="#DejaVuSans-65" transform="translate(379.101562 0)"/>
     <use xlink:href="#DejaVuSans-74" transform="translate(440.625 0)"/>
     <use xlink:href="#DejaVuSans-61" transform="translate(479.833984 0)"/>
     <use xlink:href="#DejaVuSans-2c" transform="translate(541.113281 0)"/>
    </g>
    <!-- one chain is a 2-chain -->
    <g transform="translate(432.398047 52.428) scale(0.11 -0.11)">
     <use xlink:href="#DejaVuSans-6f"/>
     <use xlink:href="#DejaVuSans-6e" transform="translate(61.181641 0)"/>
     <use xlink:href="#DejaVuSans-65" transform="translate(124.560547 0)"/>
     <use xlink:href="#DejaVuSans-20" transform="translate(186.083984 0)"/>
     <use xlink:href="#DejaVuSans-63" transform="translate(217.871094 0)"/>
     <use xlink:href="#DejaVuSans-68" transform="translate(272.851562 0)"/>
     <use xlink:href="#DejaVuSans-61" transform="translate(336.230469 0)"/>
     <use xlink:href="#DejaVuSans-69" transform="translate(397.509766 0)"/>
     <use xlink:href="#DejaVuSans-6e" transform="translate(425.292969 0)"/>
     <use xlink:href="#DejaVuSans-20" transform="translate(488.671875 0)"/>
     <use xlink:href="#DejaVuSans-69" transform="translate(520.458984 0)"/>
     <use xlink:href="#DejaVuSans-73" transform="translate(548.242188 0)"/>
     <use xlink:href="#DejaVuSans-20" transform="translate(600.341797 0)"/>
     <use xlink:href="#DejaVuSans-61" transform="translate(632.128906 0)"/>
     <use xlink:href="#DejaVuSans-20" transform="translate(693.408203 0)"/>
     <use xlink:href="#DejaVuSans-32" transform="translate(725.195312 0)"/>
     <use xlink:href="#DejaVuSans-2d" transform="translate(788.818359 0)"/>
     <use xlink:href="#DejaVuSans-63" transform="translate(824.902344 0)"/>
     <use xlink:href="#DejaVuSans-68" transform="translate(879.882812 0)"/>
     <use xlink:href="#DejaVuSans-61" transform="translate(943.261719 0)"/>
     <use xlink:href="#DejaVuSans-69" transform="translate(1004.541016 0)"/>
     <use xlink:href="#DejaVuSans-6e" transform="translate(1032.324219 0)"/>
    </g>
   </g>
   <g id="line2d_5">
    <path d="M 438.66 128.628 
L 440.027089 127.480684 
L 441.394177 126.362786 
L 442.761266 125.274307 
L 444.128354 124.215246 
L 445.495443 123.185603 
L 446.862532 122.185379 
L 448.22962 121.214573 
L 449.596709 120.273185 
L 450.963797 119.361216 
L 452.330886 118.478665 
L 453.697975 117.625532 
L 455.065063 116.801818 
L 456.432152 116.007523 
L 457.799241 115.242645 
L 459.166329 114.507186 
L 460.533418 113.801145 
L 461.900506 113.124523 
L 463.267595 112.477319 
L 464.634684 111.859533 
L 466.001772 111.271166 
L 467.368861 110.712217 
L 468.735949 110.182687 
L 470.103038 109.682575 
L 471.470127 109.211881 
L 472.837215 108.770605 
L 474.204304 108.358748 
L 475.571392 107.97631 
L 476.938481 107.623289 
L 478.30557 107.299687 
L 479.672658 107.005504 
L 481.039747 106.740738 
L 482.406835 106.505391 
L 483.773924 106.299463 
L 485.141013 106.122953 
L 486.508101 105.975861 
L 487.87519 105.858187 
L 489.242278 105.769932 
L 490.609367 105.711096 
L 491.976456 105.681677 
L 493.343544 105.681677 
L 494.710633 105.711096 
L 496.077722 105.769932 
L 497.44481 105.858187 
L 498.811899 105.975861 
L 500.178987 106.122953 
L 501.546076 106.299463 
L 502.913165 106.505391 
L 504.280253 106.740738 
L 505.647342 107.005504 
L 507.01443 107.299687 
L 508.381519 107.623289 
L 509.748608 107.97631 
L 511.115696 108.358748 
L 512.482785 108.770605 
L 513.849873 109.211881 
L 515.216962 109.682575 
L 516.584051 110.182687 
L 517.951139 110.712217 
L 519.318228 111.271166 
L 520.685316 111.859533 
L 522.052405 112.477319 
L 523.419494 113.124523 
L 524.786582 113.801145 
L 526.153671 114.507186 
L 527.520759 115.242645 
L 528.887848 116.007523 
L 530.254937 116.801818 
L 531.622025 117.625532 
L 532.989114 118.478665 
L 534.356203 119.361216 
L 535.723291 120.273185 
L 537.09038 121.214573 
L 538.457468 122.185379 
L 539.824557 123.185603 
L 541.191646 124.215246 
L 542.558734 125.274307 
L 543.925823 126.362786 
L 545.292911 127.480684 
L 546.66 128.628 
" clip-path="url(#p5f59151a72)" style="fill: none; stroke: #1f77b4; stroke-width: 3; stroke-linecap: round"/>
   </g>
   <g id="line2d_6">
    <path d="M 438.66 128.628 
L 440.027089 128.628 
L 441.394177 128.628 
L 442.761266 128.628 
L 444.128354 128.628 
L 445.495443 128.628 
L 446.862532 128.628 
L 448.22962 128.628 
L 449.596709 128.628 
L 450.963797 128.628 
L 452.330886 128.628 
L 453.697975 128.628 
L 455.065063 128.628 
L 456.432152 128.628 
L 457.799241 128.628 
L 459.166329 128.628 
L 460.533418 128.628 
L 461.900506 128.628 
L 463.267595 128.628 
L 464.634684 128.628 
L 466.001772 128.628 
L 467.368861 128.628 
L 468.735949 128.628 
L 470.103038 128.628 
L 471.470127 128.628 
L 472.837215 128.628 
L 474.204304 128.628 
L 475.571392 128.628 
L 476.938481 128.628 
L 478.30557 128.628 
L 479.672658 128.628 
L 481.039747 128.628 
L 482.406835 128.628 
L 483.773924 128.628 
L 485.141013 128.628 
L 486.508101 128.628 
L 487.87519 128.628 
L 489.242278 128.628 
L 490.609367 128.628 
L 491.976456 128.628 
L 493.343544 128.628 
L 494.710633 128.628 
L 496.077722 128.628 
L 497.44481 128.628 
L 498.811899 128.628 
L 500.178987 128.628 
L 501.546076 128.628 
L 502.913165 128.628 
L 504.280253 128.628 
L 505.647342 128.628 
L 507.01443 128.628 
L 508.381519 128.628 
L 509.748608 128.628 
L 511.115696 128.628 
L 512.482785 128.628 
L 513.849873 128.628 
L 515.216962 128.628 
L 516.584051 128.628 
L 517.951139 128.628 
L 519.318228 128.628 
L 520.685316 128.628 
L 522.052405 128.628 
L 523.419494 128.628 
L 524.786582 128.628 
L 526.153671 128.628 
L 527.520759 128.628 
L 528.887848 128.628 
L 530.254937 128.628 
L 531.622025 128.628 
L 532.989114 128.628 
L 534.356203 128.628 
L 535.723291 128.628 
L 537.09038 128.628 
L 538.457468 128.628 
L 539.824557 128.628 
L 541.191646 128.628 
L 542.558734 128.628 
L 543.925823 128.628 
L 545.292911 128.628 
L 546.66 128.628 
" clip-path="url(#p5f59151a72)" style="fill: none; stroke: #e8820c; stroke-width: 3; stroke-linecap: round"/>
   </g>
   <g id="line2d_7">
    <path d="M 438.66 128.628 
L 440.027089 129.775316 
L 441.394177 130.893214 
L 442.761266 131.981693 
L 444.128354 133.040754 
L 445.495443 134.070397 
L 446.862532 135.070621 
L 448.22962 136.041427 
L 449.596709 136.982815 
L 450.963797 137.894784 
L 452.330886 138.777335 
L 453.697975 139.630468 
L 455.065063 140.454182 
L 456.432152 141.248477 
L 457.799241 142.013355 
L 459.166329 142.748814 
L 460.533418 143.454855 
L 461.900506 144.131477 
L 463.267595 144.778681 
L 464.634684 145.396467 
L 466.001772 145.984834 
L 467.368861 146.543783 
L 468.735949 147.073313 
L 470.103038 147.573425 
L 471.470127 148.044119 
L 472.837215 148.485395 
L 474.204304 148.897252 
L 475.571392 149.27969 
L 476.938481 149.632711 
L 478.30557 149.956313 
L 479.672658 150.250496 
L 481.039747 150.515262 
L 482.406835 150.750609 
L 483.773924 150.956537 
L 485.141013 151.133047 
L 486.508101 151.280139 
L 487.87519 151.397813 
L 489.242278 151.486068 
L 490.609367 151.544904 
L 491.976456 151.574323 
L 493.343544 151.574323 
L 494.710633 151.544904 
L 496.077722 151.486068 
L 497.44481 151.397813 
L 498.811899 151.280139 
L 500.178987 151.133047 
L 501.546076 150.956537 
L 502.913165 150.750609 
L 504.280253 150.515262 
L 505.647342 150.250496 
L 507.01443 149.956313 
L 508.381519 149.632711 
L 509.748608 149.27969 
L 511.115696 148.897252 
L 512.482785 148.485395 
L 513.849873 148.044119 
L 515.216962 147.573425 
L 516.584051 147.073313 
L 517.951139 146.543783 
L 519.318228 145.984834 
L 520.685316 145.396467 
L 522.052405 144.778681 
L 523.419494 144.131477 
L 524.786582 143.454855 
L 526.153671 142.748814 
L 527.520759 142.013355 
L 528.887848 141.248477 
L 530.254937 140.454182 
L 531.622025 139.630468 
L 532.989114 138.777335 
L 534.356203 137.894784 
L 535.723291 136.982815 
L 537.09038 136.041427 
L 538.457468 135.070621 
L 539.824557 134.070397 
L 541.191646 133.040754 
L 542.558734 131.981693 
L 543.925823 130.893214 
L 545.292911 129.775316 
L 546.66 128.628 
" clip-path="url(#p5f59151a72)" style="fill: none; stroke: #2ca02c; stroke-width: 3; stroke-linecap: round"/>
   </g>
   <g id="line2d_8">
    <path d="M 438.66 128.628 
L 440.027089 127.480684 
L 441.394177 126.362786 
L 442.761266 125.274307 
L 444.128354 124.215246 
L 445.495443 123.185603 
L 446.862532 122.185379 
L 448.22962 121.214573 
L 449.596709 120.273185 
L 450.963797 119.361216 
L 452.330886 118.478665 
L 453.697975 117.625532 
L 455.065063 116.801818 
L 456.432152 116.007523 
L 457.799241 115.242645 
L 459.166329 114.507186 
L 460.533418 113.801145 
L 461.900506 113.124523 
L 463.267595 112.477319 
L 464.634684 111.859533 
L 466.001772 111.271166 
L 467.368861 110.712217 
L 468.735949 110.182687 
L 470.103038 109.682575 
L 471.470127 109.211881 
L 472.837215 108.770605 
L 474.204304 108.358748 
L 475.571392 107.97631 
L 476.938481 107.623289 
L 478.30557 107.299687 
L 479.672658 107.005504 
L 481.039747 106.740738 
L 482.406835 106.505391 
L 483.773924 106.299463 
L 485.141013 106.122953 
L 486.508101 105.975861 
L 487.87519 105.858187 
L 489.242278 105.769932 
L 490.609367 105.711096 
L 491.976456 105.681677 
L 493.343544 105.681677 
L 494.710633 105.711096 
L 496.077722 105.769932 
L 497.44481 105.858187 
L 498.811899 105.975861 
L 500.178987 106.122953 
L 501.546076 106.299463 
L 502.913165 106.505391 
L 504.280253 106.740738 
L 505.647342 107.005504 
L 507.01443 107.299687 
L 508.381519 107.623289 
L 509.748608 107.97631 
L 511.115696 108.358748 
L 512.482785 108.770605 
L 513.849873 109.211881 
L 515.216962 109.682575 
L 516.584051 110.182687 
L 517.951139 110.712217 
L 519.318228 111.271166 
L 520.685316 111.859533 
L 522.052405 112.477319 
L 523.419494 113.124523 
L 524.786582 113.801145 
L 526.153671 114.507186 
L 527.520759 115.242645 
L 528.887848 116.007523 
L 530.254937 116.801818 
L 531.622025 117.625532 
L 532.989114 118.478665 
L 534.356203 119.361216 
L 535.723291 120.273185 
L 537.09038 121.214573 
L 538.457468 122.185379 
L 539.824557 123.185603 
L 541.191646 124.215246 
L 542.558734 125.274307 
L 543.925823 126.362786 
L 545.292911 127.480684 
L 546.66 128.628 
" clip-path="url(#p5f59151a72)" style="fill: none; stroke: #1f77b4; stroke-width: 5; stroke-linecap: round"/>
   </g>
   <g id="patch_12">
    <path d="M 428.67 164.808 
L 448.65 164.808 
Q 451.89 164.808 451.89 161.568 
L 451.89 95.688 
Q 451.89 92.448 448.65 92.448 
L 428.67 92.448 
Q 425.43 92.448 425.43 95.688 
L 425.43 161.568 
Q 425.43 164.808 428.67 164.808 
z
" clip-path="url(#p5f59151a72)" style="fill: #efeaf8; stroke: #6f4fb0; stroke-width: 2.2; stroke-linejoin: miter"/>
   </g>
   <g id="patch_13">
    <path d="M 536.67 164.808 
L 556.65 164.808 
Q 559.89 164.808 559.89 161.568 
L 559.89 95.688 
Q 559.89 92.448 556.65 92.448 
L 536.67 92.448 
Q 533.43 92.448 533.43 95.688 
L 533.43 161.568 
Q 533.43 164.808 536.67 164.808 
z
" clip-path="url(#p5f59151a72)" style="fill: #efeaf8; stroke: #6f4fb0; stroke-width: 2.2; stroke-linejoin: miter"/>
   </g>
   <g id="line2d_9">
    <path d="M 438.66 128.628 
L 440.027089 127.683151 
L 441.394177 126.76253 
L 442.761266 125.866135 
L 444.128354 124.993967 
L 445.495443 124.146026 
L 446.862532 123.322312 
L 448.22962 122.522825 
L 449.596709 121.747564 
L 450.963797 120.996531 
L 452.330886 120.269724 
L 453.697975 119.567144 
L 455.065063 118.888792 
L 456.432152 118.234666 
L 457.799241 117.604767 
L 459.166329 116.999094 
L 460.533418 116.417649 
L 461.900506 115.860431 
L 463.267595 115.327439 
L 464.634684 114.818675 
L 466.001772 114.334137 
L 467.368861 113.873826 
L 468.735949 113.437742 
L 470.103038 113.025885 
L 471.470127 112.638255 
L 472.837215 112.274851 
L 474.204304 111.935675 
L 475.571392 111.620726 
L 476.938481 111.330003 
L 478.30557 111.063507 
L 479.672658 110.821238 
L 481.039747 110.603196 
L 482.406835 110.409381 
L 483.773924 110.239793 
L 485.141013 110.094432 
L 486.508101 109.973297 
L 487.87519 109.87639 
L 489.242278 109.803709 
L 490.609367 109.755255 
L 491.976456 109.731028 
L 493.343544 109.731028 
L 494.710633 109.755255 
L 496.077722 109.803709 
L 497.44481 109.87639 
L 498.811899 109.973297 
L 500.178987 110.094432 
L 501.546076 110.239793 
L 502.913165 110.409381 
L 504.280253 110.603196 
L 505.647342 110.821238 
L 507.01443 111.063507 
L 508.381519 111.330003 
L 509.748608 111.620726 
L 511.115696 111.935675 
L 512.482785 112.274851 
L 513.849873 112.638255 
L 515.216962 113.025885 
L 516.584051 113.437742 
L 517.951139 113.873826 
L 519.318228 114.334137 
L 520.685316 114.818675 
L 522.052405 115.327439 
L 523.419494 115.860431 
L 524.786582 116.417649 
L 526.153671 116.999094 
L 527.520759 117.604767 
L 528.887848 118.234666 
L 530.254937 118.888792 
L 531.622025 119.567144 
L 532.989114 120.269724 
L 534.356203 120.996531 
L 535.723291 121.747564 
L 537.09038 122.522825 
L 538.457468 123.322312 
L 539.824557 124.146026 
L 541.191646 124.993967 
L 542.558734 125.866135 
L 543.925823 126.76253 
L 545.292911 127.683151 
L 546.66 128.628 
" clip-path="url(#p5f59151a72)" style="fill: none; stroke: #ffffff; stroke-width: 1.6; stroke-linecap: round"/>
   </g>
   <g id="text_10">
    <!-- S -->
    <g style="fill: #6f4fb0" transform="translate(433.258828 132.767062) scale(0.15 -0.15)">
     <use xlink:href="#DejaVuSans-Bold-53"/>
    </g>
   </g>
   <g id="text_11">
    <!-- E -->
    <g style="fill: #6f4fb0" transform="translate(541.536563 132.767062) scale(0.15 -0.15)">
     <use xlink:href="#DejaVuSans-Bold-45"/>
    </g>
   </g>
  </g>
  <g id="text_12">
   <!-- Fold structures: loop vs theta graph -->
   <g transform="translate(166.443984 17.077969) scale(0.13 -0.13)">
    <defs>
     <path id="DejaVuSans-46" d="M 628 4666 
L 3309 4666 
L 3309 4134 
L 1259 4134 
L 1259 2759 
L 3109 2759 
L 3109 2228 
L 1259 2228 
L 1259 0 
L 628 0 
L 628 4666 
z
" transform="scale(0.015625)"/>
     <path id="DejaVuSans-64" d="M 2906 2969 
L 2906 4863 
L 3481 4863 
L 3481 0 
L 2906 0 
L 2906 525 
Q 2725 213 2448 61 
Q 2172 -91 1784 -91 
Q 1150 -91 751 415 
Q 353 922 353 1747 
Q 353 2572 751 3078 
Q 1150 3584 1784 3584 
Q 2172 3584 2448 3432 
Q 2725 3281 2906 2969 
z
M 947 1747 
Q 947 1113 1208 752 
Q 1469 391 1925 391 
Q 2381 391 2643 752 
Q 2906 1113 2906 1747 
Q 2906 2381 2643 2742 
Q 2381 3103 1925 3103 
Q 1469 3103 1208 2742 
Q 947 2381 947 1747 
z
" transform="scale(0.015625)"/>
     <path id="DejaVuSans-76" d="M 191 3500 
L 800 3500 
L 1894 563 
L 2988 3500 
L 3597 3500 
L 2284 0 
L 1503 0 
L 191 3500 
z
" transform="scale(0.015625)"/>
    </defs>
    <use xlink:href="#DejaVuSans-46"/>
    <use xlink:href="#DejaVuSans-6f" transform="translate(53.894531 0)"/>
    <use xlink:href="#DejaVuSans-6c" transform="translate(115.076172 0)"/>
    <use xlink:href="#DejaVuSans-64" transform="translate(142.859375 0)"/>
    <use xlink:href="#DejaVuSans-20" transform="translate(206.335938 0)"/>
    <use xlink:href="#DejaVuSans-73" transform="translate(238.123047 0)"/>
    <use xlink:href="#DejaVuSans-74" transform="translate(290.222656 0)"/>
    <use xlink:href="#DejaVuSans-72" transform="translate(329.431641 0)"/>
    <use xlink:href="#DejaVuSans-75" transform="translate(370.544922 0)"/>
    <use xlink:href="#DejaVuSans-63" transform="translate(433.923828 0)"/>
    <use xlink:href="#DejaVuSans-74" transform="translate(488.904297 0)"/>
    <use xlink:href="#DejaVuSans-75" transform="translate(528.113281 0)"/>
    <use xlink:href="#DejaVuSans-72" transform="translate(591.492188 0)"/>
    <use xlink:href="#DejaVuSans-65" transform="translate(630.355469 0)"/>
    <use xlink:href="#DejaVuSans-73" transform="translate(691.878906 0)"/>
    <use xlink:href="#DejaVuSans-3a" transform="translate(743.978516 0)"/>
    <use xlink:href="#DejaVuSans-20" transform="translate(777.669922 0)"/>
    <use xlink:href="#DejaVuSans-6c" transform="translate(809.457031 0)"/>
    <use xlink:href="#DejaVuSans-6f" transform="translate(837.240234 0)"/>
    <use xlink:href="#DejaVuSans-6f" transform="translate(898.421875 0)"/>
    <use xlink:href="#DejaVuSans-70" transform="translate(959.603516 0)"/>
    <use xlink:href="#DejaVuSans-20" transform="translate(1023.080078 0)"/>
    <use xlink:href="#DejaVuSans-76" transform="translate(1054.867188 0)"/>
    <use xlink:href="#DejaVuSans-73" transform="translate(1114.046875 0)"/>
    <use xlink:href="#DejaVuSans-20" transform="translate(1166.146484 0)"/>
    <use xlink:href="#DejaVuSans-74" transform="translate(1197.933594 0)"/>
    <use xlink:href="#DejaVuSans-68" transform="translate(1237.142578 0)"/>
    <use xlink:href="#DejaVuSans-65" transform="translate(1300.521484 0)"/>
    <use xlink:href="#DejaVuSans-74" transform="translate(1362.044922 0)"/>
    <use xlink:href="#DejaVuSans-61" transform="translate(1401.253906 0)"/>
    <use xlink:href="#DejaVuSans-20" transform="translate(1462.533203 0)"/>
    <use xlink:href="#DejaVuSans-67" transform="translate(1494.320312 0)"/>
    <use xlink:href="#DejaVuSans-72" transform="translate(1557.796875 0)"/>
    <use xlink:href="#DejaVuSans-61" transform="translate(1598.910156 0)"/>
    <use xlink:href="#DejaVuSans-70" transform="translate(1660.189453 0)"/>
    <use xlink:href="#DejaVuSans-68" transform="translate(1723.666016 0)"/>
   </g>
  </g>
 </g>
 <defs>
  <clipPath id="pb05f0e4b32">
   <rect x="7.2" y="42.228" width="167.4" height="167.4"/>
  </clipPath>
  <clipPath id="p110ac79f1c">
   <rect x="208.08" y="61.128" width="167.4" height="129.6"/>
  </clipPath>
  <clipPath id="p5f59151a72">
   <rect x="408.96" y="58.428" width="167.4" height="135"/>
  </clipPath>
 </defs>
</svg>
