<?xml version="1.0" encoding="utf-8" standalone="no"?>
<!DOCTYPE svg PUBLIC "-//W3C//DTD SVG 1.1//EN"
  "http://www.w3.org/Graphics/SVG/1.1/DTD/svg11.dtd">
<svg xmlns:xlink="http://www.w3.org/1999/xlink" width="339.090625pt" height="267.885812pt" viewBox="0 0 339.090625 267.885812" xmlns="http://www.w3.org/2000/svg" version="1.1">
 <metadata>
  <rdf:RDF xmlns:dc="http://purl.org/dc/elements/1.1/" xmlns:cc="http://creativecommons.org/ns#" xmlns:rdf="http://www.w3.org/1999/02/22-rdf-syntax-ns#">
   <cc:Work>
    <dc:type rdf:resource="http://purl.org/dc/dcmitype/StillImage"/>
    <dc:date>2026-06-03T14:06:03.190569</dc:date>
    <dc:format>image/svg+xml</dc:format>
    <dc:creator>
     <cc:Agent>
      <dc:title>Matplotlib v3.10.9, https://matplotlib.org/</dc:title>
     </cc:Agent>
    </dc:creator>
   </cc:Work>
  </rdf:RDF>
 </metadata>
 <defs>
  <style type="text/css">*{stroke-linejoin: round; stroke-linecap: butt}</style>
 </defs>
 <g id="figure_1">
  <g id="patch_1">
   <path d="M 0 267.885812 
L 339.090625 267.885812 
L 339.090625 0 
L 0 0 
z
" style="fill: #ffffff"/>
  </g>
  <g id="axes_1">
   <g id="text_1">
    <!-- 1+1+1 = theta graph: 2 rigid hubs + 3 chains -->
    <g style="fill: #222222" transform="translate(7.2 17.837812) scale(0.14 -0.14)">
     <defs>
      <path id="DejaVuSans-31" d="M 794 531 
L 1825 531 
L 1825 4091 
L 703 3866 
L 703 4441 
L 1819 4666 
L 2450 4666 
L 2450 531 
L 3481 531 
L 3481 0 
L 794 0 
L 794 531 
z
" transform="scale(0.015625)"/>
      <path id="DejaVuSans-2b" d="M 2944 4013 
L 2944 2272 
L 4684 2272 
L 4684 1741 
L 2944 1741 
L 2944 0 
L 2419 0 
L 2419 1741 
L 678 1741 
L 678 2272 
L 2419 2272 
L 2419 4013 
L 2944 4013 
z
" transform="scale(0.015625)"/>
      <path id="DejaVuSans-20" transform="scale(0.015625)"/>
      <path id="DejaVuSans-3d" d="M 678 2906 
L 4684 2906 
L 4684 2381 
L 678 2381 
L 678 2906 
z
M 678 1631 
L 4684 1631 
L 4684 1100 
L 678 1100 
L 678 1631 
z
" transform="scale(0.015625)"/>
      <path id="DejaVuSans-74" d="M 1172 4494 
L 1172 3500 
L 2356 3500 
L 2356 3053 
L 1172 3053 
L 1172 1153 
Q 1172 725 1289 603 
Q 1406 481 1766 481 
L 2356 481 
L 2356 0 
L 1766 0 
Q 1100 0 847 248 
Q 594 497 594 1153 
L 594 3053 
L 172 3053 
L 172 3500 
L 594 3500 
L 594 4494 
L 1172 4494 
z
" transform="scale(0.015625)"/>
      <path id="DejaVuSans-68" d="M 3513 2113 
L 3513 0 
L 2938 0 
L 2938 2094 
Q 2938 2591 2744 2837 
Q 2550 3084 2163 3084 
Q 1697 3084 1428 2787 
Q 1159 2491 1159 1978 
L 1159 0 
L 581 0 
L 581 4863 
L 1159 4863 
L 1159 2956 
Q 1366 3272 1645 3428 
Q 1925 3584 2291 3584 
Q 2894 3584 3203 3211 
Q 3513 2838 3513 2113 
z
" transform="scale(0.015625)"/>
      <path id="DejaVuSans-65" d="M 3597 1894 
L 3597 1613 
L 953 1613 
Q 991 1019 1311 708 
Q 1631 397 2203 397 
Q 2534 397 2845 478 
Q 3156 559 3463 722 
L 3463 178 
Q 3153 47 2828 -22 
Q 2503 -91 2169 -91 
Q 1331 -91 842 396 
Q 353 884 353 1716 
Q 353 2575 817 3079 
Q 1281 3584 2069 3584 
Q 2775 3584 3186 3129 
Q 3597 2675 3597 1894 
z
M 3022 2063 
Q 3016 2534 2758 2815 
Q 2500 3097 2075 3097 
Q 1594 3097 1305 2825 
Q 1016 2553 972 2059 
L 3022 2063 
z
" transform="scale(0.015625)"/>
      <path id="DejaVuSans-61" d="M 2194 1759 
Q 1497 1759 1228 1600 
Q 959 1441 959 1056 
Q 959 750 1161 570 
Q 1363 391 1709 391 
Q 2188 391 2477 730 
Q 2766 1069 2766 1631 
L 2766 1759 
L 2194 1759 
z
M 3341 1997 
L 3341 0 
L 2766 0 
L 2766 531 
Q 2569 213 2275 61 
Q 1981 -91 1556 -91 
Q 1019 -91 701 211 
Q 384 513 384 1019 
Q 384 1609 779 1909 
Q 1175 2209 1959 2209 
L 2766 2209 
L 2766 2266 
Q 2766 2663 2505 2880 
Q 2244 3097 1772 3097 
Q 1472 3097 1187 3025 
Q 903 2953 641 2809 
L 641 3341 
Q 956 3463 1253 3523 
Q 1550 3584 1831 3584 
Q 2591 3584 2966 3190 
Q 3341 2797 3341 1997 
z
" transform="scale(0.015625)"/>
      <path id="DejaVuSans-67" d="M 2906 1791 
Q 2906 2416 2648 2759 
Q 2391 3103 1925 3103 
Q 1463 3103 1205 2759 
Q 947 2416 947 1791 
Q 947 1169 1205 825 
Q 1463 481 1925 481 
Q 2391 481 2648 825 
Q 2906 1169 2906 1791 
z
M 3481 434 
Q 3481 -459 3084 -895 
Q 2688 -1331 1869 -1331 
Q 1566 -1331 1297 -1286 
Q 1028 -1241 775 -1147 
L 775 -588 
Q 1028 -725 1275 -790 
Q 1522 -856 1778 -856 
Q 2344 -856 2625 -561 
Q 2906 -266 2906 331 
L 2906 616 
Q 2728 306 2450 153 
Q 2172 0 1784 0 
Q 1141 0 747 490 
Q 353 981 353 1791 
Q 353 2603 747 3093 
Q 1141 3584 1784 3584 
Q 2172 3584 2450 3431 
Q 2728 3278 2906 2969 
L 2906 3500 
L 3481 3500 
L 3481 434 
z
" transform="scale(0.015625)"/>
      <path id="DejaVuSans-72" d="M 2631 2963 
Q 2534 3019 2420 3045 
Q 2306 3072 2169 3072 
Q 1681 3072 1420 2755 
Q 1159 2438 1159 1844 
L 1159 0 
L 581 0 
L 581 3500 
L 1159 3500 
L 1159 2956 
Q 1341 3275 1631 3429 
Q 1922 3584 2338 3584 
Q 2397 3584 2469 3576 
Q 2541 3569 2628 3553 
L 2631 2963 
z
" transform="scale(0.015625)"/>
      <path id="DejaVuSans-70" d="M 1159 525 
L 1159 -1331 
L 581 -1331 
L 581 3500 
L 1159 3500 
L 1159 2969 
Q 1341 3281 1617 3432 
Q 1894 3584 2278 3584 
Q 2916 3584 3314 3078 
Q 3713 2572 3713 1747 
Q 3713 922 3314 415 
Q 2916 -91 2278 -91 
Q 1894 -91 1617 61 
Q 1341 213 1159 525 
z
M 3116 1747 
Q 3116 2381 2855 2742 
Q 2594 3103 2138 3103 
Q 1681 3103 1420 2742 
Q 1159 2381 1159 1747 
Q 1159 1113 1420 752 
Q 1681 391 2138 391 
Q 2594 391 2855 752 
Q 3116 1113 3116 1747 
z
" transform="scale(0.015625)"/>
      <path id="DejaVuSans-3a" d="M 750 794 
L 1409 794 
L 1409 0 
L 750 0 
L 750 794 
z
M 750 3309 
L 1409 3309 
L 1409 2516 
L 750 2516 
L 750 3309 
z
" transform="scale(0.015625)"/>
      <path id="DejaVuSans-32" d="M 1228 531 
L 3431 531 
L 3431 0 
L 469 0 
L 469 531 
Q 828 903 1448 1529 
Q 2069 2156 2228 2338 
Q 2531 2678 2651 2914 
Q 2772 3150 2772 3378 
Q 2772 3750 2511 3984 
Q 2250 4219 1831 4219 
Q 1534 4219 1204 4116 
Q 875 4013 500 3803 
L 500 4441 
Q 881 4594 1212 4672 
Q 1544 4750 1819 4750 
Q 2544 4750 2975 4387 
Q 3406 4025 3406 3419 
Q 3406 3131 3298 2873 
Q 3191 2616 2906 2266 
Q 2828 2175 2409 1742 
Q 1991 1309 1228 531 
z
" transform="scale(0.015625)"/>
      <path id="DejaVuSans-69" d="M 603 3500 
L 1178 3500 
L 1178 0 
L 603 0 
L 603 3500 
z
M 603 4863 
L 1178 4863 
L 1178 4134 
L 603 4134 
L 603 4863 
z
" transform="scale(0.015625)"/>
      <path id="DejaVuSans-64" d="M 2906 2969 
L 2906 4863 
L 3481 4863 
L 3481 0 
L 2906 0 
L 2906 525 
Q 2725 213 2448 61 
Q 2172 -91 1784 -91 
Q 1150 -91 751 415 
Q 353 922 353 1747 
Q 353 2572 751 3078 
Q 1150 3584 1784 3584 
Q 2172 3584 2448 3432 
Q 2725 3281 2906 2969 
z
M 947 1747 
Q 947 1113 1208 752 
Q 1469 391 1925 391 
Q 2381 391 2643 752 
Q 2906 1113 2906 1747 
Q 2906 2381 2643 2742 
Q 2381 3103 1925 3103 
Q 1469 3103 1208 2742 
Q 947 2381 947 1747 
z
" transform="scale(0.015625)"/>
      <path id="DejaVuSans-75" d="M 544 1381 
L 544 3500 
L 1119 3500 
L 1119 1403 
Q 1119 906 1312 657 
Q 1506 409 1894 409 
Q 2359 409 2629 706 
Q 2900 1003 2900 1516 
L 2900 3500 
L 3475 3500 
L 3475 0 
L 2900 0 
L 2900 538 
Q 2691 219 2414 64 
Q 2138 -91 1772 -91 
Q 1169 -91 856 284 
Q 544 659 544 1381 
z
M 1991 3584 
L 1991 3584 
z
" transform="scale(0.015625)"/>
      <path id="DejaVuSans-62" d="M 3116 1747 
Q 3116 2381 2855 2742 
Q 2594 3103 2138 3103 
Q 1681 3103 1420 2742 
Q 1159 2381 1159 1747 
Q 1159 1113 1420 752 
Q 1681 391 2138 391 
Q 2594 391 2855 752 
Q 3116 1113 3116 1747 
z
M 1159 2969 
Q 1341 3281 1617 3432 
Q 1894 3584 2278 3584 
Q 2916 3584 3314 3078 
Q 3713 2572 3713 1747 
Q 3713 922 3314 415 
Q 2916 -91 2278 -91 
Q 1894 -91 1617 61 
Q 1341 213 1159 525 
L 1159 0 
L 581 0 
L 581 4863 
L 1159 4863 
L 1159 2969 
z
" transform="scale(0.015625)"/>
      <path id="DejaVuSans-73" d="M 2834 3397 
L 2834 2853 
Q 2591 2978 2328 3040 
Q 2066 3103 1784 3103 
Q 1356 3103 1142 2972 
Q 928 2841 928 2578 
Q 928 2378 1081 2264 
Q 1234 2150 1697 2047 
L 1894 2003 
Q 2506 1872 2764 1633 
Q 3022 1394 3022 966 
Q 3022 478 2636 193 
Q 2250 -91 1575 -91 
Q 1294 -91 989 -36 
Q 684 19 347 128 
L 347 722 
Q 666 556 975 473 
Q 1284 391 1588 391 
Q 1994 391 2212 530 
Q 2431 669 2431 922 
Q 2431 1156 2273 1281 
Q 2116 1406 1581 1522 
L 1381 1569 
Q 847 1681 609 1914 
Q 372 2147 372 2553 
Q 372 3047 722 3315 
Q 1072 3584 1716 3584 
Q 2034 3584 2315 3537 
Q 2597 3491 2834 3397 
z
" transform="scale(0.015625)"/>
      <path id="DejaVuSans-33" d="M 2597 2516 
Q 3050 2419 3304 2112 
Q 3559 1806 3559 1356 
Q 3559 666 3084 287 
Q 2609 -91 1734 -91 
Q 1441 -91 1130 -33 
Q 819 25 488 141 
L 488 750 
Q 750 597 1062 519 
Q 1375 441 1716 441 
Q 2309 441 2620 675 
Q 2931 909 2931 1356 
Q 2931 1769 2642 2001 
Q 2353 2234 1838 2234 
L 1294 2234 
L 1294 2753 
L 1863 2753 
Q 2328 2753 2575 2939 
Q 2822 3125 2822 3475 
Q 2822 3834 2567 4026 
Q 2313 4219 1838 4219 
Q 1578 4219 1281 4162 
Q 984 4106 628 3988 
L 628 4550 
Q 988 4650 1302 4700 
Q 1616 4750 1894 4750 
Q 2613 4750 3031 4423 
Q 3450 4097 3450 3541 
Q 3450 3153 3228 2886 
Q 3006 2619 2597 2516 
z
" transform="scale(0.015625)"/>
      <path id="DejaVuSans-63" d="M 3122 3366 
L 3122 2828 
Q 2878 2963 2633 3030 
Q 2388 3097 2138 3097 
Q 1578 3097 1268 2742 
Q 959 2388 959 1747 
Q 959 1106 1268 751 
Q 1578 397 2138 397 
Q 2388 397 2633 464 
Q 2878 531 3122 666 
L 3122 134 
Q 2881 22 2623 -34 
Q 2366 -91 2075 -91 
Q 1284 -91 818 406 
Q 353 903 353 1747 
Q 353 2603 823 3093 
Q 1294 3584 2113 3584 
Q 2378 3584 2631 3529 
Q 2884 3475 3122 3366 
z
" transform="scale(0.015625)"/>
      <path id="DejaVuSans-6e" d="M 3513 2113 
L 3513 0 
L 2938 0 
L 2938 2094 
Q 2938 2591 2744 2837 
Q 2550 3084 2163 3084 
Q 1697 3084 1428 2787 
Q 1159 2491 1159 1978 
L 1159 0 
L 581 0 
L 581 3500 
L 1159 3500 
L 1159 2956 
Q 1366 3272 1645 3428 
Q 1925 3584 2291 3584 
Q 2894 3584 3203 3211 
Q 3513 2838 3513 2113 
z
" transform="scale(0.015625)"/>
     </defs>
     <use xlink:href="#DejaVuSans-31"/>
     <use xlink:href="#DejaVuSans-2b" transform="translate(63.623047 0)"/>
     <use xlink:href="#DejaVuSans-31" transform="translate(147.412109 0)"/>
     <use xlink:href="#DejaVuSans-2b" transform="translate(211.035156 0)"/>
     <use xlink:href="#DejaVuSans-31" transform="translate(294.824219 0)"/>
     <use xlink:href="#DejaVuSans-20" transform="translate(358.447266 0)"/>
     <use xlink:href="#DejaVuSans-3d" transform="translate(390.234375 0)"/>
     <use xlink:href="#DejaVuSans-20" transform="translate(474.023438 0)"/>
     <use xlink:href="#DejaVuSans-74" transform="translate(505.810547 0)"/>
     <use xlink:href="#DejaVuSans-68" transform="translate(545.019531 0)"/>
     <use xlink:href="#DejaVuSans-65" transform="translate(608.398438 0)"/>
     <use xlink:href="#DejaVuSans-74" transform="translate(669.921875 0)"/>
     <use xlink:href="#DejaVuSans-61" transform="translate(709.130859 0)"/>
     <use xlink:href="#DejaVuSans-20" transform="translate(770.410156 0)"/>
     <use xlink:href="#DejaVuSans-67" transform="translate(802.197266 0)"/>
     <use xlink:href="#DejaVuSans-72" transform="translate(865.673828 0)"/>
     <use xlink:href="#DejaVuSans-61" transform="translate(906.787109 0)"/>
     <use xlink:href="#DejaVuSans-70" transform="translate(968.066406 0)"/>
     <use xlink:href="#DejaVuSans-68" transform="translate(1031.542969 0)"/>
     <use xlink:href="#DejaVuSans-3a" transform="translate(1094.921875 0)"/>
     <use xlink:href="#DejaVuSans-20" transform="translate(1128.613281 0)"/>
     <use xlink:href="#DejaVuSans-32" transform="translate(1160.400391 0)"/>
     <use xlink:href="#DejaVuSans-20" transform="translate(1224.023438 0)"/>
     <use xlink:href="#DejaVuSans-72" transform="translate(1255.810547 0)"/>
     <use xlink:href="#DejaVuSans-69" transform="translate(1296.923828 0)"/>
     <use xlink:href="#DejaVuSans-67" transform="translate(1324.707031 0)"/>
     <use xlink:href="#DejaVuSans-69" transform="translate(1388.183594 0)"/>
     <use xlink:href="#DejaVuSans-64" transform="translate(1415.966797 0)"/>
     <use xlink:href="#DejaVuSans-20" transform="translate(1479.443359 0)"/>
     <use xlink:href="#DejaVuSans-68" transform="translate(1511.230469 0)"/>
     <use xlink:href="#DejaVuSans-75" transform="translate(1574.609375 0)"/>
     <use xlink:href="#DejaVuSans-62" transform="translate(1637.988281 0)"/>
     <use xlink:href="#DejaVuSans-73" transform="translate(1701.464844 0)"/>
     <use xlink:href="#DejaVuSans-20" transform="translate(1753.564453 0)"/>
     <use xlink:href="#DejaVuSans-2b" transform="translate(1785.351562 0)"/>
     <use xlink:href="#DejaVuSans-20" transform="translate(1869.140625 0)"/>
     <use xlink:href="#DejaVuSans-33" transform="translate(1900.927734 0)"/>
     <use xlink:href="#DejaVuSans-20" transform="translate(1964.550781 0)"/>
     <use xlink:href="#DejaVuSans-63" transform="translate(1996.337891 0)"/>
     <use xlink:href="#DejaVuSans-68" transform="translate(2051.318359 0)"/>
     <use xlink:href="#DejaVuSans-61" transform="translate(2114.697266 0)"/>
     <use xlink:href="#DejaVuSans-69" transform="translate(2175.976562 0)"/>
     <use xlink:href="#DejaVuSans-6e" transform="translate(2203.759766 0)"/>
     <use xlink:href="#DejaVuSans-73" transform="translate(2267.138672 0)"/>
    </g>
   </g>
   <g id="line2d_1">
    <path d="M 93.201706 142.353222 
L 95.134455 140.731181 
L 97.067205 139.15073 
L 98.999955 137.61187 
L 100.932704 136.1146 
L 102.865454 134.658922 
L 104.798203 133.244834 
L 106.730953 131.872338 
L 108.663702 130.541432 
L 110.596452 129.252116 
L 112.529201 128.004392 
L 114.461951 126.798258 
L 116.3947 125.633716 
L 118.32745 124.510764 
L 120.260199 123.429403 
L 122.192949 122.389632 
L 124.125698 121.391453 
L 126.058448 120.434864 
L 127.991198 119.519866 
L 129.923947 118.646459 
L 131.856697 117.814643 
L 133.789446 117.024417 
L 135.722196 116.275783 
L 137.654945 115.568739 
L 139.587695 114.903286 
L 141.520444 114.279424 
L 143.453194 113.697152 
L 145.385943 113.156472 
L 147.318693 112.657382 
L 149.251442 112.199883 
L 151.184192 111.783975 
L 153.116941 111.409658 
L 155.049691 111.076931 
L 156.982441 110.785795 
L 158.91519 110.536251 
L 160.84794 110.328297 
L 162.780689 110.161933 
L 164.713439 110.037161 
L 166.646188 109.953979 
L 168.578938 109.912388 
L 170.511687 109.912388 
L 172.444437 109.953979 
L 174.377186 110.037161 
L 176.309936 110.161933 
L 178.242685 110.328297 
L 180.175435 110.536251 
L 182.108184 110.785795 
L 184.040934 111.076931 
L 185.973684 111.409658 
L 187.906433 111.783975 
L 189.839183 112.199883 
L 191.771932 112.657382 
L 193.704682 113.156472 
L 195.637431 113.697152 
L 197.570181 114.279424 
L 199.50293 114.903286 
L 201.43568 115.568739 
L 203.368429 116.275783 
L 205.301179 117.024417 
L 207.233928 117.814643 
L 209.166678 118.646459 
L 211.099427 119.519866 
L 213.032177 120.434864 
L 214.964927 121.391453 
L 216.897676 122.389632 
L 218.830426 123.429403 
L 220.763175 124.510764 
L 222.695925 125.633716 
L 224.628674 126.798258 
L 226.561424 128.004392 
L 228.494173 129.252116 
L 230.426923 130.541432 
L 232.359672 131.872338 
L 234.292422 133.244834 
L 236.225171 134.658922 
L 238.157921 136.1146 
L 240.09067 137.61187 
L 242.02342 139.15073 
L 243.95617 140.731181 
L 245.888919 142.353222 
" clip-path="url(#p79fe762f88)" style="fill: none; stroke: #1f77b4; stroke-width: 3; stroke-linecap: round"/>
   </g>
   <g id="line2d_2">
    <path d="M 93.201706 142.353222 
L 95.134455 142.353222 
L 97.067205 142.353222 
L 98.999955 142.353222 
L 100.932704 142.353222 
L 102.865454 142.353222 
L 104.798203 142.353222 
L 106.730953 142.353222 
L 108.663702 142.353222 
L 110.596452 142.353222 
L 112.529201 142.353222 
L 114.461951 142.353222 
L 116.3947 142.353222 
L 118.32745 142.353222 
L 120.260199 142.353222 
L 122.192949 142.353222 
L 124.125698 142.353222 
L 126.058448 142.353222 
L 127.991198 142.353222 
L 129.923947 142.353222 
L 131.856697 142.353222 
L 133.789446 142.353222 
L 135.722196 142.353222 
L 137.654945 142.353222 
L 139.587695 142.353222 
L 141.520444 142.353222 
L 143.453194 142.353222 
L 145.385943 142.353222 
L 147.318693 142.353222 
L 149.251442 142.353222 
L 151.184192 142.353222 
L 153.116941 142.353222 
L 155.049691 142.353222 
L 156.982441 142.353222 
L 158.91519 142.353222 
L 160.84794 142.353222 
L 162.780689 142.353222 
L 164.713439 142.353222 
L 166.646188 142.353222 
L 168.578938 142.353222 
L 170.511687 142.353222 
L 172.444437 142.353222 
L 174.377186 142.353222 
L 176.309936 142.353222 
L 178.242685 142.353222 
L 180.175435 142.353222 
L 182.108184 142.353222 
L 184.040934 142.353222 
L 185.973684 142.353222 
L 187.906433 142.353222 
L 189.839183 142.353222 
L 191.771932 142.353222 
L 193.704682 142.353222 
L 195.637431 142.353222 
L 197.570181 142.353222 
L 199.50293 142.353222 
L 201.43568 142.353222 
L 203.368429 142.353222 
L 205.301179 142.353222 
L 207.233928 142.353222 
L 209.166678 142.353222 
L 211.099427 142.353222 
L 213.032177 142.353222 
L 214.964927 142.353222 
L 216.897676 142.353222 
L 218.830426 142.353222 
L 220.763175 142.353222 
L 222.695925 142.353222 
L 224.628674 142.353222 
L 226.561424 142.353222 
L 228.494173 142.353222 
L 230.426923 142.353222 
L 232.359672 142.353222 
L 234.292422 142.353222 
L 236.225171 142.353222 
L 238.157921 142.353222 
L 240.09067 142.353222 
L 242.02342 142.353222 
L 243.95617 142.353222 
L 245.888919 142.353222 
" clip-path="url(#p79fe762f88)" style="fill: none; stroke: #e8820c; stroke-width: 3; stroke-linecap: round"/>
   </g>
   <g id="line2d_3">
    <path d="M 93.201706 142.353222 
L 95.134455 143.975264 
L 97.067205 145.555715 
L 98.999955 147.094575 
L 100.932704 148.591844 
L 102.865454 150.047523 
L 104.798203 151.46161 
L 106.730953 152.834107 
L 108.663702 154.165013 
L 110.596452 155.454328 
L 112.529201 156.702053 
L 114.461951 157.908186 
L 116.3947 159.072729 
L 118.32745 160.195681 
L 120.260199 161.277042 
L 122.192949 162.316812 
L 124.125698 163.314992 
L 126.058448 164.271581 
L 127.991198 165.186579 
L 129.923947 166.059986 
L 131.856697 166.891802 
L 133.789446 167.682027 
L 135.722196 168.430662 
L 137.654945 169.137706 
L 139.587695 169.803159 
L 141.520444 170.427021 
L 143.453194 171.009292 
L 145.385943 171.549973 
L 147.318693 172.049063 
L 149.251442 172.506562 
L 151.184192 172.92247 
L 153.116941 173.296787 
L 155.049691 173.629514 
L 156.982441 173.920649 
L 158.91519 174.170194 
L 160.84794 174.378148 
L 162.780689 174.544511 
L 164.713439 174.669284 
L 166.646188 174.752465 
L 168.578938 174.794056 
L 170.511687 174.794056 
L 172.444437 174.752465 
L 174.377186 174.669284 
L 176.309936 174.544511 
L 178.242685 174.378148 
L 180.175435 174.170194 
L 182.108184 173.920649 
L 184.040934 173.629514 
L 185.973684 173.296787 
L 187.906433 172.92247 
L 189.839183 172.506562 
L 191.771932 172.049063 
L 193.704682 171.549973 
L 195.637431 171.009292 
L 197.570181 170.427021 
L 199.50293 169.803159 
L 201.43568 169.137706 
L 203.368429 168.430662 
L 205.301179 167.682027 
L 207.233928 166.891802 
L 209.166678 166.059986 
L 211.099427 165.186579 
L 213.032177 164.271581 
L 214.964927 163.314992 
L 216.897676 162.316812 
L 218.830426 161.277042 
L 220.763175 160.195681 
L 222.695925 159.072729 
L 224.628674 157.908186 
L 226.561424 156.702053 
L 228.494173 155.454328 
L 230.426923 154.165013 
L 232.359672 152.834107 
L 234.292422 151.46161 
L 236.225171 150.047523 
L 238.157921 148.591844 
L 240.09067 147.094575 
L 242.02342 145.555715 
L 243.95617 143.975264 
L 245.888919 142.353222 
" clip-path="url(#p79fe762f88)" style="fill: none; stroke: #2ca02c; stroke-width: 3; stroke-linecap: round"/>
   </g>
   <g id="patch_2">
    <path d="M 79.078139 193.503439 
L 107.325273 193.503439 
Q 111.90589 193.503439 111.90589 188.922822 
L 111.90589 95.783622 
Q 111.90589 91.203006 107.325273 91.203006 
L 79.078139 91.203006 
Q 74.497522 91.203006 74.497522 95.783622 
L 74.497522 188.922822 
Q 74.497522 193.503439 79.078139 193.503439 
z
" clip-path="url(#p79fe762f88)" style="fill: #efeaf8; stroke: #6f4fb0; stroke-width: 2.2; stroke-linejoin: miter"/>
   </g>
   <g id="patch_3">
    <path d="M 231.765352 193.503439 
L 260.012486 193.503439 
Q 264.593103 193.503439 264.593103 188.922822 
L 264.593103 95.783622 
Q 264.593103 91.203006 260.012486 91.203006 
L 231.765352 91.203006 
Q 227.184735 91.203006 227.184735 95.783622 
L 227.184735 188.922822 
Q 227.184735 193.503439 231.765352 193.503439 
z
" clip-path="url(#p79fe762f88)" style="fill: #efeaf8; stroke: #6f4fb0; stroke-width: 2.2; stroke-linejoin: miter"/>
   </g>
   <g id="patch_4">
    <path d="M 79.078139 193.503439 
L 107.325273 193.503439 
Q 111.90589 193.503439 111.90589 188.922822 
L 111.90589 95.783622 
Q 111.90589 91.203006 107.325273 91.203006 
L 79.078139 91.203006 
Q 74.497522 91.203006 74.497522 95.783622 
L 74.497522 188.922822 
Q 74.497522 193.503439 79.078139 193.503439 
z
" clip-path="url(#p79fe762f88)" style="fill: #efeaf8; stroke: #6f4fb0; stroke-width: 2.2; stroke-linejoin: miter"/>
   </g>
   <g id="patch_5">
    <path d="M 231.765352 193.503439 
L 260.012486 193.503439 
Q 264.593103 193.503439 264.593103 188.922822 
L 264.593103 95.783622 
Q 264.593103 91.203006 260.012486 91.203006 
L 231.765352 91.203006 
Q 227.184735 91.203006 227.184735 95.783622 
L 227.184735 188.922822 
Q 227.184735 193.503439 231.765352 193.503439 
z
" clip-path="url(#p79fe762f88)" style="fill: #efeaf8; stroke: #6f4fb0; stroke-width: 2.2; stroke-linejoin: miter"/>
   </g>
   <g id="text_2">
    <!-- S -->
    <g style="fill: #6f4fb0" transform="translate(87.800534 146.492285) scale(0.15 -0.15)">
     <defs>
      <path id="DejaVuSans-Bold-53" d="M 3834 4519 
L 3834 3531 
Q 3450 3703 3084 3790 
Q 2719 3878 2394 3878 
Q 1963 3878 1756 3759 
Q 1550 3641 1550 3391 
Q 1550 3203 1689 3098 
Q 1828 2994 2194 2919 
L 2706 2816 
Q 3484 2659 3812 2340 
Q 4141 2022 4141 1434 
Q 4141 663 3683 286 
Q 3225 -91 2284 -91 
Q 1841 -91 1394 -6 
Q 947 78 500 244 
L 500 1259 
Q 947 1022 1364 901 
Q 1781 781 2169 781 
Q 2563 781 2772 912 
Q 2981 1044 2981 1288 
Q 2981 1506 2839 1625 
Q 2697 1744 2272 1838 
L 1806 1941 
Q 1106 2091 782 2419 
Q 459 2747 459 3303 
Q 459 4000 909 4375 
Q 1359 4750 2203 4750 
Q 2588 4750 2994 4692 
Q 3400 4634 3834 4519 
z
" transform="scale(0.015625)"/>
     </defs>
     <use xlink:href="#DejaVuSans-Bold-53"/>
    </g>
   </g>
   <g id="text_3">
    <!-- E -->
    <g style="fill: #6f4fb0" transform="translate(240.765482 146.492285) scale(0.15 -0.15)">
     <defs>
      <path id="DejaVuSans-Bold-45" d="M 588 4666 
L 3834 4666 
L 3834 3756 
L 1791 3756 
L 1791 2888 
L 3713 2888 
L 3713 1978 
L 1791 1978 
L 1791 909 
L 3903 909 
L 3903 0 
L 588 0 
L 588 4666 
z
" transform="scale(0.015625)"/>
     </defs>
     <use xlink:href="#DejaVuSans-Bold-45"/>
    </g>
   </g>
   <g id="text_4">
    <!-- S -->
    <g style="fill: #6f4fb0" transform="translate(87.800534 146.492285) scale(0.15 -0.15)">
     <use xlink:href="#DejaVuSans-Bold-53"/>
    </g>
   </g>
   <g id="text_5">
    <!-- start footprint -->
    <g style="fill: #6f4fb0" transform="translate(60.122409 209.883187) scale(0.095 -0.095)">
     <defs>
      <path id="DejaVuSans-66" d="M 2375 4863 
L 2375 4384 
L 1825 4384 
Q 1516 4384 1395 4259 
Q 1275 4134 1275 3809 
L 1275 3500 
L 2222 3500 
L 2222 3053 
L 1275 3053 
L 1275 0 
L 697 0 
L 697 3053 
L 147 3053 
L 147 3500 
L 697 3500 
L 697 3744 
Q 697 4328 969 4595 
Q 1241 4863 1831 4863 
L 2375 4863 
z
" transform="scale(0.015625)"/>
      <path id="DejaVuSans-6f" d="M 1959 3097 
Q 1497 3097 1228 2736 
Q 959 2375 959 1747 
Q 959 1119 1226 758 
Q 1494 397 1959 397 
Q 2419 397 2687 759 
Q 2956 1122 2956 1747 
Q 2956 2369 2687 2733 
Q 2419 3097 1959 3097 
z
M 1959 3584 
Q 2709 3584 3137 3096 
Q 3566 2609 3566 1747 
Q 3566 888 3137 398 
Q 2709 -91 1959 -91 
Q 1206 -91 779 398 
Q 353 888 353 1747 
Q 353 2609 779 3096 
Q 1206 3584 1959 3584 
z
" transform="scale(0.015625)"/>
     </defs>
     <use xlink:href="#DejaVuSans-73"/>
     <use xlink:href="#DejaVuSans-74" transform="translate(52.099609 0)"/>
     <use xlink:href="#DejaVuSans-61" transform="translate(91.308594 0)"/>
     <use xlink:href="#DejaVuSans-72" transform="translate(152.587891 0)"/>
     <use xlink:href="#DejaVuSans-74" transform="translate(193.701172 0)"/>
     <use xlink:href="#DejaVuSans-20" transform="translate(232.910156 0)"/>
     <use xlink:href="#DejaVuSans-66" transform="translate(264.697266 0)"/>
     <use xlink:href="#DejaVuSans-6f" transform="translate(299.902344 0)"/>
     <use xlink:href="#DejaVuSans-6f" transform="translate(361.083984 0)"/>
     <use xlink:href="#DejaVuSans-74" transform="translate(422.265625 0)"/>
     <use xlink:href="#DejaVuSans-70" transform="translate(461.474609 0)"/>
     <use xlink:href="#DejaVuSans-72" transform="translate(524.951172 0)"/>
     <use xlink:href="#DejaVuSans-69" transform="translate(566.064453 0)"/>
     <use xlink:href="#DejaVuSans-6e" transform="translate(593.847656 0)"/>
     <use xlink:href="#DejaVuSans-74" transform="translate(657.226562 0)"/>
    </g>
    <!-- (fused, rigid) -->
    <g style="fill: #6f4fb0" transform="translate(62.757917 220.521109) scale(0.095 -0.095)">
     <defs>
      <path id="DejaVuSans-28" d="M 1984 4856 
Q 1566 4138 1362 3434 
Q 1159 2731 1159 2009 
Q 1159 1288 1364 580 
Q 1569 -128 1984 -844 
L 1484 -844 
Q 1016 -109 783 600 
Q 550 1309 550 2009 
Q 550 2706 781 3412 
Q 1013 4119 1484 4856 
L 1984 4856 
z
" transform="scale(0.015625)"/>
      <path id="DejaVuSans-2c" d="M 750 794 
L 1409 794 
L 1409 256 
L 897 -744 
L 494 -744 
L 750 256 
L 750 794 
z
" transform="scale(0.015625)"/>
      <path id="DejaVuSans-29" d="M 513 4856 
L 1013 4856 
Q 1481 4119 1714 3412 
Q 1947 2706 1947 2009 
Q 1947 1309 1714 600 
Q 1481 -109 1013 -844 
L 513 -844 
Q 928 -128 1133 580 
Q 1338 1288 1338 2009 
Q 1338 2731 1133 3434 
Q 928 4138 513 4856 
z
" transform="scale(0.015625)"/>
     </defs>
     <use xlink:href="#DejaVuSans-28"/>
     <use xlink:href="#DejaVuSans-66" transform="translate(39.013672 0)"/>
     <use xlink:href="#DejaVuSans-75" transform="translate(74.21875 0)"/>
     <use xlink:href="#DejaVuSans-73" transform="translate(137.597656 0)"/>
     <use xlink:href="#DejaVuSans-65" transform="translate(189.697266 0)"/>
     <use xlink:href="#DejaVuSans-64" transform="translate(251.220703 0)"/>
     <use xlink:href="#DejaVuSans-2c" transform="translate(314.697266 0)"/>
     <use xlink:href="#DejaVuSans-20" transform="translate(346.484375 0)"/>
     <use xlink:href="#DejaVuSans-72" transform="translate(378.271484 0)"/>
     <use xlink:href="#DejaVuSans-69" transform="translate(419.384766 0)"/>
     <use xlink:href="#DejaVuSans-67" transform="translate(447.167969 0)"/>
     <use xlink:href="#DejaVuSans-69" transform="translate(510.644531 0)"/>
     <use xlink:href="#DejaVuSans-64" transform="translate(538.427734 0)"/>
     <use xlink:href="#DejaVuSans-29" transform="translate(601.904297 0)"/>
    </g>
   </g>
   <g id="text_6">
    <!-- E -->
    <g style="fill: #6f4fb0" transform="translate(240.765482 146.492285) scale(0.15 -0.15)">
     <use xlink:href="#DejaVuSans-Bold-45"/>
    </g>
   </g>
   <g id="text_7">
    <!-- exit footprint -->
    <g style="fill: #6f4fb0" transform="translate(215.039153 209.883187) scale(0.095 -0.095)">
     <defs>
      <path id="DejaVuSans-78" d="M 3513 3500 
L 2247 1797 
L 3578 0 
L 2900 0 
L 1881 1375 
L 863 0 
L 184 0 
L 1544 1831 
L 300 3500 
L 978 3500 
L 1906 2253 
L 2834 3500 
L 3513 3500 
z
" transform="scale(0.015625)"/>
     </defs>
     <use xlink:href="#DejaVuSans-65"/>
     <use xlink:href="#DejaVuSans-78" transform="translate(59.773438 0)"/>
     <use xlink:href="#DejaVuSans-69" transform="translate(118.953125 0)"/>
     <use xlink:href="#DejaVuSans-74" transform="translate(146.736328 0)"/>
     <use xlink:href="#DejaVuSans-20" transform="translate(185.945312 0)"/>
     <use xlink:href="#DejaVuSans-66" transform="translate(217.732422 0)"/>
     <use xlink:href="#DejaVuSans-6f" transform="translate(252.9375 0)"/>
     <use xlink:href="#DejaVuSans-6f" transform="translate(314.119141 0)"/>
     <use xlink:href="#DejaVuSans-74" transform="translate(375.300781 0)"/>
     <use xlink:href="#DejaVuSans-70" transform="translate(414.509766 0)"/>
     <use xlink:href="#DejaVuSans-72" transform="translate(477.986328 0)"/>
     <use xlink:href="#DejaVuSans-69" transform="translate(519.099609 0)"/>
     <use xlink:href="#DejaVuSans-6e" transform="translate(546.882812 0)"/>
     <use xlink:href="#DejaVuSans-74" transform="translate(610.261719 0)"/>
    </g>
    <!-- (fused, rigid) -->
    <g style="fill: #6f4fb0" transform="translate(215.44513 220.521109) scale(0.095 -0.095)">
     <use xlink:href="#DejaVuSans-28"/>
     <use xlink:href="#DejaVuSans-66" transform="translate(39.013672 0)"/>
     <use xlink:href="#DejaVuSans-75" transform="translate(74.21875 0)"/>
     <use xlink:href="#DejaVuSans-73" transform="translate(137.597656 0)"/>
     <use xlink:href="#DejaVuSans-65" transform="translate(189.697266 0)"/>
     <use xlink:href="#DejaVuSans-64" transform="translate(251.220703 0)"/>
     <use xlink:href="#DejaVuSans-2c" transform="translate(314.697266 0)"/>
     <use xlink:href="#DejaVuSans-20" transform="translate(346.484375 0)"/>
     <use xlink:href="#DejaVuSans-72" transform="translate(378.271484 0)"/>
     <use xlink:href="#DejaVuSans-69" transform="translate(419.384766 0)"/>
     <use xlink:href="#DejaVuSans-67" transform="translate(447.167969 0)"/>
     <use xlink:href="#DejaVuSans-69" transform="translate(510.644531 0)"/>
     <use xlink:href="#DejaVuSans-64" transform="translate(538.427734 0)"/>
     <use xlink:href="#DejaVuSans-29" transform="translate(601.904297 0)"/>
    </g>
   </g>
   <g id="text_8">
    <!-- A -->
    <g style="fill: #1f77b4" transform="translate(164.514922 70.360239) scale(0.13 -0.13)">
     <defs>
      <path id="DejaVuSans-Bold-41" d="M 3419 850 
L 1538 850 
L 1241 0 
L 31 0 
L 1759 4666 
L 3194 4666 
L 4922 0 
L 3713 0 
L 3419 850 
z
M 1838 1716 
L 3116 1716 
L 2478 3572 
L 1838 1716 
z
" transform="scale(0.015625)"/>
     </defs>
     <use xlink:href="#DejaVuSans-Bold-41"/>
    </g>
   </g>
   <g id="text_9">
    <!-- B -->
    <g style="fill: #e8820c" transform="translate(164.591094 135.252305) scale(0.13 -0.13)">
     <defs>
      <path id="DejaVuSans-Bold-42" d="M 2456 2859 
Q 2741 2859 2887 2984 
Q 3034 3109 3034 3353 
Q 3034 3594 2887 3720 
Q 2741 3847 2456 3847 
L 1791 3847 
L 1791 2859 
L 2456 2859 
z
M 2497 819 
Q 2859 819 3042 972 
Q 3225 1125 3225 1434 
Q 3225 1738 3044 1889 
Q 2863 2041 2497 2041 
L 1791 2041 
L 1791 819 
L 2497 819 
z
M 3616 2497 
Q 4003 2384 4215 2081 
Q 4428 1778 4428 1338 
Q 4428 663 3972 331 
Q 3516 0 2584 0 
L 588 0 
L 588 4666 
L 2394 4666 
Q 3366 4666 3802 4372 
Q 4238 4078 4238 3431 
Q 4238 3091 4078 2852 
Q 3919 2613 3616 2497 
z
" transform="scale(0.015625)"/>
     </defs>
     <use xlink:href="#DejaVuSans-Bold-42"/>
    </g>
   </g>
   <g id="text_10">
    <!-- C -->
    <g style="fill: #2ca02c" transform="translate(164.774922 223.810889) scale(0.13 -0.13)">
     <defs>
      <path id="DejaVuSans-Bold-43" d="M 4288 256 
Q 3956 84 3597 -3 
Q 3238 -91 2847 -91 
Q 1681 -91 1000 561 
Q 319 1213 319 2328 
Q 319 3447 1000 4098 
Q 1681 4750 2847 4750 
Q 3238 4750 3597 4662 
Q 3956 4575 4288 4403 
L 4288 3438 
Q 3953 3666 3628 3772 
Q 3303 3878 2944 3878 
Q 2300 3878 1931 3465 
Q 1563 3053 1563 2328 
Q 1563 1606 1931 1193 
Q 2300 781 2944 781 
Q 3303 781 3628 887 
Q 3953 994 4288 1222 
L 4288 256 
z
" transform="scale(0.015625)"/>
     </defs>
     <use xlink:href="#DejaVuSans-Bold-43"/>
    </g>
   </g>
   <g id="text_11">
    <!-- cycle rank $= E-V+1 = 3-2+1 = 2$ -->
    <g style="fill: #222222" transform="translate(58.245312 242.991321) scale(0.12 -0.12)">
     <defs>
      <path id="DejaVuSans-79" d="M 2059 -325 
Q 1816 -950 1584 -1140 
Q 1353 -1331 966 -1331 
L 506 -1331 
L 506 -850 
L 844 -850 
Q 1081 -850 1212 -737 
Q 1344 -625 1503 -206 
L 1606 56 
L 191 3500 
L 800 3500 
L 1894 763 
L 2988 3500 
L 3597 3500 
L 2059 -325 
z
" transform="scale(0.015625)"/>
      <path id="DejaVuSans-6c" d="M 603 4863 
L 1178 4863 
L 1178 0 
L 603 0 
L 603 4863 
z
" transform="scale(0.015625)"/>
      <path id="DejaVuSans-6b" d="M 581 4863 
L 1159 4863 
L 1159 1991 
L 2875 3500 
L 3609 3500 
L 1753 1863 
L 3688 0 
L 2938 0 
L 1159 1709 
L 1159 0 
L 581 0 
L 581 4863 
z
" transform="scale(0.015625)"/>
      <path id="DejaVuSans-Oblique-45" d="M 1081 4666 
L 4031 4666 
L 3928 4134 
L 1606 4134 
L 1338 2753 
L 3566 2753 
L 3463 2222 
L 1234 2222 
L 909 531 
L 3284 531 
L 3181 0 
L 172 0 
L 1081 4666 
z
" transform="scale(0.015625)"/>
      <path id="DejaVuSans-2212" d="M 678 2272 
L 4684 2272 
L 4684 1741 
L 678 1741 
L 678 2272 
z
" transform="scale(0.015625)"/>
      <path id="DejaVuSans-Oblique-56" d="M 1319 0 
L 500 4666 
L 1119 4666 
L 1797 653 
L 4063 4666 
L 4750 4666 
L 2053 0 
L 1319 0 
z
" transform="scale(0.015625)"/>
     </defs>
     <use xlink:href="#DejaVuSans-63" transform="translate(0 0.015625)"/>
     <use xlink:href="#DejaVuSans-79" transform="translate(54.980469 0.015625)"/>
     <use xlink:href="#DejaVuSans-63" transform="translate(114.160156 0.015625)"/>
     <use xlink:href="#DejaVuSans-6c" transform="translate(169.140625 0.015625)"/>
     <use xlink:href="#DejaVuSans-65" transform="translate(196.923828 0.015625)"/>
     <use xlink:href="#DejaVuSans-20" transform="translate(258.447266 0.015625)"/>
     <use xlink:href="#DejaVuSans-72" transform="translate(290.234375 0.015625)"/>
     <use xlink:href="#DejaVuSans-61" transform="translate(331.347656 0.015625)"/>
     <use xlink:href="#DejaVuSans-6e" transform="translate(392.626953 0.015625)"/>
     <use xlink:href="#DejaVuSans-6b" transform="translate(456.005859 0.015625)"/>
     <use xlink:href="#DejaVuSans-20" transform="translate(513.916016 0.015625)"/>
     <use xlink:href="#DejaVuSans-3d" transform="translate(565.185547 0.015625)"/>
     <use xlink:href="#DejaVuSans-Oblique-45" transform="translate(668.457031 0.015625)"/>
     <use xlink:href="#DejaVuSans-2212" transform="translate(751.123047 0.015625)"/>
     <use xlink:href="#DejaVuSans-Oblique-56" transform="translate(854.394531 0.015625)"/>
     <use xlink:href="#DejaVuSans-2b" transform="translate(942.285156 0.015625)"/>
     <use xlink:href="#DejaVuSans-31" transform="translate(1045.556641 0.015625)"/>
     <use xlink:href="#DejaVuSans-3d" transform="translate(1128.662109 0.015625)"/>
     <use xlink:href="#DejaVuSans-33" transform="translate(1231.933594 0.015625)"/>
     <use xlink:href="#DejaVuSans-2212" transform="translate(1315.039062 0.015625)"/>
     <use xlink:href="#DejaVuSans-32" transform="translate(1418.310547 0.015625)"/>
     <use xlink:href="#DejaVuSans-2b" transform="translate(1501.416016 0.015625)"/>
     <use xlink:href="#DejaVuSans-31" transform="translate(1604.6875 0.015625)"/>
     <use xlink:href="#DejaVuSans-3d" transform="translate(1687.792969 0.015625)"/>
     <use xlink:href="#DejaVuSans-32" transform="translate(1791.064453 0.015625)"/>
    </g>
   </g>
   <g id="text_12">
    <!-- each chain A, B, C runs S → E -->
    <g style="fill: #222222" transform="translate(85.190117 48.188405) scale(0.115 -0.115)">
     <defs>
      <path id="DejaVuSans-41" d="M 2188 4044 
L 1331 1722 
L 3047 1722 
L 2188 4044 
z
M 1831 4666 
L 2547 4666 
L 4325 0 
L 3669 0 
L 3244 1197 
L 1141 1197 
L 716 0 
L 50 0 
L 1831 4666 
z
" transform="scale(0.015625)"/>
      <path id="DejaVuSans-42" d="M 1259 2228 
L 1259 519 
L 2272 519 
Q 2781 519 3026 730 
Q 3272 941 3272 1375 
Q 3272 1813 3026 2020 
Q 2781 2228 2272 2228 
L 1259 2228 
z
M 1259 4147 
L 1259 2741 
L 2194 2741 
Q 2656 2741 2882 2914 
Q 3109 3088 3109 3444 
Q 3109 3797 2882 3972 
Q 2656 4147 2194 4147 
L 1259 4147 
z
M 628 4666 
L 2241 4666 
Q 2963 4666 3353 4366 
Q 3744 4066 3744 3513 
Q 3744 3084 3544 2831 
Q 3344 2578 2956 2516 
Q 3422 2416 3680 2098 
Q 3938 1781 3938 1306 
Q 3938 681 3513 340 
Q 3088 0 2303 0 
L 628 0 
L 628 4666 
z
" transform="scale(0.015625)"/>
      <path id="DejaVuSans-43" d="M 4122 4306 
L 4122 3641 
Q 3803 3938 3442 4084 
Q 3081 4231 2675 4231 
Q 1875 4231 1450 3742 
Q 1025 3253 1025 2328 
Q 1025 1406 1450 917 
Q 1875 428 2675 428 
Q 3081 428 3442 575 
Q 3803 722 4122 1019 
L 4122 359 
Q 3791 134 3420 21 
Q 3050 -91 2638 -91 
Q 1578 -91 968 557 
Q 359 1206 359 2328 
Q 359 3453 968 4101 
Q 1578 4750 2638 4750 
Q 3056 4750 3426 4639 
Q 3797 4528 4122 4306 
z
" transform="scale(0.015625)"/>
      <path id="DejaVuSans-53" d="M 3425 4513 
L 3425 3897 
Q 3066 4069 2747 4153 
Q 2428 4238 2131 4238 
Q 1616 4238 1336 4038 
Q 1056 3838 1056 3469 
Q 1056 3159 1242 3001 
Q 1428 2844 1947 2747 
L 2328 2669 
Q 3034 2534 3370 2195 
Q 3706 1856 3706 1288 
Q 3706 609 3251 259 
Q 2797 -91 1919 -91 
Q 1588 -91 1214 -16 
Q 841 59 441 206 
L 441 856 
Q 825 641 1194 531 
Q 1563 422 1919 422 
Q 2459 422 2753 634 
Q 3047 847 3047 1241 
Q 3047 1584 2836 1778 
Q 2625 1972 2144 2069 
L 1759 2144 
Q 1053 2284 737 2584 
Q 422 2884 422 3419 
Q 422 4038 858 4394 
Q 1294 4750 2059 4750 
Q 2388 4750 2728 4690 
Q 3069 4631 3425 4513 
z
" transform="scale(0.015625)"/>
      <path id="DejaVuSans-2192" d="M 5050 2147 
L 5050 1866 
L 3822 638 
L 3447 1013 
L 4175 1741 
L 366 1741 
L 366 2272 
L 4175 2272 
L 3447 3000 
L 3822 3375 
L 5050 2147 
z
" transform="scale(0.015625)"/>
      <path id="DejaVuSans-45" d="M 628 4666 
L 3578 4666 
L 3578 4134 
L 1259 4134 
L 1259 2753 
L 3481 2753 
L 3481 2222 
L 1259 2222 
L 1259 531 
L 3634 531 
L 3634 0 
L 628 0 
L 628 4666 
z
" transform="scale(0.015625)"/>
     </defs>
     <use xlink:href="#DejaVuSans-65"/>
     <use xlink:href="#DejaVuSans-61" transform="translate(61.523438 0)"/>
     <use xlink:href="#DejaVuSans-63" transform="translate(122.802734 0)"/>
     <use xlink:href="#DejaVuSans-68" transform="translate(177.783203 0)"/>
     <use xlink:href="#DejaVuSans-20" transform="translate(241.162109 0)"/>
     <use xlink:href="#DejaVuSans-63" transform="translate(272.949219 0)"/>
     <use xlink:href="#DejaVuSans-68" transform="translate(327.929688 0)"/>
     <use xlink:href="#DejaVuSans-61" transform="translate(391.308594 0)"/>
     <use xlink:href="#DejaVuSans-69" transform="translate(452.587891 0)"/>
     <use xlink:href="#DejaVuSans-6e" transform="translate(480.371094 0)"/>
     <use xlink:href="#DejaVuSans-20" transform="translate(543.75 0)"/>
     <use xlink:href="#DejaVuSans-41" transform="translate(575.537109 0)"/>
     <use xlink:href="#DejaVuSans-2c" transform="translate(643.945312 0)"/>
     <use xlink:href="#DejaVuSans-20" transform="translate(675.732422 0)"/>
     <use xlink:href="#DejaVuSans-42" transform="translate(707.519531 0)"/>
     <use xlink:href="#DejaVuSans-2c" transform="translate(776.123047 0)"/>
     <use xlink:href="#DejaVuSans-20" transform="translate(807.910156 0)"/>
     <use xlink:href="#DejaVuSans-43" transform="translate(839.697266 0)"/>
     <use xlink:href="#DejaVuSans-20" transform="translate(909.521484 0)"/>
     <use xlink:href="#DejaVuSans-72" transform="translate(941.308594 0)"/>
     <use xlink:href="#DejaVuSans-75" transform="translate(982.421875 0)"/>
     <use xlink:href="#DejaVuSans-6e" transform="translate(1045.800781 0)"/>
     <use xlink:href="#DejaVuSans-73" transform="translate(1109.179688 0)"/>
     <use xlink:href="#DejaVuSans-20" transform="translate(1161.279297 0)"/>
     <use xlink:href="#DejaVuSans-53" transform="translate(1193.066406 0)"/>
     <use xlink:href="#DejaVuSans-20" transform="translate(1256.542969 0)"/>
     <use xlink:href="#DejaVuSans-2192" transform="translate(1288.330078 0)"/>
     <use xlink:href="#DejaVuSans-20" transform="translate(1372.119141 0)"/>
     <use xlink:href="#DejaVuSans-45" transform="translate(1403.90625 0)"/>
    </g>
   </g>
  </g>
 </g>
 <defs>
  <clipPath id="p79fe762f88">
   <rect x="39.761181" y="27.837812" width="259.568262" height="232.848"/>
  </clipPath>
 </defs>
</svg>
