<?xml version="1.0" encoding="utf-8" standalone="no"?>
<!DOCTYPE svg PUBLIC "-//W3C//DTD SVG 1.1//EN"
  "http://www.w3.org/Graphics/SVG/1.1/DTD/svg11.dtd">
<svg xmlns:xlink="http://www.w3.org/1999/xlink" width="583.56pt" height="204.912pt" viewBox="0 0 583.56 204.912" xmlns="http://www.w3.org/2000/svg" version="1.1">
 <metadata>
  <rdf:RDF xmlns:dc="http://purl.org/dc/elements/1.1/" xmlns:cc="http://creativecommons.org/ns#" xmlns:rdf="http://www.w3.org/1999/02/22-rdf-syntax-ns#">
   <cc:Work>
    <dc:type rdf:resource="http://purl.org/dc/dcmitype/StillImage"/>
    <dc:date>2026-06-03T14:06:03.344571</dc:date>
    <dc:format>image/svg+xml</dc:format>
    <dc:creator>
     <cc:Agent>
      <dc:title>Matplotlib v3.10.9, https://matplotlib.org/</dc:title>
     </cc:Agent>
    </dc:creator>
   </cc:Work>
  </rdf:RDF>
 </metadata>
 <defs>
  <style type="text/css">*{stroke-linejoin: round; stroke-linecap: butt}</style>
 </defs>
 <g id="figure_1">
  <g id="patch_1">
   <path d="M 0 204.912 
L 583.56 204.912 
L 583.56 0 
L 0 0 
z
" style="fill: #ffffff"/>
  </g>
  <g id="axes_1">
   <g id="line2d_1">
    <path d="M 36.9 132.912 
L 38.267089 134.059316 
L 39.634177 135.177214 
L 41.001266 136.265693 
L 42.368354 137.324754 
L 43.735443 138.354397 
L 45.102532 139.354621 
L 46.46962 140.325427 
L 47.836709 141.266815 
L 49.203797 142.178784 
L 50.570886 143.061335 
L 51.937975 143.914468 
L 53.305063 144.738182 
L 54.672152 145.532477 
L 56.039241 146.297355 
L 57.406329 147.032814 
L 58.773418 147.738855 
L 60.140506 148.415477 
L 61.507595 149.062681 
L 62.874684 149.680467 
L 64.241772 150.268834 
L 65.608861 150.827783 
L 66.975949 151.357313 
L 68.343038 151.857425 
L 69.710127 152.328119 
L 71.077215 152.769395 
L 72.444304 153.181252 
L 73.811392 153.56369 
L 75.178481 153.916711 
L 76.54557 154.240313 
L 77.912658 154.534496 
L 79.279747 154.799262 
L 80.646835 155.034609 
L 82.013924 155.240537 
L 83.381013 155.417047 
L 84.748101 155.564139 
L 86.11519 155.681813 
L 87.482278 155.770068 
L 88.849367 155.828904 
L 90.216456 155.858323 
L 91.583544 155.858323 
L 92.950633 155.828904 
L 94.317722 155.770068 
L 95.68481 155.681813 
L 97.051899 155.564139 
L 98.418987 155.417047 
L 99.786076 155.240537 
L 101.153165 155.034609 
L 102.520253 154.799262 
L 103.887342 154.534496 
L 105.25443 154.240313 
L 106.621519 153.916711 
L 107.988608 153.56369 
L 109.355696 153.181252 
L 110.722785 152.769395 
L 112.089873 152.328119 
L 113.456962 151.857425 
L 114.824051 151.357313 
L 116.191139 150.827783 
L 117.558228 150.268834 
L 118.925316 149.680467 
L 120.292405 149.062681 
L 121.659494 148.415477 
L 123.026582 147.738855 
L 124.393671 147.032814 
L 125.760759 146.297355 
L 127.127848 145.532477 
L 128.494937 144.738182 
L 129.862025 143.914468 
L 131.229114 143.061335 
L 132.596203 142.178784 
L 133.963291 141.266815 
L 135.33038 140.325427 
L 136.697468 139.354621 
L 138.064557 138.354397 
L 139.431646 137.324754 
L 140.798734 136.265693 
L 142.165823 135.177214 
L 143.532911 134.059316 
L 144.9 132.912 
" clip-path="url(#p688db297b3)" style="fill: none; stroke: #d7d9dc; stroke-width: 2; stroke-linecap: round"/>
   </g>
   <g id="text_1">
    <!-- loop AB  (A→ , B←) -->
    <g transform="translate(40.080859 62.112) scale(0.11 -0.11)">
     <defs>
      <path id="DejaVuSans-6c" d="M 603 4863 
L 1178 4863 
L 1178 0 
L 603 0 
L 603 4863 
z
" transform="scale(0.015625)"/>
      <path id="DejaVuSans-6f" d="M 1959 3097 
Q 1497 3097 1228 2736 
Q 959 2375 959 1747 
Q 959 1119 1226 758 
Q 1494 397 1959 397 
Q 2419 397 2687 759 
Q 2956 1122 2956 1747 
Q 2956 2369 2687 2733 
Q 2419 3097 1959 3097 
z
M 1959 3584 
Q 2709 3584 3137 3096 
Q 3566 2609 3566 1747 
Q 3566 888 3137 398 
Q 2709 -91 1959 -91 
Q 1206 -91 779 398 
Q 353 888 353 1747 
Q 353 2609 779 3096 
Q 1206 3584 1959 3584 
z
" transform="scale(0.015625)"/>
      <path id="DejaVuSans-70" d="M 1159 525 
L 1159 -1331 
L 581 -1331 
L 581 3500 
L 1159 3500 
L 1159 2969 
Q 1341 3281 1617 3432 
Q 1894 3584 2278 3584 
Q 2916 3584 3314 3078 
Q 3713 2572 3713 1747 
Q 3713 922 3314 415 
Q 2916 -91 2278 -91 
Q 1894 -91 1617 61 
Q 1341 213 1159 525 
z
M 3116 1747 
Q 3116 2381 2855 2742 
Q 2594 3103 2138 3103 
Q 1681 3103 1420 2742 
Q 1159 2381 1159 1747 
Q 1159 1113 1420 752 
Q 1681 391 2138 391 
Q 2594 391 2855 752 
Q 3116 1113 3116 1747 
z
" transform="scale(0.015625)"/>
      <path id="DejaVuSans-20" transform="scale(0.015625)"/>
      <path id="DejaVuSans-41" d="M 2188 4044 
L 1331 1722 
L 3047 1722 
L 2188 4044 
z
M 1831 4666 
L 2547 4666 
L 4325 0 
L 3669 0 
L 3244 1197 
L 1141 1197 
L 716 0 
L 50 0 
L 1831 4666 
z
" transform="scale(0.015625)"/>
      <path id="DejaVuSans-42" d="M 1259 2228 
L 1259 519 
L 2272 519 
Q 2781 519 3026 730 
Q 3272 941 3272 1375 
Q 3272 1813 3026 2020 
Q 2781 2228 2272 2228 
L 1259 2228 
z
M 1259 4147 
L 1259 2741 
L 2194 2741 
Q 2656 2741 2882 2914 
Q 3109 3088 3109 3444 
Q 3109 3797 2882 3972 
Q 2656 4147 2194 4147 
L 1259 4147 
z
M 628 4666 
L 2241 4666 
Q 2963 4666 3353 4366 
Q 3744 4066 3744 3513 
Q 3744 3084 3544 2831 
Q 3344 2578 2956 2516 
Q 3422 2416 3680 2098 
Q 3938 1781 3938 1306 
Q 3938 681 3513 340 
Q 3088 0 2303 0 
L 628 0 
L 628 4666 
z
" transform="scale(0.015625)"/>
      <path id="DejaVuSans-28" d="M 1984 4856 
Q 1566 4138 1362 3434 
Q 1159 2731 1159 2009 
Q 1159 1288 1364 580 
Q 1569 -128 1984 -844 
L 1484 -844 
Q 1016 -109 783 600 
Q 550 1309 550 2009 
Q 550 2706 781 3412 
Q 1013 4119 1484 4856 
L 1984 4856 
z
" transform="scale(0.015625)"/>
      <path id="DejaVuSans-2192" d="M 5050 2147 
L 5050 1866 
L 3822 638 
L 3447 1013 
L 4175 1741 
L 366 1741 
L 366 2272 
L 4175 2272 
L 3447 3000 
L 3822 3375 
L 5050 2147 
z
" transform="scale(0.015625)"/>
      <path id="DejaVuSans-2c" d="M 750 794 
L 1409 794 
L 1409 256 
L 897 -744 
L 494 -744 
L 750 256 
L 750 794 
z
" transform="scale(0.015625)"/>
      <path id="DejaVuSans-2190" d="M 313 1866 
L 313 2147 
L 1541 3375 
L 1916 3000 
L 1188 2272 
L 4997 2272 
L 4997 1741 
L 1188 1741 
L 1916 1013 
L 1541 638 
L 313 1866 
z
" transform="scale(0.015625)"/>
      <path id="DejaVuSans-29" d="M 513 4856 
L 1013 4856 
Q 1481 4119 1714 3412 
Q 1947 2706 1947 2009 
Q 1947 1309 1714 600 
Q 1481 -109 1013 -844 
L 513 -844 
Q 928 -128 1133 580 
Q 1338 1288 1338 2009 
Q 1338 2731 1133 3434 
Q 928 4138 513 4856 
z
" transform="scale(0.015625)"/>
     </defs>
     <use xlink:href="#DejaVuSans-6c"/>
     <use xlink:href="#DejaVuSans-6f" transform="translate(27.783203 0)"/>
     <use xlink:href="#DejaVuSans-6f" transform="translate(88.964844 0)"/>
     <use xlink:href="#DejaVuSans-70" transform="translate(150.146484 0)"/>
     <use xlink:href="#DejaVuSans-20" transform="translate(213.623047 0)"/>
     <use xlink:href="#DejaVuSans-41" transform="translate(245.410156 0)"/>
     <use xlink:href="#DejaVuSans-42" transform="translate(313.818359 0)"/>
     <use xlink:href="#DejaVuSans-20" transform="translate(382.421875 0)"/>
     <use xlink:href="#DejaVuSans-20" transform="translate(414.208984 0)"/>
     <use xlink:href="#DejaVuSans-28" transform="translate(445.996094 0)"/>
     <use xlink:href="#DejaVuSans-41" transform="translate(485.009766 0)"/>
     <use xlink:href="#DejaVuSans-2192" transform="translate(553.417969 0)"/>
     <use xlink:href="#DejaVuSans-20" transform="translate(637.207031 0)"/>
     <use xlink:href="#DejaVuSans-2c" transform="translate(668.994141 0)"/>
     <use xlink:href="#DejaVuSans-20" transform="translate(700.78125 0)"/>
     <use xlink:href="#DejaVuSans-42" transform="translate(732.568359 0)"/>
     <use xlink:href="#DejaVuSans-2190" transform="translate(801.171875 0)"/>
     <use xlink:href="#DejaVuSans-29" transform="translate(884.960938 0)"/>
    </g>
   </g>
   <g id="line2d_2">
    <path d="M 36.9 132.912 
L 38.267089 131.764684 
L 39.634177 130.646786 
L 41.001266 129.558307 
L 42.368354 128.499246 
L 43.735443 127.469603 
L 45.102532 126.469379 
L 46.46962 125.498573 
L 47.836709 124.557185 
L 49.203797 123.645216 
L 50.570886 122.762665 
L 51.937975 121.909532 
L 53.305063 121.085818 
L 54.672152 120.291523 
L 56.039241 119.526645 
L 57.406329 118.791186 
L 58.773418 118.085145 
L 60.140506 117.408523 
L 61.507595 116.761319 
L 62.874684 116.143533 
L 64.241772 115.555166 
L 65.608861 114.996217 
L 66.975949 114.466687 
L 68.343038 113.966575 
L 69.710127 113.495881 
L 71.077215 113.054605 
L 72.444304 112.642748 
L 73.811392 112.26031 
L 75.178481 111.907289 
L 76.54557 111.583687 
L 77.912658 111.289504 
L 79.279747 111.024738 
L 80.646835 110.789391 
L 82.013924 110.583463 
L 83.381013 110.406953 
L 84.748101 110.259861 
L 86.11519 110.142187 
L 87.482278 110.053932 
L 88.849367 109.995096 
L 90.216456 109.965677 
L 91.583544 109.965677 
L 92.950633 109.995096 
L 94.317722 110.053932 
L 95.68481 110.142187 
L 97.051899 110.259861 
L 98.418987 110.406953 
L 99.786076 110.583463 
L 101.153165 110.789391 
L 102.520253 111.024738 
L 103.887342 111.289504 
L 105.25443 111.583687 
L 106.621519 111.907289 
L 107.988608 112.26031 
L 109.355696 112.642748 
L 110.722785 113.054605 
L 112.089873 113.495881 
L 113.456962 113.966575 
L 114.824051 114.466687 
L 116.191139 114.996217 
L 117.558228 115.555166 
L 118.925316 116.143533 
L 120.292405 116.761319 
L 121.659494 117.408523 
L 123.026582 118.085145 
L 124.393671 118.791186 
L 125.760759 119.526645 
L 127.127848 120.291523 
L 128.494937 121.085818 
L 129.862025 121.909532 
L 131.229114 122.762665 
L 132.596203 123.645216 
L 133.963291 124.557185 
L 135.33038 125.498573 
L 136.697468 126.469379 
L 138.064557 127.469603 
L 139.431646 128.499246 
L 140.798734 129.558307 
L 142.165823 130.646786 
L 143.532911 131.764684 
L 144.9 132.912 
" clip-path="url(#p688db297b3)" style="fill: none; stroke: #1f77b4; stroke-width: 3; stroke-linecap: round"/>
   </g>
   <g id="line2d_3">
    <path d="M 36.9 132.912 
L 38.267089 132.912 
L 39.634177 132.912 
L 41.001266 132.912 
L 42.368354 132.912 
L 43.735443 132.912 
L 45.102532 132.912 
L 46.46962 132.912 
L 47.836709 132.912 
L 49.203797 132.912 
L 50.570886 132.912 
L 51.937975 132.912 
L 53.305063 132.912 
L 54.672152 132.912 
L 56.039241 132.912 
L 57.406329 132.912 
L 58.773418 132.912 
L 60.140506 132.912 
L 61.507595 132.912 
L 62.874684 132.912 
L 64.241772 132.912 
L 65.608861 132.912 
L 66.975949 132.912 
L 68.343038 132.912 
L 69.710127 132.912 
L 71.077215 132.912 
L 72.444304 132.912 
L 73.811392 132.912 
L 75.178481 132.912 
L 76.54557 132.912 
L 77.912658 132.912 
L 79.279747 132.912 
L 80.646835 132.912 
L 82.013924 132.912 
L 83.381013 132.912 
L 84.748101 132.912 
L 86.11519 132.912 
L 87.482278 132.912 
L 88.849367 132.912 
L 90.216456 132.912 
L 91.583544 132.912 
L 92.950633 132.912 
L 94.317722 132.912 
L 95.68481 132.912 
L 97.051899 132.912 
L 98.418987 132.912 
L 99.786076 132.912 
L 101.153165 132.912 
L 102.520253 132.912 
L 103.887342 132.912 
L 105.25443 132.912 
L 106.621519 132.912 
L 107.988608 132.912 
L 109.355696 132.912 
L 110.722785 132.912 
L 112.089873 132.912 
L 113.456962 132.912 
L 114.824051 132.912 
L 116.191139 132.912 
L 117.558228 132.912 
L 118.925316 132.912 
L 120.292405 132.912 
L 121.659494 132.912 
L 123.026582 132.912 
L 124.393671 132.912 
L 125.760759 132.912 
L 127.127848 132.912 
L 128.494937 132.912 
L 129.862025 132.912 
L 131.229114 132.912 
L 132.596203 132.912 
L 133.963291 132.912 
L 135.33038 132.912 
L 136.697468 132.912 
L 138.064557 132.912 
L 139.431646 132.912 
L 140.798734 132.912 
L 142.165823 132.912 
L 143.532911 132.912 
L 144.9 132.912 
" clip-path="url(#p688db297b3)" style="fill: none; stroke: #e8820c; stroke-width: 3; stroke-linecap: round"/>
   </g>
   <g id="patch_2">
    <path d="M 26.91 169.092 
L 46.89 169.092 
Q 50.13 169.092 50.13 165.852 
L 50.13 99.972 
Q 50.13 96.732 46.89 96.732 
L 26.91 96.732 
Q 23.67 96.732 23.67 99.972 
L 23.67 165.852 
Q 23.67 169.092 26.91 169.092 
z
" clip-path="url(#p688db297b3)" style="fill: #efeaf8; stroke: #6f4fb0; stroke-width: 2.2; stroke-linejoin: miter"/>
   </g>
   <g id="patch_3">
    <path d="M 134.91 169.092 
L 154.89 169.092 
Q 158.13 169.092 158.13 165.852 
L 158.13 99.972 
Q 158.13 96.732 154.89 96.732 
L 134.91 96.732 
Q 131.67 96.732 131.67 99.972 
L 131.67 165.852 
Q 131.67 169.092 134.91 169.092 
z
" clip-path="url(#p688db297b3)" style="fill: #efeaf8; stroke: #6f4fb0; stroke-width: 2.2; stroke-linejoin: miter"/>
   </g>
   <g id="patch_4">
    <path d="M 80.1 103.104 
Q 90.9 103.104 99.687539 103.104 
" clip-path="url(#p688db297b3)" style="fill: none; stroke: #222222; stroke-width: 1.8; stroke-linecap: round"/>
    <path d="M 94.887539 100.704 
L 99.687539 103.104 
L 94.887539 105.504 
z
" clip-path="url(#p688db297b3)" style="fill: #222222; stroke: #222222; stroke-width: 1.8; stroke-linecap: round"/>
   </g>
   <g id="patch_5">
    <path d="M 101.7 134.262 
Q 90.9 134.262 82.112461 134.262 
" clip-path="url(#p688db297b3)" style="fill: none; stroke: #222222; stroke-width: 1.8; stroke-linecap: round"/>
    <path d="M 86.912461 136.662 
L 82.112461 134.262 
L 86.912461 131.862 
z
" clip-path="url(#p688db297b3)" style="fill: #222222; stroke: #222222; stroke-width: 1.8; stroke-linecap: round"/>
   </g>
   <g id="text_2">
    <!-- S -->
    <g style="fill: #6f4fb0" transform="translate(31.498828 137.051063) scale(0.15 -0.15)">
     <defs>
      <path id="DejaVuSans-Bold-53" d="M 3834 4519 
L 3834 3531 
Q 3450 3703 3084 3790 
Q 2719 3878 2394 3878 
Q 1963 3878 1756 3759 
Q 1550 3641 1550 3391 
Q 1550 3203 1689 3098 
Q 1828 2994 2194 2919 
L 2706 2816 
Q 3484 2659 3812 2340 
Q 4141 2022 4141 1434 
Q 4141 663 3683 286 
Q 3225 -91 2284 -91 
Q 1841 -91 1394 -6 
Q 947 78 500 244 
L 500 1259 
Q 947 1022 1364 901 
Q 1781 781 2169 781 
Q 2563 781 2772 912 
Q 2981 1044 2981 1288 
Q 2981 1506 2839 1625 
Q 2697 1744 2272 1838 
L 1806 1941 
Q 1106 2091 782 2419 
Q 459 2747 459 3303 
Q 459 4000 909 4375 
Q 1359 4750 2203 4750 
Q 2588 4750 2994 4692 
Q 3400 4634 3834 4519 
z
" transform="scale(0.015625)"/>
     </defs>
     <use xlink:href="#DejaVuSans-Bold-53"/>
    </g>
   </g>
   <g id="text_3">
    <!-- E -->
    <g style="fill: #6f4fb0" transform="translate(139.776563 137.051063) scale(0.15 -0.15)">
     <defs>
      <path id="DejaVuSans-Bold-45" d="M 588 4666 
L 3834 4666 
L 3834 3756 
L 1791 3756 
L 1791 2888 
L 3713 2888 
L 3713 1978 
L 1791 1978 
L 1791 909 
L 3903 909 
L 3903 0 
L 588 0 
L 588 4666 
z
" transform="scale(0.015625)"/>
     </defs>
     <use xlink:href="#DejaVuSans-Bold-45"/>
    </g>
   </g>
   <g id="text_4">
    <!-- A -->
    <g style="fill: #1f77b4" transform="translate(85.869609 83.039187) scale(0.13 -0.13)">
     <defs>
      <path id="DejaVuSans-Bold-41" d="M 3419 850 
L 1538 850 
L 1241 0 
L 31 0 
L 1759 4666 
L 3194 4666 
L 4922 0 
L 3713 0 
L 3419 850 
z
M 1838 1716 
L 3116 1716 
L 2478 3572 
L 1838 1716 
z
" transform="scale(0.015625)"/>
     </defs>
     <use xlink:href="#DejaVuSans-Bold-41"/>
    </g>
   </g>
   <g id="text_5">
    <!-- B -->
    <g style="fill: #e8820c" transform="translate(85.945781 128.939188) scale(0.13 -0.13)">
     <defs>
      <path id="DejaVuSans-Bold-42" d="M 2456 2859 
Q 2741 2859 2887 2984 
Q 3034 3109 3034 3353 
Q 3034 3594 2887 3720 
Q 2741 3847 2456 3847 
L 1791 3847 
L 1791 2859 
L 2456 2859 
z
M 2497 819 
Q 2859 819 3042 972 
Q 3225 1125 3225 1434 
Q 3225 1738 3044 1889 
Q 2863 2041 2497 2041 
L 1791 2041 
L 1791 819 
L 2497 819 
z
M 3616 2497 
Q 4003 2384 4215 2081 
Q 4428 1778 4428 1338 
Q 4428 663 3972 331 
Q 3516 0 2584 0 
L 588 0 
L 588 4666 
L 2394 4666 
Q 3366 4666 3802 4372 
Q 4238 4078 4238 3431 
Q 4238 3091 4078 2852 
Q 3919 2613 3616 2497 
z
" transform="scale(0.015625)"/>
     </defs>
     <use xlink:href="#DejaVuSans-Bold-42"/>
    </g>
   </g>
  </g>
  <g id="axes_2">
   <g id="line2d_4">
    <path d="M 237.78 132.912 
L 239.147089 132.912 
L 240.514177 132.912 
L 241.881266 132.912 
L 243.248354 132.912 
L 244.615443 132.912 
L 245.982532 132.912 
L 247.34962 132.912 
L 248.716709 132.912 
L 250.083797 132.912 
L 251.450886 132.912 
L 252.817975 132.912 
L 254.185063 132.912 
L 255.552152 132.912 
L 256.919241 132.912 
L 258.286329 132.912 
L 259.653418 132.912 
L 261.020506 132.912 
L 262.387595 132.912 
L 263.754684 132.912 
L 265.121772 132.912 
L 266.488861 132.912 
L 267.855949 132.912 
L 269.223038 132.912 
L 270.590127 132.912 
L 271.957215 132.912 
L 273.324304 132.912 
L 274.691392 132.912 
L 276.058481 132.912 
L 277.42557 132.912 
L 278.792658 132.912 
L 280.159747 132.912 
L 281.526835 132.912 
L 282.893924 132.912 
L 284.261013 132.912 
L 285.628101 132.912 
L 286.99519 132.912 
L 288.362278 132.912 
L 289.729367 132.912 
L 291.096456 132.912 
L 292.463544 132.912 
L 293.830633 132.912 
L 295.197722 132.912 
L 296.56481 132.912 
L 297.931899 132.912 
L 299.298987 132.912 
L 300.666076 132.912 
L 302.033165 132.912 
L 303.400253 132.912 
L 304.767342 132.912 
L 306.13443 132.912 
L 307.501519 132.912 
L 308.868608 132.912 
L 310.235696 132.912 
L 311.602785 132.912 
L 312.969873 132.912 
L 314.336962 132.912 
L 315.704051 132.912 
L 317.071139 132.912 
L 318.438228 132.912 
L 319.805316 132.912 
L 321.172405 132.912 
L 322.539494 132.912 
L 323.906582 132.912 
L 325.273671 132.912 
L 326.640759 132.912 
L 328.007848 132.912 
L 329.374937 132.912 
L 330.742025 132.912 
L 332.109114 132.912 
L 333.476203 132.912 
L 334.843291 132.912 
L 336.21038 132.912 
L 337.577468 132.912 
L 338.944557 132.912 
L 340.311646 132.912 
L 341.678734 132.912 
L 343.045823 132.912 
L 344.412911 132.912 
L 345.78 132.912 
" clip-path="url(#p443787ef2a)" style="fill: none; stroke: #d7d9dc; stroke-width: 2; stroke-linecap: round"/>
   </g>
   <g id="text_6">
    <!-- loop AC  (A→ , C←) -->
    <g transform="translate(240.923047 62.112) scale(0.11 -0.11)">
     <defs>
      <path id="DejaVuSans-43" d="M 4122 4306 
L 4122 3641 
Q 3803 3938 3442 4084 
Q 3081 4231 2675 4231 
Q 1875 4231 1450 3742 
Q 1025 3253 1025 2328 
Q 1025 1406 1450 917 
Q 1875 428 2675 428 
Q 3081 428 3442 575 
Q 3803 722 4122 1019 
L 4122 359 
Q 3791 134 3420 21 
Q 3050 -91 2638 -91 
Q 1578 -91 968 557 
Q 359 1206 359 2328 
Q 359 3453 968 4101 
Q 1578 4750 2638 4750 
Q 3056 4750 3426 4639 
Q 3797 4528 4122 4306 
z
" transform="scale(0.015625)"/>
     </defs>
     <use xlink:href="#DejaVuSans-6c"/>
     <use xlink:href="#DejaVuSans-6f" transform="translate(27.783203 0)"/>
     <use xlink:href="#DejaVuSans-6f" transform="translate(88.964844 0)"/>
     <use xlink:href="#DejaVuSans-70" transform="translate(150.146484 0)"/>
     <use xlink:href="#DejaVuSans-20" transform="translate(213.623047 0)"/>
     <use xlink:href="#DejaVuSans-41" transform="translate(245.410156 0)"/>
     <use xlink:href="#DejaVuSans-43" transform="translate(312.068359 0)"/>
     <use xlink:href="#DejaVuSans-20" transform="translate(381.892578 0)"/>
     <use xlink:href="#DejaVuSans-20" transform="translate(413.679688 0)"/>
     <use xlink:href="#DejaVuSans-28" transform="translate(445.466797 0)"/>
     <use xlink:href="#DejaVuSans-41" transform="translate(484.480469 0)"/>
     <use xlink:href="#DejaVuSans-2192" transform="translate(552.888672 0)"/>
     <use xlink:href="#DejaVuSans-20" transform="translate(636.677734 0)"/>
     <use xlink:href="#DejaVuSans-2c" transform="translate(668.464844 0)"/>
     <use xlink:href="#DejaVuSans-20" transform="translate(700.251953 0)"/>
     <use xlink:href="#DejaVuSans-43" transform="translate(732.039062 0)"/>
     <use xlink:href="#DejaVuSans-2190" transform="translate(801.863281 0)"/>
     <use xlink:href="#DejaVuSans-29" transform="translate(885.652344 0)"/>
    </g>
   </g>
   <g id="line2d_5">
    <path d="M 237.78 132.912 
L 239.147089 131.764684 
L 240.514177 130.646786 
L 241.881266 129.558307 
L 243.248354 128.499246 
L 244.615443 127.469603 
L 245.982532 126.469379 
L 247.34962 125.498573 
L 248.716709 124.557185 
L 250.083797 123.645216 
L 251.450886 122.762665 
L 252.817975 121.909532 
L 254.185063 121.085818 
L 255.552152 120.291523 
L 256.919241 119.526645 
L 258.286329 118.791186 
L 259.653418 118.085145 
L 261.020506 117.408523 
L 262.387595 116.761319 
L 263.754684 116.143533 
L 265.121772 115.555166 
L 266.488861 114.996217 
L 267.855949 114.466687 
L 269.223038 113.966575 
L 270.590127 113.495881 
L 271.957215 113.054605 
L 273.324304 112.642748 
L 274.691392 112.26031 
L 276.058481 111.907289 
L 277.42557 111.583687 
L 278.792658 111.289504 
L 280.159747 111.024738 
L 281.526835 110.789391 
L 282.893924 110.583463 
L 284.261013 110.406953 
L 285.628101 110.259861 
L 286.99519 110.142187 
L 288.362278 110.053932 
L 289.729367 109.995096 
L 291.096456 109.965677 
L 292.463544 109.965677 
L 293.830633 109.995096 
L 295.197722 110.053932 
L 296.56481 110.142187 
L 297.931899 110.259861 
L 299.298987 110.406953 
L 300.666076 110.583463 
L 302.033165 110.789391 
L 303.400253 111.024738 
L 304.767342 111.289504 
L 306.13443 111.583687 
L 307.501519 111.907289 
L 308.868608 112.26031 
L 310.235696 112.642748 
L 311.602785 113.054605 
L 312.969873 113.495881 
L 314.336962 113.966575 
L 315.704051 114.466687 
L 317.071139 114.996217 
L 318.438228 115.555166 
L 319.805316 116.143533 
L 321.172405 116.761319 
L 322.539494 117.408523 
L 323.906582 118.085145 
L 325.273671 118.791186 
L 326.640759 119.526645 
L 328.007848 120.291523 
L 329.374937 121.085818 
L 330.742025 121.909532 
L 332.109114 122.762665 
L 333.476203 123.645216 
L 334.843291 124.557185 
L 336.21038 125.498573 
L 337.577468 126.469379 
L 338.944557 127.469603 
L 340.311646 128.499246 
L 341.678734 129.558307 
L 343.045823 130.646786 
L 344.412911 131.764684 
L 345.78 132.912 
" clip-path="url(#p443787ef2a)" style="fill: none; stroke: #1f77b4; stroke-width: 3; stroke-linecap: round"/>
   </g>
   <g id="line2d_6">
    <path d="M 237.78 132.912 
L 239.147089 134.059316 
L 240.514177 135.177214 
L 241.881266 136.265693 
L 243.248354 137.324754 
L 244.615443 138.354397 
L 245.982532 139.354621 
L 247.34962 140.325427 
L 248.716709 141.266815 
L 250.083797 142.178784 
L 251.450886 143.061335 
L 252.817975 143.914468 
L 254.185063 144.738182 
L 255.552152 145.532477 
L 256.919241 146.297355 
L 258.286329 147.032814 
L 259.653418 147.738855 
L 261.020506 148.415477 
L 262.387595 149.062681 
L 263.754684 149.680467 
L 265.121772 150.268834 
L 266.488861 150.827783 
L 267.855949 151.357313 
L 269.223038 151.857425 
L 270.590127 152.328119 
L 271.957215 152.769395 
L 273.324304 153.181252 
L 274.691392 153.56369 
L 276.058481 153.916711 
L 277.42557 154.240313 
L 278.792658 154.534496 
L 280.159747 154.799262 
L 281.526835 155.034609 
L 282.893924 155.240537 
L 284.261013 155.417047 
L 285.628101 155.564139 
L 286.99519 155.681813 
L 288.362278 155.770068 
L 289.729367 155.828904 
L 291.096456 155.858323 
L 292.463544 155.858323 
L 293.830633 155.828904 
L 295.197722 155.770068 
L 296.56481 155.681813 
L 297.931899 155.564139 
L 299.298987 155.417047 
L 300.666076 155.240537 
L 302.033165 155.034609 
L 303.400253 154.799262 
L 304.767342 154.534496 
L 306.13443 154.240313 
L 307.501519 153.916711 
L 308.868608 153.56369 
L 310.235696 153.181252 
L 311.602785 152.769395 
L 312.969873 152.328119 
L 314.336962 151.857425 
L 315.704051 151.357313 
L 317.071139 150.827783 
L 318.438228 150.268834 
L 319.805316 149.680467 
L 321.172405 149.062681 
L 322.539494 148.415477 
L 323.906582 147.738855 
L 325.273671 147.032814 
L 326.640759 146.297355 
L 328.007848 145.532477 
L 329.374937 144.738182 
L 330.742025 143.914468 
L 332.109114 143.061335 
L 333.476203 142.178784 
L 334.843291 141.266815 
L 336.21038 140.325427 
L 337.577468 139.354621 
L 338.944557 138.354397 
L 340.311646 137.324754 
L 341.678734 136.265693 
L 343.045823 135.177214 
L 344.412911 134.059316 
L 345.78 132.912 
" clip-path="url(#p443787ef2a)" style="fill: none; stroke: #2ca02c; stroke-width: 3; stroke-linecap: round"/>
   </g>
   <g id="patch_6">
    <path d="M 227.79 169.092 
L 247.77 169.092 
Q 251.01 169.092 251.01 165.852 
L 251.01 99.972 
Q 251.01 96.732 247.77 96.732 
L 227.79 96.732 
Q 224.55 96.732 224.55 99.972 
L 224.55 165.852 
Q 224.55 169.092 227.79 169.092 
z
" clip-path="url(#p443787ef2a)" style="fill: #efeaf8; stroke: #6f4fb0; stroke-width: 2.2; stroke-linejoin: miter"/>
   </g>
   <g id="patch_7">
    <path d="M 335.79 169.092 
L 355.77 169.092 
Q 359.01 169.092 359.01 165.852 
L 359.01 99.972 
Q 359.01 96.732 355.77 96.732 
L 335.79 96.732 
Q 332.55 96.732 332.55 99.972 
L 332.55 165.852 
Q 332.55 169.092 335.79 169.092 
z
" clip-path="url(#p443787ef2a)" style="fill: #efeaf8; stroke: #6f4fb0; stroke-width: 2.2; stroke-linejoin: miter"/>
   </g>
   <g id="patch_8">
    <path d="M 280.98 103.104 
Q 291.78 103.104 300.567539 103.104 
" clip-path="url(#p443787ef2a)" style="fill: none; stroke: #222222; stroke-width: 1.8; stroke-linecap: round"/>
    <path d="M 295.767539 100.704 
L 300.567539 103.104 
L 295.767539 105.504 
z
" clip-path="url(#p443787ef2a)" style="fill: #222222; stroke: #222222; stroke-width: 1.8; stroke-linecap: round"/>
   </g>
   <g id="patch_9">
    <path d="M 302.58 162.72 
Q 291.78 162.72 282.992461 162.72 
" clip-path="url(#p443787ef2a)" style="fill: none; stroke: #222222; stroke-width: 1.8; stroke-linecap: round"/>
    <path d="M 287.792461 165.12 
L 282.992461 162.72 
L 287.792461 160.32 
z
" clip-path="url(#p443787ef2a)" style="fill: #222222; stroke: #222222; stroke-width: 1.8; stroke-linecap: round"/>
   </g>
   <g id="text_7">
    <!-- S -->
    <g style="fill: #6f4fb0" transform="translate(232.378828 137.051063) scale(0.15 -0.15)">
     <use xlink:href="#DejaVuSans-Bold-53"/>
    </g>
   </g>
   <g id="text_8">
    <!-- E -->
    <g style="fill: #6f4fb0" transform="translate(340.656563 137.051063) scale(0.15 -0.15)">
     <use xlink:href="#DejaVuSans-Bold-45"/>
    </g>
   </g>
   <g id="text_9">
    <!-- A -->
    <g style="fill: #1f77b4" transform="translate(286.749609 83.039187) scale(0.13 -0.13)">
     <use xlink:href="#DejaVuSans-Bold-41"/>
    </g>
   </g>
   <g id="text_10">
    <!-- C -->
    <g style="fill: #2ca02c" transform="translate(287.009609 191.579187) scale(0.13 -0.13)">
     <defs>
      <path id="DejaVuSans-Bold-43" d="M 4288 256 
Q 3956 84 3597 -3 
Q 3238 -91 2847 -91 
Q 1681 -91 1000 561 
Q 319 1213 319 2328 
Q 319 3447 1000 4098 
Q 1681 4750 2847 4750 
Q 3238 4750 3597 4662 
Q 3956 4575 4288 4403 
L 4288 3438 
Q 3953 3666 3628 3772 
Q 3303 3878 2944 3878 
Q 2300 3878 1931 3465 
Q 1563 3053 1563 2328 
Q 1563 1606 1931 1193 
Q 2300 781 2944 781 
Q 3303 781 3628 887 
Q 3953 994 4288 1222 
L 4288 256 
z
" transform="scale(0.015625)"/>
     </defs>
     <use xlink:href="#DejaVuSans-Bold-43"/>
    </g>
   </g>
  </g>
  <g id="axes_3">
   <g id="line2d_7">
    <path d="M 438.66 132.912 
L 440.027089 131.764684 
L 441.394177 130.646786 
L 442.761266 129.558307 
L 444.128354 128.499246 
L 445.495443 127.469603 
L 446.862532 126.469379 
L 448.22962 125.498573 
L 449.596709 124.557185 
L 450.963797 123.645216 
L 452.330886 122.762665 
L 453.697975 121.909532 
L 455.065063 121.085818 
L 456.432152 120.291523 
L 457.799241 119.526645 
L 459.166329 118.791186 
L 460.533418 118.085145 
L 461.900506 117.408523 
L 463.267595 116.761319 
L 464.634684 116.143533 
L 466.001772 115.555166 
L 467.368861 114.996217 
L 468.735949 114.466687 
L 470.103038 113.966575 
L 471.470127 113.495881 
L 472.837215 113.054605 
L 474.204304 112.642748 
L 475.571392 112.26031 
L 476.938481 111.907289 
L 478.30557 111.583687 
L 479.672658 111.289504 
L 481.039747 111.024738 
L 482.406835 110.789391 
L 483.773924 110.583463 
L 485.141013 110.406953 
L 486.508101 110.259861 
L 487.87519 110.142187 
L 489.242278 110.053932 
L 490.609367 109.995096 
L 491.976456 109.965677 
L 493.343544 109.965677 
L 494.710633 109.995096 
L 496.077722 110.053932 
L 497.44481 110.142187 
L 498.811899 110.259861 
L 500.178987 110.406953 
L 501.546076 110.583463 
L 502.913165 110.789391 
L 504.280253 111.024738 
L 505.647342 111.289504 
L 507.01443 111.583687 
L 508.381519 111.907289 
L 509.748608 112.26031 
L 511.115696 112.642748 
L 512.482785 113.054605 
L 513.849873 113.495881 
L 515.216962 113.966575 
L 516.584051 114.466687 
L 517.951139 114.996217 
L 519.318228 115.555166 
L 520.685316 116.143533 
L 522.052405 116.761319 
L 523.419494 117.408523 
L 524.786582 118.085145 
L 526.153671 118.791186 
L 527.520759 119.526645 
L 528.887848 120.291523 
L 530.254937 121.085818 
L 531.622025 121.909532 
L 532.989114 122.762665 
L 534.356203 123.645216 
L 535.723291 124.557185 
L 537.09038 125.498573 
L 538.457468 126.469379 
L 539.824557 127.469603 
L 541.191646 128.499246 
L 542.558734 129.558307 
L 543.925823 130.646786 
L 545.292911 131.764684 
L 546.66 132.912 
" clip-path="url(#p457b03e655)" style="fill: none; stroke: #d7d9dc; stroke-width: 2; stroke-linecap: round"/>
   </g>
   <g id="text_11">
    <!-- loop BC  (B→ , C←) -->
    <g transform="translate(441.780703 62.112) scale(0.11 -0.11)">
     <use xlink:href="#DejaVuSans-6c"/>
     <use xlink:href="#DejaVuSans-6f" transform="translate(27.783203 0)"/>
     <use xlink:href="#DejaVuSans-6f" transform="translate(88.964844 0)"/>
     <use xlink:href="#DejaVuSans-70" transform="translate(150.146484 0)"/>
     <use xlink:href="#DejaVuSans-20" transform="translate(213.623047 0)"/>
     <use xlink:href="#DejaVuSans-42" transform="translate(245.410156 0)"/>
     <use xlink:href="#DejaVuSans-43" transform="translate(312.263672 0)"/>
     <use xlink:href="#DejaVuSans-20" transform="translate(382.087891 0)"/>
     <use xlink:href="#DejaVuSans-20" transform="translate(413.875 0)"/>
     <use xlink:href="#DejaVuSans-28" transform="translate(445.662109 0)"/>
     <use xlink:href="#DejaVuSans-42" transform="translate(484.675781 0)"/>
     <use xlink:href="#DejaVuSans-2192" transform="translate(553.279297 0)"/>
     <use xlink:href="#DejaVuSans-20" transform="translate(637.068359 0)"/>
     <use xlink:href="#DejaVuSans-2c" transform="translate(668.855469 0)"/>
     <use xlink:href="#DejaVuSans-20" transform="translate(700.642578 0)"/>
     <use xlink:href="#DejaVuSans-43" transform="translate(732.429688 0)"/>
     <use xlink:href="#DejaVuSans-2190" transform="translate(802.253906 0)"/>
     <use xlink:href="#DejaVuSans-29" transform="translate(886.042969 0)"/>
    </g>
   </g>
   <g id="line2d_8">
    <path d="M 438.66 132.912 
L 440.027089 132.912 
L 441.394177 132.912 
L 442.761266 132.912 
L 444.128354 132.912 
L 445.495443 132.912 
L 446.862532 132.912 
L 448.22962 132.912 
L 449.596709 132.912 
L 450.963797 132.912 
L 452.330886 132.912 
L 453.697975 132.912 
L 455.065063 132.912 
L 456.432152 132.912 
L 457.799241 132.912 
L 459.166329 132.912 
L 460.533418 132.912 
L 461.900506 132.912 
L 463.267595 132.912 
L 464.634684 132.912 
L 466.001772 132.912 
L 467.368861 132.912 
L 468.735949 132.912 
L 470.103038 132.912 
L 471.470127 132.912 
L 472.837215 132.912 
L 474.204304 132.912 
L 475.571392 132.912 
L 476.938481 132.912 
L 478.30557 132.912 
L 479.672658 132.912 
L 481.039747 132.912 
L 482.406835 132.912 
L 483.773924 132.912 
L 485.141013 132.912 
L 486.508101 132.912 
L 487.87519 132.912 
L 489.242278 132.912 
L 490.609367 132.912 
L 491.976456 132.912 
L 493.343544 132.912 
L 494.710633 132.912 
L 496.077722 132.912 
L 497.44481 132.912 
L 498.811899 132.912 
L 500.178987 132.912 
L 501.546076 132.912 
L 502.913165 132.912 
L 504.280253 132.912 
L 505.647342 132.912 
L 507.01443 132.912 
L 508.381519 132.912 
L 509.748608 132.912 
L 511.115696 132.912 
L 512.482785 132.912 
L 513.849873 132.912 
L 515.216962 132.912 
L 516.584051 132.912 
L 517.951139 132.912 
L 519.318228 132.912 
L 520.685316 132.912 
L 522.052405 132.912 
L 523.419494 132.912 
L 524.786582 132.912 
L 526.153671 132.912 
L 527.520759 132.912 
L 528.887848 132.912 
L 530.254937 132.912 
L 531.622025 132.912 
L 532.989114 132.912 
L 534.356203 132.912 
L 535.723291 132.912 
L 537.09038 132.912 
L 538.457468 132.912 
L 539.824557 132.912 
L 541.191646 132.912 
L 542.558734 132.912 
L 543.925823 132.912 
L 545.292911 132.912 
L 546.66 132.912 
" clip-path="url(#p457b03e655)" style="fill: none; stroke: #e8820c; stroke-width: 3; stroke-linecap: round"/>
   </g>
   <g id="line2d_9">
    <path d="M 438.66 132.912 
L 440.027089 134.059316 
L 441.394177 135.177214 
L 442.761266 136.265693 
L 444.128354 137.324754 
L 445.495443 138.354397 
L 446.862532 139.354621 
L 448.22962 140.325427 
L 449.596709 141.266815 
L 450.963797 142.178784 
L 452.330886 143.061335 
L 453.697975 143.914468 
L 455.065063 144.738182 
L 456.432152 145.532477 
L 457.799241 146.297355 
L 459.166329 147.032814 
L 460.533418 147.738855 
L 461.900506 148.415477 
L 463.267595 149.062681 
L 464.634684 149.680467 
L 466.001772 150.268834 
L 467.368861 150.827783 
L 468.735949 151.357313 
L 470.103038 151.857425 
L 471.470127 152.328119 
L 472.837215 152.769395 
L 474.204304 153.181252 
L 475.571392 153.56369 
L 476.938481 153.916711 
L 478.30557 154.240313 
L 479.672658 154.534496 
L 481.039747 154.799262 
L 482.406835 155.034609 
L 483.773924 155.240537 
L 485.141013 155.417047 
L 486.508101 155.564139 
L 487.87519 155.681813 
L 489.242278 155.770068 
L 490.609367 155.828904 
L 491.976456 155.858323 
L 493.343544 155.858323 
L 494.710633 155.828904 
L 496.077722 155.770068 
L 497.44481 155.681813 
L 498.811899 155.564139 
L 500.178987 155.417047 
L 501.546076 155.240537 
L 502.913165 155.034609 
L 504.280253 154.799262 
L 505.647342 154.534496 
L 507.01443 154.240313 
L 508.381519 153.916711 
L 509.748608 153.56369 
L 511.115696 153.181252 
L 512.482785 152.769395 
L 513.849873 152.328119 
L 515.216962 151.857425 
L 516.584051 151.357313 
L 517.951139 150.827783 
L 519.318228 150.268834 
L 520.685316 149.680467 
L 522.052405 149.062681 
L 523.419494 148.415477 
L 524.786582 147.738855 
L 526.153671 147.032814 
L 527.520759 146.297355 
L 528.887848 145.532477 
L 530.254937 144.738182 
L 531.622025 143.914468 
L 532.989114 143.061335 
L 534.356203 142.178784 
L 535.723291 141.266815 
L 537.09038 140.325427 
L 538.457468 139.354621 
L 539.824557 138.354397 
L 541.191646 137.324754 
L 542.558734 136.265693 
L 543.925823 135.177214 
L 545.292911 134.059316 
L 546.66 132.912 
" clip-path="url(#p457b03e655)" style="fill: none; stroke: #2ca02c; stroke-width: 3; stroke-linecap: round"/>
   </g>
   <g id="patch_10">
    <path d="M 428.67 169.092 
L 448.65 169.092 
Q 451.89 169.092 451.89 165.852 
L 451.89 99.972 
Q 451.89 96.732 448.65 96.732 
L 428.67 96.732 
Q 425.43 96.732 425.43 99.972 
L 425.43 165.852 
Q 425.43 169.092 428.67 169.092 
z
" clip-path="url(#p457b03e655)" style="fill: #efeaf8; stroke: #6f4fb0; stroke-width: 2.2; stroke-linejoin: miter"/>
   </g>
   <g id="patch_11">
    <path d="M 536.67 169.092 
L 556.65 169.092 
Q 559.89 169.092 559.89 165.852 
L 559.89 99.972 
Q 559.89 96.732 556.65 96.732 
L 536.67 96.732 
Q 533.43 96.732 533.43 99.972 
L 533.43 165.852 
Q 533.43 169.092 536.67 169.092 
z
" clip-path="url(#p457b03e655)" style="fill: #efeaf8; stroke: #6f4fb0; stroke-width: 2.2; stroke-linejoin: miter"/>
   </g>
   <g id="patch_12">
    <path d="M 481.86 131.562 
Q 492.66 131.562 501.447539 131.562 
" clip-path="url(#p457b03e655)" style="fill: none; stroke: #222222; stroke-width: 1.8; stroke-linecap: round"/>
    <path d="M 496.647539 129.162 
L 501.447539 131.562 
L 496.647539 133.962 
z
" clip-path="url(#p457b03e655)" style="fill: #222222; stroke: #222222; stroke-width: 1.8; stroke-linecap: round"/>
   </g>
   <g id="patch_13">
    <path d="M 503.46 162.72 
Q 492.66 162.72 483.872461 162.72 
" clip-path="url(#p457b03e655)" style="fill: none; stroke: #222222; stroke-width: 1.8; stroke-linecap: round"/>
    <path d="M 488.672461 165.12 
L 483.872461 162.72 
L 488.672461 160.32 
z
" clip-path="url(#p457b03e655)" style="fill: #222222; stroke: #222222; stroke-width: 1.8; stroke-linecap: round"/>
   </g>
   <g id="text_12">
    <!-- S -->
    <g style="fill: #6f4fb0" transform="translate(433.258828 137.051063) scale(0.15 -0.15)">
     <use xlink:href="#DejaVuSans-Bold-53"/>
    </g>
   </g>
   <g id="text_13">
    <!-- E -->
    <g style="fill: #6f4fb0" transform="translate(541.536563 137.051063) scale(0.15 -0.15)">
     <use xlink:href="#DejaVuSans-Bold-45"/>
    </g>
   </g>
   <g id="text_14">
    <!-- B -->
    <g style="fill: #e8820c" transform="translate(487.705781 128.939188) scale(0.13 -0.13)">
     <use xlink:href="#DejaVuSans-Bold-42"/>
    </g>
   </g>
   <g id="text_15">
    <!-- C -->
    <g style="fill: #2ca02c" transform="translate(487.889609 191.579187) scale(0.13 -0.13)">
     <use xlink:href="#DejaVuSans-Bold-43"/>
    </g>
   </g>
  </g>
  <g id="text_16">
   <!-- Pairwise loops — only 2 of 3 independent (rank 2) -->
   <g transform="translate(126.751367 16.698047) scale(0.125 -0.125)">
    <defs>
     <path id="DejaVuSans-50" d="M 1259 4147 
L 1259 2394 
L 2053 2394 
Q 2494 2394 2734 2622 
Q 2975 2850 2975 3272 
Q 2975 3691 2734 3919 
Q 2494 4147 2053 4147 
L 1259 4147 
z
M 628 4666 
L 2053 4666 
Q 2838 4666 3239 4311 
Q 3641 3956 3641 3272 
Q 3641 2581 3239 2228 
Q 2838 1875 2053 1875 
L 1259 1875 
L 1259 0 
L 628 0 
L 628 4666 
z
" transform="scale(0.015625)"/>
     <path id="DejaVuSans-61" d="M 2194 1759 
Q 1497 1759 1228 1600 
Q 959 1441 959 1056 
Q 959 750 1161 570 
Q 1363 391 1709 391 
Q 2188 391 2477 730 
Q 2766 1069 2766 1631 
L 2766 1759 
L 2194 1759 
z
M 3341 1997 
L 3341 0 
L 2766 0 
L 2766 531 
Q 2569 213 2275 61 
Q 1981 -91 1556 -91 
Q 1019 -91 701 211 
Q 384 513 384 1019 
Q 384 1609 779 1909 
Q 1175 2209 1959 2209 
L 2766 2209 
L 2766 2266 
Q 2766 2663 2505 2880 
Q 2244 3097 1772 3097 
Q 1472 3097 1187 3025 
Q 903 2953 641 2809 
L 641 3341 
Q 956 3463 1253 3523 
Q 1550 3584 1831 3584 
Q 2591 3584 2966 3190 
Q 3341 2797 3341 1997 
z
" transform="scale(0.015625)"/>
     <path id="DejaVuSans-69" d="M 603 3500 
L 1178 3500 
L 1178 0 
L 603 0 
L 603 3500 
z
M 603 4863 
L 1178 4863 
L 1178 4134 
L 603 4134 
L 603 4863 
z
" transform="scale(0.015625)"/>
     <path id="DejaVuSans-72" d="M 2631 2963 
Q 2534 3019 2420 3045 
Q 2306 3072 2169 3072 
Q 1681 3072 1420 2755 
Q 1159 2438 1159 1844 
L 1159 0 
L 581 0 
L 581 3500 
L 1159 3500 
L 1159 2956 
Q 1341 3275 1631 3429 
Q 1922 3584 2338 3584 
Q 2397 3584 2469 3576 
Q 2541 3569 2628 3553 
L 2631 2963 
z
" transform="scale(0.015625)"/>
     <path id="DejaVuSans-77" d="M 269 3500 
L 844 3500 
L 1563 769 
L 2278 3500 
L 2956 3500 
L 3675 769 
L 4391 3500 
L 4966 3500 
L 4050 0 
L 3372 0 
L 2619 2869 
L 1863 0 
L 1184 0 
L 269 3500 
z
" transform="scale(0.015625)"/>
     <path id="DejaVuSans-73" d="M 2834 3397 
L 2834 2853 
Q 2591 2978 2328 3040 
Q 2066 3103 1784 3103 
Q 1356 3103 1142 2972 
Q 928 2841 928 2578 
Q 928 2378 1081 2264 
Q 1234 2150 1697 2047 
L 1894 2003 
Q 2506 1872 2764 1633 
Q 3022 1394 3022 966 
Q 3022 478 2636 193 
Q 2250 -91 1575 -91 
Q 1294 -91 989 -36 
Q 684 19 347 128 
L 347 722 
Q 666 556 975 473 
Q 1284 391 1588 391 
Q 1994 391 2212 530 
Q 2431 669 2431 922 
Q 2431 1156 2273 1281 
Q 2116 1406 1581 1522 
L 1381 1569 
Q 847 1681 609 1914 
Q 372 2147 372 2553 
Q 372 3047 722 3315 
Q 1072 3584 1716 3584 
Q 2034 3584 2315 3537 
Q 2597 3491 2834 3397 
z
" transform="scale(0.015625)"/>
     <path id="DejaVuSans-65" d="M 3597 1894 
L 3597 1613 
L 953 1613 
Q 991 1019 1311 708 
Q 1631 397 2203 397 
Q 2534 397 2845 478 
Q 3156 559 3463 722 
L 3463 178 
Q 3153 47 2828 -22 
Q 2503 -91 2169 -91 
Q 1331 -91 842 396 
Q 353 884 353 1716 
Q 353 2575 817 3079 
Q 1281 3584 2069 3584 
Q 2775 3584 3186 3129 
Q 3597 2675 3597 1894 
z
M 3022 2063 
Q 3016 2534 2758 2815 
Q 2500 3097 2075 3097 
Q 1594 3097 1305 2825 
Q 1016 2553 972 2059 
L 3022 2063 
z
" transform="scale(0.015625)"/>
     <path id="DejaVuSans-2014" d="M 313 1978 
L 6088 1978 
L 6088 1528 
L 313 1528 
L 313 1978 
z
" transform="scale(0.015625)"/>
     <path id="DejaVuSans-6e" d="M 3513 2113 
L 3513 0 
L 2938 0 
L 2938 2094 
Q 2938 2591 2744 2837 
Q 2550 3084 2163 3084 
Q 1697 3084 1428 2787 
Q 1159 2491 1159 1978 
L 1159 0 
L 581 0 
L 581 3500 
L 1159 3500 
L 1159 2956 
Q 1366 3272 1645 3428 
Q 1925 3584 2291 3584 
Q 2894 3584 3203 3211 
Q 3513 2838 3513 2113 
z
" transform="scale(0.015625)"/>
     <path id="DejaVuSans-79" d="M 2059 -325 
Q 1816 -950 1584 -1140 
Q 1353 -1331 966 -1331 
L 506 -1331 
L 506 -850 
L 844 -850 
Q 1081 -850 1212 -737 
Q 1344 -625 1503 -206 
L 1606 56 
L 191 3500 
L 800 3500 
L 1894 763 
L 2988 3500 
L 3597 3500 
L 2059 -325 
z
" transform="scale(0.015625)"/>
     <path id="DejaVuSans-32" d="M 1228 531 
L 3431 531 
L 3431 0 
L 469 0 
L 469 531 
Q 828 903 1448 1529 
Q 2069 2156 2228 2338 
Q 2531 2678 2651 2914 
Q 2772 3150 2772 3378 
Q 2772 3750 2511 3984 
Q 2250 4219 1831 4219 
Q 1534 4219 1204 4116 
Q 875 4013 500 3803 
L 500 4441 
Q 881 4594 1212 4672 
Q 1544 4750 1819 4750 
Q 2544 4750 2975 4387 
Q 3406 4025 3406 3419 
Q 3406 3131 3298 2873 
Q 3191 2616 2906 2266 
Q 2828 2175 2409 1742 
Q 1991 1309 1228 531 
z
" transform="scale(0.015625)"/>
     <path id="DejaVuSans-66" d="M 2375 4863 
L 2375 4384 
L 1825 4384 
Q 1516 4384 1395 4259 
Q 1275 4134 1275 3809 
L 1275 3500 
L 2222 3500 
L 2222 3053 
L 1275 3053 
L 1275 0 
L 697 0 
L 697 3053 
L 147 3053 
L 147 3500 
L 697 3500 
L 697 3744 
Q 697 4328 969 4595 
Q 1241 4863 1831 4863 
L 2375 4863 
z
" transform="scale(0.015625)"/>
     <path id="DejaVuSans-33" d="M 2597 2516 
Q 3050 2419 3304 2112 
Q 3559 1806 3559 1356 
Q 3559 666 3084 287 
Q 2609 -91 1734 -91 
Q 1441 -91 1130 -33 
Q 819 25 488 141 
L 488 750 
Q 750 597 1062 519 
Q 1375 441 1716 441 
Q 2309 441 2620 675 
Q 2931 909 2931 1356 
Q 2931 1769 2642 2001 
Q 2353 2234 1838 2234 
L 1294 2234 
L 1294 2753 
L 1863 2753 
Q 2328 2753 2575 2939 
Q 2822 3125 2822 3475 
Q 2822 3834 2567 4026 
Q 2313 4219 1838 4219 
Q 1578 4219 1281 4162 
Q 984 4106 628 3988 
L 628 4550 
Q 988 4650 1302 4700 
Q 1616 4750 1894 4750 
Q 2613 4750 3031 4423 
Q 3450 4097 3450 3541 
Q 3450 3153 3228 2886 
Q 3006 2619 2597 2516 
z
" transform="scale(0.015625)"/>
     <path id="DejaVuSans-64" d="M 2906 2969 
L 2906 4863 
L 3481 4863 
L 3481 0 
L 2906 0 
L 2906 525 
Q 2725 213 2448 61 
Q 2172 -91 1784 -91 
Q 1150 -91 751 415 
Q 353 922 353 1747 
Q 353 2572 751 3078 
Q 1150 3584 1784 3584 
Q 2172 3584 2448 3432 
Q 2725 3281 2906 2969 
z
M 947 1747 
Q 947 1113 1208 752 
Q 1469 391 1925 391 
Q 2381 391 2643 752 
Q 2906 1113 2906 1747 
Q 2906 2381 2643 2742 
Q 2381 3103 1925 3103 
Q 1469 3103 1208 2742 
Q 947 2381 947 1747 
z
" transform="scale(0.015625)"/>
     <path id="DejaVuSans-74" d="M 1172 4494 
L 1172 3500 
L 2356 3500 
L 2356 3053 
L 1172 3053 
L 1172 1153 
Q 1172 725 1289 603 
Q 1406 481 1766 481 
L 2356 481 
L 2356 0 
L 1766 0 
Q 1100 0 847 248 
Q 594 497 594 1153 
L 594 3053 
L 172 3053 
L 172 3500 
L 594 3500 
L 594 4494 
L 1172 4494 
z
" transform="scale(0.015625)"/>
     <path id="DejaVuSans-6b" d="M 581 4863 
L 1159 4863 
L 1159 1991 
L 2875 3500 
L 3609 3500 
L 1753 1863 
L 3688 0 
L 2938 0 
L 1159 1709 
L 1159 0 
L 581 0 
L 581 4863 
z
" transform="scale(0.015625)"/>
    </defs>
    <use xlink:href="#DejaVuSans-50"/>
    <use xlink:href="#DejaVuSans-61" transform="translate(55.802734 0)"/>
    <use xlink:href="#DejaVuSans-69" transform="translate(117.082031 0)"/>
    <use xlink:href="#DejaVuSans-72" transform="translate(144.865234 0)"/>
    <use xlink:href="#DejaVuSans-77" transform="translate(185.978516 0)"/>
    <use xlink:href="#DejaVuSans-69" transform="translate(267.765625 0)"/>
    <use xlink:href="#DejaVuSans-73" transform="translate(295.548828 0)"/>
    <use xlink:href="#DejaVuSans-65" transform="translate(347.648438 0)"/>
    <use xlink:href="#DejaVuSans-20" transform="translate(409.171875 0)"/>
    <use xlink:href="#DejaVuSans-6c" transform="translate(440.958984 0)"/>
    <use xlink:href="#DejaVuSans-6f" transform="translate(468.742188 0)"/>
    <use xlink:href="#DejaVuSans-6f" transform="translate(529.923828 0)"/>
    <use xlink:href="#DejaVuSans-70" transform="translate(591.105469 0)"/>
    <use xlink:href="#DejaVuSans-73" transform="translate(654.582031 0)"/>
    <use xlink:href="#DejaVuSans-20" transform="translate(706.681641 0)"/>
    <use xlink:href="#DejaVuSans-2014" transform="translate(738.46875 0)"/>
    <use xlink:href="#DejaVuSans-20" transform="translate(838.46875 0)"/>
    <use xlink:href="#DejaVuSans-6f" transform="translate(870.255859 0)"/>
    <use xlink:href="#DejaVuSans-6e" transform="translate(931.4375 0)"/>
    <use xlink:href="#DejaVuSans-6c" transform="translate(994.816406 0)"/>
    <use xlink:href="#DejaVuSans-79" transform="translate(1022.599609 0)"/>
    <use xlink:href="#DejaVuSans-20" transform="translate(1081.779297 0)"/>
    <use xlink:href="#DejaVuSans-32" transform="translate(1113.566406 0)"/>
    <use xlink:href="#DejaVuSans-20" transform="translate(1177.189453 0)"/>
    <use xlink:href="#DejaVuSans-6f" transform="translate(1208.976562 0)"/>
    <use xlink:href="#DejaVuSans-66" transform="translate(1270.158203 0)"/>
    <use xlink:href="#DejaVuSans-20" transform="translate(1305.363281 0)"/>
    <use xlink:href="#DejaVuSans-33" transform="translate(1337.150391 0)"/>
    <use xlink:href="#DejaVuSans-20" transform="translate(1400.773438 0)"/>
    <use xlink:href="#DejaVuSans-69" transform="translate(1432.560547 0)"/>
    <use xlink:href="#DejaVuSans-6e" transform="translate(1460.34375 0)"/>
    <use xlink:href="#DejaVuSans-64" transform="translate(1523.722656 0)"/>
    <use xlink:href="#DejaVuSans-65" transform="translate(1587.199219 0)"/>
    <use xlink:href="#DejaVuSans-70" transform="translate(1648.722656 0)"/>
    <use xlink:href="#DejaVuSans-65" transform="translate(1712.199219 0)"/>
    <use xlink:href="#DejaVuSans-6e" transform="translate(1773.722656 0)"/>
    <use xlink:href="#DejaVuSans-64" transform="translate(1837.101562 0)"/>
    <use xlink:href="#DejaVuSans-65" transform="translate(1900.578125 0)"/>
    <use xlink:href="#DejaVuSans-6e" transform="translate(1962.101562 0)"/>
    <use xlink:href="#DejaVuSans-74" transform="translate(2025.480469 0)"/>
    <use xlink:href="#DejaVuSans-20" transform="translate(2064.689453 0)"/>
    <use xlink:href="#DejaVuSans-28" transform="translate(2096.476562 0)"/>
    <use xlink:href="#DejaVuSans-72" transform="translate(2135.490234 0)"/>
    <use xlink:href="#DejaVuSans-61" transform="translate(2176.603516 0)"/>
    <use xlink:href="#DejaVuSans-6e" transform="translate(2237.882812 0)"/>
    <use xlink:href="#DejaVuSans-6b" transform="translate(2301.261719 0)"/>
    <use xlink:href="#DejaVuSans-20" transform="translate(2359.171875 0)"/>
    <use xlink:href="#DejaVuSans-32" transform="translate(2390.958984 0)"/>
    <use xlink:href="#DejaVuSans-29" transform="translate(2454.582031 0)"/>
   </g>
   <!-- $Tw(\mathrm{pair})=0 \;\Leftrightarrow\; T_A=T_B=T_C$ -->
   <g transform="translate(197.6 30.697656) scale(0.125 -0.125)">
    <defs>
     <path id="DejaVuSans-Oblique-54" d="M 378 4666 
L 4325 4666 
L 4225 4134 
L 2559 4134 
L 1759 0 
L 1125 0 
L 1925 4134 
L 275 4134 
L 378 4666 
z
" transform="scale(0.015625)"/>
     <path id="DejaVuSans-Oblique-77" d="M 544 3500 
L 1113 3500 
L 1259 684 
L 2566 3500 
L 3231 3500 
L 3425 684 
L 4666 3500 
L 5241 3500 
L 3641 0 
L 2969 0 
L 2797 2900 
L 1459 0 
L 781 0 
L 544 3500 
z
" transform="scale(0.015625)"/>
     <path id="DejaVuSans-3d" d="M 678 2906 
L 4684 2906 
L 4684 2381 
L 678 2381 
L 678 2906 
z
M 678 1631 
L 4684 1631 
L 4684 1100 
L 678 1100 
L 678 1631 
z
" transform="scale(0.015625)"/>
     <path id="DejaVuSans-30" d="M 2034 4250 
Q 1547 4250 1301 3770 
Q 1056 3291 1056 2328 
Q 1056 1369 1301 889 
Q 1547 409 2034 409 
Q 2525 409 2770 889 
Q 3016 1369 3016 2328 
Q 3016 3291 2770 3770 
Q 2525 4250 2034 4250 
z
M 2034 4750 
Q 2819 4750 3233 4129 
Q 3647 3509 3647 2328 
Q 3647 1150 3233 529 
Q 2819 -91 2034 -91 
Q 1250 -91 836 529 
Q 422 1150 422 2328 
Q 422 3509 836 4129 
Q 1250 4750 2034 4750 
z
" transform="scale(0.015625)"/>
     <path id="DejaVuSans-21d4" d="M 1250 1678 
L 4113 1678 
L 4441 2006 
L 4113 2334 
L 1250 2334 
L 922 2006 
L 1250 1678 
z
M 3738 1303 
L 1625 1303 
L 1916 1013 
L 1541 638 
L 313 1866 
L 313 2147 
L 1541 3375 
L 1916 3000 
L 1625 2709 
L 3738 2709 
L 3447 3000 
L 3822 3375 
L 5050 2147 
L 5050 1866 
L 3822 638 
L 3447 1013 
L 3738 1303 
z
" transform="scale(0.015625)"/>
     <path id="DejaVuSans-Oblique-41" d="M 2356 4666 
L 3072 4666 
L 3938 0 
L 3278 0 
L 3084 1197 
L 984 1197 
L 325 0 
L -341 0 
L 2356 4666 
z
M 2584 4044 
L 1275 1722 
L 2988 1722 
L 2584 4044 
z
" transform="scale(0.015625)"/>
     <path id="DejaVuSans-Oblique-42" d="M 1081 4666 
L 2694 4666 
Q 3350 4666 3675 4422 
Q 4000 4178 4000 3688 
Q 4000 3238 3720 2911 
Q 3441 2584 2988 2516 
Q 3375 2428 3569 2181 
Q 3763 1934 3763 1522 
Q 3763 819 3242 409 
Q 2722 0 1819 0 
L 172 0 
L 1081 4666 
z
M 1234 2228 
L 903 519 
L 1919 519 
Q 2491 519 2800 781 
Q 3109 1044 3109 1522 
Q 3109 1891 2904 2059 
Q 2700 2228 2247 2228 
L 1234 2228 
z
M 1606 4147 
L 1331 2741 
L 2272 2741 
Q 2775 2741 3058 2959 
Q 3341 3178 3341 3566 
Q 3341 3869 3150 4008 
Q 2959 4147 2541 4147 
L 1606 4147 
z
" transform="scale(0.015625)"/>
     <path id="DejaVuSans-Oblique-43" d="M 4447 4306 
L 4319 3641 
Q 4019 3944 3683 4091 
Q 3347 4238 2956 4238 
Q 2422 4238 2017 3981 
Q 1613 3725 1319 3200 
Q 1131 2863 1032 2486 
Q 934 2109 934 1728 
Q 934 1091 1264 756 
Q 1594 422 2222 422 
Q 2656 422 3056 561 
Q 3456 700 3834 978 
L 3688 231 
Q 3316 72 2936 -9 
Q 2556 -91 2175 -91 
Q 1278 -91 773 396 
Q 269 884 269 1753 
Q 269 2309 461 2846 
Q 653 3384 1013 3828 
Q 1394 4300 1883 4525 
Q 2372 4750 3022 4750 
Q 3422 4750 3780 4639 
Q 4138 4528 4447 4306 
z
" transform="scale(0.015625)"/>
    </defs>
    <use xlink:href="#DejaVuSans-Oblique-54" transform="translate(0 0.015625)"/>
    <use xlink:href="#DejaVuSans-Oblique-77" transform="translate(61.083984 0.015625)"/>
    <use xlink:href="#DejaVuSans-28" transform="translate(142.871094 0.015625)"/>
    <use xlink:href="#DejaVuSans-70" transform="translate(181.884766 0.015625)"/>
    <use xlink:href="#DejaVuSans-61" transform="translate(245.361328 0.015625)"/>
    <use xlink:href="#DejaVuSans-69" transform="translate(306.640625 0.015625)"/>
    <use xlink:href="#DejaVuSans-72" transform="translate(334.423828 0.015625)"/>
    <use xlink:href="#DejaVuSans-29" transform="translate(375.537109 0.015625)"/>
    <use xlink:href="#DejaVuSans-3d" transform="translate(434.033203 0.015625)"/>
    <use xlink:href="#DejaVuSans-30" transform="translate(537.304688 0.015625)"/>
    <use xlink:href="#DejaVuSans-21d4" transform="translate(647.469292 0.015625)"/>
    <use xlink:href="#DejaVuSans-Oblique-54" transform="translate(777.799912 0.015625)"/>
    <use xlink:href="#DejaVuSans-Oblique-41" transform="translate(838.883896 -16.390625) scale(0.7)"/>
    <use xlink:href="#DejaVuSans-3d" transform="translate(908.986436 0.015625)"/>
    <use xlink:href="#DejaVuSans-Oblique-54" transform="translate(1012.25792 0.015625)"/>
    <use xlink:href="#DejaVuSans-Oblique-42" transform="translate(1073.341904 -16.390625) scale(0.7)"/>
    <use xlink:href="#DejaVuSans-3d" transform="translate(1143.581162 0.015625)"/>
    <use xlink:href="#DejaVuSans-Oblique-54" transform="translate(1246.852646 0.015625)"/>
    <use xlink:href="#DejaVuSans-Oblique-43" transform="translate(1307.936631 -16.390625) scale(0.7)"/>
   </g>
  </g>
 </g>
 <defs>
  <clipPath id="p688db297b3">
   <rect x="7.2" y="68.112" width="167.4" height="129.6"/>
  </clipPath>
  <clipPath id="p443787ef2a">
   <rect x="208.08" y="68.112" width="167.4" height="129.6"/>
  </clipPath>
  <clipPath id="p457b03e655">
   <rect x="408.96" y="68.112" width="167.4" height="129.6"/>
  </clipPath>
 </defs>
</svg>
