<?xml version="1.0" encoding="utf-8" standalone="no"?>
<!DOCTYPE svg PUBLIC "-//W3C//DTD SVG 1.1//EN"
  "http://www.w3.org/Graphics/SVG/1.1/DTD/svg11.dtd">
<svg xmlns:xlink="http://www.w3.org/1999/xlink" width="513.903273pt" height="227.376pt" viewBox="0 0 513.903273 227.376" xmlns="http://www.w3.org/2000/svg" version="1.1">
 <metadata>
  <rdf:RDF xmlns:dc="http://purl.org/dc/elements/1.1/" xmlns:cc="http://creativecommons.org/ns#" xmlns:rdf="http://www.w3.org/1999/02/22-rdf-syntax-ns#">
   <cc:Work>
    <dc:type rdf:resource="http://purl.org/dc/dcmitype/StillImage"/>
    <dc:date>2026-06-03T14:06:03.445334</dc:date>
    <dc:format>image/svg+xml</dc:format>
    <dc:creator>
     <cc:Agent>
      <dc:title>Matplotlib v3.10.9, https://matplotlib.org/</dc:title>
     </cc:Agent>
    </dc:creator>
   </cc:Work>
  </rdf:RDF>
 </metadata>
 <defs>
  <style type="text/css">*{stroke-linejoin: round; stroke-linecap: butt}</style>
 </defs>
 <g id="figure_1">
  <g id="patch_1">
   <path d="M 0 227.376 
L 513.903273 227.376 
L 513.903273 0 
L 0 0 
z
" style="fill: #ffffff"/>
  </g>
  <g id="axes_1">
   <g id="patch_2">
    <path d="M 22.756364 145.373455 
L 61.647273 145.373455 
L 61.647273 106.482545 
L 22.756364 106.482545 
z
" clip-path="url(#p6dd240f150)" style="fill: #ffffff; stroke: #444444; stroke-width: 1.4; stroke-linejoin: miter"/>
   </g>
   <g id="patch_3">
    <path d="M 61.647273 145.373455 
L 100.538182 145.373455 
L 100.538182 106.482545 
L 61.647273 106.482545 
z
" clip-path="url(#p6dd240f150)" style="fill: #ffffff; stroke: #444444; stroke-width: 1.4; stroke-linejoin: miter"/>
   </g>
   <g id="patch_4">
    <path d="M 100.538182 145.373455 
L 139.429091 145.373455 
L 139.429091 106.482545 
L 100.538182 106.482545 
z
" clip-path="url(#p6dd240f150)" style="fill: #ffffff; stroke: #444444; stroke-width: 1.4; stroke-linejoin: miter"/>
   </g>
   <g id="patch_5">
    <path d="M 139.429091 145.373455 
L 178.32 145.373455 
L 178.32 106.482545 
L 139.429091 106.482545 
z
" clip-path="url(#p6dd240f150)" style="fill: #ffffff; stroke: #444444; stroke-width: 1.4; stroke-linejoin: miter"/>
   </g>
   <g id="patch_6">
    <path d="M 178.32 145.373455 
L 217.210909 145.373455 
L 217.210909 106.482545 
L 178.32 106.482545 
z
" clip-path="url(#p6dd240f150)" style="fill: #ffffff; stroke: #444444; stroke-width: 1.4; stroke-linejoin: miter"/>
   </g>
   <g id="patch_7">
    <path d="M 202.432364 149.262545 
L 221.877818 149.262545 
L 221.877818 106.482545 
L 202.432364 106.482545 
z
" clip-path="url(#p6dd240f150)" style="fill: #efeaf8; stroke: #6f4fb0; stroke-width: 2; stroke-linejoin: miter"/>
   </g>
   <g id="text_1">
    <!-- pair -->
    <g style="fill: #222222" transform="translate(51.96446 81.203455) scale(0.1 -0.1)">
     <defs>
      <path id="DejaVuSans-70" d="M 1159 525 
L 1159 -1331 
L 581 -1331 
L 581 3500 
L 1159 3500 
L 1159 2969 
Q 1341 3281 1617 3432 
Q 1894 3584 2278 3584 
Q 2916 3584 3314 3078 
Q 3713 2572 3713 1747 
Q 3713 922 3314 415 
Q 2916 -91 2278 -91 
Q 1894 -91 1617 61 
Q 1341 213 1159 525 
z
M 3116 1747 
Q 3116 2381 2855 2742 
Q 2594 3103 2138 3103 
Q 1681 3103 1420 2742 
Q 1159 2381 1159 1747 
Q 1159 1113 1420 752 
Q 1681 391 2138 391 
Q 2594 391 2855 752 
Q 3116 1113 3116 1747 
z
" transform="scale(0.015625)"/>
      <path id="DejaVuSans-61" d="M 2194 1759 
Q 1497 1759 1228 1600 
Q 959 1441 959 1056 
Q 959 750 1161 570 
Q 1363 391 1709 391 
Q 2188 391 2477 730 
Q 2766 1069 2766 1631 
L 2766 1759 
L 2194 1759 
z
M 3341 1997 
L 3341 0 
L 2766 0 
L 2766 531 
Q 2569 213 2275 61 
Q 1981 -91 1556 -91 
Q 1019 -91 701 211 
Q 384 513 384 1019 
Q 384 1609 779 1909 
Q 1175 2209 1959 2209 
L 2766 2209 
L 2766 2266 
Q 2766 2663 2505 2880 
Q 2244 3097 1772 3097 
Q 1472 3097 1187 3025 
Q 903 2953 641 2809 
L 641 3341 
Q 956 3463 1253 3523 
Q 1550 3584 1831 3584 
Q 2591 3584 2966 3190 
Q 3341 2797 3341 1997 
z
" transform="scale(0.015625)"/>
      <path id="DejaVuSans-69" d="M 603 3500 
L 1178 3500 
L 1178 0 
L 603 0 
L 603 3500 
z
M 603 4863 
L 1178 4863 
L 1178 4134 
L 603 4134 
L 603 4863 
z
" transform="scale(0.015625)"/>
      <path id="DejaVuSans-72" d="M 2631 2963 
Q 2534 3019 2420 3045 
Q 2306 3072 2169 3072 
Q 1681 3072 1420 2755 
Q 1159 2438 1159 1844 
L 1159 0 
L 581 0 
L 581 3500 
L 1159 3500 
L 1159 2956 
Q 1341 3275 1631 3429 
Q 1922 3584 2338 3584 
Q 2397 3584 2469 3576 
Q 2541 3569 2628 3553 
L 2631 2963 
z
" transform="scale(0.015625)"/>
     </defs>
     <use xlink:href="#DejaVuSans-70"/>
     <use xlink:href="#DejaVuSans-61" transform="translate(63.476562 0)"/>
     <use xlink:href="#DejaVuSans-69" transform="translate(124.755859 0)"/>
     <use xlink:href="#DejaVuSans-72" transform="translate(152.539062 0)"/>
    </g>
   </g>
   <g id="text_2">
    <!-- pair -->
    <g style="fill: #222222" transform="translate(129.746278 81.203455) scale(0.1 -0.1)">
     <use xlink:href="#DejaVuSans-70"/>
     <use xlink:href="#DejaVuSans-61" transform="translate(63.476562 0)"/>
     <use xlink:href="#DejaVuSans-69" transform="translate(124.755859 0)"/>
     <use xlink:href="#DejaVuSans-72" transform="translate(152.539062 0)"/>
    </g>
   </g>
   <g id="text_3">
    <!-- orphan -->
    <g style="fill: #d83232" transform="translate(164.518466 79.258909) scale(0.1 -0.1)">
     <defs>
      <path id="DejaVuSans-6f" d="M 1959 3097 
Q 1497 3097 1228 2736 
Q 959 2375 959 1747 
Q 959 1119 1226 758 
Q 1494 397 1959 397 
Q 2419 397 2687 759 
Q 2956 1122 2956 1747 
Q 2956 2369 2687 2733 
Q 2419 3097 1959 3097 
z
M 1959 3584 
Q 2709 3584 3137 3096 
Q 3566 2609 3566 1747 
Q 3566 888 3137 398 
Q 2709 -91 1959 -91 
Q 1206 -91 779 398 
Q 353 888 353 1747 
Q 353 2609 779 3096 
Q 1206 3584 1959 3584 
z
" transform="scale(0.015625)"/>
      <path id="DejaVuSans-68" d="M 3513 2113 
L 3513 0 
L 2938 0 
L 2938 2094 
Q 2938 2591 2744 2837 
Q 2550 3084 2163 3084 
Q 1697 3084 1428 2787 
Q 1159 2491 1159 1978 
L 1159 0 
L 581 0 
L 581 4863 
L 1159 4863 
L 1159 2956 
Q 1366 3272 1645 3428 
Q 1925 3584 2291 3584 
Q 2894 3584 3203 3211 
Q 3513 2838 3513 2113 
z
" transform="scale(0.015625)"/>
      <path id="DejaVuSans-6e" d="M 3513 2113 
L 3513 0 
L 2938 0 
L 2938 2094 
Q 2938 2591 2744 2837 
Q 2550 3084 2163 3084 
Q 1697 3084 1428 2787 
Q 1159 2491 1159 1978 
L 1159 0 
L 581 0 
L 581 3500 
L 1159 3500 
L 1159 2956 
Q 1366 3272 1645 3428 
Q 1925 3584 2291 3584 
Q 2894 3584 3203 3211 
Q 3513 2838 3513 2113 
z
" transform="scale(0.015625)"/>
     </defs>
     <use xlink:href="#DejaVuSans-6f"/>
     <use xlink:href="#DejaVuSans-72" transform="translate(61.181641 0)"/>
     <use xlink:href="#DejaVuSans-70" transform="translate(102.294922 0)"/>
     <use xlink:href="#DejaVuSans-68" transform="translate(165.771484 0)"/>
     <use xlink:href="#DejaVuSans-61" transform="translate(229.150391 0)"/>
     <use xlink:href="#DejaVuSans-6e" transform="translate(290.429688 0)"/>
    </g>
   </g>
   <g id="text_4">
    <!-- open chain end: -->
    <g transform="translate(79.541868 45.384952) scale(0.11 -0.11)">
     <defs>
      <path id="DejaVuSans-65" d="M 3597 1894 
L 3597 1613 
L 953 1613 
Q 991 1019 1311 708 
Q 1631 397 2203 397 
Q 2534 397 2845 478 
Q 3156 559 3463 722 
L 3463 178 
Q 3153 47 2828 -22 
Q 2503 -91 2169 -91 
Q 1331 -91 842 396 
Q 353 884 353 1716 
Q 353 2575 817 3079 
Q 1281 3584 2069 3584 
Q 2775 3584 3186 3129 
Q 3597 2675 3597 1894 
z
M 3022 2063 
Q 3016 2534 2758 2815 
Q 2500 3097 2075 3097 
Q 1594 3097 1305 2825 
Q 1016 2553 972 2059 
L 3022 2063 
z
" transform="scale(0.015625)"/>
      <path id="DejaVuSans-20" transform="scale(0.015625)"/>
      <path id="DejaVuSans-63" d="M 3122 3366 
L 3122 2828 
Q 2878 2963 2633 3030 
Q 2388 3097 2138 3097 
Q 1578 3097 1268 2742 
Q 959 2388 959 1747 
Q 959 1106 1268 751 
Q 1578 397 2138 397 
Q 2388 397 2633 464 
Q 2878 531 3122 666 
L 3122 134 
Q 2881 22 2623 -34 
Q 2366 -91 2075 -91 
Q 1284 -91 818 406 
Q 353 903 353 1747 
Q 353 2603 823 3093 
Q 1294 3584 2113 3584 
Q 2378 3584 2631 3529 
Q 2884 3475 3122 3366 
z
" transform="scale(0.015625)"/>
      <path id="DejaVuSans-64" d="M 2906 2969 
L 2906 4863 
L 3481 4863 
L 3481 0 
L 2906 0 
L 2906 525 
Q 2725 213 2448 61 
Q 2172 -91 1784 -91 
Q 1150 -91 751 415 
Q 353 922 353 1747 
Q 353 2572 751 3078 
Q 1150 3584 1784 3584 
Q 2172 3584 2448 3432 
Q 2725 3281 2906 2969 
z
M 947 1747 
Q 947 1113 1208 752 
Q 1469 391 1925 391 
Q 2381 391 2643 752 
Q 2906 1113 2906 1747 
Q 2906 2381 2643 2742 
Q 2381 3103 1925 3103 
Q 1469 3103 1208 2742 
Q 947 2381 947 1747 
z
" transform="scale(0.015625)"/>
      <path id="DejaVuSans-3a" d="M 750 794 
L 1409 794 
L 1409 0 
L 750 0 
L 750 794 
z
M 750 3309 
L 1409 3309 
L 1409 2516 
L 750 2516 
L 750 3309 
z
" transform="scale(0.015625)"/>
     </defs>
     <use xlink:href="#DejaVuSans-6f"/>
     <use xlink:href="#DejaVuSans-70" transform="translate(61.181641 0)"/>
     <use xlink:href="#DejaVuSans-65" transform="translate(124.658203 0)"/>
     <use xlink:href="#DejaVuSans-6e" transform="translate(186.181641 0)"/>
     <use xlink:href="#DejaVuSans-20" transform="translate(249.560547 0)"/>
     <use xlink:href="#DejaVuSans-63" transform="translate(281.347656 0)"/>
     <use xlink:href="#DejaVuSans-68" transform="translate(336.328125 0)"/>
     <use xlink:href="#DejaVuSans-61" transform="translate(399.707031 0)"/>
     <use xlink:href="#DejaVuSans-69" transform="translate(460.986328 0)"/>
     <use xlink:href="#DejaVuSans-6e" transform="translate(488.769531 0)"/>
     <use xlink:href="#DejaVuSans-20" transform="translate(552.148438 0)"/>
     <use xlink:href="#DejaVuSans-65" transform="translate(583.935547 0)"/>
     <use xlink:href="#DejaVuSans-6e" transform="translate(645.458984 0)"/>
     <use xlink:href="#DejaVuSans-64" transform="translate(708.837891 0)"/>
     <use xlink:href="#DejaVuSans-3a" transform="translate(772.314453 0)"/>
    </g>
    <!-- dangling single reflection (improper) -->
    <g transform="translate(23.236477 57.702545) scale(0.11 -0.11)">
     <defs>
      <path id="DejaVuSans-67" d="M 2906 1791 
Q 2906 2416 2648 2759 
Q 2391 3103 1925 3103 
Q 1463 3103 1205 2759 
Q 947 2416 947 1791 
Q 947 1169 1205 825 
Q 1463 481 1925 481 
Q 2391 481 2648 825 
Q 2906 1169 2906 1791 
z
M 3481 434 
Q 3481 -459 3084 -895 
Q 2688 -1331 1869 -1331 
Q 1566 -1331 1297 -1286 
Q 1028 -1241 775 -1147 
L 775 -588 
Q 1028 -725 1275 -790 
Q 1522 -856 1778 -856 
Q 2344 -856 2625 -561 
Q 2906 -266 2906 331 
L 2906 616 
Q 2728 306 2450 153 
Q 2172 0 1784 0 
Q 1141 0 747 490 
Q 353 981 353 1791 
Q 353 2603 747 3093 
Q 1141 3584 1784 3584 
Q 2172 3584 2450 3431 
Q 2728 3278 2906 2969 
L 2906 3500 
L 3481 3500 
L 3481 434 
z
" transform="scale(0.015625)"/>
      <path id="DejaVuSans-6c" d="M 603 4863 
L 1178 4863 
L 1178 0 
L 603 0 
L 603 4863 
z
" transform="scale(0.015625)"/>
      <path id="DejaVuSans-73" d="M 2834 3397 
L 2834 2853 
Q 2591 2978 2328 3040 
Q 2066 3103 1784 3103 
Q 1356 3103 1142 2972 
Q 928 2841 928 2578 
Q 928 2378 1081 2264 
Q 1234 2150 1697 2047 
L 1894 2003 
Q 2506 1872 2764 1633 
Q 3022 1394 3022 966 
Q 3022 478 2636 193 
Q 2250 -91 1575 -91 
Q 1294 -91 989 -36 
Q 684 19 347 128 
L 347 722 
Q 666 556 975 473 
Q 1284 391 1588 391 
Q 1994 391 2212 530 
Q 2431 669 2431 922 
Q 2431 1156 2273 1281 
Q 2116 1406 1581 1522 
L 1381 1569 
Q 847 1681 609 1914 
Q 372 2147 372 2553 
Q 372 3047 722 3315 
Q 1072 3584 1716 3584 
Q 2034 3584 2315 3537 
Q 2597 3491 2834 3397 
z
" transform="scale(0.015625)"/>
      <path id="DejaVuSans-66" d="M 2375 4863 
L 2375 4384 
L 1825 4384 
Q 1516 4384 1395 4259 
Q 1275 4134 1275 3809 
L 1275 3500 
L 2222 3500 
L 2222 3053 
L 1275 3053 
L 1275 0 
L 697 0 
L 697 3053 
L 147 3053 
L 147 3500 
L 697 3500 
L 697 3744 
Q 697 4328 969 4595 
Q 1241 4863 1831 4863 
L 2375 4863 
z
" transform="scale(0.015625)"/>
      <path id="DejaVuSans-74" d="M 1172 4494 
L 1172 3500 
L 2356 3500 
L 2356 3053 
L 1172 3053 
L 1172 1153 
Q 1172 725 1289 603 
Q 1406 481 1766 481 
L 2356 481 
L 2356 0 
L 1766 0 
Q 1100 0 847 248 
Q 594 497 594 1153 
L 594 3053 
L 172 3053 
L 172 3500 
L 594 3500 
L 594 4494 
L 1172 4494 
z
" transform="scale(0.015625)"/>
      <path id="DejaVuSans-28" d="M 1984 4856 
Q 1566 4138 1362 3434 
Q 1159 2731 1159 2009 
Q 1159 1288 1364 580 
Q 1569 -128 1984 -844 
L 1484 -844 
Q 1016 -109 783 600 
Q 550 1309 550 2009 
Q 550 2706 781 3412 
Q 1013 4119 1484 4856 
L 1984 4856 
z
" transform="scale(0.015625)"/>
      <path id="DejaVuSans-6d" d="M 3328 2828 
Q 3544 3216 3844 3400 
Q 4144 3584 4550 3584 
Q 5097 3584 5394 3201 
Q 5691 2819 5691 2113 
L 5691 0 
L 5113 0 
L 5113 2094 
Q 5113 2597 4934 2840 
Q 4756 3084 4391 3084 
Q 3944 3084 3684 2787 
Q 3425 2491 3425 1978 
L 3425 0 
L 2847 0 
L 2847 2094 
Q 2847 2600 2669 2842 
Q 2491 3084 2119 3084 
Q 1678 3084 1418 2786 
Q 1159 2488 1159 1978 
L 1159 0 
L 581 0 
L 581 3500 
L 1159 3500 
L 1159 2956 
Q 1356 3278 1631 3431 
Q 1906 3584 2284 3584 
Q 2666 3584 2933 3390 
Q 3200 3197 3328 2828 
z
" transform="scale(0.015625)"/>
      <path id="DejaVuSans-29" d="M 513 4856 
L 1013 4856 
Q 1481 4119 1714 3412 
Q 1947 2706 1947 2009 
Q 1947 1309 1714 600 
Q 1481 -109 1013 -844 
L 513 -844 
Q 928 -128 1133 580 
Q 1338 1288 1338 2009 
Q 1338 2731 1133 3434 
Q 928 4138 513 4856 
z
" transform="scale(0.015625)"/>
     </defs>
     <use xlink:href="#DejaVuSans-64"/>
     <use xlink:href="#DejaVuSans-61" transform="translate(63.476562 0)"/>
     <use xlink:href="#DejaVuSans-6e" transform="translate(124.755859 0)"/>
     <use xlink:href="#DejaVuSans-67" transform="translate(188.134766 0)"/>
     <use xlink:href="#DejaVuSans-6c" transform="translate(251.611328 0)"/>
     <use xlink:href="#DejaVuSans-69" transform="translate(279.394531 0)"/>
     <use xlink:href="#DejaVuSans-6e" transform="translate(307.177734 0)"/>
     <use xlink:href="#DejaVuSans-67" transform="translate(370.556641 0)"/>
     <use xlink:href="#DejaVuSans-20" transform="translate(434.033203 0)"/>
     <use xlink:href="#DejaVuSans-73" transform="translate(465.820312 0)"/>
     <use xlink:href="#DejaVuSans-69" transform="translate(517.919922 0)"/>
     <use xlink:href="#DejaVuSans-6e" transform="translate(545.703125 0)"/>
     <use xlink:href="#DejaVuSans-67" transform="translate(609.082031 0)"/>
     <use xlink:href="#DejaVuSans-6c" transform="translate(672.558594 0)"/>
     <use xlink:href="#DejaVuSans-65" transform="translate(700.341797 0)"/>
     <use xlink:href="#DejaVuSans-20" transform="translate(761.865234 0)"/>
     <use xlink:href="#DejaVuSans-72" transform="translate(793.652344 0)"/>
     <use xlink:href="#DejaVuSans-65" transform="translate(832.515625 0)"/>
     <use xlink:href="#DejaVuSans-66" transform="translate(894.039062 0)"/>
     <use xlink:href="#DejaVuSans-6c" transform="translate(929.244141 0)"/>
     <use xlink:href="#DejaVuSans-65" transform="translate(957.027344 0)"/>
     <use xlink:href="#DejaVuSans-63" transform="translate(1018.550781 0)"/>
     <use xlink:href="#DejaVuSans-74" transform="translate(1073.53125 0)"/>
     <use xlink:href="#DejaVuSans-69" transform="translate(1112.740234 0)"/>
     <use xlink:href="#DejaVuSans-6f" transform="translate(1140.523438 0)"/>
     <use xlink:href="#DejaVuSans-6e" transform="translate(1201.705078 0)"/>
     <use xlink:href="#DejaVuSans-20" transform="translate(1265.083984 0)"/>
     <use xlink:href="#DejaVuSans-28" transform="translate(1296.871094 0)"/>
     <use xlink:href="#DejaVuSans-69" transform="translate(1335.884766 0)"/>
     <use xlink:href="#DejaVuSans-6d" transform="translate(1363.667969 0)"/>
     <use xlink:href="#DejaVuSans-70" transform="translate(1461.080078 0)"/>
     <use xlink:href="#DejaVuSans-72" transform="translate(1524.556641 0)"/>
     <use xlink:href="#DejaVuSans-6f" transform="translate(1563.419922 0)"/>
     <use xlink:href="#DejaVuSans-70" transform="translate(1624.601562 0)"/>
     <use xlink:href="#DejaVuSans-65" transform="translate(1688.078125 0)"/>
     <use xlink:href="#DejaVuSans-72" transform="translate(1749.601562 0)"/>
     <use xlink:href="#DejaVuSans-29" transform="translate(1790.714844 0)"/>
    </g>
   </g>
   <g id="line2d_1">
    <path d="M 61.647273 145.373455 
L 61.647273 106.482545 
" clip-path="url(#p6dd240f150)" style="fill: none; stroke: #dd2222; stroke-width: 3.2; stroke-linecap: round"/>
   </g>
   <g id="line2d_2">
    <path d="M 100.538182 145.373455 
L 100.538182 106.482545 
" clip-path="url(#p6dd240f150)" style="fill: none; stroke: #dd2222; stroke-width: 3.2; stroke-linecap: round"/>
   </g>
   <g id="line2d_3">
    <path d="M 139.429091 145.373455 
L 139.429091 106.482545 
" clip-path="url(#p6dd240f150)" style="fill: none; stroke: #dd2222; stroke-width: 3.2; stroke-linecap: round"/>
   </g>
   <g id="line2d_4">
    <path d="M 178.32 145.373455 
L 178.32 106.482545 
" clip-path="url(#p6dd240f150)" style="fill: none; stroke: #dd2222; stroke-width: 3.2; stroke-linecap: round"/>
   </g>
   <g id="patch_8">
    <path d="M 86.415507 91.634009 
C 83.313647 90.189053 79.501137 89.031899 75.231262 88.239421 
C 70.961388 87.446944 66.330847 87.037091 61.647273 87.037091 
C 56.963698 87.037091 52.333158 87.446944 48.063283 88.239421 
C 43.793409 89.031899 39.980898 90.189053 36.879038 91.634009 
" clip-path="url(#p6dd240f150)" style="fill: none; stroke: #222222; stroke-width: 2; stroke-linejoin: miter"/>
   </g>
   <g id="patch_9">
    <path d="M 164.197325 91.634009 
C 161.095465 90.189053 157.282955 89.031899 153.01308 88.239421 
C 148.743206 87.446944 144.112665 87.037091 139.429091 87.037091 
C 134.745517 87.037091 130.114976 87.446944 125.845101 88.239421 
C 121.575227 89.031899 117.762716 90.189053 114.660857 91.634009 
" clip-path="url(#p6dd240f150)" style="fill: none; stroke: #222222; stroke-width: 2; stroke-linejoin: miter"/>
   </g>
   <g id="patch_10">
    <path d="M 194.171153 94.879561 
C 192.761007 92.535822 190.520389 90.552728 187.713209 89.163856 
C 184.906029 87.774983 181.647005 87.037091 178.32 87.037091 
C 174.992995 87.037091 171.733971 87.774983 168.926791 89.163856 
C 166.119611 90.552728 163.878993 92.535822 162.468847 94.879561 
" clip-path="url(#p6dd240f150)" style="fill: none; stroke: #d83232; stroke-width: 2.4; stroke-linejoin: miter"/>
   </g>
   <g id="text_5">
    <!-- hub -->
    <g style="fill: #6f4fb0" transform="translate(188.253736 175.356466) scale(0.1 -0.1)">
     <defs>
      <path id="DejaVuSans-75" d="M 544 1381 
L 544 3500 
L 1119 3500 
L 1119 1403 
Q 1119 906 1312 657 
Q 1506 409 1894 409 
Q 2359 409 2629 706 
Q 2900 1003 2900 1516 
L 2900 3500 
L 3475 3500 
L 3475 0 
L 2900 0 
L 2900 538 
Q 2691 219 2414 64 
Q 2138 -91 1772 -91 
Q 1169 -91 856 284 
Q 544 659 544 1381 
z
M 1991 3584 
L 1991 3584 
z
" transform="scale(0.015625)"/>
      <path id="DejaVuSans-62" d="M 3116 1747 
Q 3116 2381 2855 2742 
Q 2594 3103 2138 3103 
Q 1681 3103 1420 2742 
Q 1159 2381 1159 1747 
Q 1159 1113 1420 752 
Q 1681 391 2138 391 
Q 2594 391 2855 752 
Q 3116 1113 3116 1747 
z
M 1159 2969 
Q 1341 3281 1617 3432 
Q 1894 3584 2278 3584 
Q 2916 3584 3314 3078 
Q 3713 2572 3713 1747 
Q 3713 922 3314 415 
Q 2916 -91 2278 -91 
Q 1894 -91 1617 61 
Q 1341 213 1159 525 
L 1159 0 
L 581 0 
L 581 4863 
L 1159 4863 
L 1159 2969 
z
" transform="scale(0.015625)"/>
     </defs>
     <use xlink:href="#DejaVuSans-68"/>
     <use xlink:href="#DejaVuSans-75" transform="translate(63.378906 0)"/>
     <use xlink:href="#DejaVuSans-62" transform="translate(126.757812 0)"/>
    </g>
   </g>
  </g>
  <g id="axes_2">
   <g id="patch_11">
    <path d="M 388.220073 173.1744 
L 429.346473 173.1744 
Q 435.221673 173.1744 435.221673 167.2992 
L 435.221673 67.4208 
Q 435.221673 61.5456 429.346473 61.5456 
L 388.220073 61.5456 
Q 382.344873 61.5456 382.344873 67.4208 
L 382.344873 167.2992 
Q 382.344873 173.1744 388.220073 173.1744 
z
" clip-path="url(#p32529aaad7)" style="fill: #efeaf8; stroke: #6f4fb0; stroke-width: 2.2; stroke-linejoin: miter"/>
   </g>
   <g id="patch_12">
    <path d="M 340.239273 87.984 
Q 361.047273 95.328 379.114105 101.704529 
" clip-path="url(#p32529aaad7)" style="fill: none; stroke: #1f77b4; stroke-width: 2.6; stroke-linecap: round"/>
    <path d="M 374.765256 97.200363 
L 379.114105 101.704529 
L 372.901463 102.481109 
z
" clip-path="url(#p32529aaad7)" style="fill: #1f77b4; stroke: #1f77b4; stroke-width: 2.6; stroke-linecap: round"/>
   </g>
   <g id="patch_13">
    <path d="M 340.239273 146.736 
Q 361.047273 139.392 379.114105 133.015471 
" clip-path="url(#p32529aaad7)" style="fill: none; stroke: #e8820c; stroke-width: 2.6; stroke-linecap: round"/>
    <path d="M 372.901463 132.238891 
L 379.114105 133.015471 
L 374.765256 137.519637 
z
" clip-path="url(#p32529aaad7)" style="fill: #e8820c; stroke: #e8820c; stroke-width: 2.6; stroke-linecap: round"/>
   </g>
   <g id="text_6">
    <!-- hub -->
    <g style="fill: #6f4fb0" transform="translate(392.736788 121.499062) scale(0.15 -0.15)">
     <defs>
      <path id="DejaVuSans-Bold-68" d="M 4056 2131 
L 4056 0 
L 2931 0 
L 2931 347 
L 2931 1625 
Q 2931 2084 2911 2256 
Q 2891 2428 2841 2509 
Q 2775 2619 2662 2680 
Q 2550 2741 2406 2741 
Q 2056 2741 1856 2470 
Q 1656 2200 1656 1722 
L 1656 0 
L 538 0 
L 538 4863 
L 1656 4863 
L 1656 2988 
Q 1909 3294 2193 3439 
Q 2478 3584 2822 3584 
Q 3428 3584 3742 3212 
Q 4056 2841 4056 2131 
z
" transform="scale(0.015625)"/>
      <path id="DejaVuSans-Bold-75" d="M 500 1363 
L 500 3500 
L 1625 3500 
L 1625 3150 
Q 1625 2866 1622 2436 
Q 1619 2006 1619 1863 
Q 1619 1441 1641 1255 
Q 1663 1069 1716 984 
Q 1784 875 1895 815 
Q 2006 756 2150 756 
Q 2500 756 2700 1025 
Q 2900 1294 2900 1772 
L 2900 3500 
L 4019 3500 
L 4019 0 
L 2900 0 
L 2900 506 
Q 2647 200 2364 54 
Q 2081 -91 1741 -91 
Q 1134 -91 817 281 
Q 500 653 500 1363 
z
" transform="scale(0.015625)"/>
      <path id="DejaVuSans-Bold-62" d="M 2400 722 
Q 2759 722 2948 984 
Q 3138 1247 3138 1747 
Q 3138 2247 2948 2509 
Q 2759 2772 2400 2772 
Q 2041 2772 1848 2508 
Q 1656 2244 1656 1747 
Q 1656 1250 1848 986 
Q 2041 722 2400 722 
z
M 1656 2988 
Q 1888 3294 2169 3439 
Q 2450 3584 2816 3584 
Q 3463 3584 3878 3070 
Q 4294 2556 4294 1747 
Q 4294 938 3878 423 
Q 3463 -91 2816 -91 
Q 2450 -91 2169 54 
Q 1888 200 1656 506 
L 1656 0 
L 538 0 
L 538 4863 
L 1656 4863 
L 1656 2988 
z
" transform="scale(0.015625)"/>
     </defs>
     <use xlink:href="#DejaVuSans-Bold-68"/>
     <use xlink:href="#DejaVuSans-Bold-75" transform="translate(71.191406 0)"/>
     <use xlink:href="#DejaVuSans-Bold-62" transform="translate(142.382812 0)"/>
    </g>
   </g>
   <g id="text_7">
    <!-- chain end -->
    <g style="fill: #1f77b4" transform="translate(310.794835 73.607375) scale(0.1 -0.1)">
     <use xlink:href="#DejaVuSans-63"/>
     <use xlink:href="#DejaVuSans-68" transform="translate(54.980469 0)"/>
     <use xlink:href="#DejaVuSans-61" transform="translate(118.359375 0)"/>
     <use xlink:href="#DejaVuSans-69" transform="translate(179.638672 0)"/>
     <use xlink:href="#DejaVuSans-6e" transform="translate(207.421875 0)"/>
     <use xlink:href="#DejaVuSans-20" transform="translate(270.800781 0)"/>
     <use xlink:href="#DejaVuSans-65" transform="translate(302.587891 0)"/>
     <use xlink:href="#DejaVuSans-6e" transform="translate(364.111328 0)"/>
     <use xlink:href="#DejaVuSans-64" transform="translate(427.490234 0)"/>
    </g>
   </g>
   <g id="text_8">
    <!-- chain end -->
    <g style="fill: #e8820c" transform="translate(310.794835 166.631375) scale(0.1 -0.1)">
     <use xlink:href="#DejaVuSans-63"/>
     <use xlink:href="#DejaVuSans-68" transform="translate(54.980469 0)"/>
     <use xlink:href="#DejaVuSans-61" transform="translate(118.359375 0)"/>
     <use xlink:href="#DejaVuSans-69" transform="translate(179.638672 0)"/>
     <use xlink:href="#DejaVuSans-6e" transform="translate(207.421875 0)"/>
     <use xlink:href="#DejaVuSans-20" transform="translate(270.800781 0)"/>
     <use xlink:href="#DejaVuSans-65" transform="translate(302.587891 0)"/>
     <use xlink:href="#DejaVuSans-6e" transform="translate(364.111328 0)"/>
     <use xlink:href="#DejaVuSans-64" transform="translate(427.490234 0)"/>
    </g>
   </g>
   <g id="text_9">
    <!-- fused hub re-pairs the orphans -->
    <g style="fill: #6f4fb0" transform="translate(327.656007 195.162492) scale(0.105 -0.105)">
     <defs>
      <path id="DejaVuSans-2d" d="M 313 2009 
L 1997 2009 
L 1997 1497 
L 313 1497 
L 313 2009 
z
" transform="scale(0.015625)"/>
     </defs>
     <use xlink:href="#DejaVuSans-66"/>
     <use xlink:href="#DejaVuSans-75" transform="translate(35.205078 0)"/>
     <use xlink:href="#DejaVuSans-73" transform="translate(98.583984 0)"/>
     <use xlink:href="#DejaVuSans-65" transform="translate(150.683594 0)"/>
     <use xlink:href="#DejaVuSans-64" transform="translate(212.207031 0)"/>
     <use xlink:href="#DejaVuSans-20" transform="translate(275.683594 0)"/>
     <use xlink:href="#DejaVuSans-68" transform="translate(307.470703 0)"/>
     <use xlink:href="#DejaVuSans-75" transform="translate(370.849609 0)"/>
     <use xlink:href="#DejaVuSans-62" transform="translate(434.228516 0)"/>
     <use xlink:href="#DejaVuSans-20" transform="translate(497.705078 0)"/>
     <use xlink:href="#DejaVuSans-72" transform="translate(529.492188 0)"/>
     <use xlink:href="#DejaVuSans-65" transform="translate(568.355469 0)"/>
     <use xlink:href="#DejaVuSans-2d" transform="translate(629.878906 0)"/>
     <use xlink:href="#DejaVuSans-70" transform="translate(665.962891 0)"/>
     <use xlink:href="#DejaVuSans-61" transform="translate(729.439453 0)"/>
     <use xlink:href="#DejaVuSans-69" transform="translate(790.71875 0)"/>
     <use xlink:href="#DejaVuSans-72" transform="translate(818.501953 0)"/>
     <use xlink:href="#DejaVuSans-73" transform="translate(859.615234 0)"/>
     <use xlink:href="#DejaVuSans-20" transform="translate(911.714844 0)"/>
     <use xlink:href="#DejaVuSans-74" transform="translate(943.501953 0)"/>
     <use xlink:href="#DejaVuSans-68" transform="translate(982.710938 0)"/>
     <use xlink:href="#DejaVuSans-65" transform="translate(1046.089844 0)"/>
     <use xlink:href="#DejaVuSans-20" transform="translate(1107.613281 0)"/>
     <use xlink:href="#DejaVuSans-6f" transform="translate(1139.400391 0)"/>
     <use xlink:href="#DejaVuSans-72" transform="translate(1200.582031 0)"/>
     <use xlink:href="#DejaVuSans-70" transform="translate(1241.695312 0)"/>
     <use xlink:href="#DejaVuSans-68" transform="translate(1305.171875 0)"/>
     <use xlink:href="#DejaVuSans-61" transform="translate(1368.550781 0)"/>
     <use xlink:href="#DejaVuSans-6e" transform="translate(1429.830078 0)"/>
     <use xlink:href="#DejaVuSans-73" transform="translate(1493.208984 0)"/>
    </g>
    <!-- → even, proper, Tw defined -->
    <g style="fill: #6f4fb0" transform="translate(337.776202 206.920195) scale(0.105 -0.105)">
     <defs>
      <path id="DejaVuSans-2192" d="M 5050 2147 
L 5050 1866 
L 3822 638 
L 3447 1013 
L 4175 1741 
L 366 1741 
L 366 2272 
L 4175 2272 
L 3447 3000 
L 3822 3375 
L 5050 2147 
z
" transform="scale(0.015625)"/>
      <path id="DejaVuSans-76" d="M 191 3500 
L 800 3500 
L 1894 563 
L 2988 3500 
L 3597 3500 
L 2284 0 
L 1503 0 
L 191 3500 
z
" transform="scale(0.015625)"/>
      <path id="DejaVuSans-2c" d="M 750 794 
L 1409 794 
L 1409 256 
L 897 -744 
L 494 -744 
L 750 256 
L 750 794 
z
" transform="scale(0.015625)"/>
      <path id="DejaVuSans-54" d="M -19 4666 
L 3928 4666 
L 3928 4134 
L 2272 4134 
L 2272 0 
L 1638 0 
L 1638 4134 
L -19 4134 
L -19 4666 
z
" transform="scale(0.015625)"/>
      <path id="DejaVuSans-77" d="M 269 3500 
L 844 3500 
L 1563 769 
L 2278 3500 
L 2956 3500 
L 3675 769 
L 4391 3500 
L 4966 3500 
L 4050 0 
L 3372 0 
L 2619 2869 
L 1863 0 
L 1184 0 
L 269 3500 
z
" transform="scale(0.015625)"/>
     </defs>
     <use xlink:href="#DejaVuSans-2192"/>
     <use xlink:href="#DejaVuSans-20" transform="translate(83.789062 0)"/>
     <use xlink:href="#DejaVuSans-65" transform="translate(115.576172 0)"/>
     <use xlink:href="#DejaVuSans-76" transform="translate(177.099609 0)"/>
     <use xlink:href="#DejaVuSans-65" transform="translate(236.279297 0)"/>
     <use xlink:href="#DejaVuSans-6e" transform="translate(297.802734 0)"/>
     <use xlink:href="#DejaVuSans-2c" transform="translate(361.181641 0)"/>
     <use xlink:href="#DejaVuSans-20" transform="translate(392.96875 0)"/>
     <use xlink:href="#DejaVuSans-70" transform="translate(424.755859 0)"/>
     <use xlink:href="#DejaVuSans-72" transform="translate(488.232422 0)"/>
     <use xlink:href="#DejaVuSans-6f" transform="translate(527.095703 0)"/>
     <use xlink:href="#DejaVuSans-70" transform="translate(588.277344 0)"/>
     <use xlink:href="#DejaVuSans-65" transform="translate(651.753906 0)"/>
     <use xlink:href="#DejaVuSans-72" transform="translate(713.277344 0)"/>
     <use xlink:href="#DejaVuSans-2c" transform="translate(754.390625 0)"/>
     <use xlink:href="#DejaVuSans-20" transform="translate(786.177734 0)"/>
     <use xlink:href="#DejaVuSans-54" transform="translate(817.964844 0)"/>
     <use xlink:href="#DejaVuSans-77" transform="translate(862.548828 0)"/>
     <use xlink:href="#DejaVuSans-20" transform="translate(944.335938 0)"/>
     <use xlink:href="#DejaVuSans-64" transform="translate(976.123047 0)"/>
     <use xlink:href="#DejaVuSans-65" transform="translate(1039.599609 0)"/>
     <use xlink:href="#DejaVuSans-66" transform="translate(1101.123047 0)"/>
     <use xlink:href="#DejaVuSans-69" transform="translate(1136.328125 0)"/>
     <use xlink:href="#DejaVuSans-6e" transform="translate(1164.111328 0)"/>
     <use xlink:href="#DejaVuSans-65" transform="translate(1227.490234 0)"/>
     <use xlink:href="#DejaVuSans-64" transform="translate(1289.013672 0)"/>
    </g>
   </g>
   <g id="text_10">
    <!-- fused-hub closure -->
    <g style="fill: #222222" transform="translate(353.014132 50.872112) scale(0.11 -0.11)">
     <defs>
      <path id="DejaVuSans-Bold-66" d="M 2841 4863 
L 2841 4128 
L 2222 4128 
Q 1984 4128 1890 4042 
Q 1797 3956 1797 3744 
L 1797 3500 
L 2753 3500 
L 2753 2700 
L 1797 2700 
L 1797 0 
L 678 0 
L 678 2700 
L 122 2700 
L 122 3500 
L 678 3500 
L 678 3744 
Q 678 4316 997 4589 
Q 1316 4863 1984 4863 
L 2841 4863 
z
" transform="scale(0.015625)"/>
      <path id="DejaVuSans-Bold-73" d="M 3272 3391 
L 3272 2541 
Q 2913 2691 2578 2766 
Q 2244 2841 1947 2841 
Q 1628 2841 1473 2761 
Q 1319 2681 1319 2516 
Q 1319 2381 1436 2309 
Q 1553 2238 1856 2203 
L 2053 2175 
Q 2913 2066 3209 1816 
Q 3506 1566 3506 1031 
Q 3506 472 3093 190 
Q 2681 -91 1863 -91 
Q 1516 -91 1145 -36 
Q 775 19 384 128 
L 384 978 
Q 719 816 1070 734 
Q 1422 653 1784 653 
Q 2113 653 2278 743 
Q 2444 834 2444 1013 
Q 2444 1163 2330 1236 
Q 2216 1309 1875 1350 
L 1678 1375 
Q 931 1469 631 1722 
Q 331 1975 331 2491 
Q 331 3047 712 3315 
Q 1094 3584 1881 3584 
Q 2191 3584 2531 3537 
Q 2872 3491 3272 3391 
z
" transform="scale(0.015625)"/>
      <path id="DejaVuSans-Bold-65" d="M 4031 1759 
L 4031 1441 
L 1416 1441 
Q 1456 1047 1700 850 
Q 1944 653 2381 653 
Q 2734 653 3104 758 
Q 3475 863 3866 1075 
L 3866 213 
Q 3469 63 3072 -14 
Q 2675 -91 2278 -91 
Q 1328 -91 801 392 
Q 275 875 275 1747 
Q 275 2603 792 3093 
Q 1309 3584 2216 3584 
Q 3041 3584 3536 3087 
Q 4031 2591 4031 1759 
z
M 2881 2131 
Q 2881 2450 2695 2645 
Q 2509 2841 2209 2841 
Q 1884 2841 1681 2658 
Q 1478 2475 1428 2131 
L 2881 2131 
z
" transform="scale(0.015625)"/>
      <path id="DejaVuSans-Bold-64" d="M 2919 2988 
L 2919 4863 
L 4044 4863 
L 4044 0 
L 2919 0 
L 2919 506 
Q 2688 197 2409 53 
Q 2131 -91 1766 -91 
Q 1119 -91 703 423 
Q 288 938 288 1747 
Q 288 2556 703 3070 
Q 1119 3584 1766 3584 
Q 2128 3584 2408 3439 
Q 2688 3294 2919 2988 
z
M 2181 722 
Q 2541 722 2730 984 
Q 2919 1247 2919 1747 
Q 2919 2247 2730 2509 
Q 2541 2772 2181 2772 
Q 1825 2772 1636 2509 
Q 1447 2247 1447 1747 
Q 1447 1247 1636 984 
Q 1825 722 2181 722 
z
" transform="scale(0.015625)"/>
      <path id="DejaVuSans-Bold-2d" d="M 347 2297 
L 2309 2297 
L 2309 1388 
L 347 1388 
L 347 2297 
z
" transform="scale(0.015625)"/>
      <path id="DejaVuSans-Bold-20" transform="scale(0.015625)"/>
      <path id="DejaVuSans-Bold-63" d="M 3366 3391 
L 3366 2478 
Q 3138 2634 2908 2709 
Q 2678 2784 2431 2784 
Q 1963 2784 1702 2511 
Q 1441 2238 1441 1747 
Q 1441 1256 1702 982 
Q 1963 709 2431 709 
Q 2694 709 2930 787 
Q 3166 866 3366 1019 
L 3366 103 
Q 3103 6 2833 -42 
Q 2563 -91 2291 -91 
Q 1344 -91 809 395 
Q 275 881 275 1747 
Q 275 2613 809 3098 
Q 1344 3584 2291 3584 
Q 2566 3584 2833 3536 
Q 3100 3488 3366 3391 
z
" transform="scale(0.015625)"/>
      <path id="DejaVuSans-Bold-6c" d="M 538 4863 
L 1656 4863 
L 1656 0 
L 538 0 
L 538 4863 
z
" transform="scale(0.015625)"/>
      <path id="DejaVuSans-Bold-6f" d="M 2203 2784 
Q 1831 2784 1636 2517 
Q 1441 2250 1441 1747 
Q 1441 1244 1636 976 
Q 1831 709 2203 709 
Q 2569 709 2762 976 
Q 2956 1244 2956 1747 
Q 2956 2250 2762 2517 
Q 2569 2784 2203 2784 
z
M 2203 3584 
Q 3106 3584 3614 3096 
Q 4122 2609 4122 1747 
Q 4122 884 3614 396 
Q 3106 -91 2203 -91 
Q 1297 -91 786 396 
Q 275 884 275 1747 
Q 275 2609 786 3096 
Q 1297 3584 2203 3584 
z
" transform="scale(0.015625)"/>
      <path id="DejaVuSans-Bold-72" d="M 3138 2547 
Q 2991 2616 2845 2648 
Q 2700 2681 2553 2681 
Q 2122 2681 1889 2404 
Q 1656 2128 1656 1613 
L 1656 0 
L 538 0 
L 538 3500 
L 1656 3500 
L 1656 2925 
Q 1872 3269 2151 3426 
Q 2431 3584 2822 3584 
Q 2878 3584 2943 3579 
Q 3009 3575 3134 3559 
L 3138 2547 
z
" transform="scale(0.015625)"/>
     </defs>
     <use xlink:href="#DejaVuSans-Bold-66"/>
     <use xlink:href="#DejaVuSans-Bold-75" transform="translate(43.505859 0)"/>
     <use xlink:href="#DejaVuSans-Bold-73" transform="translate(114.697266 0)"/>
     <use xlink:href="#DejaVuSans-Bold-65" transform="translate(174.21875 0)"/>
     <use xlink:href="#DejaVuSans-Bold-64" transform="translate(242.041016 0)"/>
     <use xlink:href="#DejaVuSans-Bold-2d" transform="translate(313.623047 0)"/>
     <use xlink:href="#DejaVuSans-Bold-68" transform="translate(355.126953 0)"/>
     <use xlink:href="#DejaVuSans-Bold-75" transform="translate(426.318359 0)"/>
     <use xlink:href="#DejaVuSans-Bold-62" transform="translate(497.509766 0)"/>
     <use xlink:href="#DejaVuSans-Bold-20" transform="translate(569.091797 0)"/>
     <use xlink:href="#DejaVuSans-Bold-63" transform="translate(603.90625 0)"/>
     <use xlink:href="#DejaVuSans-Bold-6c" transform="translate(663.183594 0)"/>
     <use xlink:href="#DejaVuSans-Bold-6f" transform="translate(697.460938 0)"/>
     <use xlink:href="#DejaVuSans-Bold-73" transform="translate(766.162109 0)"/>
     <use xlink:href="#DejaVuSans-Bold-75" transform="translate(825.683594 0)"/>
     <use xlink:href="#DejaVuSans-Bold-72" transform="translate(896.875 0)"/>
     <use xlink:href="#DejaVuSans-Bold-65" transform="translate(946.191406 0)"/>
    </g>
   </g>
  </g>
  <g id="text_11">
   <!-- Chain-end orphan reflection (Q8) → fused hub closes it -->
   <g transform="translate(77.736641 17.077969) scale(0.13 -0.13)">
    <defs>
     <path id="DejaVuSans-43" d="M 4122 4306 
L 4122 3641 
Q 3803 3938 3442 4084 
Q 3081 4231 2675 4231 
Q 1875 4231 1450 3742 
Q 1025 3253 1025 2328 
Q 1025 1406 1450 917 
Q 1875 428 2675 428 
Q 3081 428 3442 575 
Q 3803 722 4122 1019 
L 4122 359 
Q 3791 134 3420 21 
Q 3050 -91 2638 -91 
Q 1578 -91 968 557 
Q 359 1206 359 2328 
Q 359 3453 968 4101 
Q 1578 4750 2638 4750 
Q 3056 4750 3426 4639 
Q 3797 4528 4122 4306 
z
" transform="scale(0.015625)"/>
     <path id="DejaVuSans-51" d="M 2522 4238 
Q 1834 4238 1429 3725 
Q 1025 3213 1025 2328 
Q 1025 1447 1429 934 
Q 1834 422 2522 422 
Q 3209 422 3611 934 
Q 4013 1447 4013 2328 
Q 4013 3213 3611 3725 
Q 3209 4238 2522 4238 
z
M 3406 84 
L 4238 -825 
L 3475 -825 
L 2784 -78 
Q 2681 -84 2626 -87 
Q 2572 -91 2522 -91 
Q 1538 -91 948 567 
Q 359 1225 359 2328 
Q 359 3434 948 4092 
Q 1538 4750 2522 4750 
Q 3503 4750 4090 4092 
Q 4678 3434 4678 2328 
Q 4678 1516 4351 937 
Q 4025 359 3406 84 
z
" transform="scale(0.015625)"/>
     <path id="DejaVuSans-38" d="M 2034 2216 
Q 1584 2216 1326 1975 
Q 1069 1734 1069 1313 
Q 1069 891 1326 650 
Q 1584 409 2034 409 
Q 2484 409 2743 651 
Q 3003 894 3003 1313 
Q 3003 1734 2745 1975 
Q 2488 2216 2034 2216 
z
M 1403 2484 
Q 997 2584 770 2862 
Q 544 3141 544 3541 
Q 544 4100 942 4425 
Q 1341 4750 2034 4750 
Q 2731 4750 3128 4425 
Q 3525 4100 3525 3541 
Q 3525 3141 3298 2862 
Q 3072 2584 2669 2484 
Q 3125 2378 3379 2068 
Q 3634 1759 3634 1313 
Q 3634 634 3220 271 
Q 2806 -91 2034 -91 
Q 1263 -91 848 271 
Q 434 634 434 1313 
Q 434 1759 690 2068 
Q 947 2378 1403 2484 
z
M 1172 3481 
Q 1172 3119 1398 2916 
Q 1625 2713 2034 2713 
Q 2441 2713 2670 2916 
Q 2900 3119 2900 3481 
Q 2900 3844 2670 4047 
Q 2441 4250 2034 4250 
Q 1625 4250 1398 4047 
Q 1172 3844 1172 3481 
z
" transform="scale(0.015625)"/>
    </defs>
    <use xlink:href="#DejaVuSans-43"/>
    <use xlink:href="#DejaVuSans-68" transform="translate(69.824219 0)"/>
    <use xlink:href="#DejaVuSans-61" transform="translate(133.203125 0)"/>
    <use xlink:href="#DejaVuSans-69" transform="translate(194.482422 0)"/>
    <use xlink:href="#DejaVuSans-6e" transform="translate(222.265625 0)"/>
    <use xlink:href="#DejaVuSans-2d" transform="translate(285.644531 0)"/>
    <use xlink:href="#DejaVuSans-65" transform="translate(321.728516 0)"/>
    <use xlink:href="#DejaVuSans-6e" transform="translate(383.251953 0)"/>
    <use xlink:href="#DejaVuSans-64" transform="translate(446.630859 0)"/>
    <use xlink:href="#DejaVuSans-20" transform="translate(510.107422 0)"/>
    <use xlink:href="#DejaVuSans-6f" transform="translate(541.894531 0)"/>
    <use xlink:href="#DejaVuSans-72" transform="translate(603.076172 0)"/>
    <use xlink:href="#DejaVuSans-70" transform="translate(644.189453 0)"/>
    <use xlink:href="#DejaVuSans-68" transform="translate(707.666016 0)"/>
    <use xlink:href="#DejaVuSans-61" transform="translate(771.044922 0)"/>
    <use xlink:href="#DejaVuSans-6e" transform="translate(832.324219 0)"/>
    <use xlink:href="#DejaVuSans-20" transform="translate(895.703125 0)"/>
    <use xlink:href="#DejaVuSans-72" transform="translate(927.490234 0)"/>
    <use xlink:href="#DejaVuSans-65" transform="translate(966.353516 0)"/>
    <use xlink:href="#DejaVuSans-66" transform="translate(1027.876953 0)"/>
    <use xlink:href="#DejaVuSans-6c" transform="translate(1063.082031 0)"/>
    <use xlink:href="#DejaVuSans-65" transform="translate(1090.865234 0)"/>
    <use xlink:href="#DejaVuSans-63" transform="translate(1152.388672 0)"/>
    <use xlink:href="#DejaVuSans-74" transform="translate(1207.369141 0)"/>
    <use xlink:href="#DejaVuSans-69" transform="translate(1246.578125 0)"/>
    <use xlink:href="#DejaVuSans-6f" transform="translate(1274.361328 0)"/>
    <use xlink:href="#DejaVuSans-6e" transform="translate(1335.542969 0)"/>
    <use xlink:href="#DejaVuSans-20" transform="translate(1398.921875 0)"/>
    <use xlink:href="#DejaVuSans-28" transform="translate(1430.708984 0)"/>
    <use xlink:href="#DejaVuSans-51" transform="translate(1469.722656 0)"/>
    <use xlink:href="#DejaVuSans-38" transform="translate(1548.433594 0)"/>
    <use xlink:href="#DejaVuSans-29" transform="translate(1612.056641 0)"/>
    <use xlink:href="#DejaVuSans-20" transform="translate(1651.070312 0)"/>
    <use xlink:href="#DejaVuSans-2192" transform="translate(1682.857422 0)"/>
    <use xlink:href="#DejaVuSans-20" transform="translate(1766.646484 0)"/>
    <use xlink:href="#DejaVuSans-66" transform="translate(1798.433594 0)"/>
    <use xlink:href="#DejaVuSans-75" transform="translate(1833.638672 0)"/>
    <use xlink:href="#DejaVuSans-73" transform="translate(1897.017578 0)"/>
    <use xlink:href="#DejaVuSans-65" transform="translate(1949.117188 0)"/>
    <use xlink:href="#DejaVuSans-64" transform="translate(2010.640625 0)"/>
    <use xlink:href="#DejaVuSans-20" transform="translate(2074.117188 0)"/>
    <use xlink:href="#DejaVuSans-68" transform="translate(2105.904297 0)"/>
    <use xlink:href="#DejaVuSans-75" transform="translate(2169.283203 0)"/>
    <use xlink:href="#DejaVuSans-62" transform="translate(2232.662109 0)"/>
    <use xlink:href="#DejaVuSans-20" transform="translate(2296.138672 0)"/>
    <use xlink:href="#DejaVuSans-63" transform="translate(2327.925781 0)"/>
    <use xlink:href="#DejaVuSans-6c" transform="translate(2382.90625 0)"/>
    <use xlink:href="#DejaVuSans-6f" transform="translate(2410.689453 0)"/>
    <use xlink:href="#DejaVuSans-73" transform="translate(2471.871094 0)"/>
    <use xlink:href="#DejaVuSans-65" transform="translate(2523.970703 0)"/>
    <use xlink:href="#DejaVuSans-73" transform="translate(2585.494141 0)"/>
    <use xlink:href="#DejaVuSans-20" transform="translate(2637.59375 0)"/>
    <use xlink:href="#DejaVuSans-69" transform="translate(2669.380859 0)"/>
    <use xlink:href="#DejaVuSans-74" transform="translate(2697.164062 0)"/>
   </g>
  </g>
 </g>
 <defs>
  <clipPath id="p6dd240f150">
   <rect x="7.2" y="63.702545" width="233.345455" height="124.450909"/>
  </clipPath>
  <clipPath id="p32529aaad7">
   <rect x="301.071273" y="31.68" width="205.632" height="188.496"/>
  </clipPath>
 </defs>
</svg>
