<?xml version="1.0" encoding="utf-8" standalone="no"?>
<!DOCTYPE svg PUBLIC "-//W3C//DTD SVG 1.1//EN"
  "http://www.w3.org/Graphics/SVG/1.1/DTD/svg11.dtd">
<svg xmlns:xlink="http://www.w3.org/1999/xlink" width="554.362023pt" height="252.432pt" viewBox="0 0 554.362023 252.432" xmlns="http://www.w3.org/2000/svg" version="1.1">
 <metadata>
  <rdf:RDF xmlns:dc="http://purl.org/dc/elements/1.1/" xmlns:cc="http://creativecommons.org/ns#" xmlns:rdf="http://www.w3.org/1999/02/22-rdf-syntax-ns#">
   <cc:Work>
    <dc:type rdf:resource="http://purl.org/dc/dcmitype/StillImage"/>
    <dc:date>2026-06-03T14:06:03.567190</dc:date>
    <dc:format>image/svg+xml</dc:format>
    <dc:creator>
     <cc:Agent>
      <dc:title>Matplotlib v3.10.9, https://matplotlib.org/</dc:title>
     </cc:Agent>
    </dc:creator>
   </cc:Work>
  </rdf:RDF>
 </metadata>
 <defs>
  <style type="text/css">*{stroke-linejoin: round; stroke-linecap: butt}</style>
 </defs>
 <g id="figure_1">
  <g id="patch_1">
   <path d="M 0 252.432 
L 554.362023 252.432 
L 554.362023 0 
L 0 0 
z
" style="fill: #ffffff"/>
  </g>
  <g id="axes_1">
   <g id="patch_2">
    <path d="M 47.076134 116.621134 
L 82.88362 116.621134 
L 82.88362 80.813647 
L 47.076134 80.813647 
z
" clip-path="url(#p460f9d5988)" style="fill: #fdeeee; stroke: #444444; stroke-width: 1.3; stroke-linejoin: miter"/>
   </g>
   <g id="patch_3">
    <path d="M 82.88362 116.621134 
L 118.691107 116.621134 
L 118.691107 80.813647 
L 82.88362 80.813647 
z
" clip-path="url(#p460f9d5988)" style="fill: #eaf3fb; stroke: #444444; stroke-width: 1.3; stroke-linejoin: miter"/>
   </g>
   <g id="patch_4">
    <path d="M 118.691107 116.621134 
L 154.498594 116.621134 
L 154.498594 80.813647 
L 118.691107 80.813647 
z
" clip-path="url(#p460f9d5988)" style="fill: #fdeeee; stroke: #444444; stroke-width: 1.3; stroke-linejoin: miter"/>
   </g>
   <g id="patch_5">
    <path d="M 154.498594 116.621134 
L 190.30608 116.621134 
L 190.30608 80.813647 
L 154.498594 80.813647 
z
" clip-path="url(#p460f9d5988)" style="fill: #eaf3fb; stroke: #444444; stroke-width: 1.3; stroke-linejoin: miter"/>
   </g>
   <g id="patch_6">
    <path d="M 190.30608 116.621134 
L 226.113567 116.621134 
L 226.113567 80.813647 
L 190.30608 80.813647 
z
" clip-path="url(#p460f9d5988)" style="fill: #fdeeee; stroke: #444444; stroke-width: 1.3; stroke-linejoin: miter"/>
   </g>
   <g id="patch_7">
    <path d="M 226.113567 116.621134 
L 261.921054 116.621134 
L 261.921054 80.813647 
L 226.113567 80.813647 
z
" clip-path="url(#p460f9d5988)" style="fill: #eaf3fb; stroke: #444444; stroke-width: 1.3; stroke-linejoin: miter"/>
   </g>
   <g id="patch_8">
    <path d="M 47.076134 159.590118 
L 82.88362 159.590118 
L 82.88362 123.782631 
L 47.076134 123.782631 
z
" clip-path="url(#p460f9d5988)" style="fill: #eaf3fb; stroke: #444444; stroke-width: 1.3; stroke-linejoin: miter"/>
   </g>
   <g id="patch_9">
    <path d="M 82.88362 159.590118 
L 118.691107 159.590118 
L 118.691107 123.782631 
L 82.88362 123.782631 
z
" clip-path="url(#p460f9d5988)" style="fill: #fdeeee; stroke: #444444; stroke-width: 1.3; stroke-linejoin: miter"/>
   </g>
   <g id="patch_10">
    <path d="M 118.691107 159.590118 
L 154.498594 159.590118 
L 154.498594 123.782631 
L 118.691107 123.782631 
z
" clip-path="url(#p460f9d5988)" style="fill: #eaf3fb; stroke: #444444; stroke-width: 1.3; stroke-linejoin: miter"/>
   </g>
   <g id="patch_11">
    <path d="M 154.498594 159.590118 
L 190.30608 159.590118 
L 190.30608 123.782631 
L 154.498594 123.782631 
z
" clip-path="url(#p460f9d5988)" style="fill: #fdeeee; stroke: #444444; stroke-width: 1.3; stroke-linejoin: miter"/>
   </g>
   <g id="patch_12">
    <path d="M 190.30608 159.590118 
L 226.113567 159.590118 
L 226.113567 123.782631 
L 190.30608 123.782631 
z
" clip-path="url(#p460f9d5988)" style="fill: #eaf3fb; stroke: #444444; stroke-width: 1.3; stroke-linejoin: miter"/>
   </g>
   <g id="patch_13">
    <path d="M 226.113567 159.590118 
L 261.921054 159.590118 
L 261.921054 123.782631 
L 226.113567 123.782631 
z
" clip-path="url(#p460f9d5988)" style="fill: #fdeeee; stroke: #444444; stroke-width: 1.3; stroke-linejoin: miter"/>
   </g>
   <g id="text_1">
    <!-- − -->
    <g style="fill: #d83232" transform="translate(60.790033 112.219011) scale(0.1 -0.1)">
     <defs>
      <path id="DejaVuSans-Bold-2212" d="M 678 2375 
L 4684 2375 
L 4684 1638 
L 678 1638 
L 678 2375 
z
" transform="scale(0.015625)"/>
     </defs>
     <use xlink:href="#DejaVuSans-Bold-2212"/>
    </g>
   </g>
   <g id="text_2">
    <!-- + -->
    <g style="fill: #3399cc" transform="translate(96.59752 112.219011) scale(0.1 -0.1)">
     <defs>
      <path id="DejaVuSans-Bold-2b" d="M 3053 4013 
L 3053 2375 
L 4684 2375 
L 4684 1638 
L 3053 1638 
L 3053 0 
L 2309 0 
L 2309 1638 
L 678 1638 
L 678 2375 
L 2309 2375 
L 2309 4013 
L 3053 4013 
z
" transform="scale(0.015625)"/>
     </defs>
     <use xlink:href="#DejaVuSans-Bold-2b"/>
    </g>
   </g>
   <g id="text_3">
    <!-- − -->
    <g style="fill: #d83232" transform="translate(132.405007 112.219011) scale(0.1 -0.1)">
     <use xlink:href="#DejaVuSans-Bold-2212"/>
    </g>
   </g>
   <g id="text_4">
    <!-- + -->
    <g style="fill: #3399cc" transform="translate(168.212493 112.219011) scale(0.1 -0.1)">
     <use xlink:href="#DejaVuSans-Bold-2b"/>
    </g>
   </g>
   <g id="text_5">
    <!-- − -->
    <g style="fill: #d83232" transform="translate(204.01998 112.219011) scale(0.1 -0.1)">
     <use xlink:href="#DejaVuSans-Bold-2212"/>
    </g>
   </g>
   <g id="text_6">
    <!-- + -->
    <g style="fill: #3399cc" transform="translate(239.827467 112.219011) scale(0.1 -0.1)">
     <use xlink:href="#DejaVuSans-Bold-2b"/>
    </g>
   </g>
   <g id="text_7">
    <!-- + -->
    <g style="fill: #3399cc" transform="translate(60.790033 155.187995) scale(0.1 -0.1)">
     <use xlink:href="#DejaVuSans-Bold-2b"/>
    </g>
   </g>
   <g id="text_8">
    <!-- − -->
    <g style="fill: #d83232" transform="translate(96.59752 155.187995) scale(0.1 -0.1)">
     <use xlink:href="#DejaVuSans-Bold-2212"/>
    </g>
   </g>
   <g id="text_9">
    <!-- + -->
    <g style="fill: #3399cc" transform="translate(132.405007 155.187995) scale(0.1 -0.1)">
     <use xlink:href="#DejaVuSans-Bold-2b"/>
    </g>
   </g>
   <g id="text_10">
    <!-- − -->
    <g style="fill: #d83232" transform="translate(168.212493 155.187995) scale(0.1 -0.1)">
     <use xlink:href="#DejaVuSans-Bold-2212"/>
    </g>
   </g>
   <g id="text_11">
    <!-- + -->
    <g style="fill: #3399cc" transform="translate(204.01998 155.187995) scale(0.1 -0.1)">
     <use xlink:href="#DejaVuSans-Bold-2b"/>
    </g>
   </g>
   <g id="text_12">
    <!-- − -->
    <g style="fill: #d83232" transform="translate(239.827467 155.187995) scale(0.1 -0.1)">
     <use xlink:href="#DejaVuSans-Bold-2212"/>
    </g>
   </g>
   <g id="text_13">
    <!-- σ phase: global vs per-chain -->
    <g transform="translate(77.011328 56.909904) scale(0.11 -0.11)">
     <defs>
      <path id="DejaVuSans-3c3" d="M 1959 3044 
Q 1484 3044 1228 2700 
Q 959 2341 959 1747 
Q 959 1119 1226 758 
Q 1494 397 1959 397 
Q 2419 397 2687 759 
Q 2956 1122 2956 1747 
Q 2956 2319 2688 2700 
Q 2441 3044 1959 3044 
z
M 1959 3500 
L 3869 3500 
L 3869 2925 
L 3225 2925 
Q 3566 2438 3566 1747 
Q 3566 888 3138 400 
Q 2709 -91 1959 -91 
Q 1206 -91 781 400 
Q 353 888 353 1747 
Q 353 2613 781 3097 
Q 1134 3500 1959 3500 
z
" transform="scale(0.015625)"/>
      <path id="DejaVuSans-20" transform="scale(0.015625)"/>
      <path id="DejaVuSans-70" d="M 1159 525 
L 1159 -1331 
L 581 -1331 
L 581 3500 
L 1159 3500 
L 1159 2969 
Q 1341 3281 1617 3432 
Q 1894 3584 2278 3584 
Q 2916 3584 3314 3078 
Q 3713 2572 3713 1747 
Q 3713 922 3314 415 
Q 2916 -91 2278 -91 
Q 1894 -91 1617 61 
Q 1341 213 1159 525 
z
M 3116 1747 
Q 3116 2381 2855 2742 
Q 2594 3103 2138 3103 
Q 1681 3103 1420 2742 
Q 1159 2381 1159 1747 
Q 1159 1113 1420 752 
Q 1681 391 2138 391 
Q 2594 391 2855 752 
Q 3116 1113 3116 1747 
z
" transform="scale(0.015625)"/>
      <path id="DejaVuSans-68" d="M 3513 2113 
L 3513 0 
L 2938 0 
L 2938 2094 
Q 2938 2591 2744 2837 
Q 2550 3084 2163 3084 
Q 1697 3084 1428 2787 
Q 1159 2491 1159 1978 
L 1159 0 
L 581 0 
L 581 4863 
L 1159 4863 
L 1159 2956 
Q 1366 3272 1645 3428 
Q 1925 3584 2291 3584 
Q 2894 3584 3203 3211 
Q 3513 2838 3513 2113 
z
" transform="scale(0.015625)"/>
      <path id="DejaVuSans-61" d="M 2194 1759 
Q 1497 1759 1228 1600 
Q 959 1441 959 1056 
Q 959 750 1161 570 
Q 1363 391 1709 391 
Q 2188 391 2477 730 
Q 2766 1069 2766 1631 
L 2766 1759 
L 2194 1759 
z
M 3341 1997 
L 3341 0 
L 2766 0 
L 2766 531 
Q 2569 213 2275 61 
Q 1981 -91 1556 -91 
Q 1019 -91 701 211 
Q 384 513 384 1019 
Q 384 1609 779 1909 
Q 1175 2209 1959 2209 
L 2766 2209 
L 2766 2266 
Q 2766 2663 2505 2880 
Q 2244 3097 1772 3097 
Q 1472 3097 1187 3025 
Q 903 2953 641 2809 
L 641 3341 
Q 956 3463 1253 3523 
Q 1550 3584 1831 3584 
Q 2591 3584 2966 3190 
Q 3341 2797 3341 1997 
z
" transform="scale(0.015625)"/>
      <path id="DejaVuSans-73" d="M 2834 3397 
L 2834 2853 
Q 2591 2978 2328 3040 
Q 2066 3103 1784 3103 
Q 1356 3103 1142 2972 
Q 928 2841 928 2578 
Q 928 2378 1081 2264 
Q 1234 2150 1697 2047 
L 1894 2003 
Q 2506 1872 2764 1633 
Q 3022 1394 3022 966 
Q 3022 478 2636 193 
Q 2250 -91 1575 -91 
Q 1294 -91 989 -36 
Q 684 19 347 128 
L 347 722 
Q 666 556 975 473 
Q 1284 391 1588 391 
Q 1994 391 2212 530 
Q 2431 669 2431 922 
Q 2431 1156 2273 1281 
Q 2116 1406 1581 1522 
L 1381 1569 
Q 847 1681 609 1914 
Q 372 2147 372 2553 
Q 372 3047 722 3315 
Q 1072 3584 1716 3584 
Q 2034 3584 2315 3537 
Q 2597 3491 2834 3397 
z
" transform="scale(0.015625)"/>
      <path id="DejaVuSans-65" d="M 3597 1894 
L 3597 1613 
L 953 1613 
Q 991 1019 1311 708 
Q 1631 397 2203 397 
Q 2534 397 2845 478 
Q 3156 559 3463 722 
L 3463 178 
Q 3153 47 2828 -22 
Q 2503 -91 2169 -91 
Q 1331 -91 842 396 
Q 353 884 353 1716 
Q 353 2575 817 3079 
Q 1281 3584 2069 3584 
Q 2775 3584 3186 3129 
Q 3597 2675 3597 1894 
z
M 3022 2063 
Q 3016 2534 2758 2815 
Q 2500 3097 2075 3097 
Q 1594 3097 1305 2825 
Q 1016 2553 972 2059 
L 3022 2063 
z
" transform="scale(0.015625)"/>
      <path id="DejaVuSans-3a" d="M 750 794 
L 1409 794 
L 1409 0 
L 750 0 
L 750 794 
z
M 750 3309 
L 1409 3309 
L 1409 2516 
L 750 2516 
L 750 3309 
z
" transform="scale(0.015625)"/>
      <path id="DejaVuSans-67" d="M 2906 1791 
Q 2906 2416 2648 2759 
Q 2391 3103 1925 3103 
Q 1463 3103 1205 2759 
Q 947 2416 947 1791 
Q 947 1169 1205 825 
Q 1463 481 1925 481 
Q 2391 481 2648 825 
Q 2906 1169 2906 1791 
z
M 3481 434 
Q 3481 -459 3084 -895 
Q 2688 -1331 1869 -1331 
Q 1566 -1331 1297 -1286 
Q 1028 -1241 775 -1147 
L 775 -588 
Q 1028 -725 1275 -790 
Q 1522 -856 1778 -856 
Q 2344 -856 2625 -561 
Q 2906 -266 2906 331 
L 2906 616 
Q 2728 306 2450 153 
Q 2172 0 1784 0 
Q 1141 0 747 490 
Q 353 981 353 1791 
Q 353 2603 747 3093 
Q 1141 3584 1784 3584 
Q 2172 3584 2450 3431 
Q 2728 3278 2906 2969 
L 2906 3500 
L 3481 3500 
L 3481 434 
z
" transform="scale(0.015625)"/>
      <path id="DejaVuSans-6c" d="M 603 4863 
L 1178 4863 
L 1178 0 
L 603 0 
L 603 4863 
z
" transform="scale(0.015625)"/>
      <path id="DejaVuSans-6f" d="M 1959 3097 
Q 1497 3097 1228 2736 
Q 959 2375 959 1747 
Q 959 1119 1226 758 
Q 1494 397 1959 397 
Q 2419 397 2687 759 
Q 2956 1122 2956 1747 
Q 2956 2369 2687 2733 
Q 2419 3097 1959 3097 
z
M 1959 3584 
Q 2709 3584 3137 3096 
Q 3566 2609 3566 1747 
Q 3566 888 3137 398 
Q 2709 -91 1959 -91 
Q 1206 -91 779 398 
Q 353 888 353 1747 
Q 353 2609 779 3096 
Q 1206 3584 1959 3584 
z
" transform="scale(0.015625)"/>
      <path id="DejaVuSans-62" d="M 3116 1747 
Q 3116 2381 2855 2742 
Q 2594 3103 2138 3103 
Q 1681 3103 1420 2742 
Q 1159 2381 1159 1747 
Q 1159 1113 1420 752 
Q 1681 391 2138 391 
Q 2594 391 2855 752 
Q 3116 1113 3116 1747 
z
M 1159 2969 
Q 1341 3281 1617 3432 
Q 1894 3584 2278 3584 
Q 2916 3584 3314 3078 
Q 3713 2572 3713 1747 
Q 3713 922 3314 415 
Q 2916 -91 2278 -91 
Q 1894 -91 1617 61 
Q 1341 213 1159 525 
L 1159 0 
L 581 0 
L 581 4863 
L 1159 4863 
L 1159 2969 
z
" transform="scale(0.015625)"/>
      <path id="DejaVuSans-76" d="M 191 3500 
L 800 3500 
L 1894 563 
L 2988 3500 
L 3597 3500 
L 2284 0 
L 1503 0 
L 191 3500 
z
" transform="scale(0.015625)"/>
      <path id="DejaVuSans-72" d="M 2631 2963 
Q 2534 3019 2420 3045 
Q 2306 3072 2169 3072 
Q 1681 3072 1420 2755 
Q 1159 2438 1159 1844 
L 1159 0 
L 581 0 
L 581 3500 
L 1159 3500 
L 1159 2956 
Q 1341 3275 1631 3429 
Q 1922 3584 2338 3584 
Q 2397 3584 2469 3576 
Q 2541 3569 2628 3553 
L 2631 2963 
z
" transform="scale(0.015625)"/>
      <path id="DejaVuSans-2d" d="M 313 2009 
L 1997 2009 
L 1997 1497 
L 313 1497 
L 313 2009 
z
" transform="scale(0.015625)"/>
      <path id="DejaVuSans-63" d="M 3122 3366 
L 3122 2828 
Q 2878 2963 2633 3030 
Q 2388 3097 2138 3097 
Q 1578 3097 1268 2742 
Q 959 2388 959 1747 
Q 959 1106 1268 751 
Q 1578 397 2138 397 
Q 2388 397 2633 464 
Q 2878 531 3122 666 
L 3122 134 
Q 2881 22 2623 -34 
Q 2366 -91 2075 -91 
Q 1284 -91 818 406 
Q 353 903 353 1747 
Q 353 2603 823 3093 
Q 1294 3584 2113 3584 
Q 2378 3584 2631 3529 
Q 2884 3475 3122 3366 
z
" transform="scale(0.015625)"/>
      <path id="DejaVuSans-69" d="M 603 3500 
L 1178 3500 
L 1178 0 
L 603 0 
L 603 3500 
z
M 603 4863 
L 1178 4863 
L 1178 4134 
L 603 4134 
L 603 4863 
z
" transform="scale(0.015625)"/>
      <path id="DejaVuSans-6e" d="M 3513 2113 
L 3513 0 
L 2938 0 
L 2938 2094 
Q 2938 2591 2744 2837 
Q 2550 3084 2163 3084 
Q 1697 3084 1428 2787 
Q 1159 2491 1159 1978 
L 1159 0 
L 581 0 
L 581 3500 
L 1159 3500 
L 1159 2956 
Q 1366 3272 1645 3428 
Q 1925 3584 2291 3584 
Q 2894 3584 3203 3211 
Q 3513 2838 3513 2113 
z
" transform="scale(0.015625)"/>
     </defs>
     <use xlink:href="#DejaVuSans-3c3"/>
     <use xlink:href="#DejaVuSans-20" transform="translate(63.378906 0)"/>
     <use xlink:href="#DejaVuSans-70" transform="translate(95.166016 0)"/>
     <use xlink:href="#DejaVuSans-68" transform="translate(158.642578 0)"/>
     <use xlink:href="#DejaVuSans-61" transform="translate(222.021484 0)"/>
     <use xlink:href="#DejaVuSans-73" transform="translate(283.300781 0)"/>
     <use xlink:href="#DejaVuSans-65" transform="translate(335.400391 0)"/>
     <use xlink:href="#DejaVuSans-3a" transform="translate(396.923828 0)"/>
     <use xlink:href="#DejaVuSans-20" transform="translate(430.615234 0)"/>
     <use xlink:href="#DejaVuSans-67" transform="translate(462.402344 0)"/>
     <use xlink:href="#DejaVuSans-6c" transform="translate(525.878906 0)"/>
     <use xlink:href="#DejaVuSans-6f" transform="translate(553.662109 0)"/>
     <use xlink:href="#DejaVuSans-62" transform="translate(614.84375 0)"/>
     <use xlink:href="#DejaVuSans-61" transform="translate(678.320312 0)"/>
     <use xlink:href="#DejaVuSans-6c" transform="translate(739.599609 0)"/>
     <use xlink:href="#DejaVuSans-20" transform="translate(767.382812 0)"/>
     <use xlink:href="#DejaVuSans-76" transform="translate(799.169922 0)"/>
     <use xlink:href="#DejaVuSans-73" transform="translate(858.349609 0)"/>
     <use xlink:href="#DejaVuSans-20" transform="translate(910.449219 0)"/>
     <use xlink:href="#DejaVuSans-70" transform="translate(942.236328 0)"/>
     <use xlink:href="#DejaVuSans-65" transform="translate(1005.712891 0)"/>
     <use xlink:href="#DejaVuSans-72" transform="translate(1067.236328 0)"/>
     <use xlink:href="#DejaVuSans-2d" transform="translate(1101.974609 0)"/>
     <use xlink:href="#DejaVuSans-63" transform="translate(1138.058594 0)"/>
     <use xlink:href="#DejaVuSans-68" transform="translate(1193.039062 0)"/>
     <use xlink:href="#DejaVuSans-61" transform="translate(1256.417969 0)"/>
     <use xlink:href="#DejaVuSans-69" transform="translate(1317.697266 0)"/>
     <use xlink:href="#DejaVuSans-6e" transform="translate(1345.480469 0)"/>
    </g>
   </g>
   <g id="text_14">
    <!-- global $\sigma=(-1)^{x+y}$  (consistent)  ✓ -->
    <g style="fill: #22aa88" transform="translate(59.623594 78.852524) scale(0.11 -0.11)">
     <defs>
      <path id="DejaVuSans-Oblique-3c3" d="M 2219 3044 
Q 1744 3044 1422 2700 
Q 1081 2341 969 1747 
Q 844 1119 1044 756 
Q 1241 397 1706 397 
Q 2166 397 2503 759 
Q 2844 1122 2966 1747 
Q 3075 2319 2881 2700 
Q 2700 3044 2219 3044 
z
M 2309 3503 
L 4219 3500 
L 4106 2925 
L 3463 2925 
Q 3706 2438 3575 1747 
Q 3406 888 2884 400 
Q 2359 -91 1609 -91 
Q 856 -91 525 400 
Q 194 888 363 1747 
Q 528 2609 1050 3097 
Q 1484 3503 2309 3503 
z
" transform="scale(0.015625)"/>
      <path id="DejaVuSans-3d" d="M 678 2906 
L 4684 2906 
L 4684 2381 
L 678 2381 
L 678 2906 
z
M 678 1631 
L 4684 1631 
L 4684 1100 
L 678 1100 
L 678 1631 
z
" transform="scale(0.015625)"/>
      <path id="DejaVuSans-28" d="M 1984 4856 
Q 1566 4138 1362 3434 
Q 1159 2731 1159 2009 
Q 1159 1288 1364 580 
Q 1569 -128 1984 -844 
L 1484 -844 
Q 1016 -109 783 600 
Q 550 1309 550 2009 
Q 550 2706 781 3412 
Q 1013 4119 1484 4856 
L 1984 4856 
z
" transform="scale(0.015625)"/>
      <path id="DejaVuSans-2212" d="M 678 2272 
L 4684 2272 
L 4684 1741 
L 678 1741 
L 678 2272 
z
" transform="scale(0.015625)"/>
      <path id="DejaVuSans-31" d="M 794 531 
L 1825 531 
L 1825 4091 
L 703 3866 
L 703 4441 
L 1819 4666 
L 2450 4666 
L 2450 531 
L 3481 531 
L 3481 0 
L 794 0 
L 794 531 
z
" transform="scale(0.015625)"/>
      <path id="DejaVuSans-29" d="M 513 4856 
L 1013 4856 
Q 1481 4119 1714 3412 
Q 1947 2706 1947 2009 
Q 1947 1309 1714 600 
Q 1481 -109 1013 -844 
L 513 -844 
Q 928 -128 1133 580 
Q 1338 1288 1338 2009 
Q 1338 2731 1133 3434 
Q 928 4138 513 4856 
z
" transform="scale(0.015625)"/>
      <path id="DejaVuSans-Oblique-78" d="M 3841 3500 
L 2234 1784 
L 3219 0 
L 2559 0 
L 1819 1388 
L 531 0 
L -166 0 
L 1556 1844 
L 641 3500 
L 1300 3500 
L 1972 2234 
L 3144 3500 
L 3841 3500 
z
" transform="scale(0.015625)"/>
      <path id="DejaVuSans-2b" d="M 2944 4013 
L 2944 2272 
L 4684 2272 
L 4684 1741 
L 2944 1741 
L 2944 0 
L 2419 0 
L 2419 1741 
L 678 1741 
L 678 2272 
L 2419 2272 
L 2419 4013 
L 2944 4013 
z
" transform="scale(0.015625)"/>
      <path id="DejaVuSans-Oblique-79" d="M 1588 -325 
Q 1188 -997 936 -1164 
Q 684 -1331 294 -1331 
L -159 -1331 
L -63 -850 
L 269 -850 
Q 509 -850 678 -719 
Q 847 -588 1056 -206 
L 1234 128 
L 459 3500 
L 1069 3500 
L 1650 819 
L 3256 3500 
L 3859 3500 
L 1588 -325 
z
" transform="scale(0.015625)"/>
      <path id="DejaVuSans-74" d="M 1172 4494 
L 1172 3500 
L 2356 3500 
L 2356 3053 
L 1172 3053 
L 1172 1153 
Q 1172 725 1289 603 
Q 1406 481 1766 481 
L 2356 481 
L 2356 0 
L 1766 0 
Q 1100 0 847 248 
Q 594 497 594 1153 
L 594 3053 
L 172 3053 
L 172 3500 
L 594 3500 
L 594 4494 
L 1172 4494 
z
" transform="scale(0.015625)"/>
      <path id="DejaVuSans-2713" d="M 1416 2044 
Q 1538 2044 1600 1844 
Q 1725 1469 1778 1469 
Q 1819 1469 1863 1531 
Q 2741 2938 3488 3806 
Q 3681 4031 4103 4031 
Q 4203 4031 4237 4012 
Q 4272 3994 4272 3966 
Q 4272 3922 4169 3794 
Q 2963 2344 1931 731 
Q 1859 619 1638 619 
Q 1413 619 1372 638 
Q 1266 684 1122 1116 
Q 959 1594 959 1716 
Q 959 1847 1178 1969 
Q 1313 2044 1416 2044 
z
" transform="scale(0.015625)"/>
     </defs>
     <use xlink:href="#DejaVuSans-67" transform="translate(0 0.826562)"/>
     <use xlink:href="#DejaVuSans-6c" transform="translate(63.476562 0.826562)"/>
     <use xlink:href="#DejaVuSans-6f" transform="translate(91.259766 0.826562)"/>
     <use xlink:href="#DejaVuSans-62" transform="translate(152.441406 0.826562)"/>
     <use xlink:href="#DejaVuSans-61" transform="translate(215.917969 0.826562)"/>
     <use xlink:href="#DejaVuSans-6c" transform="translate(277.197266 0.826562)"/>
     <use xlink:href="#DejaVuSans-20" transform="translate(304.980469 0.826562)"/>
     <use xlink:href="#DejaVuSans-Oblique-3c3" transform="translate(336.767578 0.826562)"/>
     <use xlink:href="#DejaVuSans-3d" transform="translate(419.628906 0.826562)"/>
     <use xlink:href="#DejaVuSans-28" transform="translate(522.900391 0.826562)"/>
     <use xlink:href="#DejaVuSans-2212" transform="translate(561.914062 0.826562)"/>
     <use xlink:href="#DejaVuSans-31" transform="translate(645.703125 0.826562)"/>
     <use xlink:href="#DejaVuSans-29" transform="translate(709.326172 0.826562)"/>
     <use xlink:href="#DejaVuSans-Oblique-78" transform="translate(749.296875 39.107812) scale(0.7)"/>
     <use xlink:href="#DejaVuSans-2b" transform="translate(804.360352 39.107812) scale(0.7)"/>
     <use xlink:href="#DejaVuSans-Oblique-79" transform="translate(876.650391 39.107812) scale(0.7)"/>
     <use xlink:href="#DejaVuSans-20" transform="translate(920.810547 0.826562)"/>
     <use xlink:href="#DejaVuSans-20" transform="translate(952.597656 0.826562)"/>
     <use xlink:href="#DejaVuSans-28" transform="translate(984.384766 0.826562)"/>
     <use xlink:href="#DejaVuSans-63" transform="translate(1023.398438 0.826562)"/>
     <use xlink:href="#DejaVuSans-6f" transform="translate(1078.378906 0.826562)"/>
     <use xlink:href="#DejaVuSans-6e" transform="translate(1139.560547 0.826562)"/>
     <use xlink:href="#DejaVuSans-73" transform="translate(1202.939453 0.826562)"/>
     <use xlink:href="#DejaVuSans-69" transform="translate(1255.039062 0.826562)"/>
     <use xlink:href="#DejaVuSans-73" transform="translate(1282.822266 0.826562)"/>
     <use xlink:href="#DejaVuSans-74" transform="translate(1334.921875 0.826562)"/>
     <use xlink:href="#DejaVuSans-65" transform="translate(1374.130859 0.826562)"/>
     <use xlink:href="#DejaVuSans-6e" transform="translate(1435.654297 0.826562)"/>
     <use xlink:href="#DejaVuSans-74" transform="translate(1499.033203 0.826562)"/>
     <use xlink:href="#DejaVuSans-29" transform="translate(1538.242188 0.826562)"/>
     <use xlink:href="#DejaVuSans-20" transform="translate(1577.255859 0.826562)"/>
     <use xlink:href="#DejaVuSans-20" transform="translate(1609.042969 0.826562)"/>
     <use xlink:href="#DejaVuSans-2713" transform="translate(1640.830078 0.826562)"/>
    </g>
   </g>
   <g id="text_15">
    <!-- per-chain index resets → phase offset  ✗ (old false neg.) -->
    <g style="fill: #d83232" transform="translate(7.2 187.552702) scale(0.105 -0.105)">
     <defs>
      <path id="DejaVuSans-64" d="M 2906 2969 
L 2906 4863 
L 3481 4863 
L 3481 0 
L 2906 0 
L 2906 525 
Q 2725 213 2448 61 
Q 2172 -91 1784 -91 
Q 1150 -91 751 415 
Q 353 922 353 1747 
Q 353 2572 751 3078 
Q 1150 3584 1784 3584 
Q 2172 3584 2448 3432 
Q 2725 3281 2906 2969 
z
M 947 1747 
Q 947 1113 1208 752 
Q 1469 391 1925 391 
Q 2381 391 2643 752 
Q 2906 1113 2906 1747 
Q 2906 2381 2643 2742 
Q 2381 3103 1925 3103 
Q 1469 3103 1208 2742 
Q 947 2381 947 1747 
z
" transform="scale(0.015625)"/>
      <path id="DejaVuSans-78" d="M 3513 3500 
L 2247 1797 
L 3578 0 
L 2900 0 
L 1881 1375 
L 863 0 
L 184 0 
L 1544 1831 
L 300 3500 
L 978 3500 
L 1906 2253 
L 2834 3500 
L 3513 3500 
z
" transform="scale(0.015625)"/>
      <path id="DejaVuSans-2192" d="M 5050 2147 
L 5050 1866 
L 3822 638 
L 3447 1013 
L 4175 1741 
L 366 1741 
L 366 2272 
L 4175 2272 
L 3447 3000 
L 3822 3375 
L 5050 2147 
z
" transform="scale(0.015625)"/>
      <path id="DejaVuSans-66" d="M 2375 4863 
L 2375 4384 
L 1825 4384 
Q 1516 4384 1395 4259 
Q 1275 4134 1275 3809 
L 1275 3500 
L 2222 3500 
L 2222 3053 
L 1275 3053 
L 1275 0 
L 697 0 
L 697 3053 
L 147 3053 
L 147 3500 
L 697 3500 
L 697 3744 
Q 697 4328 969 4595 
Q 1241 4863 1831 4863 
L 2375 4863 
z
" transform="scale(0.015625)"/>
      <path id="DejaVuSans-2717" d="M 3975 4688 
Q 4006 4688 4056 4638 
Q 4109 4588 4166 4506 
Q 4256 4666 4309 4666 
Q 4356 4666 4438 4581 
Q 4488 4528 4488 4463 
Q 4488 4378 4419 4306 
Q 3769 3600 3156 2753 
Q 3409 2134 3856 1388 
Q 3894 1325 3894 1288 
Q 3894 1216 3800 1138 
L 3700 1069 
Q 3713 1031 3713 969 
Q 3713 875 3644 825 
Q 3563 769 3525 769 
Q 3444 769 3381 850 
Q 3006 1331 2606 1981 
Q 2069 1281 1375 113 
Q 1275 -56 1038 -56 
Q 925 -56 913 75 
Q 753 163 753 353 
Q 753 603 788 700 
Q 803 744 888 875 
Q 1525 1869 2238 2700 
Q 1856 3606 1731 4097 
Q 1703 4206 1703 4238 
Q 1703 4281 1759 4363 
Q 1819 4444 1869 4444 
Q 1916 4444 1988 4353 
Q 2016 4406 2056 4444 
Q 2113 4494 2200 4494 
Q 2300 4494 2331 4400 
Q 2500 3875 2775 3400 
Q 3219 3975 3856 4613 
Q 3931 4688 3975 4688 
z
" transform="scale(0.015625)"/>
      <path id="DejaVuSans-2e" d="M 684 794 
L 1344 794 
L 1344 0 
L 684 0 
L 684 794 
z
" transform="scale(0.015625)"/>
     </defs>
     <use xlink:href="#DejaVuSans-70"/>
     <use xlink:href="#DejaVuSans-65" transform="translate(63.476562 0)"/>
     <use xlink:href="#DejaVuSans-72" transform="translate(125 0)"/>
     <use xlink:href="#DejaVuSans-2d" transform="translate(159.738281 0)"/>
     <use xlink:href="#DejaVuSans-63" transform="translate(195.822266 0)"/>
     <use xlink:href="#DejaVuSans-68" transform="translate(250.802734 0)"/>
     <use xlink:href="#DejaVuSans-61" transform="translate(314.181641 0)"/>
     <use xlink:href="#DejaVuSans-69" transform="translate(375.460938 0)"/>
     <use xlink:href="#DejaVuSans-6e" transform="translate(403.244141 0)"/>
     <use xlink:href="#DejaVuSans-20" transform="translate(466.623047 0)"/>
     <use xlink:href="#DejaVuSans-69" transform="translate(498.410156 0)"/>
     <use xlink:href="#DejaVuSans-6e" transform="translate(526.193359 0)"/>
     <use xlink:href="#DejaVuSans-64" transform="translate(589.572266 0)"/>
     <use xlink:href="#DejaVuSans-65" transform="translate(653.048828 0)"/>
     <use xlink:href="#DejaVuSans-78" transform="translate(712.822266 0)"/>
     <use xlink:href="#DejaVuSans-20" transform="translate(772.001953 0)"/>
     <use xlink:href="#DejaVuSans-72" transform="translate(803.789062 0)"/>
     <use xlink:href="#DejaVuSans-65" transform="translate(842.652344 0)"/>
     <use xlink:href="#DejaVuSans-73" transform="translate(904.175781 0)"/>
     <use xlink:href="#DejaVuSans-65" transform="translate(956.275391 0)"/>
     <use xlink:href="#DejaVuSans-74" transform="translate(1017.798828 0)"/>
     <use xlink:href="#DejaVuSans-73" transform="translate(1057.007812 0)"/>
     <use xlink:href="#DejaVuSans-20" transform="translate(1109.107422 0)"/>
     <use xlink:href="#DejaVuSans-2192" transform="translate(1140.894531 0)"/>
     <use xlink:href="#DejaVuSans-20" transform="translate(1224.683594 0)"/>
     <use xlink:href="#DejaVuSans-70" transform="translate(1256.470703 0)"/>
     <use xlink:href="#DejaVuSans-68" transform="translate(1319.947266 0)"/>
     <use xlink:href="#DejaVuSans-61" transform="translate(1383.326172 0)"/>
     <use xlink:href="#DejaVuSans-73" transform="translate(1444.605469 0)"/>
     <use xlink:href="#DejaVuSans-65" transform="translate(1496.705078 0)"/>
     <use xlink:href="#DejaVuSans-20" transform="translate(1558.228516 0)"/>
     <use xlink:href="#DejaVuSans-6f" transform="translate(1590.015625 0)"/>
     <use xlink:href="#DejaVuSans-66" transform="translate(1651.197266 0)"/>
     <use xlink:href="#DejaVuSans-66" transform="translate(1686.402344 0)"/>
     <use xlink:href="#DejaVuSans-73" transform="translate(1721.607422 0)"/>
     <use xlink:href="#DejaVuSans-65" transform="translate(1773.707031 0)"/>
     <use xlink:href="#DejaVuSans-74" transform="translate(1835.230469 0)"/>
     <use xlink:href="#DejaVuSans-20" transform="translate(1874.439453 0)"/>
     <use xlink:href="#DejaVuSans-20" transform="translate(1906.226562 0)"/>
     <use xlink:href="#DejaVuSans-2717" transform="translate(1938.013672 0)"/>
     <use xlink:href="#DejaVuSans-20" transform="translate(2021.802734 0)"/>
     <use xlink:href="#DejaVuSans-28" transform="translate(2053.589844 0)"/>
     <use xlink:href="#DejaVuSans-6f" transform="translate(2092.603516 0)"/>
     <use xlink:href="#DejaVuSans-6c" transform="translate(2153.785156 0)"/>
     <use xlink:href="#DejaVuSans-64" transform="translate(2181.568359 0)"/>
     <use xlink:href="#DejaVuSans-20" transform="translate(2245.044922 0)"/>
     <use xlink:href="#DejaVuSans-66" transform="translate(2276.832031 0)"/>
     <use xlink:href="#DejaVuSans-61" transform="translate(2312.037109 0)"/>
     <use xlink:href="#DejaVuSans-6c" transform="translate(2373.316406 0)"/>
     <use xlink:href="#DejaVuSans-73" transform="translate(2401.099609 0)"/>
     <use xlink:href="#DejaVuSans-65" transform="translate(2453.199219 0)"/>
     <use xlink:href="#DejaVuSans-20" transform="translate(2514.722656 0)"/>
     <use xlink:href="#DejaVuSans-6e" transform="translate(2546.509766 0)"/>
     <use xlink:href="#DejaVuSans-65" transform="translate(2609.888672 0)"/>
     <use xlink:href="#DejaVuSans-67" transform="translate(2671.412109 0)"/>
     <use xlink:href="#DejaVuSans-2e" transform="translate(2734.888672 0)"/>
     <use xlink:href="#DejaVuSans-29" transform="translate(2766.675781 0)"/>
    </g>
   </g>
   <g id="text_16">
    <!-- (chain starting on an odd-parity cell: rows disagree) -->
    <g style="fill: #222222" transform="translate(37.765781 203.252165) scale(0.09 -0.09)">
     <defs>
      <path id="DejaVuSans-79" d="M 2059 -325 
Q 1816 -950 1584 -1140 
Q 1353 -1331 966 -1331 
L 506 -1331 
L 506 -850 
L 844 -850 
Q 1081 -850 1212 -737 
Q 1344 -625 1503 -206 
L 1606 56 
L 191 3500 
L 800 3500 
L 1894 763 
L 2988 3500 
L 3597 3500 
L 2059 -325 
z
" transform="scale(0.015625)"/>
      <path id="DejaVuSans-77" d="M 269 3500 
L 844 3500 
L 1563 769 
L 2278 3500 
L 2956 3500 
L 3675 769 
L 4391 3500 
L 4966 3500 
L 4050 0 
L 3372 0 
L 2619 2869 
L 1863 0 
L 1184 0 
L 269 3500 
z
" transform="scale(0.015625)"/>
     </defs>
     <use xlink:href="#DejaVuSans-28"/>
     <use xlink:href="#DejaVuSans-63" transform="translate(39.013672 0)"/>
     <use xlink:href="#DejaVuSans-68" transform="translate(93.994141 0)"/>
     <use xlink:href="#DejaVuSans-61" transform="translate(157.373047 0)"/>
     <use xlink:href="#DejaVuSans-69" transform="translate(218.652344 0)"/>
     <use xlink:href="#DejaVuSans-6e" transform="translate(246.435547 0)"/>
     <use xlink:href="#DejaVuSans-20" transform="translate(309.814453 0)"/>
     <use xlink:href="#DejaVuSans-73" transform="translate(341.601562 0)"/>
     <use xlink:href="#DejaVuSans-74" transform="translate(393.701172 0)"/>
     <use xlink:href="#DejaVuSans-61" transform="translate(432.910156 0)"/>
     <use xlink:href="#DejaVuSans-72" transform="translate(494.189453 0)"/>
     <use xlink:href="#DejaVuSans-74" transform="translate(535.302734 0)"/>
     <use xlink:href="#DejaVuSans-69" transform="translate(574.511719 0)"/>
     <use xlink:href="#DejaVuSans-6e" transform="translate(602.294922 0)"/>
     <use xlink:href="#DejaVuSans-67" transform="translate(665.673828 0)"/>
     <use xlink:href="#DejaVuSans-20" transform="translate(729.150391 0)"/>
     <use xlink:href="#DejaVuSans-6f" transform="translate(760.9375 0)"/>
     <use xlink:href="#DejaVuSans-6e" transform="translate(822.119141 0)"/>
     <use xlink:href="#DejaVuSans-20" transform="translate(885.498047 0)"/>
     <use xlink:href="#DejaVuSans-61" transform="translate(917.285156 0)"/>
     <use xlink:href="#DejaVuSans-6e" transform="translate(978.564453 0)"/>
     <use xlink:href="#DejaVuSans-20" transform="translate(1041.943359 0)"/>
     <use xlink:href="#DejaVuSans-6f" transform="translate(1073.730469 0)"/>
     <use xlink:href="#DejaVuSans-64" transform="translate(1134.912109 0)"/>
     <use xlink:href="#DejaVuSans-64" transform="translate(1198.388672 0)"/>
     <use xlink:href="#DejaVuSans-2d" transform="translate(1261.865234 0)"/>
     <use xlink:href="#DejaVuSans-70" transform="translate(1297.949219 0)"/>
     <use xlink:href="#DejaVuSans-61" transform="translate(1361.425781 0)"/>
     <use xlink:href="#DejaVuSans-72" transform="translate(1422.705078 0)"/>
     <use xlink:href="#DejaVuSans-69" transform="translate(1463.818359 0)"/>
     <use xlink:href="#DejaVuSans-74" transform="translate(1491.601562 0)"/>
     <use xlink:href="#DejaVuSans-79" transform="translate(1530.810547 0)"/>
     <use xlink:href="#DejaVuSans-20" transform="translate(1589.990234 0)"/>
     <use xlink:href="#DejaVuSans-63" transform="translate(1621.777344 0)"/>
     <use xlink:href="#DejaVuSans-65" transform="translate(1676.757812 0)"/>
     <use xlink:href="#DejaVuSans-6c" transform="translate(1738.28125 0)"/>
     <use xlink:href="#DejaVuSans-6c" transform="translate(1766.064453 0)"/>
     <use xlink:href="#DejaVuSans-3a" transform="translate(1793.847656 0)"/>
     <use xlink:href="#DejaVuSans-20" transform="translate(1827.539062 0)"/>
     <use xlink:href="#DejaVuSans-72" transform="translate(1859.326172 0)"/>
     <use xlink:href="#DejaVuSans-6f" transform="translate(1898.189453 0)"/>
     <use xlink:href="#DejaVuSans-77" transform="translate(1959.371094 0)"/>
     <use xlink:href="#DejaVuSans-73" transform="translate(2041.158203 0)"/>
     <use xlink:href="#DejaVuSans-20" transform="translate(2093.257812 0)"/>
     <use xlink:href="#DejaVuSans-64" transform="translate(2125.044922 0)"/>
     <use xlink:href="#DejaVuSans-69" transform="translate(2188.521484 0)"/>
     <use xlink:href="#DejaVuSans-73" transform="translate(2216.304688 0)"/>
     <use xlink:href="#DejaVuSans-61" transform="translate(2268.404297 0)"/>
     <use xlink:href="#DejaVuSans-67" transform="translate(2329.683594 0)"/>
     <use xlink:href="#DejaVuSans-72" transform="translate(2393.160156 0)"/>
     <use xlink:href="#DejaVuSans-65" transform="translate(2432.023438 0)"/>
     <use xlink:href="#DejaVuSans-65" transform="translate(2493.546875 0)"/>
     <use xlink:href="#DejaVuSans-29" transform="translate(2555.070312 0)"/>
    </g>
   </g>
  </g>
  <g id="axes_2">
   <g id="line2d_1">
    <path d="M 381.865531 135.034338 
L 383.506598 133.657088 
L 385.147665 132.315152 
L 386.788732 131.008531 
L 388.4298 129.737223 
L 390.070867 128.501229 
L 391.711934 127.30055 
L 393.353001 126.135184 
L 394.994068 125.005133 
L 396.635135 123.910396 
L 398.276203 122.850973 
L 399.91727 121.826864 
L 401.558337 120.838069 
L 403.199404 119.884588 
L 404.840471 118.966421 
L 406.481539 118.083569 
L 408.122606 117.23603 
L 409.763673 116.423806 
L 411.40474 115.646895 
L 413.045807 114.905299 
L 414.686875 114.199017 
L 416.327942 113.528049 
L 417.969009 112.892395 
L 419.610076 112.292055 
L 421.251143 111.72703 
L 422.89221 111.197318 
L 424.533278 110.702921 
L 426.174345 110.243837 
L 427.815412 109.820068 
L 429.456479 109.431613 
L 431.097546 109.078472 
L 432.738614 108.760645 
L 434.379681 108.478132 
L 436.020748 108.230934 
L 437.661815 108.019049 
L 439.302882 107.842478 
L 440.94395 107.701222 
L 442.585017 107.59528 
L 444.226084 107.524651 
L 445.867151 107.489337 
L 447.508218 107.489337 
L 449.149285 107.524651 
L 450.790353 107.59528 
L 452.43142 107.701222 
L 454.072487 107.842478 
L 455.713554 108.019049 
L 457.354621 108.230934 
L 458.995689 108.478132 
L 460.636756 108.760645 
L 462.277823 109.078472 
L 463.91889 109.431613 
L 465.559957 109.820068 
L 467.201024 110.243837 
L 468.842092 110.702921 
L 470.483159 111.197318 
L 472.124226 111.72703 
L 473.765293 112.292055 
L 475.40636 112.892395 
L 477.047428 113.528049 
L 478.688495 114.199017 
L 480.329562 114.905299 
L 481.970629 115.646895 
L 483.611696 116.423806 
L 485.252764 117.23603 
L 486.893831 118.083569 
L 488.534898 118.966421 
L 490.175965 119.884588 
L 491.817032 120.838069 
L 493.458099 121.826864 
L 495.099167 122.850973 
L 496.740234 123.910396 
L 498.381301 125.005133 
L 500.022368 126.135184 
L 501.663435 127.30055 
L 503.304503 128.501229 
L 504.94557 129.737223 
L 506.586637 131.008531 
L 508.227704 132.315152 
L 509.868771 133.657088 
L 511.509839 135.034338 
" clip-path="url(#p7b5d0b5d62)" style="fill: none; stroke: #1f77b4; stroke-width: 3; stroke-linecap: round"/>
   </g>
   <g id="line2d_2">
    <path d="M 381.865531 135.034338 
L 383.506598 135.034338 
L 385.147665 135.034338 
L 386.788732 135.034338 
L 388.4298 135.034338 
L 390.070867 135.034338 
L 391.711934 135.034338 
L 393.353001 135.034338 
L 394.994068 135.034338 
L 396.635135 135.034338 
L 398.276203 135.034338 
L 399.91727 135.034338 
L 401.558337 135.034338 
L 403.199404 135.034338 
L 404.840471 135.034338 
L 406.481539 135.034338 
L 408.122606 135.034338 
L 409.763673 135.034338 
L 411.40474 135.034338 
L 413.045807 135.034338 
L 414.686875 135.034338 
L 416.327942 135.034338 
L 417.969009 135.034338 
L 419.610076 135.034338 
L 421.251143 135.034338 
L 422.89221 135.034338 
L 424.533278 135.034338 
L 426.174345 135.034338 
L 427.815412 135.034338 
L 429.456479 135.034338 
L 431.097546 135.034338 
L 432.738614 135.034338 
L 434.379681 135.034338 
L 436.020748 135.034338 
L 437.661815 135.034338 
L 439.302882 135.034338 
L 440.94395 135.034338 
L 442.585017 135.034338 
L 444.226084 135.034338 
L 445.867151 135.034338 
L 447.508218 135.034338 
L 449.149285 135.034338 
L 450.790353 135.034338 
L 452.43142 135.034338 
L 454.072487 135.034338 
L 455.713554 135.034338 
L 457.354621 135.034338 
L 458.995689 135.034338 
L 460.636756 135.034338 
L 462.277823 135.034338 
L 463.91889 135.034338 
L 465.559957 135.034338 
L 467.201024 135.034338 
L 468.842092 135.034338 
L 470.483159 135.034338 
L 472.124226 135.034338 
L 473.765293 135.034338 
L 475.40636 135.034338 
L 477.047428 135.034338 
L 478.688495 135.034338 
L 480.329562 135.034338 
L 481.970629 135.034338 
L 483.611696 135.034338 
L 485.252764 135.034338 
L 486.893831 135.034338 
L 488.534898 135.034338 
L 490.175965 135.034338 
L 491.817032 135.034338 
L 493.458099 135.034338 
L 495.099167 135.034338 
L 496.740234 135.034338 
L 498.381301 135.034338 
L 500.022368 135.034338 
L 501.663435 135.034338 
L 503.304503 135.034338 
L 504.94557 135.034338 
L 506.586637 135.034338 
L 508.227704 135.034338 
L 509.868771 135.034338 
L 511.509839 135.034338 
" clip-path="url(#p7b5d0b5d62)" style="fill: none; stroke: #e8820c; stroke-width: 3; stroke-linecap: round"/>
   </g>
   <g id="line2d_3">
    <path d="M 381.865531 135.034338 
L 383.506598 136.411589 
L 385.147665 137.753524 
L 386.788732 139.060146 
L 388.4298 140.331454 
L 390.070867 141.567448 
L 391.711934 142.768127 
L 393.353001 143.933493 
L 394.994068 145.063544 
L 396.635135 146.158281 
L 398.276203 147.217704 
L 399.91727 148.241813 
L 401.558337 149.230608 
L 403.199404 150.184089 
L 404.840471 151.102256 
L 406.481539 151.985108 
L 408.122606 152.832647 
L 409.763673 153.644871 
L 411.40474 154.421782 
L 413.045807 155.163378 
L 414.686875 155.86966 
L 416.327942 156.540628 
L 417.969009 157.176282 
L 419.610076 157.776621 
L 421.251143 158.341647 
L 422.89221 158.871359 
L 424.533278 159.365756 
L 426.174345 159.824839 
L 427.815412 160.248609 
L 429.456479 160.637064 
L 431.097546 160.990205 
L 432.738614 161.308032 
L 434.379681 161.590545 
L 436.020748 161.837743 
L 437.661815 162.049628 
L 439.302882 162.226199 
L 440.94395 162.367455 
L 442.585017 162.473397 
L 444.226084 162.544025 
L 445.867151 162.57934 
L 447.508218 162.57934 
L 449.149285 162.544025 
L 450.790353 162.473397 
L 452.43142 162.367455 
L 454.072487 162.226199 
L 455.713554 162.049628 
L 457.354621 161.837743 
L 458.995689 161.590545 
L 460.636756 161.308032 
L 462.277823 160.990205 
L 463.91889 160.637064 
L 465.559957 160.248609 
L 467.201024 159.824839 
L 468.842092 159.365756 
L 470.483159 158.871359 
L 472.124226 158.341647 
L 473.765293 157.776621 
L 475.40636 157.176282 
L 477.047428 156.540628 
L 478.688495 155.86966 
L 480.329562 155.163378 
L 481.970629 154.421782 
L 483.611696 153.644871 
L 485.252764 152.832647 
L 486.893831 151.985108 
L 488.534898 151.102256 
L 490.175965 150.184089 
L 491.817032 149.230608 
L 493.458099 148.241813 
L 495.099167 147.217704 
L 496.740234 146.158281 
L 498.381301 145.063544 
L 500.022368 143.933493 
L 501.663435 142.768127 
L 503.304503 141.567448 
L 504.94557 140.331454 
L 506.586637 139.060146 
L 508.227704 137.753524 
L 509.868771 136.411589 
L 511.509839 135.034338 
" clip-path="url(#p7b5d0b5d62)" style="fill: none; stroke: #2ca02c; stroke-width: 3; stroke-linecap: round"/>
   </g>
   <g id="patch_14">
    <path d="M 369.873432 178.465182 
L 393.857629 178.465182 
Q 397.746959 178.465182 397.746959 174.575852 
L 397.746959 95.492825 
Q 397.746959 91.603495 393.857629 91.603495 
L 369.873432 91.603495 
Q 365.984103 91.603495 365.984103 95.492825 
L 365.984103 174.575852 
Q 365.984103 178.465182 369.873432 178.465182 
z
" clip-path="url(#p7b5d0b5d62)" style="fill: #efeaf8; stroke: #6f4fb0; stroke-width: 2.2; stroke-linejoin: miter"/>
   </g>
   <g id="patch_15">
    <path d="M 499.51774 178.465182 
L 523.501937 178.465182 
Q 527.391266 178.465182 527.391266 174.575852 
L 527.391266 95.492825 
Q 527.391266 91.603495 523.501937 91.603495 
L 499.51774 91.603495 
Q 495.628411 91.603495 495.628411 95.492825 
L 495.628411 174.575852 
Q 495.628411 178.465182 499.51774 178.465182 
z
" clip-path="url(#p7b5d0b5d62)" style="fill: #efeaf8; stroke: #6f4fb0; stroke-width: 2.2; stroke-linejoin: miter"/>
   </g>
   <g id="text_17">
    <!-- S -->
    <g style="fill: #6f4fb0" transform="translate(376.464359 139.173401) scale(0.15 -0.15)">
     <defs>
      <path id="DejaVuSans-Bold-53" d="M 3834 4519 
L 3834 3531 
Q 3450 3703 3084 3790 
Q 2719 3878 2394 3878 
Q 1963 3878 1756 3759 
Q 1550 3641 1550 3391 
Q 1550 3203 1689 3098 
Q 1828 2994 2194 2919 
L 2706 2816 
Q 3484 2659 3812 2340 
Q 4141 2022 4141 1434 
Q 4141 663 3683 286 
Q 3225 -91 2284 -91 
Q 1841 -91 1394 -6 
Q 947 78 500 244 
L 500 1259 
Q 947 1022 1364 901 
Q 1781 781 2169 781 
Q 2563 781 2772 912 
Q 2981 1044 2981 1288 
Q 2981 1506 2839 1625 
Q 2697 1744 2272 1838 
L 1806 1941 
Q 1106 2091 782 2419 
Q 459 2747 459 3303 
Q 459 4000 909 4375 
Q 1359 4750 2203 4750 
Q 2588 4750 2994 4692 
Q 3400 4634 3834 4519 
z
" transform="scale(0.015625)"/>
     </defs>
     <use xlink:href="#DejaVuSans-Bold-53"/>
    </g>
   </g>
   <g id="text_18">
    <!-- E -->
    <g style="fill: #6f4fb0" transform="translate(506.386401 139.173401) scale(0.15 -0.15)">
     <defs>
      <path id="DejaVuSans-Bold-45" d="M 588 4666 
L 3834 4666 
L 3834 3756 
L 1791 3756 
L 1791 2888 
L 3713 2888 
L 3713 1978 
L 1791 1978 
L 1791 909 
L 3903 909 
L 3903 0 
L 588 0 
L 588 4666 
z
" transform="scale(0.015625)"/>
     </defs>
     <use xlink:href="#DejaVuSans-Bold-45"/>
    </g>
   </g>
   <g id="text_19">
    <!-- A -->
    <g style="fill: #1f77b4" transform="translate(441.657294 74.447594) scale(0.13 -0.13)">
     <defs>
      <path id="DejaVuSans-Bold-41" d="M 3419 850 
L 1538 850 
L 1241 0 
L 31 0 
L 1759 4666 
L 3194 4666 
L 4922 0 
L 3713 0 
L 3419 850 
z
M 1838 1716 
L 3116 1716 
L 2478 3572 
L 1838 1716 
z
" transform="scale(0.015625)"/>
     </defs>
     <use xlink:href="#DejaVuSans-Bold-41"/>
    </g>
   </g>
   <g id="text_20">
    <!-- B -->
    <g style="fill: #e8820c" transform="translate(441.733466 129.546424) scale(0.13 -0.13)">
     <defs>
      <path id="DejaVuSans-Bold-42" d="M 2456 2859 
Q 2741 2859 2887 2984 
Q 3034 3109 3034 3353 
Q 3034 3594 2887 3720 
Q 2741 3847 2456 3847 
L 1791 3847 
L 1791 2859 
L 2456 2859 
z
M 2497 819 
Q 2859 819 3042 972 
Q 3225 1125 3225 1434 
Q 3225 1738 3044 1889 
Q 2863 2041 2497 2041 
L 1791 2041 
L 1791 819 
L 2497 819 
z
M 3616 2497 
Q 4003 2384 4215 2081 
Q 4428 1778 4428 1338 
Q 4428 663 3972 331 
Q 3516 0 2584 0 
L 588 0 
L 588 4666 
L 2394 4666 
Q 3366 4666 3802 4372 
Q 4238 4078 4238 3431 
Q 4238 3091 4078 2852 
Q 3919 2613 3616 2497 
z
" transform="scale(0.015625)"/>
     </defs>
     <use xlink:href="#DejaVuSans-Bold-42"/>
    </g>
   </g>
   <g id="text_21">
    <!-- C -->
    <g style="fill: #2ca02c" transform="translate(441.917294 204.740123) scale(0.13 -0.13)">
     <defs>
      <path id="DejaVuSans-Bold-43" d="M 4288 256 
Q 3956 84 3597 -3 
Q 3238 -91 2847 -91 
Q 1681 -91 1000 561 
Q 319 1213 319 2328 
Q 319 3447 1000 4098 
Q 1681 4750 2847 4750 
Q 3238 4750 3597 4662 
Q 3956 4575 4288 4403 
L 4288 3438 
Q 3953 3666 3628 3772 
Q 3303 3878 2944 3878 
Q 2300 3878 1931 3465 
Q 1563 3053 1563 2328 
Q 1563 1606 1931 1193 
Q 2300 781 2944 781 
Q 3303 781 3628 887 
Q 3953 994 4288 1222 
L 4288 256 
z
" transform="scale(0.015625)"/>
     </defs>
     <use xlink:href="#DejaVuSans-Bold-43"/>
    </g>
   </g>
   <g id="text_22">
    <!-- pairs:  01:0   02:0   12:0 -->
    <g style="fill: #22aa88" transform="translate(380.28206 55.421405) scale(0.11 -0.11)">
     <defs>
      <path id="DejaVuSans-30" d="M 2034 4250 
Q 1547 4250 1301 3770 
Q 1056 3291 1056 2328 
Q 1056 1369 1301 889 
Q 1547 409 2034 409 
Q 2525 409 2770 889 
Q 3016 1369 3016 2328 
Q 3016 3291 2770 3770 
Q 2525 4250 2034 4250 
z
M 2034 4750 
Q 2819 4750 3233 4129 
Q 3647 3509 3647 2328 
Q 3647 1150 3233 529 
Q 2819 -91 2034 -91 
Q 1250 -91 836 529 
Q 422 1150 422 2328 
Q 422 3509 836 4129 
Q 1250 4750 2034 4750 
z
" transform="scale(0.015625)"/>
      <path id="DejaVuSans-32" d="M 1228 531 
L 3431 531 
L 3431 0 
L 469 0 
L 469 531 
Q 828 903 1448 1529 
Q 2069 2156 2228 2338 
Q 2531 2678 2651 2914 
Q 2772 3150 2772 3378 
Q 2772 3750 2511 3984 
Q 2250 4219 1831 4219 
Q 1534 4219 1204 4116 
Q 875 4013 500 3803 
L 500 4441 
Q 881 4594 1212 4672 
Q 1544 4750 1819 4750 
Q 2544 4750 2975 4387 
Q 3406 4025 3406 3419 
Q 3406 3131 3298 2873 
Q 3191 2616 2906 2266 
Q 2828 2175 2409 1742 
Q 1991 1309 1228 531 
z
" transform="scale(0.015625)"/>
     </defs>
     <use xlink:href="#DejaVuSans-70"/>
     <use xlink:href="#DejaVuSans-61" transform="translate(63.476562 0)"/>
     <use xlink:href="#DejaVuSans-69" transform="translate(124.755859 0)"/>
     <use xlink:href="#DejaVuSans-72" transform="translate(152.539062 0)"/>
     <use xlink:href="#DejaVuSans-73" transform="translate(193.652344 0)"/>
     <use xlink:href="#DejaVuSans-3a" transform="translate(245.751953 0)"/>
     <use xlink:href="#DejaVuSans-20" transform="translate(279.443359 0)"/>
     <use xlink:href="#DejaVuSans-20" transform="translate(311.230469 0)"/>
     <use xlink:href="#DejaVuSans-30" transform="translate(343.017578 0)"/>
     <use xlink:href="#DejaVuSans-31" transform="translate(406.640625 0)"/>
     <use xlink:href="#DejaVuSans-3a" transform="translate(470.263672 0)"/>
     <use xlink:href="#DejaVuSans-30" transform="translate(503.955078 0)"/>
     <use xlink:href="#DejaVuSans-20" transform="translate(567.578125 0)"/>
     <use xlink:href="#DejaVuSans-20" transform="translate(599.365234 0)"/>
     <use xlink:href="#DejaVuSans-20" transform="translate(631.152344 0)"/>
     <use xlink:href="#DejaVuSans-30" transform="translate(662.939453 0)"/>
     <use xlink:href="#DejaVuSans-32" transform="translate(726.5625 0)"/>
     <use xlink:href="#DejaVuSans-3a" transform="translate(790.185547 0)"/>
     <use xlink:href="#DejaVuSans-30" transform="translate(823.876953 0)"/>
     <use xlink:href="#DejaVuSans-20" transform="translate(887.5 0)"/>
     <use xlink:href="#DejaVuSans-20" transform="translate(919.287109 0)"/>
     <use xlink:href="#DejaVuSans-20" transform="translate(951.074219 0)"/>
     <use xlink:href="#DejaVuSans-31" transform="translate(982.861328 0)"/>
     <use xlink:href="#DejaVuSans-32" transform="translate(1046.484375 0)"/>
     <use xlink:href="#DejaVuSans-3a" transform="translate(1110.107422 0)"/>
     <use xlink:href="#DejaVuSans-30" transform="translate(1143.798828 0)"/>
    </g>
   </g>
   <g id="text_23">
    <!-- $T_A=T_B=T_C$   ✓ foldable -->
    <g style="fill: #22aa88" transform="translate(374.987685 220.993835) scale(0.12 -0.12)">
     <defs>
      <path id="DejaVuSans-Oblique-54" d="M 378 4666 
L 4325 4666 
L 4225 4134 
L 2559 4134 
L 1759 0 
L 1125 0 
L 1925 4134 
L 275 4134 
L 378 4666 
z
" transform="scale(0.015625)"/>
      <path id="DejaVuSans-Oblique-41" d="M 2356 4666 
L 3072 4666 
L 3938 0 
L 3278 0 
L 3084 1197 
L 984 1197 
L 325 0 
L -341 0 
L 2356 4666 
z
M 2584 4044 
L 1275 1722 
L 2988 1722 
L 2584 4044 
z
" transform="scale(0.015625)"/>
      <path id="DejaVuSans-Oblique-42" d="M 1081 4666 
L 2694 4666 
Q 3350 4666 3675 4422 
Q 4000 4178 4000 3688 
Q 4000 3238 3720 2911 
Q 3441 2584 2988 2516 
Q 3375 2428 3569 2181 
Q 3763 1934 3763 1522 
Q 3763 819 3242 409 
Q 2722 0 1819 0 
L 172 0 
L 1081 4666 
z
M 1234 2228 
L 903 519 
L 1919 519 
Q 2491 519 2800 781 
Q 3109 1044 3109 1522 
Q 3109 1891 2904 2059 
Q 2700 2228 2247 2228 
L 1234 2228 
z
M 1606 4147 
L 1331 2741 
L 2272 2741 
Q 2775 2741 3058 2959 
Q 3341 3178 3341 3566 
Q 3341 3869 3150 4008 
Q 2959 4147 2541 4147 
L 1606 4147 
z
" transform="scale(0.015625)"/>
      <path id="DejaVuSans-Oblique-43" d="M 4447 4306 
L 4319 3641 
Q 4019 3944 3683 4091 
Q 3347 4238 2956 4238 
Q 2422 4238 2017 3981 
Q 1613 3725 1319 3200 
Q 1131 2863 1032 2486 
Q 934 2109 934 1728 
Q 934 1091 1264 756 
Q 1594 422 2222 422 
Q 2656 422 3056 561 
Q 3456 700 3834 978 
L 3688 231 
Q 3316 72 2936 -9 
Q 2556 -91 2175 -91 
Q 1278 -91 773 396 
Q 269 884 269 1753 
Q 269 2309 461 2846 
Q 653 3384 1013 3828 
Q 1394 4300 1883 4525 
Q 2372 4750 3022 4750 
Q 3422 4750 3780 4639 
Q 4138 4528 4447 4306 
z
" transform="scale(0.015625)"/>
     </defs>
     <use xlink:href="#DejaVuSans-Oblique-54" transform="translate(0 0.015625)"/>
     <use xlink:href="#DejaVuSans-Oblique-41" transform="translate(61.083984 -16.390625) scale(0.7)"/>
     <use xlink:href="#DejaVuSans-3d" transform="translate(131.186523 0.015625)"/>
     <use xlink:href="#DejaVuSans-Oblique-54" transform="translate(234.458008 0.015625)"/>
     <use xlink:href="#DejaVuSans-Oblique-42" transform="translate(295.541992 -16.390625) scale(0.7)"/>
     <use xlink:href="#DejaVuSans-3d" transform="translate(365.78125 0.015625)"/>
     <use xlink:href="#DejaVuSans-Oblique-54" transform="translate(469.052734 0.015625)"/>
     <use xlink:href="#DejaVuSans-Oblique-43" transform="translate(530.136719 -16.390625) scale(0.7)"/>
     <use xlink:href="#DejaVuSans-20" transform="translate(581.748047 0.015625)"/>
     <use xlink:href="#DejaVuSans-20" transform="translate(613.535156 0.015625)"/>
     <use xlink:href="#DejaVuSans-20" transform="translate(645.322266 0.015625)"/>
     <use xlink:href="#DejaVuSans-2713" transform="translate(677.109375 0.015625)"/>
     <use xlink:href="#DejaVuSans-20" transform="translate(760.898438 0.015625)"/>
     <use xlink:href="#DejaVuSans-66" transform="translate(792.685547 0.015625)"/>
     <use xlink:href="#DejaVuSans-6f" transform="translate(827.890625 0.015625)"/>
     <use xlink:href="#DejaVuSans-6c" transform="translate(889.072266 0.015625)"/>
     <use xlink:href="#DejaVuSans-64" transform="translate(916.855469 0.015625)"/>
     <use xlink:href="#DejaVuSans-61" transform="translate(980.332031 0.015625)"/>
     <use xlink:href="#DejaVuSans-62" transform="translate(1041.611328 0.015625)"/>
     <use xlink:href="#DejaVuSans-6c" transform="translate(1105.087891 0.015625)"/>
     <use xlink:href="#DejaVuSans-65" transform="translate(1132.871094 0.015625)"/>
    </g>
   </g>
   <g id="text_24">
    <!-- (twisted case: one pair = 720  ✗) -->
    <g style="fill: #d83232" transform="translate(363.318935 236.647498) scale(0.1 -0.1)">
     <defs>
      <path id="DejaVuSans-37" d="M 525 4666 
L 3525 4666 
L 3525 4397 
L 1831 0 
L 1172 0 
L 2766 4134 
L 525 4134 
L 525 4666 
z
" transform="scale(0.015625)"/>
     </defs>
     <use xlink:href="#DejaVuSans-28"/>
     <use xlink:href="#DejaVuSans-74" transform="translate(39.013672 0)"/>
     <use xlink:href="#DejaVuSans-77" transform="translate(78.222656 0)"/>
     <use xlink:href="#DejaVuSans-69" transform="translate(160.009766 0)"/>
     <use xlink:href="#DejaVuSans-73" transform="translate(187.792969 0)"/>
     <use xlink:href="#DejaVuSans-74" transform="translate(239.892578 0)"/>
     <use xlink:href="#DejaVuSans-65" transform="translate(279.101562 0)"/>
     <use xlink:href="#DejaVuSans-64" transform="translate(340.625 0)"/>
     <use xlink:href="#DejaVuSans-20" transform="translate(404.101562 0)"/>
     <use xlink:href="#DejaVuSans-63" transform="translate(435.888672 0)"/>
     <use xlink:href="#DejaVuSans-61" transform="translate(490.869141 0)"/>
     <use xlink:href="#DejaVuSans-73" transform="translate(552.148438 0)"/>
     <use xlink:href="#DejaVuSans-65" transform="translate(604.248047 0)"/>
     <use xlink:href="#DejaVuSans-3a" transform="translate(665.771484 0)"/>
     <use xlink:href="#DejaVuSans-20" transform="translate(699.462891 0)"/>
     <use xlink:href="#DejaVuSans-6f" transform="translate(731.25 0)"/>
     <use xlink:href="#DejaVuSans-6e" transform="translate(792.431641 0)"/>
     <use xlink:href="#DejaVuSans-65" transform="translate(855.810547 0)"/>
     <use xlink:href="#DejaVuSans-20" transform="translate(917.333984 0)"/>
     <use xlink:href="#DejaVuSans-70" transform="translate(949.121094 0)"/>
     <use xlink:href="#DejaVuSans-61" transform="translate(1012.597656 0)"/>
     <use xlink:href="#DejaVuSans-69" transform="translate(1073.876953 0)"/>
     <use xlink:href="#DejaVuSans-72" transform="translate(1101.660156 0)"/>
     <use xlink:href="#DejaVuSans-20" transform="translate(1142.773438 0)"/>
     <use xlink:href="#DejaVuSans-3d" transform="translate(1174.560547 0)"/>
     <use xlink:href="#DejaVuSans-20" transform="translate(1258.349609 0)"/>
     <use xlink:href="#DejaVuSans-37" transform="translate(1290.136719 0)"/>
     <use xlink:href="#DejaVuSans-32" transform="translate(1353.759766 0)"/>
     <use xlink:href="#DejaVuSans-30" transform="translate(1417.382812 0)"/>
     <use xlink:href="#DejaVuSans-20" transform="translate(1481.005859 0)"/>
     <use xlink:href="#DejaVuSans-20" transform="translate(1512.792969 0)"/>
     <use xlink:href="#DejaVuSans-2717" transform="translate(1544.580078 0)"/>
     <use xlink:href="#DejaVuSans-29" transform="translate(1628.369141 0)"/>
    </g>
   </g>
  </g>
  <g id="text_25">
   <!-- Proposed 1+1+1 criterion: global-σ per-chain twist, require $T_A=T_B=T_C$ -->
   <g transform="translate(67.640639 16.7) scale(0.125 -0.125)">
    <defs>
     <path id="DejaVuSans-50" d="M 1259 4147 
L 1259 2394 
L 2053 2394 
Q 2494 2394 2734 2622 
Q 2975 2850 2975 3272 
Q 2975 3691 2734 3919 
Q 2494 4147 2053 4147 
L 1259 4147 
z
M 628 4666 
L 2053 4666 
Q 2838 4666 3239 4311 
Q 3641 3956 3641 3272 
Q 3641 2581 3239 2228 
Q 2838 1875 2053 1875 
L 1259 1875 
L 1259 0 
L 628 0 
L 628 4666 
z
" transform="scale(0.015625)"/>
     <path id="DejaVuSans-2c" d="M 750 794 
L 1409 794 
L 1409 256 
L 897 -744 
L 494 -744 
L 750 256 
L 750 794 
z
" transform="scale(0.015625)"/>
     <path id="DejaVuSans-71" d="M 947 1747 
Q 947 1113 1208 752 
Q 1469 391 1925 391 
Q 2381 391 2643 752 
Q 2906 1113 2906 1747 
Q 2906 2381 2643 2742 
Q 2381 3103 1925 3103 
Q 1469 3103 1208 2742 
Q 947 2381 947 1747 
z
M 2906 525 
Q 2725 213 2448 61 
Q 2172 -91 1784 -91 
Q 1150 -91 751 415 
Q 353 922 353 1747 
Q 353 2572 751 3078 
Q 1150 3584 1784 3584 
Q 2172 3584 2448 3432 
Q 2725 3281 2906 2969 
L 2906 3500 
L 3481 3500 
L 3481 -1331 
L 2906 -1331 
L 2906 525 
z
" transform="scale(0.015625)"/>
     <path id="DejaVuSans-75" d="M 544 1381 
L 544 3500 
L 1119 3500 
L 1119 1403 
Q 1119 906 1312 657 
Q 1506 409 1894 409 
Q 2359 409 2629 706 
Q 2900 1003 2900 1516 
L 2900 3500 
L 3475 3500 
L 3475 0 
L 2900 0 
L 2900 538 
Q 2691 219 2414 64 
Q 2138 -91 1772 -91 
Q 1169 -91 856 284 
Q 544 659 544 1381 
z
M 1991 3584 
L 1991 3584 
z
" transform="scale(0.015625)"/>
    </defs>
    <use xlink:href="#DejaVuSans-50" transform="translate(0 0.015625)"/>
    <use xlink:href="#DejaVuSans-72" transform="translate(60.302734 0.015625)"/>
    <use xlink:href="#DejaVuSans-6f" transform="translate(101.416016 0.015625)"/>
    <use xlink:href="#DejaVuSans-70" transform="translate(162.597656 0.015625)"/>
    <use xlink:href="#DejaVuSans-6f" transform="translate(226.074219 0.015625)"/>
    <use xlink:href="#DejaVuSans-73" transform="translate(287.255859 0.015625)"/>
    <use xlink:href="#DejaVuSans-65" transform="translate(339.355469 0.015625)"/>
    <use xlink:href="#DejaVuSans-64" transform="translate(400.878906 0.015625)"/>
    <use xlink:href="#DejaVuSans-20" transform="translate(464.355469 0.015625)"/>
    <use xlink:href="#DejaVuSans-31" transform="translate(496.142578 0.015625)"/>
    <use xlink:href="#DejaVuSans-2b" transform="translate(559.765625 0.015625)"/>
    <use xlink:href="#DejaVuSans-31" transform="translate(643.554688 0.015625)"/>
    <use xlink:href="#DejaVuSans-2b" transform="translate(707.177734 0.015625)"/>
    <use xlink:href="#DejaVuSans-31" transform="translate(790.966797 0.015625)"/>
    <use xlink:href="#DejaVuSans-20" transform="translate(854.589844 0.015625)"/>
    <use xlink:href="#DejaVuSans-63" transform="translate(886.376953 0.015625)"/>
    <use xlink:href="#DejaVuSans-72" transform="translate(941.357422 0.015625)"/>
    <use xlink:href="#DejaVuSans-69" transform="translate(982.470703 0.015625)"/>
    <use xlink:href="#DejaVuSans-74" transform="translate(1010.253906 0.015625)"/>
    <use xlink:href="#DejaVuSans-65" transform="translate(1049.462891 0.015625)"/>
    <use xlink:href="#DejaVuSans-72" transform="translate(1110.986328 0.015625)"/>
    <use xlink:href="#DejaVuSans-69" transform="translate(1152.099609 0.015625)"/>
    <use xlink:href="#DejaVuSans-6f" transform="translate(1179.882812 0.015625)"/>
    <use xlink:href="#DejaVuSans-6e" transform="translate(1241.064453 0.015625)"/>
    <use xlink:href="#DejaVuSans-3a" transform="translate(1304.443359 0.015625)"/>
    <use xlink:href="#DejaVuSans-20" transform="translate(1338.134766 0.015625)"/>
    <use xlink:href="#DejaVuSans-67" transform="translate(1369.921875 0.015625)"/>
    <use xlink:href="#DejaVuSans-6c" transform="translate(1433.398438 0.015625)"/>
    <use xlink:href="#DejaVuSans-6f" transform="translate(1461.181641 0.015625)"/>
    <use xlink:href="#DejaVuSans-62" transform="translate(1522.363281 0.015625)"/>
    <use xlink:href="#DejaVuSans-61" transform="translate(1585.839844 0.015625)"/>
    <use xlink:href="#DejaVuSans-6c" transform="translate(1647.119141 0.015625)"/>
    <use xlink:href="#DejaVuSans-2d" transform="translate(1674.902344 0.015625)"/>
    <use xlink:href="#DejaVuSans-3c3" transform="translate(1710.986328 0.015625)"/>
    <use xlink:href="#DejaVuSans-20" transform="translate(1774.365234 0.015625)"/>
    <use xlink:href="#DejaVuSans-70" transform="translate(1806.152344 0.015625)"/>
    <use xlink:href="#DejaVuSans-65" transform="translate(1869.628906 0.015625)"/>
    <use xlink:href="#DejaVuSans-72" transform="translate(1931.152344 0.015625)"/>
    <use xlink:href="#DejaVuSans-2d" transform="translate(1972.265625 0.015625)"/>
    <use xlink:href="#DejaVuSans-63" transform="translate(2008.349609 0.015625)"/>
    <use xlink:href="#DejaVuSans-68" transform="translate(2063.330078 0.015625)"/>
    <use xlink:href="#DejaVuSans-61" transform="translate(2126.708984 0.015625)"/>
    <use xlink:href="#DejaVuSans-69" transform="translate(2187.988281 0.015625)"/>
    <use xlink:href="#DejaVuSans-6e" transform="translate(2215.771484 0.015625)"/>
    <use xlink:href="#DejaVuSans-20" transform="translate(2279.150391 0.015625)"/>
    <use xlink:href="#DejaVuSans-74" transform="translate(2310.9375 0.015625)"/>
    <use xlink:href="#DejaVuSans-77" transform="translate(2350.146484 0.015625)"/>
    <use xlink:href="#DejaVuSans-69" transform="translate(2431.933594 0.015625)"/>
    <use xlink:href="#DejaVuSans-73" transform="translate(2459.716797 0.015625)"/>
    <use xlink:href="#DejaVuSans-74" transform="translate(2511.816406 0.015625)"/>
    <use xlink:href="#DejaVuSans-2c" transform="translate(2551.025391 0.015625)"/>
    <use xlink:href="#DejaVuSans-20" transform="translate(2582.8125 0.015625)"/>
    <use xlink:href="#DejaVuSans-72" transform="translate(2614.599609 0.015625)"/>
    <use xlink:href="#DejaVuSans-65" transform="translate(2655.712891 0.015625)"/>
    <use xlink:href="#DejaVuSans-71" transform="translate(2717.236328 0.015625)"/>
    <use xlink:href="#DejaVuSans-75" transform="translate(2780.712891 0.015625)"/>
    <use xlink:href="#DejaVuSans-69" transform="translate(2844.091797 0.015625)"/>
    <use xlink:href="#DejaVuSans-72" transform="translate(2871.875 0.015625)"/>
    <use xlink:href="#DejaVuSans-65" transform="translate(2912.988281 0.015625)"/>
    <use xlink:href="#DejaVuSans-20" transform="translate(2974.511719 0.015625)"/>
    <use xlink:href="#DejaVuSans-Oblique-54" transform="translate(3006.298828 0.015625)"/>
    <use xlink:href="#DejaVuSans-Oblique-41" transform="translate(3067.382812 -16.390625) scale(0.7)"/>
    <use xlink:href="#DejaVuSans-3d" transform="translate(3137.485352 0.015625)"/>
    <use xlink:href="#DejaVuSans-Oblique-54" transform="translate(3240.756836 0.015625)"/>
    <use xlink:href="#DejaVuSans-Oblique-42" transform="translate(3301.84082 -16.390625) scale(0.7)"/>
    <use xlink:href="#DejaVuSans-3d" transform="translate(3372.080078 0.015625)"/>
    <use xlink:href="#DejaVuSans-Oblique-54" transform="translate(3475.351562 0.015625)"/>
    <use xlink:href="#DejaVuSans-Oblique-43" transform="translate(3536.435547 -16.390625) scale(0.7)"/>
   </g>
  </g>
 </g>
 <defs>
  <clipPath id="p460f9d5988">
   <rect x="32.753139" y="62.909904" width="243.490909" height="153.972193"/>
  </clipPath>
  <clipPath id="p7b5d0b5d62">
   <rect x="346.213346" y="34.56" width="200.948677" height="210.672"/>
  </clipPath>
 </defs>
</svg>
