<?xml version="1.0" encoding="utf-8" standalone="no"?>
<!DOCTYPE svg PUBLIC "-//W3C//DTD SVG 1.1//EN"
  "http://www.w3.org/Graphics/SVG/1.1/DTD/svg11.dtd">
<svg xmlns:xlink="http://www.w3.org/1999/xlink" width="497.17658pt" height="247.248pt" viewBox="0 0 497.17658 247.248" xmlns="http://www.w3.org/2000/svg" version="1.1">
 <metadata>
  <rdf:RDF xmlns:dc="http://purl.org/dc/elements/1.1/" xmlns:cc="http://creativecommons.org/ns#" xmlns:rdf="http://www.w3.org/1999/02/22-rdf-syntax-ns#">
   <cc:Work>
    <dc:type rdf:resource="http://purl.org/dc/dcmitype/StillImage"/>
    <dc:date>2026-06-04T16:58:26.289479</dc:date>
    <dc:format>image/svg+xml</dc:format>
    <dc:creator>
     <cc:Agent>
      <dc:title>Matplotlib v3.10.9, https://matplotlib.org/</dc:title>
     </cc:Agent>
    </dc:creator>
   </cc:Work>
  </rdf:RDF>
 </metadata>
 <defs>
  <style type="text/css">*{stroke-linejoin: round; stroke-linecap: butt}</style>
 </defs>
 <g id="figure_1">
  <g id="patch_1">
   <path d="M 0 247.248 
L 497.17658 247.248 
L 497.17658 0 
L 0 0 
z
" style="fill: #ffffff"/>
  </g>
  <g id="axes_1">
   <g id="patch_2">
    <path d="M 28.067723 166.570071 
L 75.78558 166.570071 
L 75.78558 118.852214 
L 28.067723 118.852214 
z
" clip-path="url(#p2aa94d9822)" style="fill: #eaf3fb; stroke: #444444; stroke-width: 1.4; stroke-linejoin: miter"/>
   </g>
   <g id="patch_3">
    <path d="M 75.78558 166.570071 
L 123.503438 166.570071 
L 123.503438 118.852214 
L 75.78558 118.852214 
z
" clip-path="url(#p2aa94d9822)" style="fill: #fdeeee; stroke: #444444; stroke-width: 1.4; stroke-linejoin: miter"/>
   </g>
   <g id="patch_4">
    <path d="M 123.503438 166.570071 
L 171.221295 166.570071 
L 171.221295 118.852214 
L 123.503438 118.852214 
z
" clip-path="url(#p2aa94d9822)" style="fill: #eaf3fb; stroke: #444444; stroke-width: 1.4; stroke-linejoin: miter"/>
   </g>
   <g id="patch_5">
    <path d="M 171.221295 166.570071 
L 218.939152 166.570071 
L 218.939152 118.852214 
L 171.221295 118.852214 
z
" clip-path="url(#p2aa94d9822)" style="fill: #fdeeee; stroke: #444444; stroke-width: 1.4; stroke-linejoin: miter"/>
   </g>
   <g id="patch_6">
    <path d="M 171.221295 118.852214 
L 218.939152 118.852214 
L 218.939152 71.134357 
L 171.221295 71.134357 
z
" clip-path="url(#p2aa94d9822)" style="fill: #eaf3fb; stroke: #444444; stroke-width: 1.4; stroke-linejoin: miter"/>
   </g>
   <g id="patch_7">
    <path d="M 123.503438 118.852214 
L 171.221295 118.852214 
L 171.221295 71.134357 
L 123.503438 71.134357 
z
" clip-path="url(#p2aa94d9822)" style="fill: #fdeeee; stroke: #444444; stroke-width: 1.4; stroke-linejoin: miter"/>
   </g>
   <g id="patch_8">
    <path d="M 75.78558 118.852214 
L 123.503438 118.852214 
L 123.503438 71.134357 
L 75.78558 71.134357 
z
" clip-path="url(#p2aa94d9822)" style="fill: #eaf3fb; stroke: #444444; stroke-width: 1.4; stroke-linejoin: miter"/>
   </g>
   <g id="patch_9">
    <path d="M 28.067723 118.852214 
L 75.78558 118.852214 
L 75.78558 71.134357 
L 28.067723 71.134357 
z
" clip-path="url(#p2aa94d9822)" style="fill: #fdeeee; stroke: #444444; stroke-width: 1.4; stroke-linejoin: miter"/>
   </g>
   <g id="text_1">
    <!-- T1 — 2×4 perimeter: Tw = 0 (foldable) -->
    <g style="fill: #222222" transform="translate(7.2 44.047214) scale(0.12 -0.12)">
     <defs>
      <path id="DejaVuSans-54" d="M -19 4666 
L 3928 4666 
L 3928 4134 
L 2272 4134 
L 2272 0 
L 1638 0 
L 1638 4134 
L -19 4134 
L -19 4666 
z
" transform="scale(0.015625)"/>
      <path id="DejaVuSans-31" d="M 794 531 
L 1825 531 
L 1825 4091 
L 703 3866 
L 703 4441 
L 1819 4666 
L 2450 4666 
L 2450 531 
L 3481 531 
L 3481 0 
L 794 0 
L 794 531 
z
" transform="scale(0.015625)"/>
      <path id="DejaVuSans-20" transform="scale(0.015625)"/>
      <path id="DejaVuSans-2014" d="M 313 1978 
L 6088 1978 
L 6088 1528 
L 313 1528 
L 313 1978 
z
" transform="scale(0.015625)"/>
      <path id="DejaVuSans-32" d="M 1228 531 
L 3431 531 
L 3431 0 
L 469 0 
L 469 531 
Q 828 903 1448 1529 
Q 2069 2156 2228 2338 
Q 2531 2678 2651 2914 
Q 2772 3150 2772 3378 
Q 2772 3750 2511 3984 
Q 2250 4219 1831 4219 
Q 1534 4219 1204 4116 
Q 875 4013 500 3803 
L 500 4441 
Q 881 4594 1212 4672 
Q 1544 4750 1819 4750 
Q 2544 4750 2975 4387 
Q 3406 4025 3406 3419 
Q 3406 3131 3298 2873 
Q 3191 2616 2906 2266 
Q 2828 2175 2409 1742 
Q 1991 1309 1228 531 
z
" transform="scale(0.015625)"/>
      <path id="DejaVuSans-d7" d="M 4488 3438 
L 3059 2003 
L 4488 575 
L 4116 197 
L 2681 1631 
L 1247 197 
L 878 575 
L 2303 2003 
L 878 3438 
L 1247 3816 
L 2681 2381 
L 4116 3816 
L 4488 3438 
z
" transform="scale(0.015625)"/>
      <path id="DejaVuSans-34" d="M 2419 4116 
L 825 1625 
L 2419 1625 
L 2419 4116 
z
M 2253 4666 
L 3047 4666 
L 3047 1625 
L 3713 1625 
L 3713 1100 
L 3047 1100 
L 3047 0 
L 2419 0 
L 2419 1100 
L 313 1100 
L 313 1709 
L 2253 4666 
z
" transform="scale(0.015625)"/>
      <path id="DejaVuSans-70" d="M 1159 525 
L 1159 -1331 
L 581 -1331 
L 581 3500 
L 1159 3500 
L 1159 2969 
Q 1341 3281 1617 3432 
Q 1894 3584 2278 3584 
Q 2916 3584 3314 3078 
Q 3713 2572 3713 1747 
Q 3713 922 3314 415 
Q 2916 -91 2278 -91 
Q 1894 -91 1617 61 
Q 1341 213 1159 525 
z
M 3116 1747 
Q 3116 2381 2855 2742 
Q 2594 3103 2138 3103 
Q 1681 3103 1420 2742 
Q 1159 2381 1159 1747 
Q 1159 1113 1420 752 
Q 1681 391 2138 391 
Q 2594 391 2855 752 
Q 3116 1113 3116 1747 
z
" transform="scale(0.015625)"/>
      <path id="DejaVuSans-65" d="M 3597 1894 
L 3597 1613 
L 953 1613 
Q 991 1019 1311 708 
Q 1631 397 2203 397 
Q 2534 397 2845 478 
Q 3156 559 3463 722 
L 3463 178 
Q 3153 47 2828 -22 
Q 2503 -91 2169 -91 
Q 1331 -91 842 396 
Q 353 884 353 1716 
Q 353 2575 817 3079 
Q 1281 3584 2069 3584 
Q 2775 3584 3186 3129 
Q 3597 2675 3597 1894 
z
M 3022 2063 
Q 3016 2534 2758 2815 
Q 2500 3097 2075 3097 
Q 1594 3097 1305 2825 
Q 1016 2553 972 2059 
L 3022 2063 
z
" transform="scale(0.015625)"/>
      <path id="DejaVuSans-72" d="M 2631 2963 
Q 2534 3019 2420 3045 
Q 2306 3072 2169 3072 
Q 1681 3072 1420 2755 
Q 1159 2438 1159 1844 
L 1159 0 
L 581 0 
L 581 3500 
L 1159 3500 
L 1159 2956 
Q 1341 3275 1631 3429 
Q 1922 3584 2338 3584 
Q 2397 3584 2469 3576 
Q 2541 3569 2628 3553 
L 2631 2963 
z
" transform="scale(0.015625)"/>
      <path id="DejaVuSans-69" d="M 603 3500 
L 1178 3500 
L 1178 0 
L 603 0 
L 603 3500 
z
M 603 4863 
L 1178 4863 
L 1178 4134 
L 603 4134 
L 603 4863 
z
" transform="scale(0.015625)"/>
      <path id="DejaVuSans-6d" d="M 3328 2828 
Q 3544 3216 3844 3400 
Q 4144 3584 4550 3584 
Q 5097 3584 5394 3201 
Q 5691 2819 5691 2113 
L 5691 0 
L 5113 0 
L 5113 2094 
Q 5113 2597 4934 2840 
Q 4756 3084 4391 3084 
Q 3944 3084 3684 2787 
Q 3425 2491 3425 1978 
L 3425 0 
L 2847 0 
L 2847 2094 
Q 2847 2600 2669 2842 
Q 2491 3084 2119 3084 
Q 1678 3084 1418 2786 
Q 1159 2488 1159 1978 
L 1159 0 
L 581 0 
L 581 3500 
L 1159 3500 
L 1159 2956 
Q 1356 3278 1631 3431 
Q 1906 3584 2284 3584 
Q 2666 3584 2933 3390 
Q 3200 3197 3328 2828 
z
" transform="scale(0.015625)"/>
      <path id="DejaVuSans-74" d="M 1172 4494 
L 1172 3500 
L 2356 3500 
L 2356 3053 
L 1172 3053 
L 1172 1153 
Q 1172 725 1289 603 
Q 1406 481 1766 481 
L 2356 481 
L 2356 0 
L 1766 0 
Q 1100 0 847 248 
Q 594 497 594 1153 
L 594 3053 
L 172 3053 
L 172 3500 
L 594 3500 
L 594 4494 
L 1172 4494 
z
" transform="scale(0.015625)"/>
      <path id="DejaVuSans-3a" d="M 750 794 
L 1409 794 
L 1409 0 
L 750 0 
L 750 794 
z
M 750 3309 
L 1409 3309 
L 1409 2516 
L 750 2516 
L 750 3309 
z
" transform="scale(0.015625)"/>
      <path id="DejaVuSans-77" d="M 269 3500 
L 844 3500 
L 1563 769 
L 2278 3500 
L 2956 3500 
L 3675 769 
L 4391 3500 
L 4966 3500 
L 4050 0 
L 3372 0 
L 2619 2869 
L 1863 0 
L 1184 0 
L 269 3500 
z
" transform="scale(0.015625)"/>
      <path id="DejaVuSans-3d" d="M 678 2906 
L 4684 2906 
L 4684 2381 
L 678 2381 
L 678 2906 
z
M 678 1631 
L 4684 1631 
L 4684 1100 
L 678 1100 
L 678 1631 
z
" transform="scale(0.015625)"/>
      <path id="DejaVuSans-30" d="M 2034 4250 
Q 1547 4250 1301 3770 
Q 1056 3291 1056 2328 
Q 1056 1369 1301 889 
Q 1547 409 2034 409 
Q 2525 409 2770 889 
Q 3016 1369 3016 2328 
Q 3016 3291 2770 3770 
Q 2525 4250 2034 4250 
z
M 2034 4750 
Q 2819 4750 3233 4129 
Q 3647 3509 3647 2328 
Q 3647 1150 3233 529 
Q 2819 -91 2034 -91 
Q 1250 -91 836 529 
Q 422 1150 422 2328 
Q 422 3509 836 4129 
Q 1250 4750 2034 4750 
z
" transform="scale(0.015625)"/>
      <path id="DejaVuSans-28" d="M 1984 4856 
Q 1566 4138 1362 3434 
Q 1159 2731 1159 2009 
Q 1159 1288 1364 580 
Q 1569 -128 1984 -844 
L 1484 -844 
Q 1016 -109 783 600 
Q 550 1309 550 2009 
Q 550 2706 781 3412 
Q 1013 4119 1484 4856 
L 1984 4856 
z
" transform="scale(0.015625)"/>
      <path id="DejaVuSans-66" d="M 2375 4863 
L 2375 4384 
L 1825 4384 
Q 1516 4384 1395 4259 
Q 1275 4134 1275 3809 
L 1275 3500 
L 2222 3500 
L 2222 3053 
L 1275 3053 
L 1275 0 
L 697 0 
L 697 3053 
L 147 3053 
L 147 3500 
L 697 3500 
L 697 3744 
Q 697 4328 969 4595 
Q 1241 4863 1831 4863 
L 2375 4863 
z
" transform="scale(0.015625)"/>
      <path id="DejaVuSans-6f" d="M 1959 3097 
Q 1497 3097 1228 2736 
Q 959 2375 959 1747 
Q 959 1119 1226 758 
Q 1494 397 1959 397 
Q 2419 397 2687 759 
Q 2956 1122 2956 1747 
Q 2956 2369 2687 2733 
Q 2419 3097 1959 3097 
z
M 1959 3584 
Q 2709 3584 3137 3096 
Q 3566 2609 3566 1747 
Q 3566 888 3137 398 
Q 2709 -91 1959 -91 
Q 1206 -91 779 398 
Q 353 888 353 1747 
Q 353 2609 779 3096 
Q 1206 3584 1959 3584 
z
" transform="scale(0.015625)"/>
      <path id="DejaVuSans-6c" d="M 603 4863 
L 1178 4863 
L 1178 0 
L 603 0 
L 603 4863 
z
" transform="scale(0.015625)"/>
      <path id="DejaVuSans-64" d="M 2906 2969 
L 2906 4863 
L 3481 4863 
L 3481 0 
L 2906 0 
L 2906 525 
Q 2725 213 2448 61 
Q 2172 -91 1784 -91 
Q 1150 -91 751 415 
Q 353 922 353 1747 
Q 353 2572 751 3078 
Q 1150 3584 1784 3584 
Q 2172 3584 2448 3432 
Q 2725 3281 2906 2969 
z
M 947 1747 
Q 947 1113 1208 752 
Q 1469 391 1925 391 
Q 2381 391 2643 752 
Q 2906 1113 2906 1747 
Q 2906 2381 2643 2742 
Q 2381 3103 1925 3103 
Q 1469 3103 1208 2742 
Q 947 2381 947 1747 
z
" transform="scale(0.015625)"/>
      <path id="DejaVuSans-61" d="M 2194 1759 
Q 1497 1759 1228 1600 
Q 959 1441 959 1056 
Q 959 750 1161 570 
Q 1363 391 1709 391 
Q 2188 391 2477 730 
Q 2766 1069 2766 1631 
L 2766 1759 
L 2194 1759 
z
M 3341 1997 
L 3341 0 
L 2766 0 
L 2766 531 
Q 2569 213 2275 61 
Q 1981 -91 1556 -91 
Q 1019 -91 701 211 
Q 384 513 384 1019 
Q 384 1609 779 1909 
Q 1175 2209 1959 2209 
L 2766 2209 
L 2766 2266 
Q 2766 2663 2505 2880 
Q 2244 3097 1772 3097 
Q 1472 3097 1187 3025 
Q 903 2953 641 2809 
L 641 3341 
Q 956 3463 1253 3523 
Q 1550 3584 1831 3584 
Q 2591 3584 2966 3190 
Q 3341 2797 3341 1997 
z
" transform="scale(0.015625)"/>
      <path id="DejaVuSans-62" d="M 3116 1747 
Q 3116 2381 2855 2742 
Q 2594 3103 2138 3103 
Q 1681 3103 1420 2742 
Q 1159 2381 1159 1747 
Q 1159 1113 1420 752 
Q 1681 391 2138 391 
Q 2594 391 2855 752 
Q 3116 1113 3116 1747 
z
M 1159 2969 
Q 1341 3281 1617 3432 
Q 1894 3584 2278 3584 
Q 2916 3584 3314 3078 
Q 3713 2572 3713 1747 
Q 3713 922 3314 415 
Q 2916 -91 2278 -91 
Q 1894 -91 1617 61 
Q 1341 213 1159 525 
L 1159 0 
L 581 0 
L 581 4863 
L 1159 4863 
L 1159 2969 
z
" transform="scale(0.015625)"/>
      <path id="DejaVuSans-29" d="M 513 4856 
L 1013 4856 
Q 1481 4119 1714 3412 
Q 1947 2706 1947 2009 
Q 1947 1309 1714 600 
Q 1481 -109 1013 -844 
L 513 -844 
Q 928 -128 1133 580 
Q 1338 1288 1338 2009 
Q 1338 2731 1133 3434 
Q 928 4138 513 4856 
z
" transform="scale(0.015625)"/>
     </defs>
     <use xlink:href="#DejaVuSans-54"/>
     <use xlink:href="#DejaVuSans-31" transform="translate(61.083984 0)"/>
     <use xlink:href="#DejaVuSans-20" transform="translate(124.707031 0)"/>
     <use xlink:href="#DejaVuSans-2014" transform="translate(156.494141 0)"/>
     <use xlink:href="#DejaVuSans-20" transform="translate(256.494141 0)"/>
     <use xlink:href="#DejaVuSans-32" transform="translate(288.28125 0)"/>
     <use xlink:href="#DejaVuSans-d7" transform="translate(351.904297 0)"/>
     <use xlink:href="#DejaVuSans-34" transform="translate(435.693359 0)"/>
     <use xlink:href="#DejaVuSans-20" transform="translate(499.316406 0)"/>
     <use xlink:href="#DejaVuSans-70" transform="translate(531.103516 0)"/>
     <use xlink:href="#DejaVuSans-65" transform="translate(594.580078 0)"/>
     <use xlink:href="#DejaVuSans-72" transform="translate(656.103516 0)"/>
     <use xlink:href="#DejaVuSans-69" transform="translate(697.216797 0)"/>
     <use xlink:href="#DejaVuSans-6d" transform="translate(725 0)"/>
     <use xlink:href="#DejaVuSans-65" transform="translate(822.412109 0)"/>
     <use xlink:href="#DejaVuSans-74" transform="translate(883.935547 0)"/>
     <use xlink:href="#DejaVuSans-65" transform="translate(923.144531 0)"/>
     <use xlink:href="#DejaVuSans-72" transform="translate(984.667969 0)"/>
     <use xlink:href="#DejaVuSans-3a" transform="translate(1024.03125 0)"/>
     <use xlink:href="#DejaVuSans-20" transform="translate(1057.722656 0)"/>
     <use xlink:href="#DejaVuSans-54" transform="translate(1089.509766 0)"/>
     <use xlink:href="#DejaVuSans-77" transform="translate(1134.09375 0)"/>
     <use xlink:href="#DejaVuSans-20" transform="translate(1215.880859 0)"/>
     <use xlink:href="#DejaVuSans-3d" transform="translate(1247.667969 0)"/>
     <use xlink:href="#DejaVuSans-20" transform="translate(1331.457031 0)"/>
     <use xlink:href="#DejaVuSans-30" transform="translate(1363.244141 0)"/>
     <use xlink:href="#DejaVuSans-20" transform="translate(1426.867188 0)"/>
     <use xlink:href="#DejaVuSans-28" transform="translate(1458.654297 0)"/>
     <use xlink:href="#DejaVuSans-66" transform="translate(1497.667969 0)"/>
     <use xlink:href="#DejaVuSans-6f" transform="translate(1532.873047 0)"/>
     <use xlink:href="#DejaVuSans-6c" transform="translate(1594.054688 0)"/>
     <use xlink:href="#DejaVuSans-64" transform="translate(1621.837891 0)"/>
     <use xlink:href="#DejaVuSans-61" transform="translate(1685.314453 0)"/>
     <use xlink:href="#DejaVuSans-62" transform="translate(1746.59375 0)"/>
     <use xlink:href="#DejaVuSans-6c" transform="translate(1810.070312 0)"/>
     <use xlink:href="#DejaVuSans-65" transform="translate(1837.853516 0)"/>
     <use xlink:href="#DejaVuSans-29" transform="translate(1899.376953 0)"/>
    </g>
   </g>
   <g id="text_2">
    <!-- + -->
    <g style="fill: #3399cc" transform="translate(46.479855 146.29833) scale(0.13 -0.13)">
     <defs>
      <path id="DejaVuSans-Bold-2b" d="M 3053 4013 
L 3053 2375 
L 4684 2375 
L 4684 1638 
L 3053 1638 
L 3053 0 
L 2309 0 
L 2309 1638 
L 678 1638 
L 678 2375 
L 2309 2375 
L 2309 4013 
L 3053 4013 
z
" transform="scale(0.015625)"/>
     </defs>
     <use xlink:href="#DejaVuSans-Bold-2b"/>
    </g>
   </g>
   <g id="text_3">
    <!-- − -->
    <g style="fill: #d83232" transform="translate(94.197712 146.29833) scale(0.13 -0.13)">
     <defs>
      <path id="DejaVuSans-Bold-2212" d="M 678 2375 
L 4684 2375 
L 4684 1638 
L 678 1638 
L 678 2375 
z
" transform="scale(0.015625)"/>
     </defs>
     <use xlink:href="#DejaVuSans-Bold-2212"/>
    </g>
   </g>
   <g id="text_4">
    <!-- + -->
    <g style="fill: #3399cc" transform="translate(141.915569 146.29833) scale(0.13 -0.13)">
     <use xlink:href="#DejaVuSans-Bold-2b"/>
    </g>
   </g>
   <g id="text_5">
    <!-- − -->
    <g style="fill: #d83232" transform="translate(189.633426 146.29833) scale(0.13 -0.13)">
     <use xlink:href="#DejaVuSans-Bold-2212"/>
    </g>
   </g>
   <g id="text_6">
    <!-- + -->
    <g style="fill: #3399cc" transform="translate(189.633426 98.580473) scale(0.13 -0.13)">
     <use xlink:href="#DejaVuSans-Bold-2b"/>
    </g>
   </g>
   <g id="text_7">
    <!-- − -->
    <g style="fill: #d83232" transform="translate(141.915569 98.580473) scale(0.13 -0.13)">
     <use xlink:href="#DejaVuSans-Bold-2212"/>
    </g>
   </g>
   <g id="text_8">
    <!-- + -->
    <g style="fill: #3399cc" transform="translate(94.197712 98.580473) scale(0.13 -0.13)">
     <use xlink:href="#DejaVuSans-Bold-2b"/>
    </g>
   </g>
   <g id="text_9">
    <!-- − -->
    <g style="fill: #d83232" transform="translate(46.479855 98.580473) scale(0.13 -0.13)">
     <use xlink:href="#DejaVuSans-Bold-2212"/>
    </g>
   </g>
   <g id="line2d_1">
    <path d="M 51.926652 142.711143 
L 99.644509 142.711143 
L 147.362366 142.711143 
L 195.080223 142.711143 
L 195.080223 94.993286 
L 147.362366 94.993286 
L 99.644509 94.993286 
L 51.926652 94.993286 
L 51.926652 142.711143 
" clip-path="url(#p2aa94d9822)" style="fill: none; stroke-dasharray: 1.8,3.96; stroke-dashoffset: 0; stroke: #3399cc; stroke-width: 1.8"/>
   </g>
   <g id="line2d_2">
    <defs>
     <path id="m8363cee6a0" d="M 0 1.75 
C 0.464105 1.75 0.909265 1.565609 1.237437 1.237437 
C 1.565609 0.909265 1.75 0.464105 1.75 0 
C 1.75 -0.464105 1.565609 -0.909265 1.237437 -1.237437 
C 0.909265 -1.565609 0.464105 -1.75 0 -1.75 
C -0.464105 -1.75 -0.909265 -1.565609 -1.237437 -1.237437 
C -1.565609 -0.909265 -1.75 -0.464105 -1.75 0 
C -1.75 0.464105 -1.565609 0.909265 -1.237437 1.237437 
C -0.909265 1.565609 -0.464105 1.75 0 1.75 
z
" style="stroke: #3399cc"/>
    </defs>
    <g clip-path="url(#p2aa94d9822)">
     <use xlink:href="#m8363cee6a0" x="51.926652" y="142.711143" style="fill: #3399cc; stroke: #3399cc"/>
     <use xlink:href="#m8363cee6a0" x="99.644509" y="142.711143" style="fill: #3399cc; stroke: #3399cc"/>
     <use xlink:href="#m8363cee6a0" x="147.362366" y="142.711143" style="fill: #3399cc; stroke: #3399cc"/>
     <use xlink:href="#m8363cee6a0" x="195.080223" y="142.711143" style="fill: #3399cc; stroke: #3399cc"/>
     <use xlink:href="#m8363cee6a0" x="195.080223" y="94.993286" style="fill: #3399cc; stroke: #3399cc"/>
     <use xlink:href="#m8363cee6a0" x="147.362366" y="94.993286" style="fill: #3399cc; stroke: #3399cc"/>
     <use xlink:href="#m8363cee6a0" x="99.644509" y="94.993286" style="fill: #3399cc; stroke: #3399cc"/>
     <use xlink:href="#m8363cee6a0" x="51.926652" y="94.993286" style="fill: #3399cc; stroke: #3399cc"/>
     <use xlink:href="#m8363cee6a0" x="51.926652" y="142.711143" style="fill: #3399cc; stroke: #3399cc"/>
    </g>
   </g>
   <g id="text_10">
    <!-- -180 -->
    <g style="fill: #d83232" transform="translate(184.445262 137.421754) scale(0.085 -0.085)">
     <defs>
      <path id="DejaVuSans-Bold-2d" d="M 347 2297 
L 2309 2297 
L 2309 1388 
L 347 1388 
L 347 2297 
z
" transform="scale(0.015625)"/>
      <path id="DejaVuSans-Bold-31" d="M 750 831 
L 1813 831 
L 1813 3847 
L 722 3622 
L 722 4441 
L 1806 4666 
L 2950 4666 
L 2950 831 
L 4013 831 
L 4013 0 
L 750 0 
L 750 831 
z
" transform="scale(0.015625)"/>
      <path id="DejaVuSans-Bold-38" d="M 2228 2088 
Q 1891 2088 1709 1903 
Q 1528 1719 1528 1375 
Q 1528 1031 1709 848 
Q 1891 666 2228 666 
Q 2563 666 2741 848 
Q 2919 1031 2919 1375 
Q 2919 1722 2741 1905 
Q 2563 2088 2228 2088 
z
M 1350 2484 
Q 925 2613 709 2878 
Q 494 3144 494 3541 
Q 494 4131 934 4440 
Q 1375 4750 2228 4750 
Q 3075 4750 3515 4442 
Q 3956 4134 3956 3541 
Q 3956 3144 3739 2878 
Q 3522 2613 3097 2484 
Q 3572 2353 3814 2058 
Q 4056 1763 4056 1313 
Q 4056 619 3595 264 
Q 3134 -91 2228 -91 
Q 1319 -91 855 264 
Q 391 619 391 1313 
Q 391 1763 633 2058 
Q 875 2353 1350 2484 
z
M 1631 3419 
Q 1631 3141 1786 2991 
Q 1941 2841 2228 2841 
Q 2509 2841 2662 2991 
Q 2816 3141 2816 3419 
Q 2816 3697 2662 3845 
Q 2509 3994 2228 3994 
Q 1941 3994 1786 3844 
Q 1631 3694 1631 3419 
z
" transform="scale(0.015625)"/>
      <path id="DejaVuSans-Bold-30" d="M 2944 2338 
Q 2944 3213 2780 3570 
Q 2616 3928 2228 3928 
Q 1841 3928 1675 3570 
Q 1509 3213 1509 2338 
Q 1509 1453 1675 1090 
Q 1841 728 2228 728 
Q 2613 728 2778 1090 
Q 2944 1453 2944 2338 
z
M 4147 2328 
Q 4147 1169 3647 539 
Q 3147 -91 2228 -91 
Q 1306 -91 806 539 
Q 306 1169 306 2328 
Q 306 3491 806 4120 
Q 1306 4750 2228 4750 
Q 3147 4750 3647 4120 
Q 4147 3491 4147 2328 
z
" transform="scale(0.015625)"/>
     </defs>
     <use xlink:href="#DejaVuSans-Bold-2d"/>
     <use xlink:href="#DejaVuSans-Bold-31" transform="translate(41.503906 0)"/>
     <use xlink:href="#DejaVuSans-Bold-38" transform="translate(111.083984 0)"/>
     <use xlink:href="#DejaVuSans-Bold-30" transform="translate(180.664062 0)"/>
    </g>
   </g>
   <g id="text_11">
    <!-- #1 -->
    <g style="fill: #222222" transform="translate(190.289012 155.002665) scale(0.065 -0.065)">
     <defs>
      <path id="DejaVuSans-23" d="M 3272 2816 
L 2363 2816 
L 2100 1772 
L 3016 1772 
L 3272 2816 
z
M 2803 4594 
L 2478 3297 
L 3391 3297 
L 3719 4594 
L 4219 4594 
L 3897 3297 
L 4872 3297 
L 4872 2816 
L 3775 2816 
L 3519 1772 
L 4513 1772 
L 4513 1294 
L 3397 1294 
L 3072 0 
L 2572 0 
L 2894 1294 
L 1978 1294 
L 1656 0 
L 1153 0 
L 1478 1294 
L 494 1294 
L 494 1772 
L 1594 1772 
L 1856 2816 
L 850 2816 
L 850 3297 
L 1978 3297 
L 2297 4594 
L 2803 4594 
z
" transform="scale(0.015625)"/>
     </defs>
     <use xlink:href="#DejaVuSans-23"/>
     <use xlink:href="#DejaVuSans-31" transform="translate(83.789062 0)"/>
    </g>
   </g>
   <g id="text_12">
    <!-- +180 -->
    <g style="fill: #3399cc" transform="translate(182.647645 89.703897) scale(0.085 -0.085)">
     <use xlink:href="#DejaVuSans-Bold-2b"/>
     <use xlink:href="#DejaVuSans-Bold-31" transform="translate(83.789062 0)"/>
     <use xlink:href="#DejaVuSans-Bold-38" transform="translate(153.369141 0)"/>
     <use xlink:href="#DejaVuSans-Bold-30" transform="translate(222.949219 0)"/>
    </g>
   </g>
   <g id="text_13">
    <!-- #2 -->
    <g style="fill: #222222" transform="translate(190.289012 107.284808) scale(0.065 -0.065)">
     <use xlink:href="#DejaVuSans-23"/>
     <use xlink:href="#DejaVuSans-32" transform="translate(83.789062 0)"/>
    </g>
   </g>
   <g id="text_14">
    <!-- -180 -->
    <g style="fill: #d83232" transform="translate(41.291691 89.703897) scale(0.085 -0.085)">
     <use xlink:href="#DejaVuSans-Bold-2d"/>
     <use xlink:href="#DejaVuSans-Bold-31" transform="translate(41.503906 0)"/>
     <use xlink:href="#DejaVuSans-Bold-38" transform="translate(111.083984 0)"/>
     <use xlink:href="#DejaVuSans-Bold-30" transform="translate(180.664062 0)"/>
    </g>
   </g>
   <g id="text_15">
    <!-- #3 -->
    <g style="fill: #222222" transform="translate(47.135441 107.284808) scale(0.065 -0.065)">
     <defs>
      <path id="DejaVuSans-33" d="M 2597 2516 
Q 3050 2419 3304 2112 
Q 3559 1806 3559 1356 
Q 3559 666 3084 287 
Q 2609 -91 1734 -91 
Q 1441 -91 1130 -33 
Q 819 25 488 141 
L 488 750 
Q 750 597 1062 519 
Q 1375 441 1716 441 
Q 2309 441 2620 675 
Q 2931 909 2931 1356 
Q 2931 1769 2642 2001 
Q 2353 2234 1838 2234 
L 1294 2234 
L 1294 2753 
L 1863 2753 
Q 2328 2753 2575 2939 
Q 2822 3125 2822 3475 
Q 2822 3834 2567 4026 
Q 2313 4219 1838 4219 
Q 1578 4219 1281 4162 
Q 984 4106 628 3988 
L 628 4550 
Q 988 4650 1302 4700 
Q 1616 4750 1894 4750 
Q 2613 4750 3031 4423 
Q 3450 4097 3450 3541 
Q 3450 3153 3228 2886 
Q 3006 2619 2597 2516 
z
" transform="scale(0.015625)"/>
     </defs>
     <use xlink:href="#DejaVuSans-23"/>
     <use xlink:href="#DejaVuSans-33" transform="translate(83.789062 0)"/>
    </g>
   </g>
   <g id="text_16">
    <!-- +180 -->
    <g style="fill: #3399cc" transform="translate(39.494074 137.421754) scale(0.085 -0.085)">
     <use xlink:href="#DejaVuSans-Bold-2b"/>
     <use xlink:href="#DejaVuSans-Bold-31" transform="translate(83.789062 0)"/>
     <use xlink:href="#DejaVuSans-Bold-38" transform="translate(153.369141 0)"/>
     <use xlink:href="#DejaVuSans-Bold-30" transform="translate(222.949219 0)"/>
    </g>
   </g>
   <g id="text_17">
    <!-- #4 -->
    <g style="fill: #222222" transform="translate(47.135441 155.002665) scale(0.065 -0.065)">
     <use xlink:href="#DejaVuSans-23"/>
     <use xlink:href="#DejaVuSans-34" transform="translate(83.789062 0)"/>
    </g>
   </g>
  </g>
  <g id="axes_2">
   <g id="text_18">
    <!-- per-corner ledger -->
    <g style="fill: #222222" transform="translate(281.753204 22.163799) scale(0.105 -0.105)">
     <defs>
      <path id="DejaVuSansMono-Bold-70" d="M 1381 494 
L 1381 -1331 
L 469 -1331 
L 469 3500 
L 1381 3500 
L 1381 2975 
Q 1525 3278 1759 3431 
Q 1994 3584 2309 3584 
Q 2909 3584 3240 3103 
Q 3572 2622 3572 1747 
Q 3572 859 3236 384 
Q 2900 -91 2278 -91 
Q 1997 -91 1773 54 
Q 1550 200 1381 494 
z
M 2656 1753 
Q 2656 2259 2487 2546 
Q 2319 2834 2022 2834 
Q 1725 2834 1553 2546 
Q 1381 2259 1381 1753 
Q 1381 1247 1553 959 
Q 1725 672 2022 672 
Q 2319 672 2487 959 
Q 2656 1247 2656 1753 
z
" transform="scale(0.015625)"/>
      <path id="DejaVuSansMono-Bold-65" d="M 3444 172 
Q 3125 41 2794 -25 
Q 2463 -91 2094 -91 
Q 1216 -91 752 379 
Q 288 850 288 1734 
Q 288 2591 734 3087 
Q 1181 3584 1953 3584 
Q 2731 3584 3161 3123 
Q 3591 2663 3591 1825 
L 3591 1453 
L 1219 1453 
Q 1222 1041 1462 837 
Q 1703 634 2181 634 
Q 2497 634 2803 725 
Q 3109 816 3444 1013 
L 3444 172 
z
M 2669 2141 
Q 2663 2503 2483 2689 
Q 2303 2875 1953 2875 
Q 1638 2875 1450 2683 
Q 1263 2491 1228 2138 
L 2669 2141 
z
" transform="scale(0.015625)"/>
      <path id="DejaVuSansMono-Bold-72" d="M 3597 2534 
Q 3447 2672 3245 2740 
Q 3044 2809 2803 2809 
Q 2513 2809 2295 2707 
Q 2078 2606 1959 2413 
Q 1884 2294 1854 2125 
Q 1825 1956 1825 1613 
L 1825 0 
L 909 0 
L 909 3500 
L 1825 3500 
L 1825 2956 
Q 1959 3256 2237 3420 
Q 2516 3584 2888 3584 
Q 3075 3584 3254 3539 
Q 3434 3494 3597 3406 
L 3597 2534 
z
" transform="scale(0.015625)"/>
      <path id="DejaVuSansMono-Bold-2d" d="M 941 2297 
L 2913 2297 
L 2913 1388 
L 941 1388 
L 941 2297 
z
" transform="scale(0.015625)"/>
      <path id="DejaVuSansMono-Bold-63" d="M 3316 178 
Q 3084 44 2818 -23 
Q 2553 -91 2247 -91 
Q 1438 -91 981 396 
Q 525 884 525 1747 
Q 525 2613 984 3102 
Q 1444 3591 2253 3591 
Q 2534 3591 2795 3525 
Q 3056 3459 3316 3322 
L 3316 2484 
Q 3116 2656 2877 2748 
Q 2638 2841 2381 2841 
Q 1934 2841 1693 2556 
Q 1453 2272 1453 1747 
Q 1453 1222 1693 940 
Q 1934 659 2381 659 
Q 2647 659 2878 748 
Q 3109 838 3316 1019 
L 3316 178 
z
" transform="scale(0.015625)"/>
      <path id="DejaVuSansMono-Bold-6f" d="M 1925 2841 
Q 1597 2841 1409 2552 
Q 1222 2263 1222 1747 
Q 1222 1231 1409 942 
Q 1597 653 1925 653 
Q 2256 653 2443 942 
Q 2631 1231 2631 1747 
Q 2631 2263 2443 2552 
Q 2256 2841 1925 2841 
z
M 306 1747 
Q 306 2594 745 3089 
Q 1184 3584 1925 3584 
Q 2669 3584 3108 3089 
Q 3547 2594 3547 1747 
Q 3547 900 3108 404 
Q 2669 -91 1925 -91 
Q 1184 -91 745 404 
Q 306 900 306 1747 
z
" transform="scale(0.015625)"/>
      <path id="DejaVuSansMono-Bold-6e" d="M 3347 2272 
L 3347 0 
L 2438 0 
L 2438 2131 
Q 2438 2513 2330 2677 
Q 2222 2841 1978 2841 
Q 1731 2841 1589 2619 
Q 1447 2397 1447 2003 
L 1447 0 
L 538 0 
L 538 3500 
L 1447 3500 
L 1447 2975 
Q 1544 3266 1778 3425 
Q 2013 3584 2344 3584 
Q 2841 3584 3094 3254 
Q 3347 2925 3347 2272 
z
" transform="scale(0.015625)"/>
      <path id="DejaVuSansMono-Bold-20" transform="scale(0.015625)"/>
      <path id="DejaVuSansMono-Bold-6c" d="M 1209 1459 
L 1209 4159 
L 281 4159 
L 281 4863 
L 2125 4863 
L 2125 1459 
Q 2125 1047 2253 875 
Q 2381 703 2688 703 
L 3419 703 
L 3419 0 
L 2431 0 
Q 1778 0 1493 337 
Q 1209 675 1209 1459 
z
" transform="scale(0.015625)"/>
      <path id="DejaVuSansMono-Bold-64" d="M 2472 3003 
L 2472 4863 
L 3384 4863 
L 3384 0 
L 2472 0 
L 2472 519 
Q 2325 216 2092 62 
Q 1859 -91 1544 -91 
Q 944 -91 612 390 
Q 281 872 281 1747 
Q 281 2634 617 3109 
Q 953 3584 1575 3584 
Q 1856 3584 2079 3439 
Q 2303 3294 2472 3003 
z
M 1197 1741 
Q 1197 1234 1365 946 
Q 1534 659 1831 659 
Q 2128 659 2300 946 
Q 2472 1234 2472 1741 
Q 2472 2247 2300 2534 
Q 2128 2822 1831 2822 
Q 1534 2822 1365 2534 
Q 1197 2247 1197 1741 
z
" transform="scale(0.015625)"/>
      <path id="DejaVuSansMono-Bold-67" d="M 2509 1806 
Q 2509 2275 2331 2558 
Q 2153 2841 1863 2841 
Q 1575 2841 1398 2559 
Q 1222 2278 1222 1806 
Q 1222 1331 1398 1050 
Q 1575 769 1863 769 
Q 2153 769 2331 1051 
Q 2509 1334 2509 1806 
z
M 3425 263 
Q 3425 -578 3045 -951 
Q 2666 -1325 1813 -1325 
Q 1525 -1325 1244 -1283 
Q 963 -1241 672 -1153 
L 672 -313 
Q 931 -456 1200 -525 
Q 1469 -594 1753 -594 
Q 2141 -594 2325 -411 
Q 2509 -228 2509 159 
L 2509 538 
Q 2375 288 2153 166 
Q 1931 44 1613 44 
Q 1013 44 659 512 
Q 306 981 306 1784 
Q 306 2616 659 3103 
Q 1013 3591 1606 3591 
Q 1906 3591 2140 3450 
Q 2375 3309 2509 3053 
L 2509 3500 
L 3425 3500 
L 3425 263 
z
" transform="scale(0.015625)"/>
     </defs>
     <use xlink:href="#DejaVuSansMono-Bold-70"/>
     <use xlink:href="#DejaVuSansMono-Bold-65" transform="translate(60.205078 0)"/>
     <use xlink:href="#DejaVuSansMono-Bold-72" transform="translate(120.410156 0)"/>
     <use xlink:href="#DejaVuSansMono-Bold-2d" transform="translate(180.615234 0)"/>
     <use xlink:href="#DejaVuSansMono-Bold-63" transform="translate(240.820312 0)"/>
     <use xlink:href="#DejaVuSansMono-Bold-6f" transform="translate(301.025391 0)"/>
     <use xlink:href="#DejaVuSansMono-Bold-72" transform="translate(361.230469 0)"/>
     <use xlink:href="#DejaVuSansMono-Bold-6e" transform="translate(421.435547 0)"/>
     <use xlink:href="#DejaVuSansMono-Bold-65" transform="translate(481.640625 0)"/>
     <use xlink:href="#DejaVuSansMono-Bold-72" transform="translate(541.845703 0)"/>
     <use xlink:href="#DejaVuSansMono-Bold-20" transform="translate(602.050781 0)"/>
     <use xlink:href="#DejaVuSansMono-Bold-6c" transform="translate(662.255859 0)"/>
     <use xlink:href="#DejaVuSansMono-Bold-65" transform="translate(722.460938 0)"/>
     <use xlink:href="#DejaVuSansMono-Bold-64" transform="translate(782.666016 0)"/>
     <use xlink:href="#DejaVuSansMono-Bold-67" transform="translate(842.871094 0)"/>
     <use xlink:href="#DejaVuSansMono-Bold-65" transform="translate(903.076172 0)"/>
     <use xlink:href="#DejaVuSansMono-Bold-72" transform="translate(963.28125 0)"/>
    </g>
   </g>
   <g id="text_19">
    <!--  #  cell    σ  turn  γ     g     Σg -->
    <g style="fill: #222222" transform="translate(281.753204 34.430601) scale(0.082 -0.082)">
     <defs>
      <path id="DejaVuSansMono-20" transform="scale(0.015625)"/>
      <path id="DejaVuSansMono-23" d="M 2138 4594 
L 1813 3297 
L 2578 3297 
L 2906 4594 
L 3406 4594 
L 3078 3297 
L 3841 3297 
L 3841 2816 
L 2963 2816 
L 2700 1772 
L 3481 1772 
L 3481 1294 
L 2578 1294 
L 2253 0 
L 1753 0 
L 2081 1294 
L 1313 1294 
L 984 0 
L 488 0 
L 813 1294 
L 6 1294 
L 6 1772 
L 934 1772 
L 1197 2816 
L 366 2816 
L 366 3297 
L 1313 3297 
L 1638 4594 
L 2138 4594 
z
M 2463 2816 
L 1697 2816 
L 1434 1772 
L 2203 1772 
L 2463 2816 
z
" transform="scale(0.015625)"/>
      <path id="DejaVuSansMono-63" d="M 3316 178 
Q 3084 44 2839 -23 
Q 2594 -91 2338 -91 
Q 1525 -91 1067 396 
Q 609 884 609 1747 
Q 609 2609 1067 3096 
Q 1525 3584 2338 3584 
Q 2591 3584 2831 3518 
Q 3072 3453 3316 3316 
L 3316 2713 
Q 3088 2916 2858 3006 
Q 2628 3097 2338 3097 
Q 1797 3097 1506 2747 
Q 1216 2397 1216 1747 
Q 1216 1100 1508 748 
Q 1800 397 2338 397 
Q 2638 397 2875 489 
Q 3113 581 3316 775 
L 3316 178 
z
" transform="scale(0.015625)"/>
      <path id="DejaVuSansMono-65" d="M 3475 1894 
L 3475 1613 
L 984 1613 
L 984 1594 
Q 984 1022 1282 709 
Q 1581 397 2125 397 
Q 2400 397 2700 484 
Q 3000 572 3341 750 
L 3341 178 
Q 3013 44 2708 -23 
Q 2403 -91 2119 -91 
Q 1303 -91 843 398 
Q 384 888 384 1747 
Q 384 2584 834 3084 
Q 1284 3584 2034 3584 
Q 2703 3584 3089 3131 
Q 3475 2678 3475 1894 
z
M 2900 2063 
Q 2888 2569 2661 2833 
Q 2434 3097 2009 3097 
Q 1594 3097 1325 2822 
Q 1056 2547 1006 2059 
L 2900 2063 
z
" transform="scale(0.015625)"/>
      <path id="DejaVuSansMono-6c" d="M 1997 1269 
Q 1997 881 2139 684 
Q 2281 488 2559 488 
L 3231 488 
L 3231 0 
L 2503 0 
Q 1988 0 1705 331 
Q 1422 663 1422 1269 
L 1422 4447 
L 500 4447 
L 500 4897 
L 1997 4897 
L 1997 1269 
z
" transform="scale(0.015625)"/>
      <path id="DejaVuSansMono-3c3" d="M 1903 2922 
Q 1481 2922 1263 2672 
Q 1038 2413 1038 1747 
Q 1038 1081 1263 739 
Q 1488 397 1925 397 
Q 2366 397 2591 739 
Q 2816 1081 2816 1538 
Q 2816 2316 2278 2719 
Q 2091 2859 1903 2922 
z
M 2781 2925 
Q 3425 2419 3425 1538 
Q 3425 825 2953 303 
Q 2597 -94 1925 -91 
Q 1197 -91 812 379 
Q 428 850 428 1747 
Q 428 2575 813 3053 
Q 1172 3500 1925 3500 
L 3534 3500 
L 3534 2925 
L 2781 2925 
z
" transform="scale(0.015625)"/>
      <path id="DejaVuSansMono-74" d="M 1919 4494 
L 1919 3500 
L 3225 3500 
L 3225 3053 
L 1919 3053 
L 1919 1153 
Q 1919 766 2066 612 
Q 2213 459 2578 459 
L 3225 459 
L 3225 0 
L 2522 0 
Q 1875 0 1609 259 
Q 1344 519 1344 1153 
L 1344 3053 
L 409 3053 
L 409 3500 
L 1344 3500 
L 1344 4494 
L 1919 4494 
z
" transform="scale(0.015625)"/>
      <path id="DejaVuSansMono-75" d="M 609 1325 
L 609 3494 
L 1184 3494 
L 1184 1325 
Q 1184 853 1351 631 
Q 1519 409 1869 409 
Q 2275 409 2490 695 
Q 2706 981 2706 1516 
L 2706 3494 
L 3284 3494 
L 3284 0 
L 2706 0 
L 2706 525 
Q 2553 222 2289 65 
Q 2025 -91 1672 -91 
Q 1134 -91 871 261 
Q 609 613 609 1325 
z
" transform="scale(0.015625)"/>
      <path id="DejaVuSansMono-72" d="M 3609 2778 
Q 3425 2922 3234 2987 
Q 3044 3053 2816 3053 
Q 2278 3053 1993 2715 
Q 1709 2378 1709 1741 
L 1709 0 
L 1131 0 
L 1131 3500 
L 1709 3500 
L 1709 2816 
Q 1853 3188 2151 3386 
Q 2450 3584 2859 3584 
Q 3072 3584 3256 3531 
Q 3441 3478 3609 3366 
L 3609 2778 
z
" transform="scale(0.015625)"/>
      <path id="DejaVuSansMono-6e" d="M 3284 2169 
L 3284 0 
L 2706 0 
L 2706 2169 
Q 2706 2641 2540 2862 
Q 2375 3084 2022 3084 
Q 1619 3084 1401 2798 
Q 1184 2513 1184 1978 
L 1184 0 
L 609 0 
L 609 3500 
L 1184 3500 
L 1184 2975 
Q 1338 3275 1600 3429 
Q 1863 3584 2222 3584 
Q 2756 3584 3020 3232 
Q 3284 2881 3284 2169 
z
" transform="scale(0.015625)"/>
      <path id="DejaVuSansMono-3b3" d="M 688 2613 
Q 547 3006 253 3006 
L 100 3006 
L 100 3500 
L 319 3500 
Q 925 3500 1128 2950 
L 1925 809 
L 2944 3500 
L 3541 3500 
L 2225 0 
L 2225 -1331 
L 1631 -1331 
L 1631 0 
L 688 2613 
z
" transform="scale(0.015625)"/>
      <path id="DejaVuSansMono-67" d="M 2681 1778 
Q 2681 2425 2470 2761 
Q 2259 3097 1856 3097 
Q 1434 3097 1212 2761 
Q 991 2425 991 1778 
Q 991 1131 1214 792 
Q 1438 453 1863 453 
Q 2259 453 2470 793 
Q 2681 1134 2681 1778 
z
M 3256 225 
Q 3256 -563 2884 -969 
Q 2513 -1375 1791 -1375 
Q 1553 -1375 1293 -1331 
Q 1034 -1288 775 -1203 
L 775 -634 
Q 1081 -778 1331 -847 
Q 1581 -916 1791 -916 
Q 2256 -916 2468 -662 
Q 2681 -409 2681 141 
L 2681 166 
L 2681 556 
Q 2544 263 2306 119 
Q 2069 -25 1728 -25 
Q 1116 -25 750 465 
Q 384 956 384 1778 
Q 384 2603 750 3093 
Q 1116 3584 1728 3584 
Q 2066 3584 2300 3450 
Q 2534 3316 2681 3034 
L 2681 3488 
L 3256 3488 
L 3256 225 
z
" transform="scale(0.015625)"/>
      <path id="DejaVuSansMono-3a3" d="M 2456 2334 
L 1034 531 
L 3541 531 
L 3541 0 
L 375 0 
L 375 531 
L 1794 2334 
L 375 4134 
L 375 4666 
L 3541 4666 
L 3541 4134 
L 1034 4134 
L 2456 2334 
z
" transform="scale(0.015625)"/>
     </defs>
     <use xlink:href="#DejaVuSansMono-20"/>
     <use xlink:href="#DejaVuSansMono-23" transform="translate(60.205078 0)"/>
     <use xlink:href="#DejaVuSansMono-20" transform="translate(120.410156 0)"/>
     <use xlink:href="#DejaVuSansMono-20" transform="translate(180.615234 0)"/>
     <use xlink:href="#DejaVuSansMono-63" transform="translate(240.820312 0)"/>
     <use xlink:href="#DejaVuSansMono-65" transform="translate(301.025391 0)"/>
     <use xlink:href="#DejaVuSansMono-6c" transform="translate(361.230469 0)"/>
     <use xlink:href="#DejaVuSansMono-6c" transform="translate(421.435547 0)"/>
     <use xlink:href="#DejaVuSansMono-20" transform="translate(481.640625 0)"/>
     <use xlink:href="#DejaVuSansMono-20" transform="translate(541.845703 0)"/>
     <use xlink:href="#DejaVuSansMono-20" transform="translate(602.050781 0)"/>
     <use xlink:href="#DejaVuSansMono-20" transform="translate(662.255859 0)"/>
     <use xlink:href="#DejaVuSansMono-3c3" transform="translate(722.460938 0)"/>
     <use xlink:href="#DejaVuSansMono-20" transform="translate(782.666016 0)"/>
     <use xlink:href="#DejaVuSansMono-20" transform="translate(842.871094 0)"/>
     <use xlink:href="#DejaVuSansMono-74" transform="translate(903.076172 0)"/>
     <use xlink:href="#DejaVuSansMono-75" transform="translate(963.28125 0)"/>
     <use xlink:href="#DejaVuSansMono-72" transform="translate(1023.486328 0)"/>
     <use xlink:href="#DejaVuSansMono-6e" transform="translate(1083.691406 0)"/>
     <use xlink:href="#DejaVuSansMono-20" transform="translate(1143.896484 0)"/>
     <use xlink:href="#DejaVuSansMono-20" transform="translate(1204.101562 0)"/>
     <use xlink:href="#DejaVuSansMono-3b3" transform="translate(1264.306641 0)"/>
     <use xlink:href="#DejaVuSansMono-20" transform="translate(1324.511719 0)"/>
     <use xlink:href="#DejaVuSansMono-20" transform="translate(1384.716797 0)"/>
     <use xlink:href="#DejaVuSansMono-20" transform="translate(1444.921875 0)"/>
     <use xlink:href="#DejaVuSansMono-20" transform="translate(1505.126953 0)"/>
     <use xlink:href="#DejaVuSansMono-20" transform="translate(1565.332031 0)"/>
     <use xlink:href="#DejaVuSansMono-67" transform="translate(1625.537109 0)"/>
     <use xlink:href="#DejaVuSansMono-20" transform="translate(1685.742188 0)"/>
     <use xlink:href="#DejaVuSansMono-20" transform="translate(1745.947266 0)"/>
     <use xlink:href="#DejaVuSansMono-20" transform="translate(1806.152344 0)"/>
     <use xlink:href="#DejaVuSansMono-20" transform="translate(1866.357422 0)"/>
     <use xlink:href="#DejaVuSansMono-20" transform="translate(1926.5625 0)"/>
     <use xlink:href="#DejaVuSansMono-3a3" transform="translate(1986.767578 0)"/>
     <use xlink:href="#DejaVuSansMono-67" transform="translate(2046.972656 0)"/>
    </g>
   </g>
   <g id="text_20">
    <!--  ───────────────────────────────── -->
    <g style="fill: #222222" transform="translate(281.753204 44.908761) scale(0.082 -0.082)">
     <defs>
      <path id="DejaVuSansMono-2500" d="M -63 1931 
L -63 2469 
L 3916 2469 
L 3916 1931 
L -63 1931 
z
" transform="scale(0.015625)"/>
     </defs>
     <use xlink:href="#DejaVuSansMono-20"/>
     <use xlink:href="#DejaVuSansMono-2500" transform="translate(60.205078 0)"/>
     <use xlink:href="#DejaVuSansMono-2500" transform="translate(120.410156 0)"/>
     <use xlink:href="#DejaVuSansMono-2500" transform="translate(180.615234 0)"/>
     <use xlink:href="#DejaVuSansMono-2500" transform="translate(240.820312 0)"/>
     <use xlink:href="#DejaVuSansMono-2500" transform="translate(301.025391 0)"/>
     <use xlink:href="#DejaVuSansMono-2500" transform="translate(361.230469 0)"/>
     <use xlink:href="#DejaVuSansMono-2500" transform="translate(421.435547 0)"/>
     <use xlink:href="#DejaVuSansMono-2500" transform="translate(481.640625 0)"/>
     <use xlink:href="#DejaVuSansMono-2500" transform="translate(541.845703 0)"/>
     <use xlink:href="#DejaVuSansMono-2500" transform="translate(602.050781 0)"/>
     <use xlink:href="#DejaVuSansMono-2500" transform="translate(662.255859 0)"/>
     <use xlink:href="#DejaVuSansMono-2500" transform="translate(722.460938 0)"/>
     <use xlink:href="#DejaVuSansMono-2500" transform="translate(782.666016 0)"/>
     <use xlink:href="#DejaVuSansMono-2500" transform="translate(842.871094 0)"/>
     <use xlink:href="#DejaVuSansMono-2500" transform="translate(903.076172 0)"/>
     <use xlink:href="#DejaVuSansMono-2500" transform="translate(963.28125 0)"/>
     <use xlink:href="#DejaVuSansMono-2500" transform="translate(1023.486328 0)"/>
     <use xlink:href="#DejaVuSansMono-2500" transform="translate(1083.691406 0)"/>
     <use xlink:href="#DejaVuSansMono-2500" transform="translate(1143.896484 0)"/>
     <use xlink:href="#DejaVuSansMono-2500" transform="translate(1204.101562 0)"/>
     <use xlink:href="#DejaVuSansMono-2500" transform="translate(1264.306641 0)"/>
     <use xlink:href="#DejaVuSansMono-2500" transform="translate(1324.511719 0)"/>
     <use xlink:href="#DejaVuSansMono-2500" transform="translate(1384.716797 0)"/>
     <use xlink:href="#DejaVuSansMono-2500" transform="translate(1444.921875 0)"/>
     <use xlink:href="#DejaVuSansMono-2500" transform="translate(1505.126953 0)"/>
     <use xlink:href="#DejaVuSansMono-2500" transform="translate(1565.332031 0)"/>
     <use xlink:href="#DejaVuSansMono-2500" transform="translate(1625.537109 0)"/>
     <use xlink:href="#DejaVuSansMono-2500" transform="translate(1685.742188 0)"/>
     <use xlink:href="#DejaVuSansMono-2500" transform="translate(1745.947266 0)"/>
     <use xlink:href="#DejaVuSansMono-2500" transform="translate(1806.152344 0)"/>
     <use xlink:href="#DejaVuSansMono-2500" transform="translate(1866.357422 0)"/>
     <use xlink:href="#DejaVuSansMono-2500" transform="translate(1926.5625 0)"/>
     <use xlink:href="#DejaVuSansMono-2500" transform="translate(1986.767578 0)"/>
    </g>
   </g>
   <g id="text_21">
    <!--  1  (3, 0) -1   L  +180  -180   -180 -->
    <g style="fill: #222222" transform="translate(281.753204 55.386921) scale(0.082 -0.082)">
     <defs>
      <path id="DejaVuSansMono-31" d="M 844 531 
L 1825 531 
L 1825 4097 
L 769 3859 
L 769 4434 
L 1819 4666 
L 2450 4666 
L 2450 531 
L 3419 531 
L 3419 0 
L 844 0 
L 844 531 
z
" transform="scale(0.015625)"/>
      <path id="DejaVuSansMono-28" d="M 2766 4856 
Q 2350 4144 2145 3436 
Q 1941 2728 1941 2009 
Q 1941 1294 2145 584 
Q 2350 -125 2766 -844 
L 2266 -844 
Q 1794 -100 1562 604 
Q 1331 1309 1331 2009 
Q 1331 2706 1562 3412 
Q 1794 4119 2266 4856 
L 2766 4856 
z
" transform="scale(0.015625)"/>
      <path id="DejaVuSansMono-33" d="M 2425 2497 
Q 2884 2375 3128 2064 
Q 3372 1753 3372 1288 
Q 3372 644 2939 276 
Q 2506 -91 1741 -91 
Q 1419 -91 1084 -31 
Q 750 28 428 141 
L 428 769 
Q 747 603 1056 522 
Q 1366 441 1672 441 
Q 2191 441 2469 675 
Q 2747 909 2747 1350 
Q 2747 1756 2469 1995 
Q 2191 2234 1716 2234 
L 1234 2234 
L 1234 2753 
L 1716 2753 
Q 2150 2753 2394 2943 
Q 2638 3134 2638 3475 
Q 2638 3834 2411 4026 
Q 2184 4219 1766 4219 
Q 1488 4219 1191 4156 
Q 894 4094 569 3969 
L 569 4550 
Q 947 4650 1242 4700 
Q 1538 4750 1766 4750 
Q 2447 4750 2855 4408 
Q 3263 4066 3263 3500 
Q 3263 3116 3048 2859 
Q 2834 2603 2425 2497 
z
" transform="scale(0.015625)"/>
      <path id="DejaVuSansMono-2c" d="M 1569 947 
L 2356 947 
L 2356 300 
L 1741 -897 
L 1259 -897 
L 1569 300 
L 1569 947 
z
" transform="scale(0.015625)"/>
      <path id="DejaVuSansMono-30" d="M 1509 2344 
Q 1509 2516 1629 2641 
Q 1750 2766 1919 2766 
Q 2094 2766 2219 2641 
Q 2344 2516 2344 2344 
Q 2344 2169 2220 2047 
Q 2097 1925 1919 1925 
Q 1744 1925 1626 2044 
Q 1509 2163 1509 2344 
z
M 1925 4250 
Q 1484 4250 1267 3775 
Q 1050 3300 1050 2328 
Q 1050 1359 1267 884 
Q 1484 409 1925 409 
Q 2369 409 2586 884 
Q 2803 1359 2803 2328 
Q 2803 3300 2586 3775 
Q 2369 4250 1925 4250 
z
M 1925 4750 
Q 2672 4750 3055 4137 
Q 3438 3525 3438 2328 
Q 3438 1134 3055 521 
Q 2672 -91 1925 -91 
Q 1178 -91 797 521 
Q 416 1134 416 2328 
Q 416 3525 797 4137 
Q 1178 4750 1925 4750 
z
" transform="scale(0.015625)"/>
      <path id="DejaVuSansMono-29" d="M 1088 4856 
L 1588 4856 
Q 2059 4119 2290 3412 
Q 2522 2706 2522 2009 
Q 2522 1306 2290 600 
Q 2059 -106 1588 -844 
L 1088 -844 
Q 1503 -119 1708 590 
Q 1913 1300 1913 2009 
Q 1913 2722 1708 3431 
Q 1503 4141 1088 4856 
z
" transform="scale(0.015625)"/>
      <path id="DejaVuSansMono-2d" d="M 1113 2009 
L 2741 2009 
L 2741 1497 
L 1113 1497 
L 1113 2009 
z
" transform="scale(0.015625)"/>
      <path id="DejaVuSansMono-4c" d="M 672 4666 
L 1306 4666 
L 1306 531 
L 3559 531 
L 3559 0 
L 672 0 
L 672 4666 
z
" transform="scale(0.015625)"/>
      <path id="DejaVuSansMono-2b" d="M 2188 3659 
L 2188 2272 
L 3578 2272 
L 3578 1741 
L 2188 1741 
L 2188 353 
L 1663 353 
L 1663 1741 
L 275 1741 
L 275 2272 
L 1663 2272 
L 1663 3659 
L 2188 3659 
z
" transform="scale(0.015625)"/>
      <path id="DejaVuSansMono-38" d="M 1925 2216 
Q 1503 2216 1273 1980 
Q 1044 1744 1044 1313 
Q 1044 881 1276 642 
Q 1509 403 1925 403 
Q 2350 403 2579 639 
Q 2809 875 2809 1313 
Q 2809 1741 2576 1978 
Q 2344 2216 1925 2216 
z
M 1375 2478 
Q 972 2581 745 2862 
Q 519 3144 519 3541 
Q 519 4097 897 4423 
Q 1275 4750 1925 4750 
Q 2578 4750 2956 4423 
Q 3334 4097 3334 3541 
Q 3334 3144 3107 2862 
Q 2881 2581 2478 2478 
Q 2947 2375 3195 2062 
Q 3444 1750 3444 1253 
Q 3444 622 3041 265 
Q 2638 -91 1925 -91 
Q 1213 -91 811 264 
Q 409 619 409 1247 
Q 409 1747 657 2061 
Q 906 2375 1375 2478 
z
M 1147 3481 
Q 1147 3106 1347 2909 
Q 1547 2713 1925 2713 
Q 2306 2713 2506 2909 
Q 2706 3106 2706 3481 
Q 2706 3863 2507 4063 
Q 2309 4263 1925 4263 
Q 1547 4263 1347 4061 
Q 1147 3859 1147 3481 
z
" transform="scale(0.015625)"/>
     </defs>
     <use xlink:href="#DejaVuSansMono-20"/>
     <use xlink:href="#DejaVuSansMono-31" transform="translate(60.205078 0)"/>
     <use xlink:href="#DejaVuSansMono-20" transform="translate(120.410156 0)"/>
     <use xlink:href="#DejaVuSansMono-20" transform="translate(180.615234 0)"/>
     <use xlink:href="#DejaVuSansMono-28" transform="translate(240.820312 0)"/>
     <use xlink:href="#DejaVuSansMono-33" transform="translate(301.025391 0)"/>
     <use xlink:href="#DejaVuSansMono-2c" transform="translate(361.230469 0)"/>
     <use xlink:href="#DejaVuSansMono-20" transform="translate(421.435547 0)"/>
     <use xlink:href="#DejaVuSansMono-30" transform="translate(481.640625 0)"/>
     <use xlink:href="#DejaVuSansMono-29" transform="translate(541.845703 0)"/>
     <use xlink:href="#DejaVuSansMono-20" transform="translate(602.050781 0)"/>
     <use xlink:href="#DejaVuSansMono-2d" transform="translate(662.255859 0)"/>
     <use xlink:href="#DejaVuSansMono-31" transform="translate(722.460938 0)"/>
     <use xlink:href="#DejaVuSansMono-20" transform="translate(782.666016 0)"/>
     <use xlink:href="#DejaVuSansMono-20" transform="translate(842.871094 0)"/>
     <use xlink:href="#DejaVuSansMono-20" transform="translate(903.076172 0)"/>
     <use xlink:href="#DejaVuSansMono-4c" transform="translate(963.28125 0)"/>
     <use xlink:href="#DejaVuSansMono-20" transform="translate(1023.486328 0)"/>
     <use xlink:href="#DejaVuSansMono-20" transform="translate(1083.691406 0)"/>
     <use xlink:href="#DejaVuSansMono-2b" transform="translate(1143.896484 0)"/>
     <use xlink:href="#DejaVuSansMono-31" transform="translate(1204.101562 0)"/>
     <use xlink:href="#DejaVuSansMono-38" transform="translate(1264.306641 0)"/>
     <use xlink:href="#DejaVuSansMono-30" transform="translate(1324.511719 0)"/>
     <use xlink:href="#DejaVuSansMono-20" transform="translate(1384.716797 0)"/>
     <use xlink:href="#DejaVuSansMono-20" transform="translate(1444.921875 0)"/>
     <use xlink:href="#DejaVuSansMono-2d" transform="translate(1505.126953 0)"/>
     <use xlink:href="#DejaVuSansMono-31" transform="translate(1565.332031 0)"/>
     <use xlink:href="#DejaVuSansMono-38" transform="translate(1625.537109 0)"/>
     <use xlink:href="#DejaVuSansMono-30" transform="translate(1685.742188 0)"/>
     <use xlink:href="#DejaVuSansMono-20" transform="translate(1745.947266 0)"/>
     <use xlink:href="#DejaVuSansMono-20" transform="translate(1806.152344 0)"/>
     <use xlink:href="#DejaVuSansMono-20" transform="translate(1866.357422 0)"/>
     <use xlink:href="#DejaVuSansMono-2d" transform="translate(1926.5625 0)"/>
     <use xlink:href="#DejaVuSansMono-31" transform="translate(1986.767578 0)"/>
     <use xlink:href="#DejaVuSansMono-38" transform="translate(2046.972656 0)"/>
     <use xlink:href="#DejaVuSansMono-30" transform="translate(2107.177734 0)"/>
    </g>
   </g>
   <g id="text_22">
    <!--  2  (3, 1) +1   L  +180  +180     +0 -->
    <g style="fill: #222222" transform="translate(281.753204 65.865081) scale(0.082 -0.082)">
     <defs>
      <path id="DejaVuSansMono-32" d="M 1166 531 
L 3309 531 
L 3309 0 
L 475 0 
L 475 531 
Q 1059 1147 1496 1619 
Q 1934 2091 2100 2284 
Q 2413 2666 2522 2902 
Q 2631 3138 2631 3384 
Q 2631 3775 2401 3997 
Q 2172 4219 1772 4219 
Q 1488 4219 1175 4116 
Q 863 4013 513 3803 
L 513 4441 
Q 834 4594 1145 4672 
Q 1456 4750 1759 4750 
Q 2444 4750 2861 4386 
Q 3278 4022 3278 3431 
Q 3278 3131 3139 2831 
Q 3000 2531 2688 2169 
Q 2513 1966 2180 1606 
Q 1847 1247 1166 531 
z
" transform="scale(0.015625)"/>
     </defs>
     <use xlink:href="#DejaVuSansMono-20"/>
     <use xlink:href="#DejaVuSansMono-32" transform="translate(60.205078 0)"/>
     <use xlink:href="#DejaVuSansMono-20" transform="translate(120.410156 0)"/>
     <use xlink:href="#DejaVuSansMono-20" transform="translate(180.615234 0)"/>
     <use xlink:href="#DejaVuSansMono-28" transform="translate(240.820312 0)"/>
     <use xlink:href="#DejaVuSansMono-33" transform="translate(301.025391 0)"/>
     <use xlink:href="#DejaVuSansMono-2c" transform="translate(361.230469 0)"/>
     <use xlink:href="#DejaVuSansMono-20" transform="translate(421.435547 0)"/>
     <use xlink:href="#DejaVuSansMono-31" transform="translate(481.640625 0)"/>
     <use xlink:href="#DejaVuSansMono-29" transform="translate(541.845703 0)"/>
     <use xlink:href="#DejaVuSansMono-20" transform="translate(602.050781 0)"/>
     <use xlink:href="#DejaVuSansMono-2b" transform="translate(662.255859 0)"/>
     <use xlink:href="#DejaVuSansMono-31" transform="translate(722.460938 0)"/>
     <use xlink:href="#DejaVuSansMono-20" transform="translate(782.666016 0)"/>
     <use xlink:href="#DejaVuSansMono-20" transform="translate(842.871094 0)"/>
     <use xlink:href="#DejaVuSansMono-20" transform="translate(903.076172 0)"/>
     <use xlink:href="#DejaVuSansMono-4c" transform="translate(963.28125 0)"/>
     <use xlink:href="#DejaVuSansMono-20" transform="translate(1023.486328 0)"/>
     <use xlink:href="#DejaVuSansMono-20" transform="translate(1083.691406 0)"/>
     <use xlink:href="#DejaVuSansMono-2b" transform="translate(1143.896484 0)"/>
     <use xlink:href="#DejaVuSansMono-31" transform="translate(1204.101562 0)"/>
     <use xlink:href="#DejaVuSansMono-38" transform="translate(1264.306641 0)"/>
     <use xlink:href="#DejaVuSansMono-30" transform="translate(1324.511719 0)"/>
     <use xlink:href="#DejaVuSansMono-20" transform="translate(1384.716797 0)"/>
     <use xlink:href="#DejaVuSansMono-20" transform="translate(1444.921875 0)"/>
     <use xlink:href="#DejaVuSansMono-2b" transform="translate(1505.126953 0)"/>
     <use xlink:href="#DejaVuSansMono-31" transform="translate(1565.332031 0)"/>
     <use xlink:href="#DejaVuSansMono-38" transform="translate(1625.537109 0)"/>
     <use xlink:href="#DejaVuSansMono-30" transform="translate(1685.742188 0)"/>
     <use xlink:href="#DejaVuSansMono-20" transform="translate(1745.947266 0)"/>
     <use xlink:href="#DejaVuSansMono-20" transform="translate(1806.152344 0)"/>
     <use xlink:href="#DejaVuSansMono-20" transform="translate(1866.357422 0)"/>
     <use xlink:href="#DejaVuSansMono-20" transform="translate(1926.5625 0)"/>
     <use xlink:href="#DejaVuSansMono-20" transform="translate(1986.767578 0)"/>
     <use xlink:href="#DejaVuSansMono-2b" transform="translate(2046.972656 0)"/>
     <use xlink:href="#DejaVuSansMono-30" transform="translate(2107.177734 0)"/>
    </g>
   </g>
   <g id="text_23">
    <!--  3  (0, 1) -1   L  +180  -180   -180 -->
    <g style="fill: #222222" transform="translate(281.753204 76.343241) scale(0.082 -0.082)">
     <use xlink:href="#DejaVuSansMono-20"/>
     <use xlink:href="#DejaVuSansMono-33" transform="translate(60.205078 0)"/>
     <use xlink:href="#DejaVuSansMono-20" transform="translate(120.410156 0)"/>
     <use xlink:href="#DejaVuSansMono-20" transform="translate(180.615234 0)"/>
     <use xlink:href="#DejaVuSansMono-28" transform="translate(240.820312 0)"/>
     <use xlink:href="#DejaVuSansMono-30" transform="translate(301.025391 0)"/>
     <use xlink:href="#DejaVuSansMono-2c" transform="translate(361.230469 0)"/>
     <use xlink:href="#DejaVuSansMono-20" transform="translate(421.435547 0)"/>
     <use xlink:href="#DejaVuSansMono-31" transform="translate(481.640625 0)"/>
     <use xlink:href="#DejaVuSansMono-29" transform="translate(541.845703 0)"/>
     <use xlink:href="#DejaVuSansMono-20" transform="translate(602.050781 0)"/>
     <use xlink:href="#DejaVuSansMono-2d" transform="translate(662.255859 0)"/>
     <use xlink:href="#DejaVuSansMono-31" transform="translate(722.460938 0)"/>
     <use xlink:href="#DejaVuSansMono-20" transform="translate(782.666016 0)"/>
     <use xlink:href="#DejaVuSansMono-20" transform="translate(842.871094 0)"/>
     <use xlink:href="#DejaVuSansMono-20" transform="translate(903.076172 0)"/>
     <use xlink:href="#DejaVuSansMono-4c" transform="translate(963.28125 0)"/>
     <use xlink:href="#DejaVuSansMono-20" transform="translate(1023.486328 0)"/>
     <use xlink:href="#DejaVuSansMono-20" transform="translate(1083.691406 0)"/>
     <use xlink:href="#DejaVuSansMono-2b" transform="translate(1143.896484 0)"/>
     <use xlink:href="#DejaVuSansMono-31" transform="translate(1204.101562 0)"/>
     <use xlink:href="#DejaVuSansMono-38" transform="translate(1264.306641 0)"/>
     <use xlink:href="#DejaVuSansMono-30" transform="translate(1324.511719 0)"/>
     <use xlink:href="#DejaVuSansMono-20" transform="translate(1384.716797 0)"/>
     <use xlink:href="#DejaVuSansMono-20" transform="translate(1444.921875 0)"/>
     <use xlink:href="#DejaVuSansMono-2d" transform="translate(1505.126953 0)"/>
     <use xlink:href="#DejaVuSansMono-31" transform="translate(1565.332031 0)"/>
     <use xlink:href="#DejaVuSansMono-38" transform="translate(1625.537109 0)"/>
     <use xlink:href="#DejaVuSansMono-30" transform="translate(1685.742188 0)"/>
     <use xlink:href="#DejaVuSansMono-20" transform="translate(1745.947266 0)"/>
     <use xlink:href="#DejaVuSansMono-20" transform="translate(1806.152344 0)"/>
     <use xlink:href="#DejaVuSansMono-20" transform="translate(1866.357422 0)"/>
     <use xlink:href="#DejaVuSansMono-2d" transform="translate(1926.5625 0)"/>
     <use xlink:href="#DejaVuSansMono-31" transform="translate(1986.767578 0)"/>
     <use xlink:href="#DejaVuSansMono-38" transform="translate(2046.972656 0)"/>
     <use xlink:href="#DejaVuSansMono-30" transform="translate(2107.177734 0)"/>
    </g>
   </g>
   <g id="text_24">
    <!--  4  (0, 0) +1   L  +180  +180     +0 -->
    <g style="fill: #222222" transform="translate(281.753204 86.821401) scale(0.082 -0.082)">
     <defs>
      <path id="DejaVuSansMono-34" d="M 2297 4091 
L 825 1625 
L 2297 1625 
L 2297 4091 
z
M 2194 4666 
L 2925 4666 
L 2925 1625 
L 3547 1625 
L 3547 1113 
L 2925 1113 
L 2925 0 
L 2297 0 
L 2297 1113 
L 319 1113 
L 319 1709 
L 2194 4666 
z
" transform="scale(0.015625)"/>
     </defs>
     <use xlink:href="#DejaVuSansMono-20"/>
     <use xlink:href="#DejaVuSansMono-34" transform="translate(60.205078 0)"/>
     <use xlink:href="#DejaVuSansMono-20" transform="translate(120.410156 0)"/>
     <use xlink:href="#DejaVuSansMono-20" transform="translate(180.615234 0)"/>
     <use xlink:href="#DejaVuSansMono-28" transform="translate(240.820312 0)"/>
     <use xlink:href="#DejaVuSansMono-30" transform="translate(301.025391 0)"/>
     <use xlink:href="#DejaVuSansMono-2c" transform="translate(361.230469 0)"/>
     <use xlink:href="#DejaVuSansMono-20" transform="translate(421.435547 0)"/>
     <use xlink:href="#DejaVuSansMono-30" transform="translate(481.640625 0)"/>
     <use xlink:href="#DejaVuSansMono-29" transform="translate(541.845703 0)"/>
     <use xlink:href="#DejaVuSansMono-20" transform="translate(602.050781 0)"/>
     <use xlink:href="#DejaVuSansMono-2b" transform="translate(662.255859 0)"/>
     <use xlink:href="#DejaVuSansMono-31" transform="translate(722.460938 0)"/>
     <use xlink:href="#DejaVuSansMono-20" transform="translate(782.666016 0)"/>
     <use xlink:href="#DejaVuSansMono-20" transform="translate(842.871094 0)"/>
     <use xlink:href="#DejaVuSansMono-20" transform="translate(903.076172 0)"/>
     <use xlink:href="#DejaVuSansMono-4c" transform="translate(963.28125 0)"/>
     <use xlink:href="#DejaVuSansMono-20" transform="translate(1023.486328 0)"/>
     <use xlink:href="#DejaVuSansMono-20" transform="translate(1083.691406 0)"/>
     <use xlink:href="#DejaVuSansMono-2b" transform="translate(1143.896484 0)"/>
     <use xlink:href="#DejaVuSansMono-31" transform="translate(1204.101562 0)"/>
     <use xlink:href="#DejaVuSansMono-38" transform="translate(1264.306641 0)"/>
     <use xlink:href="#DejaVuSansMono-30" transform="translate(1324.511719 0)"/>
     <use xlink:href="#DejaVuSansMono-20" transform="translate(1384.716797 0)"/>
     <use xlink:href="#DejaVuSansMono-20" transform="translate(1444.921875 0)"/>
     <use xlink:href="#DejaVuSansMono-2b" transform="translate(1505.126953 0)"/>
     <use xlink:href="#DejaVuSansMono-31" transform="translate(1565.332031 0)"/>
     <use xlink:href="#DejaVuSansMono-38" transform="translate(1625.537109 0)"/>
     <use xlink:href="#DejaVuSansMono-30" transform="translate(1685.742188 0)"/>
     <use xlink:href="#DejaVuSansMono-20" transform="translate(1745.947266 0)"/>
     <use xlink:href="#DejaVuSansMono-20" transform="translate(1806.152344 0)"/>
     <use xlink:href="#DejaVuSansMono-20" transform="translate(1866.357422 0)"/>
     <use xlink:href="#DejaVuSansMono-20" transform="translate(1926.5625 0)"/>
     <use xlink:href="#DejaVuSansMono-20" transform="translate(1986.767578 0)"/>
     <use xlink:href="#DejaVuSansMono-2b" transform="translate(2046.972656 0)"/>
     <use xlink:href="#DejaVuSansMono-30" transform="translate(2107.177734 0)"/>
    </g>
   </g>
   <g id="text_25">
    <!-- Σg = +0°   Tw = +0 -->
    <g style="fill: #22aa88" transform="translate(281.753204 104.040521) scale(0.11 -0.11)">
     <defs>
      <path id="DejaVuSansMono-Bold-3a3" d="M 1559 2334 
L 306 3856 
L 306 4666 
L 3575 4666 
L 3575 3853 
L 1369 3853 
L 2625 2334 
L 1369 813 
L 3575 813 
L 3575 0 
L 306 0 
L 306 813 
L 1559 2334 
z
" transform="scale(0.015625)"/>
      <path id="DejaVuSansMono-Bold-3d" d="M 275 1663 
L 3578 1663 
L 3578 922 
L 275 922 
L 275 1663 
z
M 275 3084 
L 3578 3084 
L 3578 2350 
L 275 2350 
L 275 3084 
z
" transform="scale(0.015625)"/>
      <path id="DejaVuSansMono-Bold-2b" d="M 2297 3725 
L 2297 2381 
L 3641 2381 
L 3641 1638 
L 2297 1638 
L 2297 288 
L 1556 288 
L 1556 1638 
L 206 1638 
L 206 2381 
L 1556 2381 
L 1556 3725 
L 2297 3725 
z
" transform="scale(0.015625)"/>
      <path id="DejaVuSansMono-Bold-30" d="M 1538 2328 
Q 1538 2494 1650 2606 
Q 1763 2719 1925 2719 
Q 2091 2719 2203 2606 
Q 2316 2494 2316 2328 
Q 2316 2166 2203 2053 
Q 2091 1941 1925 1941 
Q 1763 1941 1650 2052 
Q 1538 2163 1538 2328 
z
M 1925 3969 
Q 1606 3969 1459 3578 
Q 1313 3188 1313 2328 
Q 1313 1472 1459 1081 
Q 1606 691 1925 691 
Q 2247 691 2394 1081 
Q 2541 1472 2541 2328 
Q 2541 3188 2394 3578 
Q 2247 3969 1925 3969 
z
M 384 2328 
Q 384 3541 768 4145 
Q 1153 4750 1925 4750 
Q 2700 4750 3084 4147 
Q 3469 3544 3469 2328 
Q 3469 1116 3084 512 
Q 2700 -91 1925 -91 
Q 1153 -91 768 514 
Q 384 1119 384 2328 
z
" transform="scale(0.015625)"/>
      <path id="DejaVuSansMono-Bold-b0" d="M 1925 4750 
Q 2134 4750 2325 4670 
Q 2516 4591 2663 4441 
Q 2809 4294 2886 4106 
Q 2963 3919 2963 3706 
Q 2963 3500 2884 3309 
Q 2806 3119 2663 2975 
Q 2513 2828 2322 2748 
Q 2131 2669 1919 2669 
Q 1478 2669 1181 2966 
Q 884 3263 884 3706 
Q 884 4147 1184 4448 
Q 1484 4750 1925 4750 
z
M 1925 4244 
Q 1700 4244 1544 4087 
Q 1388 3931 1388 3706 
Q 1388 3481 1541 3328 
Q 1694 3175 1919 3175 
Q 2144 3175 2300 3329 
Q 2456 3484 2456 3706 
Q 2456 3931 2301 4087 
Q 2147 4244 1925 4244 
z
" transform="scale(0.015625)"/>
      <path id="DejaVuSansMono-Bold-54" d="M 2388 0 
L 1466 0 
L 1466 3859 
L 281 3859 
L 281 4666 
L 3572 4666 
L 3572 3859 
L 2388 3859 
L 2388 0 
z
" transform="scale(0.015625)"/>
      <path id="DejaVuSansMono-Bold-77" d="M 0 3500 
L 763 3500 
L 1178 819 
L 1556 2584 
L 2297 2584 
L 2669 819 
L 3091 3500 
L 3853 3500 
L 3219 0 
L 2350 0 
L 1925 1819 
L 1503 0 
L 634 0 
L 0 3500 
z
" transform="scale(0.015625)"/>
     </defs>
     <use xlink:href="#DejaVuSansMono-Bold-3a3"/>
     <use xlink:href="#DejaVuSansMono-Bold-67" transform="translate(60.205078 0)"/>
     <use xlink:href="#DejaVuSansMono-Bold-20" transform="translate(120.410156 0)"/>
     <use xlink:href="#DejaVuSansMono-Bold-3d" transform="translate(180.615234 0)"/>
     <use xlink:href="#DejaVuSansMono-Bold-20" transform="translate(240.820312 0)"/>
     <use xlink:href="#DejaVuSansMono-Bold-2b" transform="translate(301.025391 0)"/>
     <use xlink:href="#DejaVuSansMono-Bold-30" transform="translate(361.230469 0)"/>
     <use xlink:href="#DejaVuSansMono-Bold-b0" transform="translate(421.435547 0)"/>
     <use xlink:href="#DejaVuSansMono-Bold-20" transform="translate(481.640625 0)"/>
     <use xlink:href="#DejaVuSansMono-Bold-20" transform="translate(541.845703 0)"/>
     <use xlink:href="#DejaVuSansMono-Bold-20" transform="translate(602.050781 0)"/>
     <use xlink:href="#DejaVuSansMono-Bold-54" transform="translate(662.255859 0)"/>
     <use xlink:href="#DejaVuSansMono-Bold-77" transform="translate(722.460938 0)"/>
     <use xlink:href="#DejaVuSansMono-Bold-20" transform="translate(782.666016 0)"/>
     <use xlink:href="#DejaVuSansMono-Bold-3d" transform="translate(842.871094 0)"/>
     <use xlink:href="#DejaVuSansMono-Bold-20" transform="translate(903.076172 0)"/>
     <use xlink:href="#DejaVuSansMono-Bold-2b" transform="translate(963.28125 0)"/>
     <use xlink:href="#DejaVuSansMono-Bold-30" transform="translate(1023.486328 0)"/>
    </g>
    <!-- ✓ foldable (Tw=0) -->
    <g style="fill: #22aa88" transform="translate(281.753204 116.358115) scale(0.11 -0.11)">
     <defs>
      <path id="DejaVuSansMono-Bold-2713" d="M 875 1850 
Q 981 1850 1038 1675 
Q 1147 1344 1194 1344 
Q 1231 1344 1269 1400 
Q 2034 2631 2691 3391 
Q 2859 3588 3228 3588 
Q 3316 3588 3345 3572 
Q 3375 3556 3375 3531 
Q 3375 3491 3284 3381 
Q 2228 2113 1328 700 
Q 1266 600 1072 600 
Q 875 600 838 619 
Q 744 659 619 1038 
Q 478 1456 478 1563 
Q 478 1675 669 1781 
Q 784 1850 875 1850 
z
" transform="scale(0.015625)"/>
      <path id="DejaVuSansMono-Bold-66" d="M 2309 3806 
L 2309 3500 
L 3384 3500 
L 3384 2797 
L 2309 2797 
L 2309 0 
L 1394 0 
L 1394 2797 
L 544 2797 
L 544 3500 
L 1394 3500 
L 1394 3744 
Q 1394 4375 1656 4619 
Q 1919 4863 2631 4863 
L 3384 4863 
L 3384 4159 
L 2669 4159 
Q 2463 4159 2389 4084 
Q 2316 4009 2309 3806 
z
" transform="scale(0.015625)"/>
      <path id="DejaVuSansMono-Bold-61" d="M 2188 1644 
Q 1675 1644 1472 1512 
Q 1269 1381 1269 1063 
Q 1269 825 1409 684 
Q 1550 544 1791 544 
Q 2153 544 2353 817 
Q 2553 1091 2553 1581 
L 2553 1644 
L 2188 1644 
z
M 3463 1997 
L 3463 0 
L 2553 0 
L 2553 391 
Q 2388 159 2128 34 
Q 1869 -91 1556 -91 
Q 959 -91 626 225 
Q 294 541 294 1106 
Q 294 1719 691 2011 
Q 1088 2303 1919 2303 
L 2553 2303 
L 2553 2456 
Q 2553 2678 2392 2792 
Q 2231 2906 1919 2906 
Q 1591 2906 1283 2823 
Q 975 2741 641 2559 
L 641 3341 
Q 944 3466 1256 3525 
Q 1569 3584 1919 3584 
Q 2772 3584 3117 3237 
Q 3463 2891 3463 1997 
z
" transform="scale(0.015625)"/>
      <path id="DejaVuSansMono-Bold-62" d="M 2656 1741 
Q 2656 2247 2487 2534 
Q 2319 2822 2022 2822 
Q 1725 2822 1553 2534 
Q 1381 2247 1381 1741 
Q 1381 1234 1553 946 
Q 1725 659 2022 659 
Q 2319 659 2487 946 
Q 2656 1234 2656 1741 
z
M 1381 3003 
Q 1550 3294 1773 3439 
Q 1997 3584 2278 3584 
Q 2900 3584 3236 3109 
Q 3572 2634 3572 1747 
Q 3572 872 3240 390 
Q 2909 -91 2309 -91 
Q 1994 -91 1759 62 
Q 1525 216 1381 519 
L 1381 0 
L 469 0 
L 469 4863 
L 1381 4863 
L 1381 3003 
z
" transform="scale(0.015625)"/>
      <path id="DejaVuSansMono-Bold-28" d="M 2888 4856 
Q 2475 4109 2275 3409 
Q 2075 2709 2075 2009 
Q 2075 1316 2275 611 
Q 2475 -94 2888 -844 
L 2175 -844 
Q 1678 -122 1437 579 
Q 1197 1281 1197 2009 
Q 1197 2734 1439 3439 
Q 1681 4144 2175 4856 
L 2888 4856 
z
" transform="scale(0.015625)"/>
      <path id="DejaVuSansMono-Bold-29" d="M 966 4856 
L 1678 4856 
Q 2172 4144 2414 3439 
Q 2656 2734 2656 2009 
Q 2656 1281 2415 579 
Q 2175 -122 1678 -844 
L 966 -844 
Q 1378 -94 1578 611 
Q 1778 1316 1778 2009 
Q 1778 2709 1578 3409 
Q 1378 4109 966 4856 
z
" transform="scale(0.015625)"/>
     </defs>
     <use xlink:href="#DejaVuSansMono-Bold-2713"/>
     <use xlink:href="#DejaVuSansMono-Bold-20" transform="translate(60.205078 0)"/>
     <use xlink:href="#DejaVuSansMono-Bold-66" transform="translate(120.410156 0)"/>
     <use xlink:href="#DejaVuSansMono-Bold-6f" transform="translate(180.615234 0)"/>
     <use xlink:href="#DejaVuSansMono-Bold-6c" transform="translate(240.820312 0)"/>
     <use xlink:href="#DejaVuSansMono-Bold-64" transform="translate(301.025391 0)"/>
     <use xlink:href="#DejaVuSansMono-Bold-61" transform="translate(361.230469 0)"/>
     <use xlink:href="#DejaVuSansMono-Bold-62" transform="translate(421.435547 0)"/>
     <use xlink:href="#DejaVuSansMono-Bold-6c" transform="translate(481.640625 0)"/>
     <use xlink:href="#DejaVuSansMono-Bold-65" transform="translate(541.845703 0)"/>
     <use xlink:href="#DejaVuSansMono-Bold-20" transform="translate(602.050781 0)"/>
     <use xlink:href="#DejaVuSansMono-Bold-28" transform="translate(662.255859 0)"/>
     <use xlink:href="#DejaVuSansMono-Bold-54" transform="translate(722.460938 0)"/>
     <use xlink:href="#DejaVuSansMono-Bold-77" transform="translate(782.666016 0)"/>
     <use xlink:href="#DejaVuSansMono-Bold-3d" transform="translate(842.871094 0)"/>
     <use xlink:href="#DejaVuSansMono-Bold-30" transform="translate(903.076172 0)"/>
     <use xlink:href="#DejaVuSansMono-Bold-29" transform="translate(963.28125 0)"/>
    </g>
   </g>
  </g>
 </g>
 <defs>
  <clipPath id="p2aa94d9822">
   <rect x="8.98058" y="52.047214" width="229.045714" height="143.153571"/>
  </clipPath>
 </defs>
</svg>
